<svg xmlns="http://www.w3.org/2000/svg" id="ball" width="21.477" height="22" viewBox="0 0 21.477 22">
    <g id="Group_547" data-name="Group 547">
        <path id="Path_441" fill="#f0b440" d="M18.332 3.222a10.559 10.559 0 0 0-15.187 0 11.19 11.19 0 0 0 0 15.556 10.559 10.559 0 0 0 15.187 0 11.19 11.19 0 0 0 0-15.556zM19.3 14.97a1.674 1.674 0 0 0-.087-.97 1.616 1.616 0 0 0-.984-.932 1.582 1.582 0 0 0-1.962.9A11.516 11.516 0 0 1 15.6 15.3l-.058.1-.026.04a10.948 10.948 0 0 1-6.8 4.968 9.194 9.194 0 0 1-2.357-.887 10.114 10.114 0 0 0 8.174-4.891 2.265 2.265 0 0 0 .134-1.842 2.216 2.216 0 0 0-1.386-1.369 2.163 2.163 0 0 0-1.364-.007.622.622 0 0 1-.11.04 2.146 2.146 0 0 0-1.068.911 5.3 5.3 0 0 1-3.9 2.367h-.008a3.083 3.083 0 0 1-.771 1.951 2.941 2.941 0 0 1-2.1.99 9.671 9.671 0 0 1-1.36-1.858 1.688 1.688 0 0 0 2.535 0 1.784 1.784 0 0 0 .129-2.2 9.23 9.23 0 0 1-1.411-8.15 11.209 11.209 0 0 1 .615-1.629 9.4 9.4 0 0 1 2.614-1.706l-.473.565A9.848 9.848 0 0 0 5.04 5.871a7.861 7.861 0 0 0 1.236 6.987 2.993 2.993 0 0 1 .334.612.619.619 0 0 1 .13-.025 4.1 4.1 0 0 0 2.924-1.753 3.429 3.429 0 0 1 .621-.768l-.169-.074A3.4 3.4 0 0 1 9.08 5.391a2.845 2.845 0 0 1-1.273-1.636 2.912 2.912 0 0 1 .082-1.932 9.143 9.143 0 0 1 2.133-.423 1.513 1.513 0 0 0-.8.59A1.607 1.607 0 0 0 9 3.376a1.533 1.533 0 0 0 1.767 1.084h.022a9.757 9.757 0 0 1 4.636.2 10.334 10.334 0 0 1 3.726 2.04 9.715 9.715 0 0 1 .858 2.689c-3.151-3.877-6.623-4.139-8.984-3.675A2.063 2.063 0 0 0 9.4 7.433a2.088 2.088 0 0 0 1.209 2.237l1.075.472a3.408 3.408 0 0 1 1.982.052 3.476 3.476 0 0 1 2.175 2.148l.026.075a2.793 2.793 0 0 1 2.756-.568 2.853 2.853 0 0 1 1.351.962 9.718 9.718 0 0 1-.674 2.159z" data-name="Path 441"/>
    </g>
</svg>
