<svg xmlns="http://www.w3.org/2000/svg" id="dog" width="23.717" height="21.033" viewBox="0 0 23.717 21.033">
    <defs>
        <style>
            .cls-1{fill:#f0b440}
        </style>
    </defs>
    <g id="Group_536" data-name="Group 536">
        <path id="Path_412" d="M79.573 35.629c1.894 0 3.435-2.118 3.435-4.722s-1.541-4.723-3.435-4.723-3.435 2.119-3.435 4.723 1.541 4.722 3.435 4.722z" class="cls-1" data-name="Path 412" transform="translate(-71.509 -26.184)"/>
        <path id="Path_413" d="M79.644 191.535a1.826 1.826 0 0 1-.174-.271 6.853 6.853 0 0 0-6.285-3.719h-.131a6.734 6.734 0 0 0-6.285 3.641 1.363 1.363 0 0 1-.16.221 2.926 2.926 0 0 0-.226.3 6.3 6.3 0 0 0-1.013 3.568 3.425 3.425 0 0 0 1.43 2.825 2.02 2.02 0 0 0 1.126.347 4.857 4.857 0 0 0 2.437-1.019 12.378 12.378 0 0 1 1.756-.977 3.87 3.87 0 0 1 .838-.061 4.944 4.944 0 0 1 1.059.082 11.516 11.516 0 0 1 1.687 1 4.588 4.588 0 0 0 2.391 1.057 2.009 2.009 0 0 0 1.021-.284c1.786-1.039 2.126-3.891.759-6.357a3.5 3.5 0 0 0-.23-.353z" class="cls-1" data-name="Path 413" transform="translate(-61.392 -177.496)"/>
        <path id="Path_414" d="M199.72 35.629c1.893 0 3.435-2.118 3.435-4.722s-1.541-4.723-3.435-4.723-3.435 2.119-3.435 4.723 1.541 4.722 3.435 4.722z" class="cls-1" data-name="Path 414" transform="translate(-184.352 -26.184)"/>
        <path id="Path_415" d="M303.781 138.918c-1.518 0-2.707 1.613-2.707 3.672s1.189 3.671 2.707 3.671 2.707-1.613 2.707-3.671-1.188-3.672-2.707-3.672z" class="cls-1" data-name="Path 415" transform="translate(-282.771 -131.898)"/>
        <path id="Path_416" d="M5.413 142.59c0-2.059-1.189-3.672-2.707-3.672S0 140.531 0 142.59s1.189 3.671 2.707 3.671 2.706-1.613 2.706-3.671z" class="cls-1" data-name="Path 416" transform="translate(0 -131.898)"/>
    </g>
</svg>
