<svg xmlns="http://www.w3.org/2000/svg" id="headphones" width="23.846" height="21.519" viewBox="0 0 23.846 21.519">
    <g id="Group_548" data-name="Group 548">
        <path id="Path_442" fill="#f0b440" d="M22.025 42.816v-2a10.408 10.408 0 0 0-2.959-7.316 9.933 9.933 0 0 0-14.286 0 10.408 10.408 0 0 0-2.959 7.317v2A1.961 1.961 0 0 0 0 44.791v3.1a1.958 1.958 0 0 0 1.932 1.979h1.116a2.245 2.245 0 0 0 2.214 2.116 2.25 2.25 0 0 0 2.22-2.274V42.97a2.25 2.25 0 0 0-2.22-2.27 2.164 2.164 0 0 0-.646.1 7.406 7.406 0 0 1 7.307-7.466A7.406 7.406 0 0 1 19.23 40.8a2.164 2.164 0 0 0-.646-.1 2.25 2.25 0 0 0-2.22 2.274v6.741a2.218 2.218 0 0 0 4.434.158h1.117a1.958 1.958 0 0 0 1.932-1.979v-3.1a1.961 1.961 0 0 0-1.822-1.978z" data-name="Path 442" transform="translate(0 -30.466)"/>
    </g>
</svg>
