<svg xmlns="http://www.w3.org/2000/svg" id="kid-and-baby" width="24.02" height="24.593" viewBox="0 0 24.02 24.593">
    <path id="Path_435" fill="#f0b440" d="M21.345 17.16v-6.2a11.581 11.581 0 0 1 1.56.893.693.693 0 0 0 .982-.164.732.732 0 0 0-.16-1.006 15.067 15.067 0 0 0-3.135-1.625 23.229 23.229 0 0 0-7.878-1.577c0-2.148.006-2.023-.014-2.125a2.638 2.638 0 0 0 1.89-2.546A2.652 2.652 0 0 0 12.009.119a2.653 2.653 0 0 0-2.58 2.691 2.638 2.638 0 0 0 1.891 2.547c-.02.1-.014-.023-.014 2.125a23.229 23.229 0 0 0-7.878 1.576 15.064 15.064 0 0 0-3.136 1.625.732.732 0 0 0-.16 1.006.693.693 0 0 0 .982.164 11.421 11.421 0 0 1 1.56-.892v4.748a3.809 3.809 0 0 0 1.079 7.428 3.634 3.634 0 0 0 2.663-1.156.73.73 0 0 0-.241-1.169 1.6 1.6 0 0 1 0-2.942.73.73 0 0 0 .241-1.17 3.636 3.636 0 0 0-2.335-1.14v-5.212a21.756 21.756 0 0 1 7.226-1.424c0 .057-.007-.324.071 4.744A2.306 2.306 0 0 0 8.3 15.881a2.365 2.365 0 0 0 .673 1.663l2.627 2.691a.692.692 0 0 0 1 0l2.627-2.691a2.366 2.366 0 0 0 .673-1.663 2.3 2.3 0 0 0-3.111-2.2c-.081-5.2-.072-4.7-.075-4.758a21.893 21.893 0 0 1 7.226 1.422v6.815l-2.466 3.062a.734.734 0 0 0 0 .913l2.627 3.31a.693.693 0 0 0 1.092 0l2.627-3.31a.735.735 0 0 0 0-.913zM10.837 2.81a1.175 1.175 0 1 1 2.346 0 1.173 1.173 0 1 1-2.346 0z" data-name="Path 435" transform="translate(0 -.119)"/>
</svg>
