<svg xmlns="http://www.w3.org/2000/svg" id="library" width="22.147" height="22.61" viewBox="0 0 22.147 22.61">
    <defs>
        <style>
            .cls-1{fill:#f0b440}
        </style>
    </defs>
    <path id="Path_417" d="M432.535 29.49h-2.8a.418.418 0 0 0-.407.427v1.231h3.617v-1.231a.418.418 0 0 0-.41-.427z" class="cls-1" data-name="Path 417" transform="translate(-410.796 -28.225)"/>
    <path id="Path_418" d="M314.7 75.652h-2.8a.418.418 0 0 0-.407.427v2.143h3.617v-2.143a.418.418 0 0 0-.41-.427z" class="cls-1" data-name="Path 418" transform="translate(-298.049 -72.346)"/>
    <path id="Path_419" d="M429.325 101.832h3.617v14.981h-3.617z" class="cls-1" data-name="Path 419" transform="translate(-410.795 -97.368)"/>
    <path id="Path_420" d="M311.493 168.628h3.617v15.193h-3.617z" class="cls-1" data-name="Path 420" transform="translate(-298.048 -161.211)"/>
    <path id="Path_421" d="M429.325 475.5h3.617v1.625h-3.617z" class="cls-1" data-name="Path 421" transform="translate(-410.795 -454.519)"/>
    <path id="Path_422" d="M4.215 97.062H.407a.418.418 0 0 0-.407.427V99.1h4.622v-1.611a.418.418 0 0 0-.407-.427z" class="cls-1" data-name="Path 422" transform="translate(0 -92.809)"/>
    <path id="Path_423" d="M0 178.007h4.622v14.778H0z" class="cls-1" data-name="Path 423" transform="translate(0 -170.175)"/>
    <path id="Path_424" d="M141.12 431.634H147v3.566h-5.88z" class="cls-1" data-name="Path 424" transform="translate(-135.029 -412.589)"/>
    <path id="Path_425" d="M141.12 116.749H147v12.382h-5.88z" class="cls-1" data-name="Path 425" transform="translate(-135.029 -111.626)"/>
    <path id="Path_426" d="M146.6.867h-5.07a.418.418 0 0 0-.407.427V4.45H147V1.294a.418.418 0 0 0-.4-.427z" class="cls-1" data-name="Path 426" transform="translate(-135.029 -.867)"/>
</svg>
