<svg xmlns="http://www.w3.org/2000/svg" id="weight" width="18.403" height="22" viewBox="0 0 18.403 22">
    <defs>
        <style>
            .cls-1{fill:#f0b440}
        </style>
    </defs>
    <g id="Group_544" data-name="Group 544">
        <g id="Group_543" data-name="Group 543">
            <path id="Path_439" d="M51.929 3.882a7.693 7.693 0 0 0 3.03-2.893.669.669 0 0 0 .005-.659.637.637 0 0 0-.556-.33H37.285a.637.637 0 0 0-.556.331.669.669 0 0 0 .005.659 7.692 7.692 0 0 0 3.03 2.892 8.9 8.9 0 0 0 3.646 1.034V6.6h-3.023a2.263 2.263 0 0 0-2.224 2.016l-1.293 10.81a2.334 2.334 0 0 0 .546 1.8 2.219 2.219 0 0 0 1.678.774H52.6a2.219 2.219 0 0 0 1.678-.774 2.334 2.334 0 0 0 .546-1.8l-1.293-10.81A2.263 2.263 0 0 0 51.307 6.6h-3.024V4.916a8.9 8.9 0 0 0 3.646-1.034zM51.09 14.3a5.245 5.245 0 1 1-5.243-5.371A5.314 5.314 0 0 1 51.09 14.3z" class="cls-1" data-name="Path 439" transform="translate(-36.645)"/>
        </g>
    </g>
    <g id="Group_546" data-name="Group 546" transform="translate(5.238 10.24)">
        <g id="Group_545" data-name="Group 545">
            <path id="Path_440" d="M165.477 238.308a4.061 4.061 0 1 0 3.964 4.06 4.017 4.017 0 0 0-3.964-4.06zm.452 4.524l-1.541 1.578a.629.629 0 0 1-.9 0 .667.667 0 0 1 0-.927l1.541-1.578a.629.629 0 0 1 .9 0 .667.667 0 0 1 0 .927z" class="cls-1" data-name="Path 440" transform="translate(-161.513 -238.308)"/>
        </g>
    </g>
</svg>
