<svg xmlns="http://www.w3.org/2000/svg" id="Component_100" width="24" height="24" data-name="Component 100" viewBox="0 0 24 24">
    <g id="location" transform="translate(-.005)">
        <g id="Group_2549" data-name="Group 2549" transform="translate(.005)">
            <path id="Path_993" fill="#172840" d="M12.005 9.14a2.812 2.812 0 1 0-2.812-2.812 2.815 2.815 0 0 0 2.812 2.812zm0-4.219A1.406 1.406 0 1 1 10.6 6.328a1.408 1.408 0 0 1 1.405-1.406zm-.577 11.651a.7.7 0 0 0 1.154 0L17.2 9.94a6.328 6.328 0 1 0-10.392 0zm.577-15.167a4.923 4.923 0 0 1 4.042 7.731l-4.042 5.8-4.042-5.8a4.923 4.923 0 0 1 4.042-7.731zm11.944 21.618l-1.626-3.849a.7.7 0 0 0-.323-.35l-5.452-2.811a.7.7 0 0 0-.714.038L12.005 18.6l-3.829-2.548a.707.707 0 0 0-.724-.034c-.034.019-3.418 1.823-5.426 2.8a.7.7 0 0 0-.341.359L.061 23.023a.7.7 0 0 0 .939.914l5.94-2.666 4.721 2.639a.7.7 0 0 0 .687 0l4.721-2.639 5.942 2.666a.7.7 0 0 0 .937-.915zm-6.623-3.179a.709.709 0 0 0-.633.027l-4.688 2.621-4.688-2.622a.707.707 0 0 0-.343-.089.7.7 0 0 0-.29.062l-4.63 2.073.824-1.951c1.629-.8 3.978-2.03 4.87-2.509l3.867 2.578a.7.7 0 0 0 .78 0l3.873-2.582 4.859 2.5.829 1.961z" data-name="Path 993" transform="translate(-.005)"/>
        </g>
    </g>
</svg>
