<svg xmlns="http://www.w3.org/2000/svg" width="40.8" height="36.128" viewBox="0 0 40.8 36.128">
    <defs>
        <style>
            .cls-1{fill:#4d5a6c}
        </style>
    </defs>
    <g id="upload" transform="translate(0 -24)">
        <g id="Group_2631" data-name="Group 2631" transform="translate(0 24)">
            <g id="Group_2630" data-name="Group 2630">
                <circle id="Ellipse_29" cx="2.803" cy="2.803" r="2.803" class="cls-1" data-name="Ellipse 29" transform="translate(12.575 8.915)"/>
                <path id="Path_1040" d="M38.386 46.035a8.632 8.632 0 0 0-4.827-2.3V29.489a5.6 5.6 0 0 0-1.6-3.893A5.44 5.44 0 0 0 28.069 24H5.489A5.6 5.6 0 0 0 1.6 25.6 5.44 5.44 0 0 0 0 29.489v23.242a5.6 5.6 0 0 0 1.6 3.893 5.44 5.44 0 0 0 3.893 1.6H27.33a8.237 8.237 0 0 0 11.056-12.189zM2.063 29.489a3.259 3.259 0 0 1 1.012-2.375A3.416 3.416 0 0 1 5.489 26.1h22.58a3.456 3.456 0 0 1 3.431 3.428v12.147l-5.762-5.762a1.045 1.045 0 0 0-1.479 0l-8.682 8.721-5.883-5.918a1.045 1.045 0 0 0-1.479 0l-6.152 6.229zM5.45 56.235v-.078a3.416 3.416 0 0 1-2.414-1.012 3.553 3.553 0 0 1-.973-2.414V47.9l6.891-6.93 5.879 5.879a1.083 1.083 0 0 0 1.479 0l8.682-8.721 5.684 5.723-.35.117a3.616 3.616 0 0 0-.506.156c-.156.039-.311.117-.467.156a1.166 1.166 0 0 0-.311.156 3.618 3.618 0 0 0-.389.195l-.584.35c-.117.078-.195.117-.311.195-.078.039-.117.078-.195.117a4.7 4.7 0 0 0-.934.818 8.236 8.236 0 0 0-2.414 5.84 8.559 8.559 0 0 0 .195 1.713c.039.156.078.273.117.428.117.389.234.779.389 1.168v.04a7.141 7.141 0 0 0 .506.934zm31.417 0a6.159 6.159 0 0 1-8.6.078c-.156-.156-.311-.35-.467-.506-.117-.117-.234-.273-.35-.389a3.7 3.7 0 0 1-.389-.662c-.078-.156-.156-.273-.234-.428a3.288 3.288 0 0 1-.195-.662c-.039-.156-.117-.35-.156-.506a6.444 6.444 0 0 1-.117-1.246 6.249 6.249 0 0 1 1.791-4.36 6.019 6.019 0 0 1 4.36-1.791 6.249 6.249 0 0 1 4.36 1.791 6.085 6.085 0 0 1 1.791 4.36 6.227 6.227 0 0 1-1.793 4.321z" class="cls-1" data-name="Path 1040" transform="translate(0 -24)"/>
                <path id="Path_1041" d="M302.785 264.711a1.358 1.358 0 0 0-.35-.234 1.136 1.136 0 0 0-.35-.078h-.078a1.137 1.137 0 0 0-.35.078.919.919 0 0 0-.35.234l-2.414 2.414a1.046 1.046 0 0 0 1.479 1.479l.623-.623v4.282a1.051 1.051 0 0 0 2.1 0v-4.282l.623.623a1.046 1.046 0 0 0 1.479-1.479z" class="cls-1" data-name="Path 1041" transform="translate(-269.538 -241.002)"/>
            </g>
        </g>
    </g>
</svg>
