<svg xmlns="http://www.w3.org/2000/svg" id="Component_99" width="24" height="24" data-name="Component 99" viewBox="0 0 24 24">
    <defs>
        <style>
            .cls-2{fill:#172840}
        </style>
    </defs>
    <g id="login" transform="rotate(180 12 11.85)">
        <g id="Group_2546" data-name="Group 2546">
            <g id="Group_2545" data-name="Group 2545">
                <path id="Path_988" d="M19.293 144.649a.823.823 0 0 1-.823.823H2.8l3.057 3.053a.82.82 0 1 1-1.158 1.163L.24 145.233a.823.823 0 0 1 0-1.163l4.454-4.454a.822.822 0 0 1 1.163 1.163L2.8 143.831h15.67a.819.819 0 0 1 .823.818z" class="cls-2" data-name="Path 988" transform="translate(4.587 -132.941)"/>
                <path id="Path_989" d="M14.914 28.311A4.919 4.919 0 0 1 10 23.393V9.819A4.922 4.922 0 0 1 14.914 4.9h13.574A4.919 4.919 0 0 1 33.4 9.819v2.789a.821.821 0 0 1-1.641 0V9.819a3.281 3.281 0 0 0-3.273-3.277H14.914a3.278 3.278 0 0 0-3.273 3.277v13.574a3.281 3.281 0 0 0 3.273 3.277h13.574a3.278 3.278 0 0 0 3.273-3.277v-2.756a.821.821 0 1 1 1.641 0v2.756a4.922 4.922 0 0 1-4.914 4.919z" class="cls-2" data-name="Path 989" transform="translate(-10 -4.9)"/>
            </g>
        </g>
    </g>
</svg>
