<svg xmlns="http://www.w3.org/2000/svg" id="Component_101" width="24" height="24" data-name="Component 101" viewBox="0 0 24 24">
    <g id="shop" transform="translate(0 -38.25)">
        <g id="Group_2616" data-name="Group 2616" transform="translate(0 40)">
            <path id="Path_994" fill="#172840" d="M23.929 49.149L19.664 40.4a.7.7 0 0 0-.632-.4H4.969a.7.7 0 0 0-.632.4L.072 49.149a.7.7 0 0 0 .549 1.006 9.006 9.006 0 0 0 1.77.036v9.357a.7.7 0 0 0 .7.7h17.816a.7.7 0 0 0 .7-.7v-9.357a9.062 9.062 0 0 0 1.77-.036.7.7 0 0 0 .549-1.006zm-9.6-7.742l2.031 5.765c-2.02 2.2-6.724 2.175-8.722 0l2.032-5.766zM1.8 48.81l3.608-7.4h2.771l-1.961 5.564A5.76 5.76 0 0 1 1.8 48.81zm6.685 10.034H3.8v-2.11h4.685zm5.625 0H9.891v-5.625h4.219zm6.094 0h-4.688v-2.11H20.2zm0-3.516h-4.688v-2.812a.7.7 0 0 0-.7-.7H9.188a.7.7 0 0 0-.7.7v2.813H3.8v-5.362a6.711 6.711 0 0 0 3.047-1.6 8.109 8.109 0 0 0 10.312 0 6.71 6.71 0 0 0 3.047 1.6zm-2.421-8.355l-1.961-5.567h2.771l3.608 7.4a5.758 5.758 0 0 1-4.418-1.833z" data-name="Path 994" transform="translate(0 -40)"/>
        </g>
    </g>
</svg>
