<svg xmlns="http://www.w3.org/2000/svg" width="113.283" height="83.587" viewBox="0 0 113.283 83.587">
    <g id="tick" transform="translate(0 -67.108)">
        <path id="Path_1042" fill="#a5eb78" d="M95.835 67.108l-51.3 51.3a3.541 3.541 0 0 1-5.007 0L17.449 96.323 0 113.772l33.31 33.31a12.338 12.338 0 0 0 8.724 3.614 12.339 12.339 0 0 0 8.724-3.614l62.525-62.525z" data-name="Path 1042"/>
        <g id="Group_2643" data-name="Group 2643" opacity="0.1" transform="translate(34.902 78.786)">
            <path id="Path_1043" d="M230.355 119.888L164.347 185.9a13.507 13.507 0 0 1-6.6 3.627 12.336 12.336 0 0 0 7.132 2.275 12.339 12.339 0 0 0 8.724-3.614l62.525-62.525z" data-name="Path 1043" transform="translate(-157.743 -119.888)"/>
        </g>
    </g>
</svg>
