<svg xmlns="http://www.w3.org/2000/svg" id="Component_104" width="24" height="24" data-name="Component 104" viewBox="0 0 24 24">
    <g id="tax" transform="translate(.7 .644)">
        <path id="Path_1000" d="M19.434 0H2.976A2.98 2.98 0 0 0 0 2.976v12.256a1.577 1.577 0 0 0 1.576 1.576h2.976v4.027a1.577 1.577 0 0 0 1.576 1.575h14.706a1.577 1.577 0 0 0 1.576-1.576V2.976A2.98 2.98 0 0 0 19.434 0zM1.4 15.232V2.976a1.576 1.576 0 0 1 3.151 0v12.43H1.576a.175.175 0 0 1-.176-.174zm19.609 5.6a.175.175 0 0 1-.175.175H6.128a.175.175 0 0 1-.175-.175V2.976A2.958 2.958 0 0 0 5.5 1.4h13.934a1.577 1.577 0 0 1 1.576 1.576z" data-name="Path 1000"/>
        <path id="Path_1001" d="M245.6 128.054a2.8 2.8 0 0 0-2.8-2.8 1.4 1.4 0 1 1 1.381-1.635.7.7 0 1 0 1.381-.231 2.788 2.788 0 0 0-2.062-2.247v-.441a.7.7 0 1 0-1.4 0v.439a2.8 2.8 0 0 0 .7 5.514 1.4 1.4 0 1 1-1.381 1.635.7.7 0 1 0-1.381.231 2.788 2.788 0 0 0 2.062 2.247v.438a.7.7 0 0 0 1.4 0v-.439a2.806 2.806 0 0 0 2.1-2.711z" data-name="Path 1001" transform="translate(-229.495 -114.748)"/>
    </g>
</svg>
