<?xml version="1.0" standalone="no"?>
<!DOCTYPE svg PUBLIC "-//W3C//DTD SVG 1.1//EN" "http://www.w3.org/Graphics/SVG/1.1/DTD/svg11.dtd" >
<svg xmlns="http://www.w3.org/2000/svg" xmlns:xlink="http://www.w3.org/1999/xlink" version="1.1">
<metadata>
Created by FontForge 20170924 at Tue Oct 15 22:17:27 2019
 By www-data
Typeface (c) (HANIFONTS). 2019. All Rights Reserved
</metadata>
<defs>
<font id="HaniArb-SemiBold" horiz-adv-x="0" >
  <font-face 
    font-family="Hanimation Arabic SemiBold"
    font-weight="600"
    font-stretch="normal"
    units-per-em="1000"
    panose-1="2 0 7 3 0 0 0 0 0 0"
    ascent="800"
    descent="-200"
    x-height="498"
    cap-height="630"
    bbox="-213 -426 1377 1030"
    underline-thickness="50"
    underline-position="-100"
    unicode-range="U+001D-FEFC"
  />
<missing-glyph horiz-adv-x="427" 
d="M369 0h-319v630h319v-630zM262 99v433h-105v-433h105z" />
    <glyph glyph-name="uniFDF2" unicode="&#xfedf;&#xfee0;&#xfeea;" horiz-adv-x="945" arabic-form="isolated" 
d="M320 118v226q-23 14 -54 14q-37 0 -61 -25q-37 -41 -37 -97q0 -117 135 -118h17zM730 0h-416q-122 1 -176 42q-98 70 -99 188q0 120 90 191q62 47 141 47q93 0 176 -56v-294h97v512h127v-512h58q50 1 50 78v434h126v-425q0 -80 -35 -135q-45 -70 -139 -70zM549 696
q-72 0 -76 75l-2 60l60 2q1 -30 2.5 -54t17.5 -24q21 0 21 45l-1 35l63 -1q0 -32 1.5 -54t18.5 -22q16 0 16 30q0 19 -7 53l64 4l2 -56q0 -88 -76 -88q-43 0 -51 19q-15 -24 -53 -24zM573 862l-4 147h57l-1 -124z" />
    <glyph glyph-name="falillah" unicode="&#xfed3;&#xfee0;&#xfee0;&#xfeea;" horiz-adv-x="1416" 
d="M319 118v226q-22 14 -53 14q-37 0 -61 -25q-37 -41 -37 -97q0 -117 135 -118h16zM1251 118v226q-23 14 -54 14q-37 0 -61 -25q-37 -41 -37 -97q0 -117 135 -118h17zM1377 0h-1063q-122 1 -176 42q-98 70 -99 188q0 120 90 191q62 47 141 47q93 0 176 -56v-294h97v512h127
v-512h58q50 1 50 78v434h126v-423q0 -57 -12 -89h106q-27 41 -28 112q0 120 90 191q62 47 141 47q94 0 176 -56v-412zM1065 478q-29 0 -50.5 21t-21.5 50q0 31 21.5 51.5t50.5 20.5t50 -21t21 -51q0 -29 -21 -50t-50 -21zM549 696q-72 0 -76 75l-2 60l60 2q1 -30 2.5 -54
t17.5 -24q21 0 21 45l-1 35l63 -1q0 -32 1.5 -54t18.5 -22q16 0 16 30q0 19 -7 53l64 4l2 -56q0 -88 -76 -88q-43 0 -51 19q-15 -24 -53 -24zM573 862l-4 147h57l-1 -124z" />
    <glyph glyph-name="uniFDFA" unicode="&#xfebb;&#xfee0;&#xfef0;&#x20;&#x627;&#xfdf2;&#x20;&#xfecb;&#xfee0;&#xfbff;&#xfba7;&#x20;&#x648;&#xfeb3;&#xfee0;&#xfee2;" horiz-adv-x="835" arabic-form="isolated" 
d="M222 291h-53q-30 0 -47 16q-22 20 -22 49q0 39 25 63l26 -19q-18 -20 -18 -43q0 -35 36 -35h28v103q21 6 45 6q50 -1 50 -55v-29h230v114h33v-114h40v82h33v-18q22 31 56 31q30 0 49 -25q15 -22 15 -45q0 -12 -9 -56h-480v58q0 29 -17 29q-8 0 -12 -2v-101q0 -9 -8 -9z
M711 347q4 12 4 23q0 14 -6 25q-9 16 -25 17q-32 0 -54 -45q-3 -6 -3 -20h84zM449 450h-112q-33 0 -47 11q-27 19 -27 51t24 51q16 13 38 13q25 0 47 -15v-80h28v139h33v-139h16q14 0 14 20v119h33v-117q0 -20 -9 -34q-12 -19 -38 -19zM339 481v62q-6 4 -15 4q-10 0 -17 -7
q-10 -11 -10 -27q0 -32 42 -32zM399 634q-20 0 -21 21v17l18 1q1 -21 4 -21q4 0 4 22l19 -1q0 -20 4 -20q3 0 3 7l-2 15l19 1l1 -16q0 -24 -21 -24q-12 0 -14 3q-3 -5 -14 -5zM405 678l-2 41h18v-34zM556 520h-33v133h33v-133zM533 105q-8 0 -13.5 5.5t-5.5 13.5q0 18 19 18
t19 -18q0 -8 -5.5 -13.5t-13.5 -5.5zM495 105q-8 0 -13.5 5.5t-5.5 13.5q0 18 19 18q18 0 18 -18q0 -8 -5.5 -13.5t-12.5 -5.5zM747 153h-575q-33 0 -48 11q-26 19 -26 51t24 51q17 13 38 13q25 0 47 -15v-80h295q18 0 18 23v39h32q0 -53 -3 -62h30v121h33v-121h35
q-12 14 -12 38q0 25 17 43t47 18q27 0 47 -19l-12 -25q-18 13 -34 13q-30 0 -30 -31q0 -26 28 -37h49v-31zM174 184v62q-6 4 -15 4q-10 0 -17 -7q-10 -11 -10 -27q0 -32 42 -32zM139 -63h-31q-7 46 -7 58q0 46 41 57q2 57 55 57q26 0 41 -17t15 -49q0 -15 -3 -23h129v106h33
v-106h42v63h33v-63q23 0 26 2q7 3 7 21v50h33v-50q0 -23 16 -23q17 0 17 24v57h33v-55q0 -59 -41 -59q-24 0 -35 14q-11 -12 -32 -12h-279q-12 -10 -31 -10q-45 0 -55 38q-14 -3 -14 -25q0 -11 7 -55zM198 8q23 0 23 33q0 39 -24 39t-24 -36t25 -36zM691 -63h-20v31h19
q23 0 24 21q-77 0 -78 62q0 32 24 51q17 13 38 13q25 0 47 -15v-108q-1 -55 -54 -55zM712 20v62q-6 4 -15 4q-10 0 -17 -7q-10 -11 -10 -27q0 -32 42 -32zM526 469q-20 0 -21 21l-1 17l19 1q0 -21 4 -21t4 21h19q0 -20 4 -20q3 0 3 7q0 4 -2 15l19 1l1 -16q0 -25 -21 -25
q-12 0 -14 4q-3 -5 -14 -5z" />
    <glyph glyph-name="uniFDFB" unicode="&#xfe9f;&#xfede;&#x20;&#xfe9f;&#xfee0;&#xfe8e;&#xfedf;&#xfba7;" horiz-adv-x="919" arabic-form="isolated" 
d="M304 351h-85q-54 1 -78 19q-44 30 -44 83t40 85q27 21 62 21q42 0 78 -24v-133h25q23 0 23 36v195h54v-191q0 -35 -15 -60q-19 -30 -60 -31zM223 402v103q-11 7 -25 7q-17 0 -29 -11q-17 -19 -17 -45q0 -54 62 -54h9zM513 418h-52l-18 214h50zM835 351h-421v51h94
q35 0 35 42v189h54v-189q0 -28 -6 -42h191v17q0 32 -18 53.5t-50 21.5q-39 0 -65 -36l-31 39q38 48 96 48q54 0 87.5 -39.5t33.5 -98.5v-56zM686 -3q-13 0 -22 9t-9 22t9 22t22 9q12 0 21 -9t9 -22t-9 -22t-21 -9zM310 3h-19q-49 0 -78 25q-37 33 -37 82q1 64 42 104l42 -30
q-30 -34 -30 -72q0 -58 61 -59h18q39 0 39 34v229h54v-177h310v17q0 32 -18 53.5t-50 21.5q-38 0 -65 -35l-31 39q38 48 96 48q54 0 87.5 -39.5t33.5 -98.5v-56h-363q-2 -86 -92 -86zM781 277q-12 0 -21.5 8.5t-9.5 21.5t9.5 22t21.5 9q13 0 22 -9t9 -22q0 -12 -9 -21
t-22 -9zM229 249q-17 0 -17 25q0 8 2 16l14 9l-2 -18q0 -8 4 -8q7 0 7 7l-1 17l13 9q2 -26 12 -26l2 2q0 2 -8 20l11 14h4q9 -23 9 -32q-3 -26 -17 -26q-8 0 -13 3q-9 -12 -20 -12z" />
    <glyph glyph-name="uniFDFC" unicode="&#x631;&#xfef3;&#xfe8e;&#x644;" horiz-adv-x="1341" arabic-form="isolated" 
d="M341 -191h-44q-110 0 -175 58q-82 74 -83 183q2 144 97 234l98 -70q-68 -77 -68 -160q0 -126 132 -128h39q85 1 85 73v631h126v-612q0 -209 -207 -209zM936 0h-207q-110 1 -113 151v479h127v-491q0 -20 13 -21h155q13 1 13 21v280h126v-268q-3 -151 -114 -151zM933 -193
q-29 0 -50.5 20.5t-21.5 50.5t21.5 51t50.5 21q30 0 50.5 -21t20.5 -51t-20.5 -50.5t-50.5 -20.5zM777 -193q-29 0 -50.5 20.5t-21.5 50.5t21.5 51t50.5 21q30 0 50.5 -21t20.5 -51t-20.5 -50.5t-50.5 -20.5zM1096 -191h-66v117h55q91 0 91 85v408h126v-419
q0 -191 -206 -191z" />
    <glyph glyph-name="uniFEF5" unicode="&#xfedf;&#xfe82;" horiz-adv-x="493" arabic-form="isolated" 
d="M264 0h-225v118h209q79 0 79 92v420h127v-420q0 -199 -190 -210zM180 671q-21 0 -45 21q-12 11 -18 11q-10 0 -11 -32h-44q0 88 53 88q26 0 53 -24q10 -9 17 -9q12 0 15 39l34 -20q0 -74 -54 -74zM147 141l-43 490l117 -1l48 -489h-122z" />
    <glyph glyph-name="uniFEF6" unicode="&#xfee0;&#xfe82;" horiz-adv-x="505" arabic-form="final" 
d="M520 0h-481v118h209q79 0 79 92v420h126v-420q0 -62 -13 -92h80v-118zM180 671q-21 0 -45 21q-12 11 -18 11q-10 0 -11 -32h-44q0 88 53 88q26 0 53 -24q10 -9 17 -9q12 0 15 39l34 -20q0 -74 -54 -74zM147 141l-43 490l117 -1l48 -489h-122z" />
    <glyph glyph-name="uniFEF7" unicode="&#xfedf;&#xfe84;" horiz-adv-x="493" arabic-form="isolated" 
d="M264 0h-225v118h209q79 0 79 92v420h127v-420q0 -199 -190 -210zM89 656l-8 49l22 11q-26 19 -26 51q0 44 39 65q13 7 35 7q24 0 47 -11l-9 -46q-15 5 -25 5q-28 0 -28 -26q1 -25 44 -28q13 0 31 2l-2 -48q-68 -10 -120 -31zM147 141l-43 490l117 -1l48 -489h-122z" />
    <glyph glyph-name="uniFEF8" unicode="&#xfee0;&#xfe84;" horiz-adv-x="505" arabic-form="final" 
d="M520 0h-481v118h209q79 0 79 92v420h126v-420q0 -62 -13 -92h80v-118zM89 656l-8 49l22 11q-26 19 -26 51q0 44 39 65q13 7 35 7q24 0 47 -11l-9 -46q-15 5 -25 5q-28 0 -28 -26q1 -25 44 -28q13 0 31 2l-2 -48q-68 -10 -120 -31zM147 141l-43 490l117 -1l48 -489h-122z
" />
    <glyph glyph-name="uniFEF9" unicode="&#xfedf;&#xfe88;" horiz-adv-x="493" arabic-form="isolated" 
d="M264 0h-225v118h209q79 0 79 92v420h127v-420q0 -199 -190 -210zM154 -206l-8 49l22 11q-26 19 -26 51q0 44 39 65q13 7 35 7q24 0 47 -11l-9 -46q-15 5 -25 5q-28 0 -28 -26q1 -25 44 -28q13 0 31 2l-2 -48q-68 -10 -120 -31zM147 141l-43 490l117 -1l48 -489h-122z" />
    <glyph glyph-name="uniFEFA" unicode="&#xfee0;&#xfe88;" horiz-adv-x="505" arabic-form="final" 
d="M520 0h-481v118h209q79 0 79 92v420h126v-420q0 -62 -13 -92h80v-118zM154 -206l-8 49l22 11q-26 19 -26 51q0 44 39 65q13 7 35 7q24 0 47 -11l-9 -46q-15 5 -25 5q-28 0 -28 -26q1 -25 44 -28q13 0 31 2l-2 -48q-68 -10 -120 -31zM147 141l-43 490l117 -1l48 -489h-122
z" />
    <glyph glyph-name="uniFEFB" unicode="&#xfedf;&#xfe8e;" horiz-adv-x="493" arabic-form="isolated" 
d="M264 0h-225v118h209q79 0 79 92v420h127v-420q0 -199 -190 -210zM147 141l-43 490l117 -1l48 -489h-122z" />
    <glyph glyph-name="uniFEFC" unicode="&#xfee0;&#xfe8e;" horiz-adv-x="505" arabic-form="final" 
d="M520 0h-481v118h209q79 0 79 92v420h126v-420q0 -62 -13 -92h80v-118zM147 141l-43 490l117 -1l48 -489h-122z" />
    <glyph glyph-name="laam_alfwasla" unicode="&#xfedf;&#xfb51;" horiz-adv-x="493" 
d="M264 0h-225v118h209q79 0 79 92v420h127v-420q0 -199 -190 -210zM196 713q3 8 3 16q0 29 -29 29q-32 0 -50 -45h76zM230 673h-169v40h21q36 86 91 86q33 0 52 -21q14 -16 14 -47q0 -15 -9 -58zM147 141l-43 490l117 -1l48 -489h-122z" />
    <glyph glyph-name="laam_alfwasla_final" unicode="&#xfee0;&#xfb51;" horiz-adv-x="505" 
d="M520 0h-481v118h209q79 0 79 92v420h126v-420q0 -62 -13 -92h80v-118zM196 713q3 8 3 16q0 29 -29 29q-32 0 -50 -45h76zM230 673h-169v40h21q36 86 91 86q33 0 52 -21q14 -16 14 -47q0 -15 -9 -58zM147 141l-43 490l117 -1l48 -489h-122z" />
    <glyph glyph-name="uni06BA.init" unicode="&#x6ba;" horiz-adv-x="307" 
d="M155 0h-155v118h129q13 0 13 20v281h126v-269q-3 -150 -113 -150z" />
    <glyph glyph-name="uni06BA.medi" unicode="&#x6ba;" horiz-adv-x="301" 
d="M316 0h-316v118h53q63 0 63 85v216h123v-212q0 -57 -10 -89h87v-118z" />
    <glyph glyph-name="uni06C2.init" unicode="&#x6c2;" horiz-adv-x="307" 
d="M0 0v118h129q13 0 13 20v281h126v-269q-3 -150 -113 -150h-155zM131 -194q-24 0 -40 18t-16 46q1 34 24.5 67.5t62.5 45.5l18 -38q-30 -19 -33 -39q11 -2 22.5 -16.5t11.5 -32.5q0 -25 -18 -40q-14 -11 -32 -11zM138 464l-8 49l22 11q-26 19 -26 51q0 44 39 65q13 7 35 7
q24 0 47 -11l-9 -46q-15 5 -25 5q-28 0 -28 -26q1 -25 44 -28q13 0 31 2l-2 -48q-68 -10 -120 -31z" />
    <glyph glyph-name="uni06C2.medi" unicode="&#x6c2;" horiz-adv-x="479" 
d="M291 -198q-45 0 -85 22q-88 50 -111 176h-95v118h108q11 58 44 130l105 -23q-51 -110 -52 -189q0 -63 38 -98q20 -18 42 -18q36 0 36 60q0 39 -26 64l1 74h198v-118h-63q7 -20 7 -53q0 -116 -106 -140q-21 -5 -41 -5zM127 286l-8 49l22 11q-26 19 -26 51q0 44 39 65
q13 7 35 7q24 0 47 -11l-9 -46q-15 5 -25 5q-28 0 -28 -26q1 -25 44 -28q13 0 31 2l-2 -48q-68 -10 -120 -31zM60 -167q-18 0 -29.5 13t-11.5 34q1 25 18 49t46 33l13 -28q-21 -14 -23 -27q7 -2 15.5 -12.5t8.5 -24.5q0 -18 -12 -27.5t-25 -9.5z" />
    <glyph glyph-name="uni06C2.fina" unicode="&#x6c2;" horiz-adv-x="496" 
d="M319 118v226q-23 14 -54 14q-36 0 -61 -25q-37 -41 -37 -97q0 -117 135 -118h17zM511 0h-198q-122 1 -176 42q-97 70 -98 188q0 120 89 191q62 47 141 47q94 0 176 -56v-294h66v-118zM87 465l-8 49l22 11q-26 19 -26 51q0 44 39 65q13 7 35 7q24 0 47 -11l-9 -46
q-15 5 -25 5q-28 0 -28 -26q1 -25 44 -28q13 0 31 2l-2 -48q-68 -10 -120 -31z" />
    <glyph glyph-name="uni06C3.fina" unicode="&#x6c3;" horiz-adv-x="540" 
d="M134 411q-29 0 -50.5 21t-21.5 50q0 30 21.5 51t50.5 21t50 -21t21 -51q0 -29 -21 -50t-50 -21zM286 411q-29 0 -50.5 21t-21.5 50q0 30 21.5 51t50.5 21t50 -21t21 -51q0 -29 -21 -50t-50 -21zM84 -4q-44 48 -44 85q0 31 14 62q64 139 209 204q76 -225 227 -229h65v-118
h-67q-209 0 -266 171q-70 -16 -138 -175z" />
    <glyph glyph-name="uniFB51" unicode="&#x671;" horiz-adv-x="254" arabic-form="final" 
d="M254 0h-96q-111 0 -115 150l-4 480h132v-492q0 -20 12 -20h71v-118zM143 710q3 8 3 16q0 29 -29 29q-32 0 -50 -45h76zM177 670h-169v40h21q36 86 91 86q33 0 52 -21q14 -16 14 -47q0 -15 -9 -58z" />
    <glyph glyph-name="uniFB57" unicode="&#x67e;" horiz-adv-x="670" arabic-form="final" 
d="M287 -174q-30 0 -51 21t-21 50q0 31 21 51.5t51 20.5q29 0 50 -20.5t21 -51.5q0 -29 -21 -50t-50 -21zM439 -174q-30 0 -51 21t-21 50q0 31 21 51.5t51 20.5q29 0 50 -20.5t21 -51.5q0 -29 -21 -50t-50 -21zM364 -308q-29 0 -50.5 20.5t-21.5 50.5t21.5 51t50.5 21
t50 -21t21 -51t-21 -50.5t-50 -20.5zM685 0h-389q-109 0 -174 59q-82 74 -83 184q1 93 42 169l113 -57q-29 -56 -29 -108q0 -128 132 -129h195v301h127l-1 -301h67v-118z" />
    <glyph glyph-name="uniFB58" unicode="&#x67e;" horiz-adv-x="307" arabic-form="initial" 
d="M155 0h-155v118h129q13 0 13 20v281h126v-269q-3 -150 -113 -150zM74 -170q-27 0 -46 18.5t-19 45.5q0 28 19 46.5t46 18.5t45.5 -18.5t18.5 -46.5q0 -27 -18.5 -45.5t-45.5 -18.5zM211 -170q-27 0 -46 18.5t-19 45.5q0 28 19 46.5t46 18.5t45.5 -18.5t18.5 -46.5
q0 -27 -18.5 -45.5t-45.5 -18.5zM142 -292q-26 0 -45.5 19t-19.5 46t19.5 46t45.5 19q27 0 46 -19t19 -46t-19 -46t-46 -19z" />
    <glyph glyph-name="uniFB59" unicode="&#x67e;" horiz-adv-x="301" arabic-form="medial" 
d="M316 0h-316v118h53q63 0 63 85v216h123v-212q0 -57 -10 -89h87v-118zM74 -170q-26 0 -45.5 18.5t-19.5 45.5q0 28 19.5 46.5t45.5 18.5q27 0 46 -18.5t19 -46.5q0 -27 -19 -45.5t-46 -18.5zM211 -170q-26 0 -45.5 18.5t-19.5 45.5q0 28 19.5 46.5t45.5 18.5
q27 0 46 -18.5t19 -46.5q0 -27 -19 -45.5t-46 -18.5zM143 -292q-27 0 -46.5 19t-19.5 46t19.5 46t46.5 19q26 0 45 -19t19 -46t-19 -46t-45 -19z" />
    <glyph glyph-name="uniFB67" unicode="&#x679;" horiz-adv-x="671" arabic-form="final" 
d="M686 0h-390q-109 0 -174 59q-82 74 -83 184q1 93 42 169l113 -57q-29 -56 -29 -108q0 -128 132 -129h195v301h125l1 -301h68v-118zM378 524q3 8 3 16q0 9 -5 16q-8 13 -25 13q-33 0 -52 -45h79zM409 484h-169v40h20v111h37v-51q21 26 55 26q66 0 66 -68q0 -15 -9 -58z
" />
    <glyph glyph-name="uniFB68" unicode="&#x679;" horiz-adv-x="307" arabic-form="initial" 
d="M154 0h-154v118h129q13 0 13 20v281h126v-269q-3 -150 -114 -150zM235 524q3 8 3 16q0 9 -5 16q-8 13 -25 13q-33 0 -52 -45h79zM266 484h-169v40h20v111h37v-51q21 26 55 26q66 0 66 -68q0 -15 -9 -58z" />
    <glyph glyph-name="uniFB69" unicode="&#x679;" horiz-adv-x="301" arabic-form="medial" 
d="M316 0h-316v118h53q63 0 63 85v216h123v-212q0 -57 -10 -89h87v-118zM216 524q3 8 3 16q0 9 -5 16q-8 13 -25 13q-33 0 -52 -45h79zM247 484h-169v40h20v111h37v-51q21 26 55 26q66 0 66 -68q0 -15 -9 -58z" />
    <glyph glyph-name="uniFB6B" unicode="&#x6a4;" horiz-adv-x="830" arabic-form="final" 
d="M652 118v226q-22 14 -53 14q-37 0 -61 -25q-37 -41 -37 -97q0 -117 135 -118h16zM845 0h-549q-109 0 -174 59q-82 74 -83 184q1 93 42 169l113 -57q-29 -56 -29 -108q0 -128 132 -129h103q-27 41 -28 112q0 120 90 191q62 47 141 47q93 0 176 -56v-294h66v-118zM349 488
q-29 0 -50.5 21t-21.5 50q0 31 21.5 51.5t50.5 20.5q30 0 50.5 -21t20.5 -51q0 -29 -20.5 -50t-50.5 -21zM501 488q-29 0 -50.5 21t-21.5 50q0 31 21.5 51.5t50.5 20.5q30 0 50.5 -21t20.5 -51q0 -29 -20.5 -50t-50.5 -21zM424 633q-30 0 -51 21t-21 50q0 31 21 51.5
t51 20.5q29 0 50 -20.5t21 -51.5q0 -29 -21 -50t-50 -21z" />
    <glyph glyph-name="uniFB6C" unicode="&#x6a4;" horiz-adv-x="494" arabic-form="initial" 
d="M328 118v226q-22 14 -53 14q-37 0 -61 -25q-37 -41 -37 -97q0 -117 135 -118h16zM0 118h76q-27 41 -28 112q0 120 90 191q62 47 141 47q93 0 176 -56v-412h-455v118zM61 488q-29 0 -50.5 21t-21.5 50q0 31 21.5 51.5t50.5 20.5q30 0 50.5 -21t20.5 -51q0 -29 -20.5 -50
t-50.5 -21zM213 488q-29 0 -50.5 21t-21.5 50q0 31 21.5 51.5t50.5 20.5q30 0 50.5 -21t20.5 -51q0 -29 -20.5 -50t-50.5 -21zM136 633q-30 0 -51 21t-21 50q0 31 21 51.5t51 20.5q29 0 50 -20.5t21 -51.5q0 -29 -21 -50t-50 -21z" />
    <glyph glyph-name="uniFB6D" unicode="&#x6a4;" horiz-adv-x="507" arabic-form="medial" 
d="M329 118v226q-23 14 -54 14q-37 0 -61 -25q-37 -41 -37 -97q0 -117 135 -118h17zM522 0h-522v118h76q-27 41 -28 112q0 120 90 191q62 47 141 47q94 0 176 -56v-294h67v-118zM61 488q-29 0 -50.5 21t-21.5 50q0 31 21.5 51.5t50.5 20.5q30 0 50.5 -21t20.5 -51
q0 -29 -20.5 -50t-50.5 -21zM213 488q-29 0 -50.5 21t-21.5 50q0 31 21.5 51.5t50.5 20.5q30 0 50.5 -21t20.5 -51q0 -29 -20.5 -50t-50.5 -21zM136 633q-30 0 -51 21t-21 50q0 31 21 51.5t51 20.5q29 0 50 -20.5t21 -51.5q0 -29 -21 -50t-50 -21z" />
    <glyph glyph-name="uniFB7B" unicode="&#x686;" horiz-adv-x="586" arabic-form="final" 
d="M258 -191h-15q-202 0 -204 190v119h371v35q0 70 -37 116q-42 48 -112 48q-83 0 -143 -80l-73 90q85 109 215 109q123 0 201 -90q73 -87 73 -228h67v-118h-451q0 -72 108 -74v-117zM351 -174q-29 0 -50.5 21t-21.5 50q0 31 21.5 51.5t50.5 20.5t50 -20.5t21 -51.5
q0 -29 -21 -50t-50 -21zM503 -174q-29 0 -50.5 21t-21.5 50q0 31 21.5 51.5t50.5 20.5t50 -20.5t21 -51.5q0 -29 -21 -50t-50 -21zM425 -308q-29 0 -50.5 20.5t-21.5 50.5t21.5 51t50.5 21t50 -21t21 -51t-21 -50.5t-50 -20.5z" />
    <glyph glyph-name="uniFB7C" unicode="&#x686;" horiz-adv-x="534" arabic-form="initial" 
d="M0 0v118h371v35q0 70 -37 116q-42 48 -111 48q-56 0 -104 -36q-16 -12 -40 -44l-73 90q85 109 216 109q122 0 201 -90q72 -87 72 -219v-127h-495zM219 -174q-29 0 -50.5 21t-21.5 50q0 31 21.5 51.5t50.5 20.5t50 -20.5t21 -51.5q0 -29 -21 -50t-50 -21zM371 -174
q-29 0 -50.5 21t-21.5 50q0 31 21.5 51.5t50.5 20.5t50 -20.5t21 -51.5q0 -29 -21 -50t-50 -21zM293 -308q-29 0 -50.5 20.5t-21.5 50.5t21.5 51t50.5 21t50 -21t21 -51t-21 -50.5t-50 -20.5z" />
    <glyph glyph-name="uniFB7D" unicode="&#x686;" horiz-adv-x="534" arabic-form="medial" 
d="M219 -174q-29 0 -50.5 21t-21.5 50q0 31 21.5 51.5t50.5 20.5t50 -20.5t21 -51.5q0 -29 -21 -50t-50 -21zM371 -174q-29 0 -50.5 21t-21.5 50q0 31 21.5 51.5t50.5 20.5t50 -20.5t21 -51.5q0 -29 -21 -50t-50 -21zM293 -308q-29 0 -50.5 20.5t-21.5 50.5t21.5 51t50.5 21
t50 -21t21 -51t-21 -50.5t-50 -20.5zM549 0h-549v118h372v35q0 70 -38 116q-42 48 -111 48q-84 0 -144 -80l-73 90q86 109 216 109q122 0 201 -90q72 -87 72 -228h54v-118z" />
    <glyph glyph-name="uniFB89" unicode="&#x688;" horiz-adv-x="481" arabic-form="final" 
d="M496 0h-443v118h248v89q-1 119 -96 119q-47 0 -108 -53l-58 102q80 69 169 69q94 0 157 -64.5t63 -173.5v-88h68v-118zM205 544q3 8 3 16q0 9 -5 16q-8 13 -25 13q-33 0 -52 -45h79zM236 504h-169v40h20v111h37v-51q21 26 55 26q66 0 66 -68q0 -15 -9 -58z" />
    <glyph glyph-name="uniFB8B" unicode="&#x698;" horiz-adv-x="316" arabic-form="final" 
d="M77 458q-30 0 -51 20.5t-21 50.5t21 51t51 21q29 0 50 -21t21 -51t-21 -50.5t-50 -20.5zM229 458q-30 0 -51 20.5t-21 50.5t21 51t51 21q29 0 50 -21t21 -51t-21 -50.5t-50 -20.5zM146 603q-29 0 -50.5 21t-21.5 50q0 30 21.5 51t50.5 21t50 -21t21 -51q0 -29 -21 -50
t-50 -21zM56 -191h-66v117h56q90 0 90 85v408h127v-301h68v-118h-68q0 -191 -207 -191z" />
    <glyph glyph-name="uniFB8D" unicode="&#x691;" horiz-adv-x="314" arabic-form="final" 
d="M56 -191h-66v117h56q90 0 90 85v408h127v-301h66v-118h-66q0 -191 -207 -191zM230 525q3 8 3 16q0 9 -5 16q-8 13 -25 13q-33 0 -52 -45h79zM261 485h-169v40h20v111h37v-51q21 26 55 26q66 0 66 -68q0 -15 -9 -58z" />
    <glyph glyph-name="uniFB8F" unicode="&#x6a9;" horiz-adv-x="692" arabic-form="final" 
d="M707 0h-411q-109 0 -174 59q-82 74 -83 184q1 93 42 169l113 -57q-29 -56 -29 -108q0 -128 132 -129h215q-20 158 -234 202v117l348 201l29 -121l-220 -125q169 -56 205 -274h67v-118z" />
    <glyph glyph-name="uniFB90" unicode="&#x6a9;" horiz-adv-x="440" arabic-form="initial" 
d="M397 0h-397v118h258q-20 158 -234 202v117l348 201l29 -121l-220 -125q209 -69 216 -392z" />
    <glyph glyph-name="uniFB91" unicode="&#x6a9;" horiz-adv-x="438" arabic-form="medial" 
d="M453 0h-453v118h259q-21 158 -235 202v117l348 201l29 -121l-220 -125q170 -56 206 -274h66v-118z" />
    <glyph glyph-name="uniFB93" unicode="&#x6af;" horiz-adv-x="692" arabic-form="final" 
d="M277 468l1 124l317 183l26 -112zM707 0h-411q-109 0 -174 59q-82 74 -83 184q1 93 42 169l113 -57q-29 -56 -29 -108q0 -128 132 -129h215q-20 158 -234 202v117l348 201l29 -121l-220 -125q169 -56 205 -274h67v-118z" />
    <glyph glyph-name="uniFB94" unicode="&#x6af;" horiz-adv-x="440" arabic-form="initial" 
d="M23 469l1 124l317 183l26 -112zM397 0h-397v118h258q-20 158 -234 202v117l348 201l29 -121l-220 -125q209 -69 216 -392z" />
    <glyph glyph-name="uniFB95" unicode="&#x6af;" horiz-adv-x="438" arabic-form="medial" 
d="M23 469l1 124l317 183l26 -112zM453 0h-453v118h259q-21 158 -235 202v117l348 201l29 -121l-220 -125q170 -56 206 -274h66v-118z" />
    <glyph glyph-name="uniFB9F" unicode="&#x6ba;" horiz-adv-x="600" arabic-form="final" 
d="M340 -191h-44q-109 0 -174 58q-82 74 -83 183q2 144 96 234l98 -70q-68 -77 -68 -160q0 -126 132 -128h39q85 1 85 73v420h126v-301h68v-118h-68q-4 -191 -207 -191z" />
    <glyph glyph-name="uniFBA7" unicode="&#x6c1;" horiz-adv-x="539" arabic-form="final" 
d="M83 -4q-44 48 -44 85q0 31 14 62q64 139 209 204q76 -225 227 -229h65v-118h-67q-209 0 -266 171q-70 -16 -138 -175z" />
    <glyph glyph-name="uniFBA8" unicode="&#x6c1;" horiz-adv-x="307" arabic-form="initial" 
d="M155 0h-155v118h129q13 0 13 20v281h126v-269q-3 -150 -113 -150zM140 -194q-24 0 -40 18t-16 46q1 34 24.5 67.5t62.5 45.5l18 -38q-30 -19 -33 -39q11 -2 22.5 -16.5t11.5 -32.5q0 -25 -18 -40q-14 -11 -32 -11z" />
    <glyph glyph-name="uniFBA9" unicode="&#x6c1;" horiz-adv-x="479" arabic-form="medial" 
d="M291 -198q-45 0 -85 22q-88 50 -111 176h-95v118h108q11 58 44 130l105 -23q-51 -110 -52 -189q0 -63 38 -98q20 -18 42 -18q36 0 36 60q0 39 -26 64l1 74h198v-118h-63q7 -20 7 -53q0 -116 -106 -140q-21 -5 -41 -5zM60 -167q-18 0 -29.5 13t-11.5 34q1 25 18 49t46 33
l13 -28q-21 -14 -23 -27q7 -2 15.5 -12.5t8.5 -24.5q0 -18 -12 -27.5t-25 -9.5z" />
    <glyph glyph-name="uniFBAB" unicode="&#x6be;" horiz-adv-x="491" arabic-form="final" 
d="M293 118q32 32 33 88q0 76 -45 104q-62 -85 -69 -192h81zM301 -197q-153 1 -197 197h-65v118h67q18 196 172 337q156 -104 156 -262q0 -46 -11 -75h83v-118h-78q8 -29 8 -63q-2 -105 -93 -129q-22 -5 -42 -5zM294 -74q31 0 31 32q0 25 -7 42h-98q6 -33 33 -56
q20 -18 41 -18z" />
    <glyph glyph-name="uniFBAC" unicode="&#x6be;" horiz-adv-x="583" arabic-form="initial" 
d="M541 0h-541v119h61q-15 32 -15 69q0 114 77 155l-39 60q101 72 224 72q106 0 171 -69.5t65 -203.5zM208 119q9 0 20 2.5t19.5 16t8.5 50.5q0 68 -48 68q-47 0 -47 -68q0 -37 9 -50.5t20.5 -16t17.5 -2.5zM420 119v62q0 182 -133 187q-20 0 -38 -5q36 -2 77 -49.5
t41 -126.5q0 -36 -14 -68h67z" />
    <glyph glyph-name="uniFBAD" unicode="&#x6be;" horiz-adv-x="520" arabic-form="medial" 
d="M283 118q42 16 42 84q0 73 -35 99q-53 -70 -66 -183h59zM302 -197q-45 0 -92 19q-98 43 -107 178h-103v118h107q17 197 182 338q155 -121 155 -249q0 -60 -17 -89h108v-118h-94q8 -17 8 -51q-1 -119 -106 -141q-22 -5 -41 -5zM295 -74q31 0 31 32q0 25 -7 42h-99
q7 -33 34 -56q19 -18 41 -18z" />
    <glyph glyph-name="uniFBAF" unicode="&#x6d2;" horiz-adv-x="675" arabic-form="final" 
d="M432 -225h-371q-22 80 -22 170q3 173 206 173h445v-118h-441q-102 0 -102 -66q0 -29 6 -42h443q-22 -117 -164 -117z" />
    <glyph glyph-name="uniFBB1" unicode="&#x6d3;" horiz-adv-x="675" arabic-form="final" 
d="M432 -225h-371q-22 80 -22 170q3 173 206 173h445v-118h-441q-102 0 -102 -66q0 -29 6 -42h443q-22 -117 -164 -117zM83 123l-8 49l22 11q-26 19 -26 51q0 44 39 65q13 7 35 7q24 0 47 -11l-9 -46q-15 5 -25 5q-28 0 -28 -26q1 -25 44 -28q13 0 31 2l-2 -48
q-68 -10 -120 -31z" />
    <glyph glyph-name="uniFBE8" unicode="&#x649;" horiz-adv-x="307" arabic-form="initial" 
d="M155 0h-155v118h129q13 0 13 20v281h126v-269q-3 -150 -113 -150z" />
    <glyph glyph-name="uniFBE9" unicode="&#x649;" horiz-adv-x="301" arabic-form="medial" 
d="M316 0h-316v118h53q63 0 63 85v216h123v-212q0 -57 -10 -89h87v-118z" />
    <glyph glyph-name="uniFBFD" unicode="&#x6cc;" horiz-adv-x="807" arabic-form="final" 
d="M296 -94q-109 0 -174 59q-82 74 -83 183q2 145 96 235l98 -71q-68 -77 -68 -160q0 -125 132 -126h101v378q79 23 169 23q186 -4 186 -207l1 -102h68v-118h-195v216q0 103 -60 103q-29 0 -42 -7l-2 -367q0 -35 -32 -35z" />
    <glyph glyph-name="uniFBFE" unicode="&#x6cc;" horiz-adv-x="307" arabic-form="initial" 
d="M155 0h-155v118h129q13 0 13 20v281h126v-269q-3 -150 -113 -150zM69 -170q-27 0 -46 18.5t-19 45.5q0 28 19 46.5t46 18.5t45.5 -18.5t18.5 -46.5q0 -27 -18.5 -45.5t-45.5 -18.5zM206 -170q-27 0 -46 18.5t-19 45.5q0 28 19 46.5t46 18.5t45.5 -18.5t18.5 -46.5
q0 -27 -18.5 -45.5t-45.5 -18.5z" />
    <glyph glyph-name="uniFBFF" unicode="&#x6cc;" horiz-adv-x="301" arabic-form="medial" 
d="M316 0h-316v118h53q63 0 63 85v216h123v-212q0 -57 -10 -89h87v-118zM74 -170q-26 0 -45.5 18.5t-19.5 45.5q0 28 19.5 46.5t45.5 18.5q27 0 46 -18.5t19 -46.5q0 -27 -19 -45.5t-46 -18.5zM211 -170q-26 0 -45.5 18.5t-19.5 45.5q0 28 19.5 46.5t45.5 18.5
q27 0 46 -18.5t19 -46.5q0 -27 -19 -45.5t-46 -18.5z" />
    <glyph glyph-name="uniFC5E" unicode="&#xfc5e;" arabic-form="isolated" 
d="M-50 640q-71 0 -76 74l-2 59l58 3q1 -29 2.5 -54t18.5 -25q23 0 23 47l-2 34l61 -2q0 -31 1.5 -53t19.5 -22q17 0 17 31q0 19 -6 52l61 4l2 -56q0 -87 -75 -87q-42 0 -51 20q-16 -25 -52 -25zM26 849l33 9v9q0 27 -16 27q-17 -2 -18 -26q0 -14 1 -19zM-56 791
q-16 0 -23 14l-32 73l39 23l24 -64l30 6q-3 12 -3 22q0 27 19.5 48t48.5 22q27 0 44.5 -18.5t17.5 -48.5q0 -13 -2.5 -30t-20.5 -22z" />
    <glyph glyph-name="uniFC5F" unicode="&#xfc5f;" arabic-form="isolated" 
d="M-55 791q-71 0 -76 73l-2 60l58 2q1 -29 2.5 -53.5t18.5 -24.5q23 0 23 46l-2 34l61 -1q0 -32 1.5 -54t19.5 -22q17 0 17 31q0 19 -6 52l61 4l2 -55q0 -87 -75 -87q-42 0 -51 20q-15 -25 -52 -25zM-102 709l-3 47l207 28l1 -48zM-102 640l-3 47l207 28l1 -48z" />
    <glyph glyph-name="uniFC60" unicode="&#xfc60;" arabic-form="isolated" 
d="M-55 640q-71 0 -76 74l-2 59l58 2q1 -29 2.5 -53.5t18.5 -24.5q23 0 23 46l-2 34l61 -1q0 -31 1.5 -53.5t19.5 -22.5q17 0 17 31q0 19 -6 52l61 4l2 -55q0 -87 -75 -87q-42 0 -51 20q-15 -25 -52 -25zM-102 815l-3 47l207 27l1 -48zM-102 883l-3 47l207 28l1 -49z" />
    <glyph glyph-name="uniFC61" unicode="&#xfc61;" arabic-form="isolated" 
d="M-55 635q-71 0 -76 74l-2 59l58 2q1 -29 2.5 -53.5t18.5 -24.5q23 0 23 46l-2 34l61 -1q0 -31 1.5 -53.5t19.5 -22.5q17 0 17 31q0 19 -6 52l61 4l2 -55q0 -87 -75 -87q-42 0 -51 20q-15 -25 -52 -25zM-76 793l6 48l49 7q-3 12 -3 22q0 27 19 48t49 23q28 0 45 -19
t17 -48q0 -13 -2.5 -30.5t-20.5 -21.5zM23 854l33 8v10q0 27 -16 27q-15 -2 -18 -26q0 -14 1 -19z" />
    <glyph glyph-name="uniFC62" unicode="&#xfc62;" arabic-form="isolated" 
d="M-55 717q-71 0 -76 74l-2 60l58 2q1 -29 2.5 -54t18.5 -25q23 0 23 47l-2 34l61 -1q0 -32 1.5 -54t19.5 -22q17 0 17 31q0 19 -6 52l61 4l2 -56q0 -87 -75 -87q-42 0 -51 21q-15 -26 -52 -26zM-102 636l-3 47l207 28l1 -48z" />
    <glyph glyph-name="uniFC63" unicode="&#xfc63;" arabic-form="isolated" 
d="M-55 635q-71 0 -76 74l-2 59l58 2q1 -29 2.5 -53.5t18.5 -24.5q23 0 23 46l-2 34l61 -1q0 -31 1.5 -53.5t19.5 -22.5q17 0 17 31q0 19 -6 52l61 4l2 -55q0 -87 -75 -87q-42 0 -51 20q-15 -25 -52 -25zM-31 802l-3 144h54l-1 -122z" />
    <glyph glyph-name="uniFE80" unicode="&#x621;" horiz-adv-x="363" arabic-form="isolated" 
d="M64 -4l-17 108l43 21q-51 37 -51 106q0 92 82 136q29 16 75 16q50 0 102 -25l-20 -101q-36 11 -55 11q-55 0 -55 -50q2 -49 88 -54q26 0 68 5l-5 -106q-143 -22 -255 -67z" />
    <glyph glyph-name="uniFE81" unicode="&#x622;" horiz-adv-x="205" arabic-form="isolated" 
d="M166 0h-126v630h126v-630zM132 688q-21 0 -45 21q-12 11 -18 11q-10 0 -11 -32h-44q0 88 53 88q26 0 53 -24q10 -9 17 -9q12 0 15 39l34 -20q0 -74 -54 -74z" />
    <glyph glyph-name="uniFE82" unicode="&#x622;" horiz-adv-x="239" arabic-form="final" 
d="M254 0h-96q-111 0 -115 150l-4 480h131v-492q0 -20 13 -20h71v-118zM131 688q-21 0 -45 21q-12 11 -18 11q-10 0 -11 -32h-44q0 88 53 88q26 0 53 -24q10 -9 17 -9q12 0 15 39l34 -20q0 -74 -54 -74z" />
    <glyph glyph-name="uniFE83" unicode="&#x623;" horiz-adv-x="205" arabic-form="isolated" 
d="M166 0h-127v630h127v-630zM45 667l-8 49l22 11q-26 19 -26 51q0 44 39 65q13 7 35 7q24 0 47 -11l-9 -46q-15 5 -25 5q-28 0 -28 -26q1 -25 44 -28q13 0 31 2l-2 -48q-68 -10 -120 -31z" />
    <glyph glyph-name="uniFE84" unicode="&#x623;" horiz-adv-x="238" arabic-form="final" 
d="M253 0h-96q-111 0 -115 150l-4 480h132v-492q0 -20 12 -20h71v-118zM45 667l-8 49l22 11q-26 19 -26 51q0 44 39 65q13 7 35 7q24 0 47 -11l-9 -46q-15 5 -25 5q-28 0 -28 -26q1 -25 44 -28q13 0 31 2l-2 -48q-68 -10 -120 -31z" />
    <glyph glyph-name="uniFE85" unicode="&#x624;" horiz-adv-x="485" arabic-form="isolated" 
d="M245 -191h-76v117h70q83 0 87 75h-13q-121 1 -175 41q-98 70 -99 188q0 120 90 191q62 47 141 47q93 0 176 -56v-400q-4 -202 -201 -203zM319 118v226q-22 15 -53 15q-37 0 -61 -26q-37 -41 -37 -97q0 -117 135 -118h16zM68 460l-8 49l22 11q-26 19 -26 51q0 44 39 65
q13 7 35 7q24 0 47 -11l-9 -46q-15 5 -25 5q-28 0 -28 -26q1 -25 44 -28q13 0 31 2l-2 -48q-68 -10 -120 -31z" />
    <glyph glyph-name="uniFE86" unicode="&#x624;" horiz-adv-x="497" arabic-form="final" 
d="M319 118v226q-23 14 -54 14q-36 0 -61 -25q-37 -41 -37 -97q0 -117 135 -118h17zM244 -191h-76v117h70q83 0 87 74q-133 0 -188 42q-97 70 -98 188q0 120 89 191q62 47 141 47q94 0 176 -56v-294h67v-118h-67q-5 -190 -201 -191zM59 460l-8 49l22 11q-26 19 -26 51
q0 44 39 65q13 7 35 7q24 0 47 -11l-9 -46q-15 5 -25 5q-28 0 -28 -26q1 -25 44 -28q13 0 31 2l-2 -48q-68 -10 -120 -31z" />
    <glyph glyph-name="uniFE87" unicode="&#x625;" horiz-adv-x="205" arabic-form="isolated" 
d="M166 0h-127v630h127v-630zM49 -220l-8 49l22 11q-26 19 -26 51q0 44 39 65q13 7 35 7q24 0 47 -11l-9 -46q-15 5 -25 5q-28 0 -28 -26q1 -25 44 -28q13 0 31 2l-2 -48q-68 -10 -120 -31z" />
    <glyph glyph-name="uniFE88" unicode="&#x625;" horiz-adv-x="240" arabic-form="final" 
d="M255 0h-97q-110 0 -115 150l-4 480h132v-492q0 -20 13 -20h71v-118zM74 -214l-8 49l22 11q-26 19 -26 51q0 44 39 65q13 7 35 7q24 0 47 -11l-9 -46q-15 5 -25 5q-28 0 -28 -26q1 -25 44 -28q13 0 31 2l-2 -48q-68 -10 -120 -31z" />
    <glyph glyph-name="uniFE89" unicode="&#x626;" horiz-adv-x="794" arabic-form="isolated" 
d="M297 -94q-110 0 -175 59q-82 74 -83 183q2 145 97 235l98 -71q-68 -77 -68 -160q0 -125 132 -126h100v378q80 23 170 23q185 -4 185 -207l2 -123h-127v119q0 103 -60 103q-29 0 -42 -7l-2 -367q0 -35 -32 -35zM77 415l-8 49l22 11q-26 19 -26 51q0 44 39 65q13 7 35 7
q24 0 47 -11l-9 -46q-15 5 -25 5q-28 0 -28 -26q1 -25 44 -28q13 0 31 2l-2 -48q-68 -10 -120 -31z" />
    <glyph glyph-name="uniFE8A" unicode="&#x626;" horiz-adv-x="807" arabic-form="final" 
d="M296 -94q-109 0 -174 59q-82 74 -83 183q2 145 96 235l98 -71q-68 -77 -68 -160q0 -125 132 -126h101v378q79 23 169 23q186 -4 186 -207l1 -102h68v-118h-195v216q0 103 -60 103q-29 0 -42 -7l-2 -367q0 -35 -32 -35zM77 415l-8 49l22 11q-26 19 -26 51q0 44 39 65
q13 7 35 7q24 0 47 -11l-9 -46q-15 5 -25 5q-28 0 -28 -26q1 -25 44 -28q13 0 31 2l-2 -48q-68 -10 -120 -31z" />
    <glyph glyph-name="uniFE8B" unicode="&#x626;" horiz-adv-x="268" arabic-form="initial" 
d="M0 0v118h90q13 0 13 20v281h126v-269q-3 -150 -113 -150h-116zM98 443l-8 49l22 11q-26 19 -26 51q0 44 39 65q13 7 35 7q24 0 47 -11l-9 -46q-15 5 -25 5q-28 0 -28 -26q1 -25 44 -28q13 0 31 2l-2 -48q-68 -10 -120 -31z" />
    <glyph glyph-name="uniFE8C" unicode="&#x626;" horiz-adv-x="301" arabic-form="medial" 
d="M316 0h-316v118h53q63 0 63 85v216h123v-212q0 -57 -10 -89h87v-118zM108 443l-8 49l22 11q-26 19 -26 51q0 44 39 65q13 7 35 7q24 0 47 -11l-9 -46q-15 5 -25 5q-28 0 -28 -26q1 -25 44 -28q13 0 31 2l-2 -48q-68 -10 -120 -31z" />
    <glyph glyph-name="uniFE8D" unicode="&#x627;" horiz-adv-x="205" arabic-form="isolated" 
d="M166 0h-127v630h127v-630z" />
    <glyph glyph-name="uniFE8E" unicode="&#x627;" horiz-adv-x="250" arabic-form="final" 
d="M265 0h-111q-111 0 -114 150v480h126v-492q0 -20 13 -20h86v-118z" />
    <glyph glyph-name="uniFE8F" unicode="&#x628;" horiz-adv-x="657" arabic-form="isolated" 
d="M374 -190q-29 0 -50.5 20.5t-21.5 50.5t21.5 51t50.5 21t50 -21t21 -51t-21 -50.5t-50 -20.5zM586 0h-289q-110 0 -175 59q-82 74 -83 184q1 93 43 169l112 -57q-28 -56 -28 -108q0 -128 132 -129h195v301h125v-384q0 -35 -32 -35z" />
    <glyph glyph-name="uniFE90" unicode="&#x628;" horiz-adv-x="670" arabic-form="final" 
d="M685 0h-389q-109 0 -174 59q-82 74 -83 184q1 93 42 169l113 -57q-29 -56 -29 -108q0 -128 132 -129h195v301h127l-1 -301h67v-118zM373 -190q-29 0 -50.5 20.5t-21.5 50.5t21.5 51t50.5 21q30 0 50.5 -21t20.5 -51t-20.5 -50.5t-50.5 -20.5z" />
    <glyph glyph-name="uniFE91" unicode="&#x628;" horiz-adv-x="308" arabic-form="initial" 
d="M155 0h-155v118h129q13 0 13 20v281h126v-269q-3 -150 -113 -150zM128 -190q-29 0 -50.5 20.5t-21.5 50.5t21.5 51t50.5 21q30 0 50.5 -21t20.5 -51t-20.5 -50.5t-50.5 -20.5z" />
    <glyph glyph-name="uniFE92" unicode="&#x628;" horiz-adv-x="301" arabic-form="medial" 
d="M316 0h-316v118h53q63 0 63 85v216h123v-212q0 -57 -10 -89h87v-118zM158 -190q-30 0 -51 20.5t-21 50.5t21 51t51 21q29 0 50 -21t21 -51t-21 -50.5t-50 -20.5z" />
    <glyph glyph-name="uniFE93" unicode="&#x629;" horiz-adv-x="485" arabic-form="isolated" 
d="M446 0h-132q-122 1 -176 42q-98 70 -99 188q0 120 90 191q62 47 141 47q93 0 176 -56v-412zM319 118v226q-22 14 -53 14q-37 0 -61 -25q-37 -41 -37 -97q0 -117 135 -118h16zM153 505q-29 0 -50.5 21t-21.5 50q0 31 21.5 51.5t50.5 20.5t50 -20.5t21 -51.5q0 -29 -21 -50
t-50 -21zM306 505q-29 0 -50.5 21t-21.5 50q0 31 21.5 51.5t50.5 20.5t50 -20.5t21 -51.5q0 -29 -21 -50t-50 -21z" />
    <glyph glyph-name="uniFE94" unicode="&#x629;" horiz-adv-x="496" arabic-form="final" 
d="M319 118v226q-23 14 -54 14q-36 0 -61 -25q-37 -41 -37 -97q0 -117 135 -118h17zM511 0h-198q-122 1 -176 42q-97 70 -98 188q0 120 89 191q62 47 141 47q94 0 176 -56v-294h66v-118zM152 505q-29 0 -50.5 21t-21.5 50q0 31 21.5 51.5t50.5 20.5q30 0 50.5 -20.5
t20.5 -51.5q0 -29 -20.5 -50t-50.5 -21zM305 505q-29 0 -50.5 21t-21.5 50q0 31 21.5 51.5t50.5 20.5q30 0 50.5 -20.5t20.5 -51.5q0 -29 -20.5 -50t-50.5 -21z" />
    <glyph glyph-name="uniFE95" unicode="&#x62a;" horiz-adv-x="657" arabic-form="isolated" 
d="M586 0h-289q-110 0 -175 59q-82 74 -83 184q1 93 43 169l112 -57q-28 -56 -28 -108q0 -128 132 -129h195v301h125v-384q0 -35 -32 -35zM244 458q-30 0 -51 20.5t-21 50.5t21 51t51 21q29 0 50 -21t21 -51t-21 -50.5t-50 -20.5zM399 458q-30 0 -51 20.5t-21 50.5t21 51
t51 21q29 0 50 -21t21 -51t-21 -50.5t-50 -20.5z" />
    <glyph glyph-name="uniFE96" unicode="&#x62a;" horiz-adv-x="670" arabic-form="final" 
d="M685 0h-389q-109 0 -174 59q-82 74 -83 184q1 93 42 169l113 -57q-29 -56 -29 -108q0 -128 132 -129h195v301h127l-1 -301h67v-118zM244 458q-30 0 -51 20.5t-21 50.5t21 51t51 21q29 0 50 -21t21 -51t-21 -50.5t-50 -20.5zM399 458q-30 0 -51 20.5t-21 50.5t21 51t51 21
q29 0 50 -21t21 -51t-21 -50.5t-50 -20.5z" />
    <glyph glyph-name="uniFE97" unicode="&#x62a;" horiz-adv-x="308" arabic-form="initial" 
d="M0 0v118h129q13 0 13 20v281h126v-269q-3 -150 -114 -150h-154zM74 468q-30 0 -51.5 20.5t-21.5 50.5t21.5 51t51.5 21q29 0 50 -21t21 -51t-21 -50.5t-50 -20.5zM232 468q-30 0 -51 20.5t-21 50.5t21 51t51 21q29 0 50 -21t21 -51t-21 -50.5t-50 -20.5z" />
    <glyph glyph-name="uniFE98" unicode="&#x62a;" horiz-adv-x="341" arabic-form="medial" 
d="M356 0h-356v118h93q63 0 63 85v216h123v-212q0 -57 -10 -89h87v-118zM92 468q-30 0 -51 20.5t-21 50.5t21 51t51 21q29 0 50 -21t21 -51t-21 -50.5t-50 -20.5zM249 468q-30 0 -51 20.5t-21 50.5t21 51t51 21q29 0 50 -21t21 -51t-21 -50.5t-50 -20.5z" />
    <glyph glyph-name="uniFE99" unicode="&#x62b;" horiz-adv-x="657" arabic-form="isolated" 
d="M493 419h125v-384q0 -35 -32 -35h-289q-110 0 -175 59q-82 74 -83 184q1 93 43 169l112 -57q-28 -56 -28 -108q0 -128 132 -129h195v301zM254 458q-30 0 -51 20.5t-21 50.5t21 51t51 21q29 0 50 -21t21 -51t-21 -50.5t-50 -20.5zM406 458q-30 0 -51 20.5t-21 50.5t21 51
t51 21q29 0 50 -21t21 -51t-21 -50.5t-50 -20.5zM323 603q-29 0 -50.5 21t-21.5 50q0 30 21.5 51t50.5 21t50 -21t21 -51q0 -29 -21 -50t-50 -21z" />
    <glyph glyph-name="uniFE9A" unicode="&#x62b;" horiz-adv-x="670" arabic-form="final" 
d="M685 0h-389q-109 0 -174 59q-82 74 -83 184q1 93 42 169l113 -57q-29 -56 -29 -108q0 -128 132 -129h195v301h127l-1 -301h67v-118zM254 458q-30 0 -51 20.5t-21 50.5t21 51t51 21q29 0 50 -21t21 -51t-21 -50.5t-50 -20.5zM406 458q-30 0 -51 20.5t-21 50.5t21 51t51 21
q29 0 50 -21t21 -51t-21 -50.5t-50 -20.5zM323 603q-29 0 -50.5 21t-21.5 50q0 30 21.5 51t50.5 21t50 -21t21 -51q0 -29 -21 -50t-50 -21z" />
    <glyph glyph-name="uniFE9B" unicode="&#x62b;" horiz-adv-x="318" arabic-form="initial" 
d="M165 0h-165v118h140q12 0 12 20v281h127v-269q-3 -150 -114 -150zM83 458q-29 0 -50.5 20.5t-21.5 50.5t21.5 51t50.5 21t50 -21t21 -51t-21 -50.5t-50 -20.5zM235 458q-29 0 -50.5 20.5t-21.5 50.5t21.5 51t50.5 21q30 0 50.5 -21t20.5 -51t-20.5 -50.5t-50.5 -20.5z
M162 603q-29 0 -50.5 21t-21.5 50q0 30 21.5 51t50.5 21q30 0 50.5 -21t20.5 -51q0 -29 -20.5 -50t-50.5 -21z" />
    <glyph glyph-name="uniFE9C" unicode="&#x62b;" horiz-adv-x="316" arabic-form="medial" 
d="M331 0h-331v118h53q63 0 63 85v216h123v-212q0 -57 -10 -89h102v-118zM73 458q-29 0 -50.5 20.5t-21.5 50.5t21.5 51t50.5 21t50 -21t21 -51t-21 -50.5t-50 -20.5zM225 458q-29 0 -50.5 20.5t-21.5 50.5t21.5 51t50.5 21t50 -21t21 -51t-21 -50.5t-50 -20.5zM142 603
q-29 0 -50.5 21t-21.5 50q0 30 21.5 51t50.5 21t50 -21t21 -51q0 -29 -21 -50t-50 -21z" />
    <glyph glyph-name="uniFE9D" unicode="&#x62c;" horiz-adv-x="574" arabic-form="isolated" 
d="M329 -191h-85q-203 0 -205 190v119h372v35q0 70 -38 116q-41 48 -111 48q-84 0 -144 -80l-73 90q86 109 216 109q122 0 201 -90q73 -87 73 -219v-127h-384q0 -74 103 -74h75v-117zM431 -204q-29 0 -50.5 21t-21.5 50q0 30 21.5 51t50.5 21t50 -21t21 -51q0 -29 -21 -50
t-50 -21z" />
    <glyph glyph-name="uniFE9E" unicode="&#x62c;" horiz-adv-x="586" arabic-form="final" 
d="M328 -191h-85q-202 0 -204 190v119h371v35q0 70 -37 116q-42 48 -112 48q-83 0 -143 -80l-73 90q85 109 215 109q123 0 201 -90q73 -87 73 -228h67v-118h-451q0 -74 104 -74h74v-117zM430 -204q-29 0 -50.5 21t-21.5 50q0 30 21.5 51t50.5 21q30 0 50.5 -21t20.5 -51
q0 -29 -20.5 -50t-50.5 -21z" />
    <glyph glyph-name="uniFE9F" unicode="&#x62c;" horiz-adv-x="534" arabic-form="initial" 
d="M495 0h-495v118h371v35q0 70 -37 116q-42 48 -111 48q-84 0 -144 -80l-73 90q85 109 216 109q122 0 201 -90q72 -87 72 -219v-127zM315 -204q-29 0 -50.5 21t-21.5 50q0 30 21.5 51t50.5 21t50 -21t21 -51q0 -29 -21 -50t-50 -21z" />
    <glyph glyph-name="uniFEA0" unicode="&#x62c;" horiz-adv-x="534" arabic-form="medial" 
d="M549 0h-549v118h372v35q0 70 -38 116q-42 48 -111 48q-84 0 -144 -80l-73 90q86 109 216 109q122 0 201 -90q72 -87 72 -228h54v-118zM315 -204q-29 0 -50.5 21t-21.5 50q0 30 21.5 51t50.5 21q30 0 50.5 -21t20.5 -51q0 -29 -20.5 -50t-50.5 -21z" />
    <glyph glyph-name="uniFEA1" unicode="&#x62d;" horiz-adv-x="574" arabic-form="isolated" 
d="M358 -191h-114q-203 0 -205 190v119h372v35q0 70 -38 116q-41 48 -111 48q-84 0 -144 -80l-73 90q86 109 216 109q122 0 201 -90q73 -87 73 -219v-127h-384q0 -74 103 -74h104v-117z" />
    <glyph glyph-name="uniFEA2" unicode="&#x62d;" horiz-adv-x="586" arabic-form="final" 
d="M358 -191h-115q-202 0 -204 190v119h371v35q0 70 -37 116q-42 48 -112 48q-55 0 -103 -36q-16 -12 -40 -44l-73 90q85 109 215 109q123 0 201 -90q73 -87 73 -219v-9h67v-118h-451q0 -74 104 -74h104v-117z" />
    <glyph glyph-name="uniFEA3" unicode="&#x62d;" horiz-adv-x="534" arabic-form="initial" 
d="M495 0h-495v118h371v35q0 70 -37 116q-42 48 -111 48q-84 0 -144 -80l-73 90q85 109 216 109q122 0 201 -90q72 -87 72 -219v-127z" />
    <glyph glyph-name="uniFEA4" unicode="&#x62d;" horiz-adv-x="534" arabic-form="medial" 
d="M549 0h-549v118h372v35q0 70 -38 116q-42 48 -111 48q-84 0 -144 -80l-73 90q86 109 216 109q122 0 201 -90q72 -87 72 -228h54v-118z" />
    <glyph glyph-name="uniFEA5" unicode="&#x62e;" horiz-adv-x="573" arabic-form="isolated" 
d="M358 -191h-115q-202 0 -204 190v119h371v35q0 70 -37 116q-42 48 -112 48q-55 0 -103 -36q-16 -12 -40 -44l-73 90q85 109 215 109q123 0 201 -90q73 -87 73 -219v-127h-384q0 -74 104 -74h104v-117zM184 478q-30 0 -51 21t-21 50q0 31 21 51.5t51 20.5q29 0 50 -21
t21 -51q0 -29 -21 -50t-50 -21z" />
    <glyph glyph-name="uniFEA6" unicode="&#x62e;" horiz-adv-x="586" arabic-form="final" 
d="M358 -191h-115q-202 0 -204 190v119h371v35q0 70 -37 116q-42 48 -112 48q-83 0 -143 -80l-73 90q85 109 215 109q123 0 201 -90q73 -87 73 -228h67v-118h-451q0 -74 104 -74h104v-117zM184 478q-30 0 -51 21t-21 50q0 31 21 51.5t51 20.5q29 0 50 -21t21 -51
q0 -29 -21 -50t-50 -21z" />
    <glyph glyph-name="uniFEA7" unicode="&#x62e;" horiz-adv-x="534" arabic-form="initial" 
d="M495 0h-495v118h371v35q0 70 -37 116q-42 48 -111 48q-84 0 -144 -80l-73 90q85 109 216 109q122 0 201 -90q72 -87 72 -219v-127zM135 478q-29 0 -50.5 21t-21.5 50q0 31 21.5 51.5t50.5 20.5t50 -21t21 -51q0 -29 -21 -50t-50 -21z" />
    <glyph glyph-name="uniFEA8" unicode="&#x62e;" horiz-adv-x="534" arabic-form="medial" 
d="M549 0h-549v118h372v35q0 70 -38 116q-42 48 -111 48q-84 0 -144 -80l-73 90q86 109 216 109q122 0 201 -90q72 -87 72 -228h54v-118zM135 488q-29 0 -50.5 21t-21.5 50q0 31 21.5 51.5t50.5 20.5q30 0 50.5 -21t20.5 -51q0 -29 -20.5 -50t-50.5 -21z" />
    <glyph glyph-name="uniFEA9" unicode="&#x62f;" horiz-adv-x="468" arabic-form="isolated" 
d="M429 0h-375v118h248v88q-1 121 -97 121q-47 -1 -107 -54l-59 102q81 70 170 70q93 0 156.5 -65t63.5 -174v-206z" />
    <glyph glyph-name="uniFEAA" unicode="&#x62f;" horiz-adv-x="482" arabic-form="final" 
d="M497 0h-443v118h248v89q-1 119 -96 119q-47 0 -108 -53l-58 102q80 69 169 69q94 0 157 -64.5t63 -173.5v-88h68v-118z" />
    <glyph glyph-name="uniFEAB" unicode="&#x630;" horiz-adv-x="468" arabic-form="isolated" 
d="M429 0h-375v118h248v88q-1 121 -97 121q-47 -1 -107 -54l-59 102q81 70 170 70q93 0 156.5 -65t63.5 -174v-206zM158 488q-29 0 -50.5 21t-21.5 50q0 31 21.5 51.5t50.5 20.5t50 -21t21 -51q0 -29 -21 -50t-50 -21z" />
    <glyph glyph-name="uniFEAC" unicode="&#x630;" horiz-adv-x="481" arabic-form="final" 
d="M496 0h-443v118h248v89q-1 119 -96 119q-47 0 -108 -53l-58 102q80 69 169 69q94 0 157 -64.5t63 -173.5v-88h68v-118zM157 488q-29 0 -50.5 21t-21.5 50q0 31 21.5 51.5t50.5 20.5q30 0 50.5 -21t20.5 -51q0 -29 -20.5 -50t-50.5 -21z" />
    <glyph glyph-name="uniFEAD" unicode="&#x631;" horiz-adv-x="301" arabic-form="isolated" 
d="M56 -191h-66v117h55q91 0 91 85v408h126v-419q0 -191 -206 -191z" />
    <glyph glyph-name="uniFEAE" unicode="&#x631;" horiz-adv-x="316" arabic-form="final" 
d="M56 -191h-66v117h56q90 0 90 85v408h127v-301h68v-118h-68q0 -191 -207 -191z" />
    <glyph glyph-name="uniFEAF" unicode="&#x632;" horiz-adv-x="301" arabic-form="isolated" 
d="M56 -191h-66v117h55q91 0 91 85v408h126v-419q0 -191 -206 -191zM197 478q-29 0 -50.5 21t-21.5 50q0 31 21.5 51.5t50.5 20.5t50 -21t21 -51q0 -29 -21 -50t-50 -21z" />
    <glyph glyph-name="uniFEB0" unicode="&#x632;" horiz-adv-x="316" arabic-form="final" 
d="M56 -191h-66v117h56q90 0 90 85v408h127v-301h68v-118h-68q0 -191 -207 -191zM197 478q-29 0 -50.5 21t-21.5 50q0 31 21.5 51.5t50.5 20.5q30 0 50.5 -21t20.5 -51q0 -29 -20.5 -50t-50.5 -21z" />
    <glyph glyph-name="uniFEB1" unicode="&#x633;" horiz-adv-x="1074" arabic-form="isolated" 
d="M341 -191h-44q-110 0 -175 58q-82 74 -83 183q2 144 97 234l98 -70q-68 -77 -68 -160q0 -126 132 -128h39q85 1 85 73v352h126v-233h47q35 0 47 6q23 14 23 78v187h126v-188q0 -83 58 -83q59 0 59 89v212h127v-207q-1 -102 -37 -154q-43 -63 -116 -63q-91 0 -132 47
q-39 -41 -119 -42h-83q-4 -191 -207 -191z" />
    <glyph glyph-name="uniFEB2" unicode="&#x633;" horiz-adv-x="1086" arabic-form="final" 
d="M340 -191h-44q-109 0 -174 58q-82 74 -83 183q2 144 96 234l98 -70q-68 -77 -68 -160q0 -126 132 -128h39q85 1 85 73v352h126v-233h47q35 0 47 7q23 13 23 77v187h127v-188q0 -83 57 -83q59 0 59 89v212h127v-207q-1 -63 -11 -94h78v-118h-179q-19 -2 -41 -2
q-91 0 -131 45q-40 -43 -119 -43h-84q-4 -191 -207 -191z" />
    <glyph glyph-name="uniFEB3" unicode="&#x633;" horiz-adv-x="771" arabic-form="initial" 
d="M579 -5q-91 0 -132 47q-39 -42 -118 -42h-329v118h119v233h126v-233h47q35 0 46 7q24 13 24 77v187h126v-188q0 -83 58 -83q59 0 59 89v212h127v-207q-1 -102 -37 -154q-43 -63 -116 -63z" />
    <glyph glyph-name="uniFEB4" unicode="&#x633;" horiz-adv-x="784" arabic-form="medial" 
d="M579 -2q-91 0 -131 45q-40 -43 -119 -43h-329v118h119v233h126v-233h47q35 0 47 7q23 13 23 77v187h127v-188q0 -83 57 -83q59 0 59 89v212h127v-207q-1 -63 -11 -94h78v-118h-180q-18 -2 -40 -2z" />
    <glyph glyph-name="uniFEB5" unicode="&#x634;" horiz-adv-x="1074" arabic-form="isolated" 
d="M341 -191h-44q-110 0 -175 58q-82 74 -83 183q2 144 97 234l98 -70q-68 -77 -68 -160q0 -126 132 -128h39q85 1 85 73v352h126v-233h47q35 0 47 6q23 14 23 78v187h126v-188q0 -83 58 -83q59 0 59 89v212h127v-207q-1 -102 -37 -154q-43 -63 -116 -63q-91 0 -132 47
q-39 -41 -119 -42h-83q-4 -191 -207 -191zM631 458q-30 0 -51 20.5t-21 50.5t21 51t51 21q29 0 50 -21t21 -51t-21 -50.5t-50 -20.5zM783 458q-29 0 -50.5 20.5t-21.5 50.5t21.5 51t50.5 21t50 -21t21 -51t-21 -50.5t-50 -20.5zM700 603q-29 0 -50.5 21t-21.5 50
q0 30 21.5 51t50.5 21t50 -21t21 -51q0 -29 -21 -50t-50 -21z" />
    <glyph glyph-name="uniFEB6" unicode="&#x634;" horiz-adv-x="1086" arabic-form="final" 
d="M340 -191h-44q-109 0 -174 58q-82 74 -83 183q2 144 96 234l98 -70q-68 -77 -68 -160q0 -126 132 -128h39q85 1 85 73v352h126v-233h47q35 0 47 7q23 13 23 77v187h127v-188q0 -83 57 -83q59 0 59 89v212h127v-207q-1 -63 -11 -94h78v-118h-179q-19 -2 -41 -2
q-91 0 -131 45q-40 -43 -119 -43h-84q-4 -191 -207 -191zM629 458q-29 0 -50.5 20.5t-21.5 50.5t21.5 51t50.5 21t50 -21t21 -51t-21 -50.5t-50 -20.5zM782 458q-29 0 -50.5 20.5t-21.5 50.5t21.5 51t50.5 21t50 -21t21 -51t-21 -50.5t-50 -20.5zM699 603q-29 0 -50.5 21
t-21.5 50q0 30 21.5 51t50.5 21q30 0 50.5 -21t20.5 -51q0 -29 -20.5 -50t-50.5 -21z" />
    <glyph glyph-name="uniFEB7" unicode="&#x634;" horiz-adv-x="771" arabic-form="initial" 
d="M579 -5q-91 0 -132 47q-39 -42 -118 -42h-329v118h119v233h126v-233h47q35 0 46 7q24 13 24 77v187h126v-188q0 -83 58 -83q59 0 59 89v212h127v-207q-1 -102 -37 -154q-43 -63 -116 -63zM336 458q-29 0 -50.5 20.5t-21.5 50.5t21.5 51t50.5 21q30 0 50.5 -21t20.5 -51
t-20.5 -50.5t-50.5 -20.5zM489 458q-29 0 -50.5 20.5t-21.5 50.5t21.5 51t50.5 21q30 0 50.5 -21t20.5 -51t-20.5 -50.5t-50.5 -20.5zM406 603q-30 0 -51 21t-21 50q0 30 21 51t51 21q29 0 50 -21t21 -51q0 -29 -21 -50t-50 -21z" />
    <glyph glyph-name="uniFEB8" unicode="&#x634;" horiz-adv-x="784" arabic-form="medial" 
d="M579 -2q-91 0 -131 45q-40 -43 -119 -43h-329v118h119v233h126v-233h47q35 0 47 7q23 13 23 77v187h127v-188q0 -83 57 -83q59 0 59 89v212h127v-207q-1 -63 -11 -94h78v-118h-180q-18 -2 -40 -2zM337 458q-30 0 -51 20.5t-21 50.5t21 51t51 21q29 0 50 -21t21 -51
t-21 -50.5t-50 -20.5zM489 458q-30 0 -51 20.5t-21 50.5t21 51t51 21q29 0 50 -21t21 -51t-21 -50.5t-50 -20.5zM406 603q-29 0 -50.5 21t-21.5 50q0 30 21.5 51t50.5 21t50 -21t21 -51q0 -29 -21 -50t-50 -21z" />
    <glyph glyph-name="uniFEB9" unicode="&#x635;" horiz-adv-x="1029" arabic-form="isolated" 
d="M850 118q13 42 13 82q0 52 -21 91q-31 59 -92 60q-61 0 -119 -56q-43 -41 -77 -108q-10 -20 -10 -26v-43h306zM341 -191h-44q-110 0 -175 58q-82 74 -83 183q2 144 97 234l98 -70q-68 -77 -68 -160q0 -126 132 -128h39q85 1 85 73v420h126v-59q27 39 92 77q53 31 113 31
q111 0 182 -94q55 -80 55 -165q0 -47 -11 -101.5t-21 -107.5h-410q-4 -191 -207 -191z" />
    <glyph glyph-name="uniFEBA" unicode="&#x635;" horiz-adv-x="1044" arabic-form="final" 
d="M850 118q13 42 13 82q0 52 -22 91q-31 59 -91 60q-62 0 -120 -56q-43 -41 -77 -108q-9 -20 -9 -26v-43h306zM340 -191h-44q-109 0 -174 58q-82 74 -83 183q2 144 96 234l98 -70q-68 -77 -68 -160q0 -126 132 -128h39q85 1 85 73v420h126v-59q28 39 92 77q54 31 114 31
q111 0 181 -94q55 -80 55 -165q0 -47 -8 -91h78v-118h-512q-4 -191 -207 -191z" />
    <glyph glyph-name="uniFEBB" unicode="&#x635;" horiz-adv-x="719" arabic-form="initial" 
d="M540 118q13 42 13 82q0 52 -21 91q-31 59 -91 60q-62 0 -120 -56q-43 -41 -77 -108q-10 -20 -10 -26v-43h306zM648 0h-648v118h112v301h126v-59q27 39 92 77q53 31 113 31q111 0 182 -94q55 -80 55 -165q0 -47 -10.5 -101.5t-21.5 -107.5z" />
    <glyph glyph-name="uniFEBC" unicode="&#x635;" horiz-adv-x="735" arabic-form="medial" 
d="M541 118q13 42 13 82q0 52 -22 91q-31 59 -91 60q-61 0 -120 -56q-43 -41 -77 -108q-9 -20 -9 -26v-43h306zM750 0h-750v118h112v301h126v-59q28 39 92 77q54 31 114 31q111 0 181 -94q55 -80 55 -165q0 -47 -8 -91h78v-118z" />
    <glyph glyph-name="uniFEBD" unicode="&#x636;" horiz-adv-x="1029" arabic-form="isolated" 
d="M576 478q-29 0 -50.5 21t-21.5 50q0 31 21.5 51.5t50.5 20.5q30 0 50.5 -21t20.5 -51q0 -29 -20.5 -50t-50.5 -21zM850 118q13 42 13 82q0 52 -21 91q-31 59 -92 60q-61 0 -119 -56q-43 -41 -77 -108q-10 -20 -10 -26v-43h306zM341 -191h-44q-110 0 -175 58
q-82 74 -83 183q2 144 97 234l98 -70q-68 -77 -68 -160q0 -126 132 -128h39q85 1 85 73v420h126v-59q27 39 92 77q53 31 113 31q111 0 182 -94q55 -80 55 -165q0 -47 -11 -101.5t-21 -107.5h-410q-4 -191 -207 -191z" />
    <glyph glyph-name="uniFEBE" unicode="&#x636;" horiz-adv-x="1044" arabic-form="final" 
d="M850 118q13 42 13 82q0 52 -22 91q-31 59 -91 60q-62 0 -120 -56q-43 -41 -77 -108q-9 -20 -9 -26v-43h306zM340 -191h-44q-109 0 -174 58q-82 74 -83 183q2 144 96 234l98 -70q-68 -77 -68 -160q0 -126 132 -128h39q85 1 85 73v420h126v-59q28 39 92 77q54 31 114 31
q111 0 181 -94q55 -80 55 -165q0 -47 -8 -91h78v-118h-512q-4 -191 -207 -191zM576 478q-30 0 -51 21t-21 50q0 31 21 51.5t51 20.5q29 0 50 -21t21 -51q0 -29 -21 -50t-50 -21z" />
    <glyph glyph-name="uniFEBF" unicode="&#x636;" horiz-adv-x="719" arabic-form="initial" 
d="M540 118q13 42 13 82q0 52 -21 91q-31 59 -91 60q-62 0 -120 -56q-43 -41 -77 -108q-10 -20 -10 -26v-43h306zM648 0h-648v118h112v301h126v-59q27 39 92 77q53 31 113 31q111 0 182 -94q55 -80 55 -165q0 -47 -10.5 -101.5t-21.5 -107.5zM303 478q-29 0 -50.5 21
t-21.5 50q0 31 21.5 51.5t50.5 20.5q30 0 50.5 -21t20.5 -51q0 -29 -20.5 -50t-50.5 -21z" />
    <glyph glyph-name="uniFEC0" unicode="&#x636;" horiz-adv-x="735" arabic-form="medial" 
d="M541 118q13 42 13 82q0 52 -22 91q-31 59 -91 60q-61 0 -120 -56q-43 -41 -77 -108q-9 -20 -9 -26v-43h306zM750 0h-750v118h112v301h126v-59q28 39 92 77q54 31 114 31q111 0 181 -94q55 -80 55 -165q0 -47 -8 -91h78v-118zM304 478q-30 0 -51 21t-21 50q0 31 21 51.5
t51 20.5q29 0 50 -21t21 -51q0 -29 -21 -50t-50 -21z" />
    <glyph glyph-name="uniFEC1" unicode="&#x637;" horiz-adv-x="741" arabic-form="isolated" 
d="M563 118q13 42 13 82q0 52 -21 90q-32 60 -92 61q-61 0 -120 -56q-43 -40 -77 -109q-10 -19 -10 -25v-43h307zM670 0h-631v118h94l1 512h126v-270q27 39 92 77q53 32 113 32q112 0 182 -95q55 -80 55 -166q0 -46 -11 -100.5t-21 -107.5z" />
    <glyph glyph-name="uniFEC2" unicode="&#x637;" horiz-adv-x="754" arabic-form="final" 
d="M562 118q13 42 13 82q0 52 -22 91q-31 59 -91 60q-62 0 -120 -56q-43 -41 -77 -108q-9 -20 -9 -26v-43h306zM769 0h-730v118h93l1 512h126v-270q28 39 92 77q54 31 114 31q111 0 181 -94q55 -80 55 -165q0 -47 -8 -91h76v-118z" />
    <glyph glyph-name="uniFEC3" unicode="&#x637;" horiz-adv-x="712" arabic-form="initial" 
d="M533 118q13 42 13 82q0 52 -21 90q-32 60 -92 61q-61 0 -120 -56q-42 -40 -77 -109q-9 -19 -9 -25v-43h306zM640 0h-640v118h103l1 512h126v-270q28 39 92 77q53 32 114 32q111 0 181 -95q55 -80 55 -166q0 -46 -11 -101z" />
    <glyph glyph-name="uniFEC4" unicode="&#x637;" horiz-adv-x="726" arabic-form="medial" 
d="M533 118q13 42 13 82q0 52 -21 91q-32 59 -92 60q-61 0 -120 -56q-42 -41 -77 -108q-9 -20 -9 -26v-43h306zM741 0h-741v118h103l1 512h127v-270q27 39 91 77q54 31 114 31q111 0 181 -94q55 -80 55 -165q0 -47 -8 -91h77v-118z" />
    <glyph glyph-name="uniFEC5" unicode="&#x638;" horiz-adv-x="741" arabic-form="isolated" 
d="M563 118q13 42 13 82q0 52 -21 90q-32 60 -92 61q-61 0 -120 -56q-43 -40 -77 -109q-10 -19 -10 -25v-43h307zM670 0h-631v118h94l1 512h126v-270q27 39 92 77q53 32 113 32q112 0 182 -95q55 -80 55 -166q0 -46 -11 -100.5t-21 -107.5zM379 488q-29 0 -50.5 21t-21.5 50
q0 31 21.5 51.5t50.5 20.5t50 -21t21 -51q0 -29 -21 -50t-50 -21z" />
    <glyph glyph-name="uniFEC6" unicode="&#x638;" horiz-adv-x="754" arabic-form="final" 
d="M562 118q13 42 13 82q0 52 -22 91q-31 59 -91 60q-62 0 -120 -56q-43 -41 -77 -108q-9 -20 -9 -26v-43h306zM769 0h-730v118h93l1 512h126v-270q28 39 92 77q54 31 114 31q111 0 181 -94q55 -80 55 -165q0 -47 -8 -91h76v-118zM378 488q-29 0 -50.5 21t-21.5 50
q0 31 21.5 51.5t50.5 20.5q30 0 50.5 -21t20.5 -51q0 -29 -20.5 -50t-50.5 -21z" />
    <glyph glyph-name="uniFEC7" unicode="&#x638;" horiz-adv-x="711" arabic-form="initial" 
d="M533 118q13 42 13 82q0 52 -21 90q-32 60 -92 61q-61 0 -120 -56q-42 -40 -77 -109q-9 -19 -9 -25v-43h306zM640 0h-640v118h103q1 88 1 512h126v-270q28 39 92 77q53 32 114 32q111 0 181 -95q55 -80 55 -166q0 -46 -10.5 -100.5t-21.5 -107.5zM349 488q-29 0 -50.5 21
t-21.5 50q0 31 21.5 51.5t50.5 20.5q30 0 50.5 -21t20.5 -51q0 -29 -20.5 -50t-50.5 -21z" />
    <glyph glyph-name="uniFEC8" unicode="&#x638;" horiz-adv-x="726" arabic-form="medial" 
d="M533 118q13 42 13 82q0 52 -21 91q-32 59 -92 60q-61 0 -120 -56q-42 -41 -77 -108q-9 -20 -9 -26v-43h306zM741 0h-741v118h103l1 512h127v-270q27 39 91 77q54 31 114 31q111 0 181 -94q55 -80 55 -165q0 -47 -8 -91h77v-118zM350 488q-30 0 -51 21t-21 50
q0 31 21 51.5t51 20.5q29 0 50 -21t21 -51q0 -29 -21 -50t-50 -21z" />
    <glyph glyph-name="uniFEC9" unicode="&#x639;" horiz-adv-x="567" arabic-form="isolated" 
d="M349 -191h-105q-203 0 -205 190v119h114q-42 48 -42 138q0 96 64.5 161.5t173.5 65.5q103 0 177 -70l-45 -96q-70 48 -128 48q-52 0 -79 -32t-27 -79q0 -95 99 -136h182v-118h-377q0 -74 103 -74h95v-117z" />
    <glyph glyph-name="uniFECA" unicode="&#x639;" horiz-adv-x="585" arabic-form="final" 
d="M308 120q33 3 62 34q41 42 41 96q-1 83 -68 107q-16 5 -31 5q-18 0 -36 -8q-54 -25 -82 -104zM348 -191h-105q-202 0 -204 190v119h125l-103 110l10 28q47 144 154 194q43 19 86 19q33 0 66 -11q92 -29 132 -114q24 -49 24 -98q0 -78 -40 -128h107v-118h-450
q0 -74 104 -74h94v-117z" />
    <glyph glyph-name="uniFECB" unicode="&#x639;" horiz-adv-x="501" arabic-form="initial" 
d="M462 0h-477v118h102q-42 48 -42 138q0 96 64.5 161.5t173.5 65.5q103 0 177 -70l-45 -96q-70 48 -128 48q-52 0 -79 -32t-27 -79q0 -95 99 -136h182v-118z" />
    <glyph glyph-name="uniFECC" unicode="&#x639;" horiz-adv-x="549" arabic-form="medial" 
d="M273 120q33 3 62 34q41 42 41 97q-1 82 -69 106q-16 5 -31 5q-18 0 -35 -8q-54 -25 -83 -104zM564 0h-564v118h128l-102 110l10 28q47 144 154 194q42 19 85 19q33 0 67 -11q91 -29 132 -114q23 -49 23 -99q0 -76 -39 -127h106v-118z" />
    <glyph glyph-name="uniFECD" unicode="&#x63a;" horiz-adv-x="567" arabic-form="isolated" 
d="M349 -191h-105q-203 0 -205 190v119h114q-42 48 -42 138q0 96 64.5 161.5t173.5 65.5q103 0 177 -70l-45 -96q-70 48 -128 48q-52 0 -79 -32t-27 -79q0 -95 99 -136h182v-118h-377q0 -74 103 -74h95v-117zM241 504q-30 0 -51 21t-21 50q0 31 21 51.5t51 20.5
q29 0 50 -20.5t21 -51.5q0 -29 -21 -50t-50 -21z" />
    <glyph glyph-name="uniFECE" unicode="&#x63a;" horiz-adv-x="585" arabic-form="final" 
d="M308 120q33 3 62 34q41 42 41 96q-1 83 -68 107q-16 5 -31 5q-18 0 -36 -8q-54 -25 -82 -104zM348 -191h-105q-202 0 -204 190v119h125l-103 110l10 28q47 144 154 194q43 19 86 19q33 0 66 -11q92 -29 132 -114q24 -49 24 -98q0 -78 -40 -128h107v-118h-450
q0 -74 104 -74h94v-117zM211 514q-30 0 -51 21t-21 50q0 31 21 51.5t51 20.5q29 0 50 -20.5t21 -51.5q0 -29 -21 -50t-50 -21z" />
    <glyph glyph-name="uniFECF" unicode="&#x63a;" horiz-adv-x="501" arabic-form="initial" 
d="M462 0h-477v118h102q-42 48 -42 138q0 96 64.5 161.5t173.5 65.5q103 0 177 -70l-45 -96q-70 48 -128 48q-52 0 -79 -32t-27 -79q0 -95 99 -136h182v-118zM172 514q-29 0 -50.5 21t-21.5 50q0 31 21.5 51.5t50.5 20.5t50 -20.5t21 -51.5q0 -29 -21 -50t-50 -21z" />
    <glyph glyph-name="uniFED0" unicode="&#x63a;" horiz-adv-x="549" arabic-form="medial" 
d="M273 120q33 3 62 34q41 42 41 97q-1 82 -69 106q-16 5 -31 5q-18 0 -35 -8q-54 -25 -83 -104zM564 0h-564v118h128l-102 110l10 28q47 144 154 194q42 19 85 19q33 0 67 -11q91 -29 132 -114q23 -49 23 -99q0 -76 -39 -127h106v-118zM240 514q-29 0 -50.5 21t-21.5 50
q0 31 21.5 51.5t50.5 20.5q30 0 50.5 -20.5t20.5 -51.5q0 -29 -20.5 -50t-50.5 -21z" />
    <glyph glyph-name="uniFED1" unicode="&#x641;" horiz-adv-x="819" arabic-form="isolated" 
d="M653 118v226q-22 14 -53 14q-37 0 -61 -25q-38 -41 -38 -97q0 -117 136 -118h16zM780 0h-483q-110 0 -175 59q-82 74 -83 184q1 93 43 169l112 -57q-28 -56 -28 -108q0 -126 132 -127h101q-25 39 -26 110q0 120 89 191q62 47 142 47q93 0 176 -56v-412zM450 488
q-29 0 -50.5 21t-21.5 50q0 31 21.5 51.5t50.5 20.5t50 -21t21 -51q0 -29 -21 -50t-50 -21z" />
    <glyph glyph-name="uniFED2" unicode="&#x641;" horiz-adv-x="830" arabic-form="final" 
d="M652 118v226q-22 14 -53 14q-37 0 -61 -25q-37 -41 -37 -97q0 -117 135 -118h16zM845 0h-549q-109 0 -174 59q-82 74 -83 184q1 93 42 169l113 -57q-29 -56 -29 -108q0 -128 132 -129h103q-27 41 -28 112q0 120 90 191q62 47 141 47q93 0 176 -56v-294h66v-118zM449 488
q-29 0 -50.5 21t-21.5 50q0 31 21.5 51.5t50.5 20.5t50 -21t21 -51q0 -29 -21 -50t-50 -21z" />
    <glyph glyph-name="uniFED3" unicode="&#x641;" horiz-adv-x="494" arabic-form="initial" 
d="M329 118v226q-23 14 -54 14q-37 0 -61 -25q-37 -41 -37 -97q0 -117 135 -118h17zM455 0h-455v118h76q-27 41 -28 112q0 120 90 191q62 47 141 47q94 0 176 -56v-412zM119 488q-30 0 -51 21t-21 50q0 31 21 51.5t51 20.5q29 0 50 -21t21 -51q0 -29 -21 -50t-50 -21z" />
    <glyph glyph-name="uniFED4" unicode="&#x641;" horiz-adv-x="508" arabic-form="medial" 
d="M329 118v226q-22 14 -54 14q-36 0 -61 -25q-37 -41 -37 -97q0 -117 135 -118h17zM523 0h-523v118h76q-26 41 -27 112q0 120 89 191q62 47 141 47q94 0 176 -56v-294h68v-118zM119 488q-29 0 -50.5 21t-21.5 50q0 31 21.5 51.5t50.5 20.5t50 -21t21 -51q0 -29 -21 -50
t-50 -21z" />
    <glyph glyph-name="uniFED5" unicode="&#x642;" horiz-adv-x="665" arabic-form="isolated" 
d="M499 118v226q-22 14 -53 14q-37 0 -61 -25q-37 -41 -37 -97q0 -117 135 -118h16zM419 -191h-122q-110 0 -175 58q-82 74 -83 183q1 93 43 170l109 -65q-25 -52 -25 -101q0 -126 132 -128h117q85 1 85 72v2q-127 0 -182 42q-98 70 -99 188q0 120 90 191q62 47 141 47
q93 0 176 -56v-402q-4 -201 -207 -201zM246 504q-29 0 -50.5 20.5t-21.5 50.5t21.5 51t50.5 21q30 0 50.5 -21t20.5 -51t-20.5 -50.5t-50.5 -20.5zM398 504q-29 0 -50.5 20.5t-21.5 50.5t21.5 51t50.5 21q30 0 50.5 -21t20.5 -51t-20.5 -50.5t-50.5 -20.5z" />
    <glyph glyph-name="uniFED6" unicode="&#x642;" horiz-adv-x="681" arabic-form="final" 
d="M246 504q-30 0 -51 20.5t-21 50.5t21 51t51 21q29 0 50 -21t21 -51t-21 -50.5t-50 -20.5zM398 504q-30 0 -51 20.5t-21 50.5t21 51t51 21q29 0 50 -21t21 -51t-21 -50.5t-50 -20.5zM499 118v226q-23 14 -54 14q-36 0 -61 -25q-37 -41 -37 -97q0 -117 135 -118h17z
M418 -191h-122q-109 0 -174 58q-82 74 -83 183q1 93 43 170l108 -65q-25 -52 -25 -101q0 -126 132 -128h117q85 1 85 74q-127 0 -182 42q-97 70 -98 188q0 120 89 191q62 47 141 47q94 0 176 -56v-294h71v-118h-71q-4 -191 -207 -191z" />
    <glyph glyph-name="uniFED7" unicode="&#x642;" horiz-adv-x="495" arabic-form="initial" 
d="M329 118v226q-23 14 -54 14q-37 0 -61 -25q-37 -41 -37 -97q0 -117 135 -118h17zM0 118h76q-27 41 -28 112q0 120 90 191q62 47 141 47q94 0 176 -56v-412h-455v118zM95 504q-29 0 -50.5 20.5t-21.5 50.5t21.5 51t50.5 21q30 0 50.5 -21t20.5 -51t-20.5 -50.5
t-50.5 -20.5zM257 504q-29 0 -50.5 20.5t-21.5 50.5t21.5 51t50.5 21q30 0 51 -21t21 -51t-21 -50.5t-51 -20.5z" />
    <glyph glyph-name="uniFED8" unicode="&#x642;" horiz-adv-x="508" arabic-form="medial" 
d="M329 118v226q-22 14 -54 14q-36 0 -61 -25q-37 -41 -37 -97q0 -117 135 -118h17zM523 0h-523v118h76q-26 41 -27 112q0 120 89 191q62 47 141 47q94 0 176 -56v-294h68v-118zM95 504q-29 0 -50.5 20.5t-21.5 50.5t21.5 51t50.5 21q30 0 50.5 -21t20.5 -51t-20.5 -50.5
t-50.5 -20.5zM257 504q-29 0 -50.5 20.5t-21.5 50.5t21.5 51t50.5 21q30 0 51 -21t21 -51t-21 -50.5t-51 -20.5z" />
    <glyph glyph-name="uniFED9" unicode="&#x643;" horiz-adv-x="657" arabic-form="isolated" 
d="M586 0h-289q-110 0 -175 59q-82 74 -83 184q1 93 43 169l112 -57q-28 -56 -28 -108q0 -128 132 -129h195v512h125v-595q0 -35 -32 -35zM270 238l-11 63l31 15q-36 26 -36 68q0 58 52 86q17 9 46 9q32 0 63 -14l-12 -59q-20 6 -33 6q-39 0 -39 -36q2 -34 60 -38q18 0 41 4
l-3 -63q-90 -13 -159 -41z" />
    <glyph glyph-name="uniFEDA" unicode="&#x643;" horiz-adv-x="668" arabic-form="final" 
d="M683 0h-387q-109 0 -174 59q-82 74 -83 184q1 93 42 169l113 -57q-29 -56 -29 -108q0 -128 132 -129h195v512h125v-512h66v-118zM270 238l-11 63l31 15q-36 26 -36 68q0 58 52 86q17 9 46 9q32 0 63 -14l-12 -59q-20 6 -33 6q-39 0 -39 -36q2 -34 60 -38q18 0 41 4
l-3 -63q-90 -13 -159 -41z" />
    <glyph glyph-name="uniFEDB" unicode="&#x643;" horiz-adv-x="441" arabic-form="initial" 
d="M397 0h-397v118h258q-20 158 -234 202v117l348 201l29 -121l-220 -125q209 -69 216 -392z" />
    <glyph glyph-name="uniFEDC" unicode="&#x643;" horiz-adv-x="438" arabic-form="medial" 
d="M453 0h-453v118h259q-21 158 -235 202v117l348 201l29 -121l-220 -125q170 -56 206 -274h66v-118z" />
    <glyph glyph-name="uniFEDD" unicode="&#x644;" horiz-adv-x="587" arabic-form="isolated" 
d="M341 -191h-44q-110 0 -175 58q-82 74 -83 183q2 144 97 234l98 -70q-68 -77 -68 -160q0 -126 132 -128h39q85 1 85 73v631h126v-612q0 -209 -207 -209z" />
    <glyph glyph-name="uniFEDE" unicode="&#x644;" horiz-adv-x="600" arabic-form="final" 
d="M340 -191h-44q-109 0 -174 58q-82 74 -83 183q2 144 96 234l98 -70q-68 -77 -68 -160q0 -126 132 -128h39q85 1 85 73v631h126v-512h68v-118h-68q-4 -191 -207 -191z" />
    <glyph glyph-name="uniFEDF" unicode="&#x644;" horiz-adv-x="236" arabic-form="initial" 
d="M20 0h-20v118h18q50 1 50 78v434h126l1 -425q0 -80 -36 -135q-45 -70 -139 -70z" />
    <glyph glyph-name="uniFEE0" unicode="&#x644;" horiz-adv-x="231" arabic-form="medial" 
d="M246 0h-246v118h54v512h126v-512h66v-118z" />
    <glyph glyph-name="uniFEE1" unicode="&#x645;" horiz-adv-x="643" arabic-form="isolated" 
d="M399 75q84 0 84 119q0 142 -88 142q-84 -2 -84 -130q0 -131 88 -131zM183 -191h-117q-27 172 -27 217q0 169 152 210q3 91 51 149q52 64 151 64q97 0 154 -65t57 -181q0 -84 -31 -142q-51 -99 -162 -99q-108 0 -168 72q-29 34 -38 68q-48 -10 -48 -89q0 -39 26 -204z" />
    <glyph glyph-name="uniFEE2" unicode="&#x645;" horiz-adv-x="654" arabic-form="final" 
d="M399 75q83 0 83 119q0 142 -88 142q-84 -2 -84 -130q0 -131 89 -131zM182 -191h-117q-26 172 -26 217q0 169 152 210q2 91 50 149q53 64 152 64q97 0 153.5 -65t56.5 -183q0 -53 -9 -83h75v-118h-144q-44 -37 -115 -38q-107 0 -168 72q-28 34 -37 68q-49 -10 -49 -89
q0 -39 26 -204z" />
    <glyph glyph-name="uniFEE3" unicode="&#x645;" horiz-adv-x="560" arabic-form="initial" 
d="M315 75q84 0 84 119q0 142 -88 142q-84 -2 -84 -130q0 -131 88 -131zM329 -38q-122 0 -176 78q-21 -39 -87 -40h-66v118h58q48 1 49 80v16q0 109 51.5 172t150.5 63q97 0 154 -65t57 -181q0 -84 -31 -142q-50 -96 -160 -99z" />
    <glyph glyph-name="uniFEE4" unicode="&#x645;" horiz-adv-x="571" arabic-form="medial" 
d="M316 75q83 0 83 119q0 142 -88 142q-84 -2 -84 -130q0 -131 89 -131zM329 -38q-121 0 -176 78q-20 -39 -86 -40h-67v118h59q47 1 48 80v16q0 109 52 172t151 63q97 0 153.5 -65t56.5 -183q0 -53 -9 -83h75v-118h-144q-43 -37 -113 -38z" />
    <glyph glyph-name="uniFEE5" unicode="&#x646;" horiz-adv-x="587" arabic-form="isolated" 
d="M341 -191h-44q-110 0 -175 58q-82 74 -83 183q2 144 97 234l98 -70q-68 -77 -68 -160q0 -126 132 -128h39q85 1 85 73v420h126v-401q0 -209 -207 -209zM279 478q-30 0 -51 21t-21 50q0 31 21 51.5t51 20.5q29 0 50 -21t21 -51q0 -29 -21 -50t-50 -21z" />
    <glyph glyph-name="uniFEE6" unicode="&#x646;" horiz-adv-x="600" arabic-form="final" 
d="M340 -191h-44q-109 0 -174 58q-82 74 -83 183q2 144 96 234l98 -70q-68 -77 -68 -160q0 -126 132 -128h39q85 1 85 73v420h126v-301h68v-118h-68q-4 -191 -207 -191zM278 478q-29 0 -50.5 21t-21.5 50q0 31 21.5 51.5t50.5 20.5t50 -21t21 -51q0 -29 -21 -50t-50 -21z
" />
    <glyph glyph-name="uniFEE7" unicode="&#x646;" horiz-adv-x="258" arabic-form="initial" 
d="M106 0h-106v118h80q13 0 13 20v281h127v-269q-4 -150 -114 -150zM155 478q-29 0 -50.5 21t-21.5 50q0 31 21.5 51.5t50.5 20.5q30 0 50.5 -21t20.5 -51q0 -29 -20.5 -50t-50.5 -21z" />
    <glyph glyph-name="uniFEE8" unicode="&#x646;" horiz-adv-x="301" arabic-form="medial" 
d="M316 0h-316v118h53q63 0 63 85v216h123v-212q0 -57 -10 -89h87v-118zM156 478q-30 0 -51 21t-21 50q0 31 21 51.5t51 20.5q29 0 50 -21t21 -51q0 -29 -21 -50t-50 -21z" />
    <glyph glyph-name="uniFEE9" unicode="&#x647;" horiz-adv-x="485" arabic-form="isolated" 
d="M446 0h-132q-122 1 -176 42q-98 70 -99 188q0 120 90 191q62 47 141 47q93 0 176 -56v-412zM319 118v226q-22 14 -53 14q-37 0 -61 -25q-37 -41 -37 -97q0 -117 135 -118h16z" />
    <glyph glyph-name="uniFEEA" unicode="&#x647;" horiz-adv-x="497" arabic-form="final" 
d="M320 118v226q-23 14 -54 14q-36 0 -61 -25q-37 -41 -37 -97q0 -117 135 -118h17zM512 0h-198q-122 1 -176 42q-97 70 -98 188q0 120 89 191q62 47 141 47q94 0 176 -56v-294h66v-118z" />
    <glyph glyph-name="uniFEEB" unicode="&#x647;" horiz-adv-x="583" arabic-form="initial" 
d="M540 0h-541v119h55q-9 22 -9 69q0 114 77 155l-38 60q101 72 224 72q105 0 170 -69.5t65 -203.5zM199 119q9 0 20 2.5t19.5 16t8.5 50.5q0 68 -48 68t-48 -68q0 -37 9.5 -50.5t20.5 -16t18 -2.5zM420 119v62q0 182 -154 182h-43q42 -2 88.5 -49.5t46.5 -126.5
q0 -46 -10 -68h72z" />
    <glyph glyph-name="uniFEEC" unicode="&#x647;" horiz-adv-x="432" arabic-form="medial" 
d="M240 118q32 32 33 88q0 76 -45 104q-63 -85 -69 -192h81zM248 -197q-153 1 -197 197h-51v118h53q17 196 172 337q156 -104 156 -262q0 -46 -11 -75h77v-118h-72q8 -29 8 -63q-2 -105 -94 -129q-21 -5 -41 -5zM241 -74q31 0 31 32q0 25 -7 42h-98q6 -33 33 -56
q20 -18 41 -18z" />
    <glyph glyph-name="uniFEED" unicode="&#x648;" horiz-adv-x="485" arabic-form="isolated" 
d="M245 -191h-76v117h70q83 0 87 75h-13q-121 1 -175 41q-98 70 -99 188q0 120 90 191q62 47 141 47q93 0 176 -56v-400q-4 -202 -201 -203zM319 118v226q-22 15 -53 15q-37 0 -61 -26q-37 -41 -37 -97q0 -117 135 -118h16z" />
    <glyph glyph-name="uniFEEE" unicode="&#x648;" horiz-adv-x="497" arabic-form="final" 
d="M319 118v226q-23 14 -54 14q-36 0 -61 -25q-37 -41 -37 -97q0 -117 135 -118h17zM244 -191h-76v117h70q83 0 87 74q-133 0 -188 42q-97 70 -98 188q0 120 89 191q62 47 141 47q94 0 176 -56v-294h67v-118h-67q-5 -190 -201 -191z" />
    <glyph glyph-name="uniFEEF" unicode="&#x649;" horiz-adv-x="794" arabic-form="isolated" 
d="M492 -94l-195 1q-110 0 -175 58q-82 74 -83 183q2 145 97 235l98 -71q-68 -77 -68 -160q0 -125 132 -126h100v378q80 23 170 23q185 -4 185 -207l2 -123h-127v119q0 103 -60 103q-29 0 -42 -7l-2 -371q0 -35 -32 -35z" />
    <glyph glyph-name="uniFEF0" unicode="&#x649;" horiz-adv-x="807" arabic-form="final" 
d="M491 -93h-195q-109 0 -174 58q-82 74 -83 183q2 145 96 235l98 -71q-68 -77 -68 -160q0 -125 132 -126h101v378q79 23 169 23q186 -4 186 -207l1 -102h68v-118h-195v216q0 103 -60 103q-29 0 -42 -7l-2 -370q0 -35 -32 -35z" />
    <glyph glyph-name="uniFEF1" unicode="&#x64a;" horiz-adv-x="794" arabic-form="isolated" 
d="M492 -94l-195 1q-110 0 -175 58q-82 74 -83 183q2 145 97 235l98 -71q-68 -77 -68 -160q0 -125 132 -126h100v378q80 23 170 23q185 -4 185 -207l2 -123h-127v119q0 103 -60 103q-29 0 -42 -7l-2 -371q0 -35 -32 -35zM243 -271q-29 0 -50.5 21t-21.5 50q0 30 21.5 51
t50.5 21q30 0 50.5 -21t20.5 -51q0 -29 -20.5 -50t-50.5 -21zM397 -271q-29 0 -50.5 21t-21.5 50q0 30 21.5 51t50.5 21q30 0 50.5 -21t20.5 -51q0 -29 -20.5 -50t-50.5 -21z" />
    <glyph glyph-name="uniFEF2" unicode="&#x64a;" horiz-adv-x="807" arabic-form="final" 
d="M491 -93h-195q-109 0 -174 58q-82 74 -83 183q2 145 96 235l98 -71q-68 -77 -68 -160q0 -125 132 -126h101v378q79 23 169 23q186 -4 186 -207l1 -102h68v-118h-195v216q0 103 -60 103q-29 0 -42 -7l-2 -370q0 -35 -32 -35zM243 -271q-30 0 -51 21t-21 50q0 30 21 51
t51 21q29 0 50 -21t21 -51q0 -29 -21 -50t-50 -21zM397 -271q-30 0 -51 21t-21 50q0 30 21 51t51 21q29 0 50 -21t21 -51q0 -29 -21 -50t-50 -21z" />
    <glyph glyph-name="uniFEF3" unicode="&#x64a;" horiz-adv-x="308" arabic-form="initial" 
d="M155 0h-155v118h130q12 0 12 20v281h127v-269q-3 -150 -114 -150zM60 -193q-29 0 -50.5 20.5t-21.5 50.5t21.5 51t50.5 21q30 0 50.5 -21t20.5 -51t-20.5 -50.5t-50.5 -20.5zM214 -193q-29 0 -50.5 20.5t-21.5 50.5t21.5 51t50.5 21q30 0 50.5 -21t20.5 -51t-20.5 -50.5
t-50.5 -20.5z" />
    <glyph glyph-name="uniFEF4" unicode="&#x64a;" horiz-adv-x="348" arabic-form="medial" 
d="M363 0h-363v118h82q63 0 63 85v216h123v-212q0 -57 -10 -89h105v-118zM84 -193q-29 0 -50.5 20.5t-21.5 50.5t21.5 51t50.5 21q30 0 50.5 -21t20.5 -51t-20.5 -50.5t-50.5 -20.5zM238 -193q-29 0 -50.5 20.5t-21.5 50.5t21.5 51t50.5 21q30 0 50.5 -21t20.5 -51
t-20.5 -50.5t-50.5 -20.5z" />
    <glyph glyph-name=".notdef" horiz-adv-x="427" 
d="M369 0h-319v630h319v-630zM262 99v433h-105v-433h105z" />
    <glyph glyph-name="uni0000" 
 />
    <glyph glyph-name="uni0000" 
 />
    <glyph glyph-name="uni0009" horiz-adv-x="508" 
 />
    <glyph glyph-name="space" unicode=" " horiz-adv-x="150" 
 />
    <glyph glyph-name="space" unicode="&#xa0;" horiz-adv-x="150" 
 />
    <glyph glyph-name="exclam" unicode="!" horiz-adv-x="251" 
d="M126 -3q-29 0 -50.5 20.5t-21.5 50.5t21.5 51t50.5 21q30 0 50.5 -21t20.5 -51t-20.5 -50.5t-50.5 -20.5zM186 174h-127v408h127v-408z" />
    <glyph glyph-name="quotedbl" unicode="&#x22;" horiz-adv-x="353" 
d="M270 422h-78v187h78v-187zM161 422h-78v187h78v-187z" />
    <glyph glyph-name="percent" unicode="%" horiz-adv-x="529" 
d="M172 -2h-104l289 634h104zM387 -10q-29 0 -50.5 20.5t-21.5 50.5t21.5 51t50.5 21q30 0 50.5 -21t20.5 -51t-20.5 -50.5t-50.5 -20.5zM141 497q-29 0 -50.5 20.5t-21.5 50.5t21.5 51t50.5 21q30 0 50.5 -21t20.5 -51t-20.5 -50.5t-50.5 -20.5z" />
    <glyph glyph-name="parenleft" unicode="(" horiz-adv-x="349" 
d="M262 0h-92q-119 150 -119 316q0 157 119 314h91q-49 -85 -61 -112q-43 -96 -43 -202q0 -147 105 -316z" />
    <glyph glyph-name="parenright" unicode=")" horiz-adv-x="342" 
d="M165 0h-93q106 169 106 316q0 106 -43 202q-12 27 -62 112h92q119 -157 119 -314q0 -166 -119 -316z" />
    <glyph glyph-name="comma" unicode="," horiz-adv-x="287" 
d="M199 0h-111v91q0 100 110 110v-62q-38 -10 -38 -29h39v-110z" />
    <glyph glyph-name="period" unicode="." horiz-adv-x="330" 
d="M165 -3q-28 0 -48 19.5t-20 47.5t20 47.5t48 19.5t48 -19.5t20 -47.5t-20 -47.5t-48 -19.5z" />
    <glyph glyph-name="slash" unicode="/" horiz-adv-x="471" 
d="M143 -2h-104l289 634h104z" />
    <glyph glyph-name="colon" unicode=":" horiz-adv-x="233" 
d="M117 82q-28 0 -48 20t-20 48t20 47.5t48 19.5t47.5 -19.5t19.5 -47.5t-19.5 -48t-47.5 -20zM117 346q-28 0 -48 20t-20 48q0 27 20 47t48 20t47.5 -20t19.5 -47q0 -28 -19.5 -48t-47.5 -20z" />
    <glyph glyph-name="paragraph" unicode="&#xb6;" horiz-adv-x="633" 
d="M554 -426h-117v937h-100v-937h-114v577q-97 5 -160 70t-63 165q0 111 70 177.5t202 66.5h361v-119h-79v-937z" />
    <glyph glyph-name="uni060C" unicode="&#x60c;" horiz-adv-x="352" 
d="M174 -27q-22 0 -40 11q-36 22 -36 75q0 107 112 173q12 0 44 -14q-61 -59 -65 -98q18 -2 38.5 -22t20.5 -51t-22 -52.5t-52 -21.5z" />
    <glyph glyph-name="uni061B" unicode="&#x61b;" horiz-adv-x="264" 
d="M129 -3q-24 0 -42 17.5t-18 43.5q0 24 18 42t42 18q26 0 43.5 -18t17.5 -42q0 -26 -17.5 -43.5t-43.5 -17.5zM130 143q-22 0 -40 11q-36 22 -36 75q0 107 112 173q12 0 44 -14q-61 -59 -65 -98q18 -2 38.5 -22t20.5 -51t-22 -52.5t-52 -21.5z" />
    <glyph glyph-name="uni061F" unicode="&#x61f;" horiz-adv-x="602" 
d="M366 153h-122q-4 48 -13 69.5t-23 38t-39 40t-40.5 42.5t-27 47t-11.5 65q0 47 24.5 88t69.5 65.5t105 24.5q173 0 223 -186l-118 -34q-33 100 -102 100q-37 0 -54.5 -17.5t-17.5 -40.5q0 -22 10.5 -38t38.5 -44t47 -52t33 -60.5t17 -107.5zM304 -8q-30 0 -51 21t-21 51
q0 31 21 52t51 21q29 0 50 -21t21 -52q0 -30 -21 -51t-50 -21z" />
    <glyph glyph-name="uni0621" unicode="&#x621;" horiz-adv-x="363" 
d="M64 -4l-17 108l43 21q-51 37 -51 106q0 92 82 136q29 16 75 16q50 0 102 -25l-20 -101q-36 11 -55 11q-55 0 -55 -50q2 -49 88 -54q26 0 68 5l-5 -106q-143 -22 -255 -67z" />
    <glyph glyph-name="uni0622" unicode="&#x622;" horiz-adv-x="205" 
d="M166 0h-126v630h126v-630zM132 688q-21 0 -45 21q-12 11 -18 11q-10 0 -11 -32h-44q0 88 53 88q26 0 53 -24q10 -9 17 -9q12 0 15 39l34 -20q0 -74 -54 -74z" />
    <glyph glyph-name="uni0623" unicode="&#x623;" horiz-adv-x="205" 
d="M166 0h-127v630h127v-630zM38 669l-8 49l22 11q-26 19 -26 51q0 44 39 65q13 7 35 7q24 0 47 -11l-9 -46q-15 5 -25 5q-28 0 -28 -26q1 -25 44 -28q13 0 31 2l-2 -48q-68 -10 -120 -31z" />
    <glyph glyph-name="uni0624" unicode="&#x624;" horiz-adv-x="485" 
d="M245 -191h-76v117h70q83 0 87 75h-13q-121 1 -175 41q-98 70 -99 188q0 120 90 191q62 47 141 47q93 0 176 -56v-400q-4 -202 -201 -203zM319 118v226q-22 15 -53 15q-37 0 -61 -26q-37 -41 -37 -97q0 -117 135 -118h16zM68 460l-8 49l22 11q-26 19 -26 51q0 44 39 65
q13 7 35 7q24 0 47 -11l-9 -46q-15 5 -25 5q-28 0 -28 -26q1 -25 44 -28q13 0 31 2l-2 -48q-68 -10 -120 -31z" />
    <glyph glyph-name="uni0625" unicode="&#x625;" horiz-adv-x="205" 
d="M166 0h-127v630h127v-630zM45 -219l-8 49l22 11q-26 19 -26 51q0 44 39 65q13 7 35 7q24 0 47 -11l-9 -46q-15 5 -25 5q-28 0 -28 -26q1 -25 44 -28q13 0 31 2l-2 -48q-68 -10 -120 -31z" />
    <glyph glyph-name="uni0626" unicode="&#x626;" horiz-adv-x="794" 
d="M297 -94q-110 0 -175 59q-82 74 -83 183q2 145 97 235l98 -71q-68 -77 -68 -160q0 -125 132 -126h100v378q80 23 170 23q185 -4 185 -207l2 -123h-127v119q0 103 -60 103q-29 0 -42 -7l-2 -367q0 -35 -32 -35zM77 415l-8 49l22 11q-26 19 -26 51q0 44 39 65q13 7 35 7
q24 0 47 -11l-9 -46q-15 5 -25 5q-28 0 -28 -26q1 -25 44 -28q13 0 31 2l-2 -48q-68 -10 -120 -31z" />
    <glyph glyph-name="uni0627" unicode="&#x627;" horiz-adv-x="205" 
d="M166 0h-127v630h127v-630z" />
    <glyph glyph-name="uni0628" unicode="&#x628;" horiz-adv-x="657" 
d="M374 -190q-29 0 -50.5 20.5t-21.5 50.5t21.5 51t50.5 21t50 -21t21 -51t-21 -50.5t-50 -20.5zM586 0h-289q-110 0 -175 59q-82 74 -83 184q1 93 43 169l112 -57q-28 -56 -28 -108q0 -128 132 -129h195v301h125v-384q0 -35 -32 -35z" />
    <glyph glyph-name="uni0629" unicode="&#x629;" horiz-adv-x="485" 
d="M446 0h-132q-122 1 -176 42q-98 70 -99 188q0 120 90 191q62 47 141 47q93 0 176 -56v-412zM319 118v226q-22 14 -53 14q-37 0 -61 -25q-37 -41 -37 -97q0 -117 135 -118h16zM158 505q-29 0 -50.5 21t-21.5 50q0 31 21.5 51.5t50.5 20.5t50 -20.5t21 -51.5q0 -29 -21 -50
t-50 -21zM310 505q-29 0 -50.5 21t-21.5 50q0 31 21.5 51.5t50.5 20.5t50 -20.5t21 -51.5q0 -29 -21 -50t-50 -21z" />
    <glyph glyph-name="uni062A" unicode="&#x62a;" horiz-adv-x="657" 
d="M254 458q-29 0 -50.5 20.5t-21.5 50.5t21.5 51t50.5 21q30 0 50.5 -21t20.5 -51t-20.5 -50.5t-50.5 -20.5zM406 458q-29 0 -50.5 20.5t-21.5 50.5t21.5 51t50.5 21q30 0 50.5 -21t20.5 -51t-20.5 -50.5t-50.5 -20.5zM586 0h-289q-110 0 -175 59q-82 74 -83 184
q1 93 43 169l112 -57q-28 -56 -28 -108q0 -128 132 -129h195v301h125v-384q0 -35 -32 -35z" />
    <glyph glyph-name="uni062B" unicode="&#x62b;" horiz-adv-x="657" 
d="M493 419h125v-384q0 -35 -32 -35h-289q-110 0 -175 59q-82 74 -83 184q1 93 43 169l112 -57q-28 -56 -28 -108q0 -128 132 -129h195v301zM254 458q-30 0 -51 20.5t-21 50.5t21 51t51 21q29 0 50 -21t21 -51t-21 -50.5t-50 -20.5zM406 458q-30 0 -51 20.5t-21 50.5t21 51
t51 21q29 0 50 -21t21 -51t-21 -50.5t-50 -20.5zM323 603q-29 0 -50.5 21t-21.5 50q0 30 21.5 51t50.5 21t50 -21t21 -51q0 -29 -21 -50t-50 -21z" />
    <glyph glyph-name="uni062C" unicode="&#x62c;" horiz-adv-x="574" 
d="M329 -191h-85q-203 0 -205 190v119h372v35q0 70 -38 116q-41 48 -111 48q-84 0 -144 -80l-73 90q86 109 216 109q122 0 201 -90q73 -87 73 -219v-127h-384q0 -74 103 -74h75v-117zM431 -204q-29 0 -50.5 21t-21.5 50q0 30 21.5 51t50.5 21t50 -21t21 -51q0 -29 -21 -50
t-50 -21z" />
    <glyph glyph-name="uni062D" unicode="&#x62d;" horiz-adv-x="574" 
d="M358 -191h-114q-203 0 -205 190v119h372v35q0 70 -38 116q-41 48 -111 48q-84 0 -144 -80l-73 90q86 109 216 109q122 0 201 -90q73 -87 73 -219v-127h-384q0 -74 103 -74h104v-117z" />
    <glyph glyph-name="uni062E" unicode="&#x62e;" horiz-adv-x="574" 
d="M358 -191h-114q-203 0 -205 190v119h372v35q0 70 -38 116q-41 48 -111 48q-84 0 -144 -80l-73 90q86 109 216 109q122 0 201 -90q73 -87 73 -219v-127h-384q0 -74 103 -74h104v-117zM184 478q-29 0 -50.5 21t-21.5 50q0 31 21.5 51.5t50.5 20.5q30 0 50.5 -21t20.5 -51
q0 -29 -20.5 -50t-50.5 -21z" />
    <glyph glyph-name="uni062F" unicode="&#x62f;" horiz-adv-x="468" 
d="M429 0h-375v118h248v88q-1 121 -97 121q-47 -1 -107 -54l-59 102q81 70 170 70q93 0 156.5 -65t63.5 -174v-206z" />
    <glyph glyph-name="uni0630" unicode="&#x630;" horiz-adv-x="468" 
d="M429 0h-375v118h248v88q-1 121 -97 121q-47 -1 -107 -54l-59 102q81 70 170 70q93 0 156.5 -65t63.5 -174v-206zM158 478q-29 0 -50.5 21t-21.5 50q0 31 21.5 51.5t50.5 20.5t50 -21t21 -51q0 -29 -21 -50t-50 -21z" />
    <glyph glyph-name="uni0631" unicode="&#x631;" horiz-adv-x="301" 
d="M56 -191h-66v117h55q91 0 91 85v408h126v-419q0 -191 -206 -191z" />
    <glyph glyph-name="uni0632" unicode="&#x632;" horiz-adv-x="303" 
d="M56 -191h-66v117h55q91 0 91 85v408h126v-419q0 -191 -206 -191zM197 478q-29 0 -50.5 21t-21.5 50q0 31 21.5 51.5t50.5 20.5t50 -21t21 -51q0 -29 -21 -50t-50 -21z" />
    <glyph glyph-name="uni0633" unicode="&#x633;" horiz-adv-x="1074" 
d="M341 -191h-44q-110 0 -175 58q-82 74 -83 183q2 144 97 234l98 -70q-68 -77 -68 -160q0 -126 132 -128h39q85 1 85 73v352h126v-233h47q35 0 47 6q23 14 23 78v187h126v-188q0 -83 58 -83q59 0 59 89v212h127v-207q-1 -102 -37 -154q-43 -63 -116 -63q-91 0 -132 47
q-39 -41 -119 -42h-83q-4 -191 -207 -191z" />
    <glyph glyph-name="uni0634" unicode="&#x634;" horiz-adv-x="1074" 
d="M341 -191h-44q-110 0 -175 58q-82 74 -83 183q2 144 97 234l98 -70q-68 -77 -68 -160q0 -126 132 -128h39q85 1 85 73v352h126v-233h47q35 0 47 6q23 14 23 78v187h126v-188q0 -83 58 -83q59 0 59 89v212h127v-207q-1 -102 -37 -154q-43 -63 -116 -63q-91 0 -132 47
q-39 -41 -119 -42h-83q-4 -191 -207 -191zM631 458q-30 0 -51 20.5t-21 50.5t21 51t51 21q29 0 50 -21t21 -51t-21 -50.5t-50 -20.5zM783 458q-29 0 -50.5 20.5t-21.5 50.5t21.5 51t50.5 21t50 -21t21 -51t-21 -50.5t-50 -20.5zM700 603q-29 0 -50.5 21t-21.5 50
q0 30 21.5 51t50.5 21t50 -21t21 -51q0 -29 -21 -50t-50 -21z" />
    <glyph glyph-name="uni0635" unicode="&#x635;" horiz-adv-x="1029" 
d="M850 118q13 42 13 82q0 52 -20 90q-32 60 -93 61q-61 0 -119 -56q-43 -41 -77 -108q-10 -20 -10 -26v-43h306zM341 -191h-44q-110 0 -175 58q-82 74 -83 183q2 144 97 234l98 -70q-68 -77 -68 -160q0 -126 132 -128h39q85 1 85 73v420h126v-59q27 39 92 77q53 31 113 31
q111 0 182 -94q55 -80 55 -165q0 -47 -11 -101.5t-21 -107.5h-410q-4 -191 -207 -191z" />
    <glyph glyph-name="uni0636" unicode="&#x636;" horiz-adv-x="1029" 
d="M586 488q-29 0 -50.5 21t-21.5 50q0 31 21.5 51.5t50.5 20.5q30 0 50.5 -21t20.5 -51q0 -29 -20.5 -50t-50.5 -21zM850 118q13 42 13 82q0 52 -21 91q-31 59 -92 60q-61 0 -119 -56q-43 -41 -77 -108q-10 -20 -10 -26v-43h306zM341 -191h-44q-110 0 -175 58
q-82 74 -83 183q2 144 97 234l98 -70q-68 -77 -68 -160q0 -126 132 -128h39q85 1 85 73v420h126v-59q27 39 92 77q53 31 113 31q111 0 182 -94q55 -80 55 -165q0 -47 -11 -101.5t-21 -107.5h-410q-4 -191 -207 -191z" />
    <glyph glyph-name="uni0637" unicode="&#x637;" horiz-adv-x="741" 
d="M563 118q13 42 13 82q0 52 -21 90q-32 60 -92 61q-61 0 -120 -56q-43 -40 -77 -109q-10 -19 -10 -25v-43h307zM670 0h-631v118h94l1 515h126v-273q27 39 92 77q53 32 113 32q112 0 182 -95q55 -80 55 -166q0 -46 -11 -100.5t-21 -107.5z" />
    <glyph glyph-name="uni0638" unicode="&#x638;" horiz-adv-x="741" 
d="M563 118q13 42 13 82q0 52 -21 90q-32 60 -92 61q-61 0 -120 -56q-43 -40 -77 -109q-10 -19 -10 -25v-43h307zM670 0h-631v118h94l1 512h126v-270q27 39 92 77q53 32 113 32q112 0 182 -95q55 -80 55 -166q0 -46 -11 -100.5t-21 -107.5zM379 488q-29 0 -50.5 21t-21.5 50
q0 31 21.5 51.5t50.5 20.5t50 -21t21 -51q0 -29 -21 -50t-50 -21z" />
    <glyph glyph-name="uni0639" unicode="&#x639;" horiz-adv-x="567" 
d="M349 -191h-105q-203 0 -205 190v119h114q-42 48 -42 138q0 96 64.5 161.5t173.5 65.5q103 0 177 -70l-45 -96q-70 48 -128 48q-52 0 -79 -32t-27 -79q0 -95 99 -136h182v-118h-377q0 -74 103 -74h95v-117z" />
    <glyph glyph-name="uni063A" unicode="&#x63a;" horiz-adv-x="567" 
d="M349 -191h-105q-203 0 -205 190v119h114q-42 48 -42 138q0 96 64.5 161.5t173.5 65.5q103 0 177 -70l-45 -96q-70 48 -128 48q-52 0 -79 -32t-27 -79q0 -95 99 -136h182v-118h-377q0 -74 103 -74h95v-117zM241 504q-30 0 -51 21t-21 50q0 31 21 51.5t51 20.5
q29 0 50 -20.5t21 -51.5q0 -29 -21 -50t-50 -21z" />
    <glyph glyph-name="uni0640" unicode="&#x640;" horiz-adv-x="152" 
d="M167 0h-167v118h167v-118z" />
    <glyph glyph-name="uni0641" unicode="&#x641;" horiz-adv-x="819" 
d="M653 118v226q-22 14 -53 14q-37 0 -61 -25q-38 -41 -38 -97q0 -117 136 -118h16zM780 0h-483q-110 0 -175 59q-82 74 -83 184q1 93 43 169l112 -57q-28 -56 -28 -108q0 -126 132 -127h101q-25 39 -26 110q0 120 89 191q62 47 142 47q93 0 176 -56v-412zM450 478
q-29 0 -50.5 21t-21.5 50q0 31 21.5 51.5t50.5 20.5t50 -21t21 -51q0 -29 -21 -50t-50 -21z" />
    <glyph glyph-name="uni0642" unicode="&#x642;" horiz-adv-x="665" 
d="M499 118v226q-22 14 -53 14q-37 0 -61 -25q-37 -41 -37 -97q0 -117 135 -118h16zM419 -191h-122q-110 0 -175 58q-82 74 -83 183q1 93 43 170l109 -65q-25 -52 -25 -101q0 -126 132 -128h117q85 1 85 72v2q-127 0 -182 42q-98 70 -99 188q0 120 90 191q62 47 141 47
q93 0 176 -56v-402q-4 -201 -207 -201zM246 494q-29 0 -50.5 20.5t-21.5 50.5t21.5 51t50.5 21q30 0 50.5 -21t20.5 -51t-20.5 -50.5t-50.5 -20.5zM398 494q-29 0 -50.5 20.5t-21.5 50.5t21.5 51t50.5 21q30 0 50.5 -21t20.5 -51t-20.5 -50.5t-50.5 -20.5z" />
    <glyph glyph-name="uni0643" unicode="&#x643;" horiz-adv-x="657" 
d="M586 0h-289q-110 0 -175 59q-82 74 -83 184q1 93 43 169l112 -57q-28 -56 -28 -108q0 -128 132 -129h195v512h125v-595q0 -35 -32 -35zM267 232l-12 75l24 12q-29 20 -29 65q0 60 54 89q19 10 49 10q32 0 69 -17l-14 -70q-26 8 -38 8q-31 0 -31 -28q1 -27 52 -30
q16 0 47 4l-4 -74q-93 -14 -167 -44z" />
    <glyph glyph-name="uni0644" unicode="&#x644;" horiz-adv-x="587" 
d="M341 -191h-44q-110 0 -175 58q-82 74 -83 183q2 144 97 234l98 -70q-68 -77 -68 -160q0 -126 132 -128h39q85 1 85 73v631h126v-612q0 -209 -207 -209z" />
    <glyph glyph-name="uni0645" unicode="&#x645;" horiz-adv-x="643" 
d="M399 75q84 0 84 119q0 142 -88 142q-84 -2 -84 -130q0 -131 88 -131zM183 -191h-117q-27 172 -27 217q0 169 152 210q3 91 51 149q52 64 151 64q97 0 154 -65t57 -181q0 -84 -31 -142q-51 -99 -162 -99q-108 0 -168 72q-29 34 -38 68q-48 -10 -48 -89q0 -39 26 -204z" />
    <glyph glyph-name="uni0646" unicode="&#x646;" horiz-adv-x="587" 
d="M341 -191h-44q-110 0 -175 58q-82 74 -83 183q2 144 97 234l98 -70q-68 -77 -68 -160q0 -126 132 -128h39q85 1 85 73v420h126v-401q0 -209 -207 -209zM279 478q-30 0 -51 21t-21 50q0 31 21 51.5t51 20.5q29 0 50 -21t21 -51q0 -29 -21 -50t-50 -21z" />
    <glyph glyph-name="uni0647" unicode="&#x647;" horiz-adv-x="485" 
d="M446 0h-132q-122 1 -176 42q-98 70 -99 188q0 120 90 191q62 47 141 47q93 0 176 -56v-412zM319 118v226q-22 14 -53 14q-37 0 -61 -25q-37 -41 -37 -97q0 -117 135 -118h16z" />
    <glyph glyph-name="uni0648" unicode="&#x648;" horiz-adv-x="485" 
d="M245 -191h-76v117h70q83 0 87 75h-13q-121 1 -175 41q-98 70 -99 188q0 120 90 191q62 47 141 47q93 0 176 -56v-400q-4 -202 -201 -203zM319 118v226q-22 15 -53 15q-37 0 -61 -26q-37 -41 -37 -97q0 -117 135 -118h16z" />
    <glyph glyph-name="uni0649" unicode="&#x649;" horiz-adv-x="794" 
d="M297 -94q-110 0 -175 59q-82 74 -83 183q2 145 97 235l98 -71q-68 -77 -68 -160q0 -125 132 -126h100v378q80 23 170 23q185 -4 185 -207l2 -123h-127v119q0 103 -60 103q-29 0 -42 -7l-2 -367q0 -35 -32 -35z" />
    <glyph glyph-name="uni064A" unicode="&#x64a;" horiz-adv-x="794" 
d="M297 -93q-110 0 -175 58q-82 74 -83 183q2 145 97 235l98 -71q-68 -77 -68 -160q0 -125 132 -126h100v378q80 23 170 23q185 -4 185 -207l2 -123h-127v119q0 103 -60 103q-29 0 -42 -7l-2 -371q0 -35 -32 -35zM245 -271q-29 0 -50.5 21t-21.5 50q0 30 21.5 51t50.5 21
q30 0 50.5 -21t20.5 -51q0 -29 -20.5 -50t-50.5 -21zM397 -271q-29 0 -50.5 21t-21.5 50q0 30 21.5 51t50.5 21q30 0 50.5 -21t20.5 -51q0 -29 -20.5 -50t-50.5 -21z" />
    <glyph glyph-name="uni064B" unicode="&#x64b;" 
d="M-94 627v51l190 26v-51zM-95 698v51l190 27v-51z" />
    <glyph glyph-name="uni064C" unicode="&#x64c;" 
d="M21 688l34 8v10q0 27 -17 27q-18 -4 -18 -32q0 -8 1 -13zM-58 630h-3q-16 0 -23 14l-31 73l38 23l25 -64l30 5q-3 13 -3 23q0 26 19 47.5t49 22.5q27 0 44 -19t17 -48q0 -13 -2 -30t-20 -22z" />
    <glyph glyph-name="uni064D" unicode="&#x64d;" 
d="M-90 -157v51l190 26v-51zM-91 -86v51l190 27v-51z" />
    <glyph glyph-name="uni064E" unicode="&#x64e;" 
d="M-90 625v51l190 27v-51z" />
    <glyph glyph-name="uni064F" unicode="&#x64f;" 
d="M-78 625l5 47l50 8q-3 11 -3 22q0 27 19 48t49 22q28 0 45 -18.5t17 -48.5q0 -13 -2.5 -30.5t-20.5 -21.5zM21 686l33 8q0 36 -14 36q-17 0 -20 -26q0 -14 1 -18z" />
    <glyph glyph-name="uni0650" unicode="&#x650;" 
d="M-90 -117v51l190 27v-51z" />
    <glyph glyph-name="uni0651" unicode="&#x651;" 
d="M-54 634q-71 0 -76 74l-2 60l58 2q1 -29 2.5 -54t18.5 -25q23 0 23 47l-2 34l61 -1q0 -32 1.5 -54t19.5 -22q17 0 17 31q0 19 -6 52l61 4l2 -56q0 -87 -75 -87q-42 0 -51 21q-15 -26 -52 -26z" />
    <glyph glyph-name="uni0652" unicode="&#x652;" 
d="M-3 631q-74 0 -74 81q0 79 79 84q72 0 76 -84q0 -37 -23 -59t-58 -22zM-1 675q33 0 33 37q0 39 -33 39q-30 0 -30 -37q0 -39 30 -39z" />
    <glyph glyph-name="uni0653" unicode="&#x653;" 
d="M30 635q-21 0 -45 21q-12 11 -18 11q-10 0 -11 -32h-44q0 88 53 88q26 0 53 -24q10 -9 17 -9q12 0 15 39l34 -20q0 -74 -54 -74z" />
    <glyph glyph-name="uni0654" unicode="&#x654;" 
d="M-52 640l-8 49l22 11q-26 19 -26 51q0 44 39 65q13 7 35 7q24 0 47 -11l-9 -46q-15 5 -25 5q-28 0 -28 -26q1 -25 44 -28q13 0 31 2l-2 -48q-68 -10 -120 -31z" />
    <glyph glyph-name="uni0655" unicode="&#x655;" 
d="M-59 -259l-8 49l22 11q-26 19 -26 51q0 44 39 65q13 7 35 7q24 0 47 -11l-9 -46q-15 5 -25 5q-28 0 -28 -26q1 -25 44 -28q13 0 31 2l-2 -48q-68 -10 -120 -31z" />
    <glyph glyph-name="uni0656" unicode="&#x656;" 
d="M-36 -205v173h70v-164z" />
    <glyph glyph-name="uni0658" unicode="&#x658;" 
d="M-7 633q-36 0 -59 20t-23 60v78h59v-76q0 -25 23 -25t23 25v97h59q0 -93 -1 -115q-11 -64 -81 -64z" />
    <glyph glyph-name="uni0660" unicode="&#x660;" horiz-adv-x="232" 
d="M193 143h-154v150h154v-150z" />
    <glyph glyph-name="uni0661" unicode="&#x661;" horiz-adv-x="205" 
d="M166 0h-127v630h127v-630z" />
    <glyph glyph-name="uni0662" unicode="&#x662;" horiz-adv-x="474" 
d="M166 0h-127v630h127v-223q71 0 106.5 20t36.5 88v115h126v-128q0 -209 -221 -209l-48 1v-294z" />
    <glyph glyph-name="uni0663" unicode="&#x663;" horiz-adv-x="591" 
d="M166 0h-127v630h127v-224q71 0 73 109v115h123q0 -116 -1 -194q0 -7 22 -7q50 0 51 76v125h118v-124q-3 -135 -86 -187q-33 -21 -70 -21q-54 0 -99 36q-46 -41 -112 -41h-19v-293z" />
    <glyph glyph-name="uni0664" unicode="&#x664;" horiz-adv-x="464" 
d="M425 0h-156q-103 0 -166 48.5t-64 135.5q0 114 81 157q-59 35 -61 126q0 166 297 166l4 -116l-86 -8q-85 -8 -85 -67q1 -49 102 -49q46 0 102 2l4 -111l-97 -2q-69 -2 -100 -30.5t-31 -67.5q1 -69 107 -69h149v-115z" />
    <glyph glyph-name="uni0665" unicode="&#x665;" horiz-adv-x="592" 
d="M296 -13q-120 0 -188.5 88t-68.5 236q0 146 70.5 236t187.5 90q118 0 187 -89t69 -237t-68 -236t-189 -88zM299 100q120 0 120 210q0 209 -120 209q-122 0 -122 -209q0 -104 31.5 -157t90.5 -53z" />
    <glyph glyph-name="uni0666" unicode="&#x666;" horiz-adv-x="447" 
d="M408 0h-128v507h-241v123h369v-630z" />
    <glyph glyph-name="uni0667" unicode="&#x667;" horiz-adv-x="623" 
d="M381 0h-131l-211 630h136l138 -429l132 429h139z" />
    <glyph glyph-name="uni0668" unicode="&#x668;" horiz-adv-x="625" 
d="M586 -1h-136l-138 431l-133 -431h-140l203 631h131z" />
    <glyph glyph-name="uni0669" unicode="&#x669;" horiz-adv-x="529" 
d="M256 321q35 0 65 29.5t30 65.5q0 42 -28.5 72t-62.5 30q-42 0 -68 -30.5t-26 -70.5q0 -39 27.5 -67.5t62.5 -28.5zM490 -1h-128v239q-25 -28 -115 -28q-53 0 -103 29t-77.5 78.5t-27.5 97.5q0 51 29 103.5t82 83.5t112 31q111 0 173 -85q55 -78 55 -186v-363z" />
    <glyph glyph-name="uni066A" unicode="&#x66a;" horiz-adv-x="529" 
d="M172 -2h-104l289 634h104zM387 -10q-29 0 -50.5 20.5t-21.5 50.5t21.5 51t50.5 21q30 0 50.5 -21t20.5 -51t-20.5 -50.5t-50.5 -20.5zM141 497q-29 0 -50.5 20.5t-21.5 50.5t21.5 51t50.5 21q30 0 50.5 -21t20.5 -51t-20.5 -50.5t-50.5 -20.5z" />
    <glyph glyph-name="uni066B" unicode="&#x66b;" horiz-adv-x="242" 
d="M161 -112h-107l28 182h106z" />
    <glyph glyph-name="uni066C" unicode="&#x66c;" horiz-adv-x="229" 
d="M54 -127v66q43 11 43 35h-43v121h121v-100q0 -112 -121 -122z" />
    <glyph glyph-name="uni066D" unicode="&#x66d;" horiz-adv-x="345" 
d="M210 394l-36 50l-37 -50l-60 43l36 50l-59 18l29 69l52 -18v62h77v-62l54 18l25 -69l-57 -18l36 -50z" />
    <glyph glyph-name="uni0670" unicode="&#x670;" 
d="M-30 610l-3 161h68l-1 -133z" />
    <glyph glyph-name="uni0671" unicode="&#x671;" horiz-adv-x="205" 
d="M166 0h-127v630h127v-630zM144 713q3 8 3 16q0 29 -29 29q-32 0 -50 -45h76zM178 673h-169v40h21q36 86 91 86q33 0 52 -21q14 -16 14 -47q0 -15 -9 -58z" />
    <glyph glyph-name="uni0679" unicode="&#x679;" horiz-adv-x="659" 
d="M586 0h-289q-110 0 -175 59q-82 74 -83 184q1 93 43 169l112 -57q-28 -56 -28 -108q0 -128 132 -129h195v301h127l-2 -384q0 -35 -32 -35zM378 525q3 8 3 16q0 9 -5 16q-8 13 -25 13q-33 0 -52 -45h79zM409 485h-169v40h20v111h37v-51q21 26 55 26q66 0 66 -68
q0 -15 -9 -58z" />
    <glyph glyph-name="uni067E" unicode="&#x67e;" horiz-adv-x="659" 
d="M277 -174q-29 0 -50.5 21t-21.5 50q0 31 21.5 51.5t50.5 20.5q30 0 50.5 -20.5t20.5 -51.5q0 -29 -20.5 -50t-50.5 -21zM429 -174q-29 0 -50.5 21t-21.5 50q0 31 21.5 51.5t50.5 20.5q30 0 50.5 -20.5t20.5 -51.5q0 -29 -20.5 -50t-50.5 -21zM348 -308q-30 0 -51 20.5
t-21 50.5t21 51t51 21q29 0 50 -21t21 -51t-21 -50.5t-50 -20.5zM586 0h-289q-110 0 -175 59q-82 74 -83 184q1 93 43 169l112 -57q-28 -56 -28 -108q0 -128 132 -129h195v301h127l-2 -384q0 -35 -32 -35z" />
    <glyph glyph-name="uni0686" unicode="&#x686;" horiz-adv-x="573" 
d="M259 -191h-16q-202 0 -204 190v119h372v35q0 70 -38 116q-42 48 -111 48q-84 0 -144 -80l-73 90q86 109 216 109q122 0 201 -90q72 -87 72 -219v-127h-383q0 -72 108 -74v-117zM339 -181q-27 0 -46 19t-19 45q0 27 19 46t46 19q26 0 45 -19t19 -46q0 -26 -19 -45t-45 -19
zM476 -181q-27 0 -46 19t-19 45q0 27 19 46t46 19q26 0 45 -19t19 -46q0 -26 -19 -45t-45 -19zM401 -302q-26 0 -45.5 18.5t-19.5 45.5t19.5 46t45.5 19q27 0 45.5 -19t18.5 -46t-18.5 -45.5t-45.5 -18.5z" />
    <glyph glyph-name="uni0688" unicode="&#x688;" horiz-adv-x="468" 
d="M429 0h-375v118h248v88q-1 121 -97 121q-47 -1 -107 -54l-59 102q81 70 170 70q93 0 156.5 -65t63.5 -174v-206zM207 545q3 8 3 16q0 9 -5 16q-8 13 -25 13q-33 0 -52 -45h79zM238 505h-169v40h20v111h37v-51q21 26 55 26q66 0 66 -68q0 -15 -9 -58z" />
    <glyph glyph-name="uni0691" unicode="&#x691;" horiz-adv-x="301" 
d="M56 -191h-66v117h55q91 0 91 85v408h126v-419q0 -191 -206 -191zM230 527q3 8 3 16q0 9 -5 16q-8 13 -25 13q-33 0 -52 -45h79zM261 487h-169v40h20v111h37v-51q21 26 55 26q66 0 66 -68q0 -15 -9 -58z" />
    <glyph glyph-name="uni0698" unicode="&#x698;" horiz-adv-x="292" 
d="M47 -191h-67v117h56q90 0 90 85v408h127v-419q0 -191 -206 -191zM68 458q-28 0 -48 19.5t-20 47.5t20 48t48 20q27 0 47 -20t20 -48t-20 -47.5t-47 -19.5zM211 458q-27 0 -47.5 19.5t-20.5 47.5t20.5 48t47.5 20q28 0 47.5 -20t19.5 -48t-19.5 -47.5t-47.5 -19.5z
M133 595q-27 0 -47.5 19.5t-20.5 47.5t20.5 48t47.5 20q28 0 47.5 -20t19.5 -48t-19.5 -47.5t-47.5 -19.5z" />
    <glyph glyph-name="uni06A4" unicode="&#x6a4;" horiz-adv-x="819" 
d="M653 118v226q-22 14 -53 14q-37 0 -61 -25q-38 -41 -38 -97q0 -117 136 -118h16zM780 0h-483q-110 0 -175 59q-82 74 -83 184q1 93 43 169l112 -57q-28 -56 -28 -108q0 -128 132 -129h102q-26 41 -27 112q0 120 89 191q62 47 142 47q93 0 176 -56v-412zM346 478
q-29 0 -50.5 21t-21.5 50q0 31 21.5 51.5t50.5 20.5q30 0 50.5 -21t20.5 -51q0 -29 -20.5 -50t-50.5 -21zM499 478q-30 0 -51 21t-21 50q0 31 21 51.5t51 20.5q29 0 50 -21t21 -51q0 -29 -21 -50t-50 -21zM416 623q-30 0 -51 21t-21 50q0 31 21 51.5t51 20.5q29 0 50 -20.5
t21 -51.5q0 -29 -21 -50t-50 -21z" />
    <glyph glyph-name="uni06A9" unicode="&#x6a9;" horiz-adv-x="695" 
d="M652 0h-355q-110 0 -175 59q-82 74 -83 184q1 93 43 169l112 -57q-28 -56 -28 -108q0 -128 132 -129h215q-20 158 -234 202v117l348 201l29 -121l-220 -125q208 -69 216 -392z" />
    <glyph glyph-name="uni06AF" unicode="&#x6af;" horiz-adv-x="695" 
d="M277 468l2 124l317 183l26 -112zM652 0h-355q-110 0 -175 59q-82 74 -83 184q1 93 43 169l112 -57q-28 -56 -28 -108q0 -128 132 -129h215q-20 158 -234 202v117l348 201l29 -121l-220 -125q208 -69 216 -392z" />
    <glyph glyph-name="uni06BA" unicode="&#x6ba;" horiz-adv-x="587" 
d="M341 -191h-44q-110 0 -175 58q-82 74 -83 183q2 144 97 234l98 -70q-68 -77 -68 -160q0 -126 132 -128h39q85 1 85 73v420h126v-401q0 -209 -207 -209z" />
    <glyph glyph-name="uni06BE" unicode="&#x6be;" horiz-adv-x="622" 
d="M580 0h-541v119h55q-9 22 -9 69q0 114 77 155l-38 60q101 72 224 72q105 0 170 -69.5t65 -203.5zM239 119q9 0 20 2.5t19.5 16t8.5 50.5q0 68 -48 68t-48 -68q0 -37 9.5 -50.5t20.5 -16t18 -2.5zM460 119v62q0 182 -154 182h-43q42 -2 88.5 -49.5t46.5 -126.5
q0 -46 -10 -68h72z" />
    <glyph glyph-name="uni06C1" unicode="&#x6c1;" horiz-adv-x="485" 
d="M446 0h-132q-122 1 -176 42q-98 70 -99 188q0 120 90 191q62 47 141 47q93 0 176 -56v-412zM319 118v226q-22 14 -53 14q-37 0 -61 -25q-37 -41 -37 -97q0 -117 135 -118h16z" />
    <glyph glyph-name="uni06C2" unicode="&#x6c2;" horiz-adv-x="485" 
d="M446 0h-132q-122 1 -176 42q-98 70 -99 188q0 120 90 191q62 47 141 47q93 0 176 -56v-412zM319 118v226q-22 14 -53 14q-37 0 -61 -25q-37 -41 -37 -97q0 -117 135 -118h16zM84 459l-8 49l22 11q-26 19 -26 51q0 44 39 65q13 7 35 7q24 0 47 -11l-9 -46q-15 5 -25 5
q-28 0 -28 -26q1 -25 44 -28q13 0 31 2l-2 -48q-68 -10 -120 -31z" />
    <glyph glyph-name="uni06C3" unicode="&#x6c3;" horiz-adv-x="485" 
d="M446 0h-132q-122 1 -176 42q-98 70 -99 188q0 120 90 191q62 47 141 47q93 0 176 -56v-412zM319 118v226q-22 14 -53 14q-37 0 -61 -25q-37 -41 -37 -97q0 -117 135 -118h16zM158 505q-29 0 -50.5 21t-21.5 50q0 31 21.5 51.5t50.5 20.5t50 -20.5t21 -51.5q0 -29 -21 -50
t-50 -21zM310 505q-29 0 -50.5 21t-21.5 50q0 31 21.5 51.5t50.5 20.5t50 -20.5t21 -51.5q0 -29 -21 -50t-50 -21z" />
    <glyph glyph-name="uni06CC" unicode="&#x6cc;" horiz-adv-x="794" 
d="M297 -94q-110 0 -175 59q-82 74 -83 183q2 145 97 235l98 -71q-68 -77 -68 -160q0 -125 132 -126h100v378q80 23 170 23q185 -4 185 -207l2 -123h-127v119q0 103 -60 103q-29 0 -42 -7l-2 -367q0 -35 -32 -35z" />
    <glyph glyph-name="uni06D2" unicode="&#x6d2;" horiz-adv-x="616" 
d="M433 0h-371q-23 81 -23 171q3 186 206 186l92 1v-108h-88q-102 0 -102 -90q0 -29 6 -42h444q-22 -118 -164 -118z" />
    <glyph glyph-name="uni06D3" unicode="&#x6d3;" horiz-adv-x="616" 
d="M433 0h-371q-23 81 -23 171q3 186 206 186l92 1v-108h-88q-102 0 -102 -90q0 -29 6 -42h444q-22 -118 -164 -118zM84 372l-8 49l22 11q-26 19 -26 51q0 44 39 65q13 7 35 7q24 0 47 -11l-9 -46q-15 5 -25 5q-28 0 -28 -26q1 -25 44 -28q13 0 31 2l-2 -48
q-68 -10 -120 -31z" />
    <glyph glyph-name="uni06D4" unicode="&#x6d4;" horiz-adv-x="330" 
d="M165 -3q-28 0 -48 19.5t-20 47.5t20 47.5t48 19.5t48 -19.5t20 -47.5t-20 -47.5t-48 -19.5z" />
    <glyph glyph-name="uni06F0" unicode="&#x6f0;" horiz-adv-x="232" 
d="M193 143h-154v150h154v-150z" />
    <glyph glyph-name="uni06F1" unicode="&#x6f1;" horiz-adv-x="205" 
d="M166 0h-127v630h127v-630z" />
    <glyph glyph-name="uni06F2" unicode="&#x6f2;" horiz-adv-x="474" 
d="M166 0h-127v630h127v-223q71 0 106.5 20t36.5 88v115h126v-128q0 -209 -223 -209l-46 1v-294z" />
    <glyph glyph-name="uni06F3" unicode="&#x6f3;" horiz-adv-x="591" 
d="M166 0h-127v630h127v-224q71 0 73 109v115h123q0 -116 -1 -194q0 -7 22 -7q50 0 51 76v125h118v-124q-3 -135 -86 -187q-33 -21 -70 -21q-54 0 -99 36q-46 -41 -112 -41h-19v-293z" />
    <glyph glyph-name="uni06F4" unicode="&#x6f4;" horiz-adv-x="511" 
d="M166 0h-127v630h127v-252q18 -11 55 -11h27q-43 21 -48 111q0 65 42.5 105t106.5 40q71 0 123 -61l-62 -75q-39 50 -64 50q-10 0 -23.5 -14.5t-13.5 -45.5q0 -66 70 -66l91 56l1 -102q-103 -108 -253 -108q-39 0 -52 3v-260z" />
    <glyph glyph-name="uni06F5" unicode="&#x6f5;" horiz-adv-x="544" 
d="M267 109q108 0 108 104q0 151 -114 254q-50 -47 -80 -133q-18 -53 -18 -101q0 -77 47 -109q23 -15 57 -15zM279 -7q-118 1 -182 70q-58 66 -58 161q0 79 33 154q50 116 114 181l-24 24l77 85q64 -55 144 -153q122 -158 122 -286q-5 -236 -226 -236z" />
    <glyph glyph-name="uni06F6" unicode="&#x6f6;" horiz-adv-x="484" 
d="M172 -11l-93 102q46 71 104 134l-33 21q-111 71 -111 194q2 80 65 137.5t154 57.5q102 0 170 -70l-80 -99q-49 57 -84 57q-34 -1 -64 -29t-30 -73q0 -46 36 -69.5t70 -23.5q51 0 149 82l20 -142q-153 -86 -273 -279z" />
    <glyph glyph-name="uni06F7" unicode="&#x6f7;" horiz-adv-x="623" 
d="M381 0h-131l-211 630h136l138 -429l132 429h139z" />
    <glyph glyph-name="uni06F8" unicode="&#x6f8;" horiz-adv-x="625" 
d="M586 -1h-136l-138 431l-133 -431h-140l203 631h131z" />
    <glyph glyph-name="uni06F9" unicode="&#x6f9;" horiz-adv-x="529" 
d="M256 321q35 0 65 29.5t30 65.5q0 42 -28.5 72t-62.5 30q-42 0 -68 -30.5t-26 -70.5q0 -39 27.5 -67.5t62.5 -28.5zM490 -1h-128v239q-25 -28 -115 -28q-53 0 -103 29t-77.5 78.5t-27.5 97.5q0 51 29 103.5t82 83.5t112 31q111 0 173 -85q55 -78 55 -186v-363z" />
    <glyph glyph-name="uni2002" unicode="&#x2002;" horiz-adv-x="850" 
 />
    <glyph glyph-name="uni2003" unicode="&#x2003;" horiz-adv-x="1700" 
 />
    <glyph glyph-name="uni2009" unicode="&#x2009;" horiz-adv-x="250" 
 />
    <glyph glyph-name="uni200A" unicode="&#x200a;" horiz-adv-x="30" 
 />
    <glyph glyph-name="uni200C" unicode="&#x200c;" horiz-adv-x="32" 
 />
    <glyph glyph-name="uni200D" unicode="&#x200d;" horiz-adv-x="32" 
d="M159 840h-33v66h-219v-66h-32v99h284v-99z" />
    <glyph glyph-name="uni200E" unicode="&#x200e;" horiz-adv-x="32" 
d="M146 823l-24 25l59 58h-149v-61h-32v94h181l-59 56l24 25l98 -99z" />
    <glyph glyph-name="uni200F" unicode="&#x200f;" horiz-adv-x="32" 
d="M-115 824l-98 97l98 99l24 -22l-59 -59h182v-93h-32v60h-148l57 -58z" />
    <glyph glyph-name="uni2010" unicode="&#x2010;" horiz-adv-x="466" 
d="M427 140h-388v117h388v-117z" />
    <glyph glyph-name="endash" unicode="&#x2013;" horiz-adv-x="532" 
d="M493 159h-454v118h454v-118z" />
    <glyph glyph-name="emdash" unicode="&#x2014;" horiz-adv-x="969" 
d="M930 159h-891v118h891v-118z" />
    <glyph glyph-name="quoteleft" unicode="&#x2018;" horiz-adv-x="244" 
d="M125 406q-30 0 -50.5 23t-20.5 59q1 44 31.5 87t80.5 58l22 -47q-38 -25 -43 -52q15 -3 30 -21.5t15 -41.5q0 -31 -23 -50q-19 -15 -42 -15z" />
    <glyph glyph-name="quoteright" unicode="&#x2019;" horiz-adv-x="244" 
d="M119 632q30 0 54 -27q17 -19 17 -55q-1 -44 -31.5 -87t-80.5 -58l-22 47q38 25 43 52q-15 3 -30 21.5t-15 41.5q0 31 23 50q19 15 42 15z" />
    <glyph glyph-name="quotesinglbase" unicode="&#x201a;" horiz-adv-x="216" 
d="M110 -50q-17 0 -28.5 13t-11.5 33q1 26 18.5 50.5t44.5 32.5l11 -25q-21 -14 -24 -32q26 -9 26 -36q0 -17 -10.5 -26.5t-25.5 -9.5z" />
    <glyph glyph-name="quotedblleft" unicode="&#x201c;" horiz-adv-x="427" 
d="M138 409q-29 0 -48.5 22t-19.5 57q1 43 31 85t76 56l20 -42q-37 -24 -42 -55q16 -4 30.5 -21.5t14.5 -39.5q0 -30 -22 -48q-18 -14 -40 -14zM295 409q-29 0 -48.5 22t-19.5 57q1 43 31 85t76 56l20 -42q-37 -24 -42 -55q16 -4 30.5 -21.5t14.5 -39.5q0 -30 -22 -48
q-18 -14 -40 -14z" />
    <glyph glyph-name="quotedblright" unicode="&#x201d;" horiz-adv-x="427" 
d="M248 405l-22 47q38 25 43 52q-15 3 -30 21.5t-15 41.5q0 31 23 50q19 15 42 15q30 0 50.5 -23t20.5 -59q-1 -44 -31.5 -87t-80.5 -58zM91 405l-22 47q38 25 43 52q-15 3 -30 21.5t-15 41.5q0 31 23 50q19 15 42 15q30 0 50.5 -23t20.5 -59q-1 -44 -31.5 -87t-80.5 -58z
" />
    <glyph glyph-name="quotedblbase" unicode="&#x201e;" horiz-adv-x="427" 
d="M248 -105l-22 47q38 25 43 52q-15 3 -30 21.5t-15 41.5q0 31 23 50q19 15 42 15q30 0 50.5 -23t20.5 -59q-1 -44 -31.5 -87t-80.5 -58zM91 -105l-22 47q38 25 43 52q-15 3 -30 21.5t-15 41.5q0 31 23 50q19 15 42 15q30 0 50.5 -23t20.5 -59q-1 -44 -31.5 -87t-80.5 -58z
" />
    <glyph glyph-name="dagger" unicode="&#x2020;" horiz-adv-x="596" 
d="M352 -99h-108v455h-190v99h190v178h108v-178h190v-99h-190v-455z" />
    <glyph glyph-name="daggerdbl" unicode="&#x2021;" horiz-adv-x="596" 
d="M352 -99h-108v178h-190v99h190v178h-190v99h190v178h108v-178h190v-99h-190v-178h190v-99h-190v-178z" />
    <glyph glyph-name="bullet" unicode="&#x2022;" horiz-adv-x="365" 
d="M183 171q-53 0 -91 37.5t-38 89.5q0 53 38 91t91 38q52 0 90 -38t38 -91q0 -52 -38 -89.5t-90 -37.5z" />
    <glyph glyph-name="ellipsis" unicode="&#x2026;" horiz-adv-x="625" 
d="M107 -3q-28 0 -48 19.5t-20 47.5t20 47.5t48 19.5t48 -19.5t20 -47.5t-20 -47.5t-48 -19.5zM313 -3q-29 0 -48.5 19.5t-19.5 47.5t19.5 47.5t48.5 19.5q27 0 47 -19.5t20 -47.5t-20 -47.5t-47 -19.5zM519 -3q-28 0 -48 19.5t-20 47.5t20 47.5t48 19.5q27 0 47 -19.5
t20 -47.5t-20 -47.5t-47 -19.5z" />
    <glyph glyph-name="uni202A" unicode="&#x202a;" horiz-adv-x="32" 
d="M-18 818l-23 23l75 75l-75 75l23 24l98 -99z" />
    <glyph glyph-name="uni202B" unicode="&#x202b;" horiz-adv-x="32" 
d="M45 818l-98 98l98 99l23 -24l-75 -75l75 -75z" />
    <glyph glyph-name="uni202C" unicode="&#x202c;" horiz-adv-x="32" 
d="M33 845h-33v121l-56 -56l-24 23l98 97l97 -97l-24 -23l-58 56v-121z" />
    <glyph glyph-name="uni202D" unicode="&#x202d;" horiz-adv-x="32" 
d="M44 818l-23 23l75 75l-75 75l23 24l98 -99zM-76 818l-23 23l75 75l-75 75l23 24l98 -99z" />
    <glyph glyph-name="uni202E" unicode="&#x202e;" horiz-adv-x="32" 
d="M-17 818l-98 98l98 99l23 -24l-75 -75l75 -75zM103 818l-98 98l98 99l23 -24l-75 -75l75 -75z" />
    <glyph glyph-name="perthousand" unicode="&#x2030;" horiz-adv-x="806" 
d="M164 405q-50 0 -80 34t-30 86q0 54 31 87t79 33t78.5 -32.5t30.5 -87.5q0 -53 -30 -86.5t-79 -33.5zM164 479q27 0 27 46t-27 46q-28 0 -28 -46t28 -46zM406 -2q-50 0 -80 34t-30 87t30.5 87t79.5 34q47 0 77.5 -33t30.5 -88q0 -53 -30 -87t-78 -34zM405 72q28 0 28 47
t-28 47q-27 0 -27 -47t27 -47zM642 72q28 0 28 47t-28 47q-12 0 -19.5 -12.5t-7.5 -34.5q0 -47 27 -47zM643 -2q-49 0 -79.5 34t-30.5 87t31.5 87t78.5 34q48 0 78.5 -33t30.5 -88q0 -53 -30 -87t-79 -34zM184 -2h-104l289 634h105z" />
    <glyph glyph-name="guilsinglleft" unicode="&#x2039;" horiz-adv-x="284" 
d="M245 62h-106l-100 181l100 177h106l-89 -177z" />
    <glyph glyph-name="guilsinglright" unicode="&#x203a;" horiz-adv-x="284" 
d="M145 62h-106l89 177l-89 181h106l100 -181z" />
    <glyph glyph-name="fraction" unicode="&#x2044;" horiz-adv-x="471" 
d="M143 -2h-104l289 634h104z" />
    <glyph glyph-name="Euro" unicode="&#x20ac;" horiz-adv-x="616" 
d="M391 -5q-226 0 -261 210h-76v73h70q0 36 3 70h-73v73h81q46 217 271 217q89 0 147 -32l-24 -92q-48 28 -124 28q-121 0 -142 -121h176v-73h-187q-2 -11 -2 -33q0 -25 3 -37h186v-73h-177q18 -113 147 -113q68 0 125 35l28 -87q-71 -45 -171 -45z" />
    <glyph glyph-name="lozenge" unicode="&#x25ca;" horiz-adv-x="651" 
d="M369 0h-84l-231 318l229 315h83l231 -318zM329 93l158 217l-168 230l-156 -218z" />
    <glyph glyph-name="uni25CC" unicode="&#x25cc;" horiz-adv-x="673" 
d="M104 222q-50 0 -50 50q0 51 50 51q54 0 54 -51q0 -50 -54 -50zM567 222q-50 0 -50 50q0 51 50 51q52 0 52 -51q0 -50 -52 -50zM337 451q-52 0 -52 53q0 52 52 52q51 0 51 -52q0 -53 -51 -53zM337 -10q-52 0 -52 51q0 52 52 52q51 0 51 -52q0 -51 -51 -51zM540 336
q-52 0 -52 54q0 50 52 50q49 0 49 -50q0 -54 -49 -54zM540 105q-52 0 -52 51q0 52 52 52q49 0 49 -52q0 -51 -49 -51zM134 336q-51 0 -51 54q0 50 51 50q54 0 54 -50q0 -54 -54 -54zM134 105q-51 0 -51 51q0 52 51 52q54 0 54 -52q0 -51 -54 -51zM219 423q-48 0 -48 51
q0 52 48 52q53 0 53 -52q0 -51 -53 -51zM452 423q-22 0 -37 13t-15 38q0 52 52 52q51 0 51 -52q0 -51 -51 -51zM219 20q-48 0 -48 49q0 54 48 54q53 0 53 -54q0 -49 -53 -49zM452 20q-52 0 -52 49q0 25 15 39.5t37 14.5q51 0 51 -54q0 -49 -51 -49z" />
    <glyph glyph-name="uni274A" unicode="&#x274a;" horiz-adv-x="398" 
d="M199 379q-18 0 -32 13.5t-14 33.5q0 18 13 31t13 21v27l-23 -13q-7 -5 -11 -22.5t-22 -27.5q-11 -6 -23 -6q-26 0 -40 23q-6 12 -6 23q0 26 24 41q11 5 23 5l11 -1q11 -4 17 -4q3 0 32 16q-27 15 -32 15q-7 0 -14.5 -2.5t-14.5 -2.5q-12 0 -23 7q-23 13 -23 41q0 11 7 22
q13 24 39 24q12 0 23 -7q18 -8 22 -27t11 -23l23 -14v28q0 8 -13 21t-13 32t14 32.5t32 13.5q20 0 33.5 -13.5t13.5 -32.5t-13.5 -32t-13.5 -21v-28l23 14q7 4 12 22.5t20 27.5q12 7 24 7q26 0 40 -24q6 -11 6 -22q0 -28 -23 -41q-11 -7 -23 -7q-7 0 -14.5 2.5t-14.5 2.5
q-4 0 -31 -15q28 -16 31 -16q7 0 17 4l11 1q12 0 24 -5q23 -15 23 -41q0 -11 -6 -23q-14 -23 -40 -23q-35 0 -45 35q-4 16 -11 21l-23 13v-27q0 -8 13.5 -20.5t13.5 -31.5q0 -20 -13.5 -33.5t-33.5 -13.5z" />
    <glyph glyph-name="uni064B0651" 
d="M-55 635q-71 0 -76 74l-2 59l58 2q1 -29 2.5 -53.5t18.5 -24.5q23 0 23 46l-2 34l61 -1q0 -31 1.5 -53.5t19.5 -22.5q17 0 17 31q0 19 -6 52l61 4l2 -55q0 -87 -75 -87q-42 0 -51 20q-15 -25 -52 -25zM-102 810l-3 47l207 27l1 -48z" />
    <glyph glyph-name="HamzDamma_ar" 
d="M-56 638l-13 53l25 14q-21 19 -21 55q0 38 32 61q20 15 54 15q17 0 45 -4l-2 -54q-22 3 -32 3q-36 -1 -36 -26q3 -28 54 -29q12 0 35 3v-54q-80 -12 -141 -37zM-97 841l5 47l50 8q-3 11 -3 22q0 27 19 48t49 22q28 0 45 -18.5t17 -48.5q0 -13 -2.5 -30.5t-20.5 -21.5z
M2 902l33 8q0 36 -14 36q-17 0 -20 -26q0 -14 1 -18z" />
    <glyph glyph-name="HamzFatha_ar" 
d="M-56 638l-13 53l25 14q-21 19 -21 55q0 38 32 61q20 15 54 15q17 0 45 -4l-2 -54q-22 3 -32 3q-36 -1 -36 -26q3 -28 54 -29q12 0 35 3v-54q-80 -12 -141 -37zM-96 853v51l190 27v-51z" />
    <glyph glyph-name="HamzSkoon_ar" 
d="M-55 638l-13 53q19 12 25 14q-22 19 -22 55q0 38 32 61q20 15 54 15q17 0 45 -4l-2 -54q-22 3 -32 3q-36 -1 -36 -26q3 -28 54 -29q12 0 35 3v-54q-79 -12 -140 -37zM-3 847q-74 0 -74 81q0 79 79 84q72 0 76 -84q0 -37 -23 -59t-58 -22zM-1 891q33 0 33 37q0 39 -33 39
q-30 0 -30 -37q0 -39 30 -39z" />
    <glyph glyph-name="HamzDammateen_ar" 
d="M-56 635l-13 53l25 14q-21 19 -21 55q0 38 31 61q20 15 55 15q16 0 45 -4l-2 -54q-23 3 -32 3q-37 -1 -37 -26q4 -28 55 -29q11 0 34 3v-54q-79 -12 -140 -37zM10 899l34 8v10q0 27 -17 27q-18 -4 -18 -32q0 -8 1 -13zM-69 841h-3q-16 0 -23 14l-31 73l38 23l25 -64l30 5
q-3 13 -3 23q0 26 19 47.5t49 22.5q27 0 44 -19t17 -48q0 -13 -2 -30t-20 -22z" />
    <glyph glyph-name="HamzFathateen_ar" 
d="M-56 633l-13 53l25 14q-21 19 -21 55q0 38 32 61q20 15 54 15q17 0 45 -4l-2 -54q-22 3 -32 3q-36 -1 -36 -26q3 -28 54 -29q12 0 35 3v-54q-80 -12 -141 -37zM-99 834v51l190 27v-51zM-100 906v51l191 27v-51z" />
    <glyph glyph-name="HamzKasra_ar" 
d="M-66 -283l-12 54q19 11 25 13q-22 19 -22 56t32 61q20 15 54 15q17 0 45 -5l-2 -53q-22 3 -32 3q-36 -2 -36 -27q3 -28 54 -28q12 0 35 3v-54q-80 -12 -141 -38zM-93 -359v51l190 27v-52z" />
    <glyph glyph-name="HamzKasrateen_ar" 
d="M-66 -283l-12 54q19 11 25 13q-22 19 -22 56t32 61q20 15 54 15q17 0 45 -5l-2 -53q-22 3 -32 3q-36 -2 -36 -27q3 -28 54 -28q12 0 35 3v-54q-80 -12 -141 -38zM-89 -422v51l190 26v-51zM-90 -351v51l190 27v-51z" />
    <glyph glyph-name="uniFD3E" unicode="&#xfd3e;" horiz-adv-x="397" 
d="M261 0h-51q-78 103 -106 214h67q14 -64 34 -111q13 -30 56 -103zM172 419h-67q29 115 105 212h51q-67 -107 -89 -212zM146 343h-7q0 8 -8.5 23t-8.5 22q0 9 6.5 15.5t14.5 6.5t14 -6.5t6 -15.5q0 -7 -8.5 -22t-8.5 -23zM143 224q-8 0 -14.5 6.5t-6.5 14.5t8.5 23t8.5 23
h7q0 -8 8.5 -23t8.5 -23t-6 -14.5t-14 -6.5zM214 297q-8 0 -22.5 8t-23.5 8v7q9 0 23.5 8.5t22.5 8.5q9 0 15 -6t6 -14t-6 -14t-15 -6zM71 297q-9 0 -15 6t-6 14t6 14t15 6q8 0 22.5 -8.5t23.5 -8.5v-7q-9 0 -23.5 -8t-22.5 -8zM164 333l-5 5q6 5 10.5 21.5t10 22.5t14.5 6
t14.5 -5.5t5.5 -14.5t-6 -14.5t-22.5 -10t-21.5 -10.5zM91 245q-8 0 -14 6t-6 15t6.5 14.5t22.5 10t22 10.5l5 -5q-6 -6 -10.5 -22t-10.5 -22.5t-15 -6.5zM194 245q-9 0 -14.5 6.5t-10 22.5t-10.5 22l5 5q5 -6 21.5 -10.5t22.5 -10t6 -14.5t-5.5 -15t-14.5 -6zM122 333
q-6 6 -22 10.5t-22.5 10t-6.5 14.5t6 14.5t14 5.5q9 0 15 -6t10.5 -22.5t10.5 -21.5zM143 298q-8 0 -14 5.5t-6 13.5t6 13.5t14 5.5t13.5 -5.5t5.5 -13.5t-5.5 -13.5t-13.5 -5.5z" />
    <glyph glyph-name="uniFD3F" unicode="&#xfd3f;" horiz-adv-x="397" 
d="M143 0h-52q43 73 57 103q20 47 34 111h66q-27 -111 -105 -214zM248 420h-67q-23 104 -90 212h52q76 -97 105 -212zM216 343h-7q0 9 -8.5 23.5t-8.5 22.5q0 9 6 15t14 6t14 -6t6 -15q0 -8 -8 -22.5t-8 -23.5zM212 225q-8 0 -14 6t-6 15q0 8 8.5 22.5t8.5 23.5h7
q0 -9 8 -23.5t8 -22.5q0 -9 -6 -15t-14 -6zM141 297q-9 0 -15.5 6.5t-6.5 13.5q0 8 6.5 14.5t15.5 6.5q7 0 22 -8.5t24 -8.5v-7q-9 0 -24 -8.5t-22 -8.5zM284 297q-8 0 -22.5 8.5t-23.5 8.5v7q9 0 23.5 8.5t22.5 8.5q9 0 15 -6.5t6 -14.5q0 -7 -6 -13.5t-15 -6.5zM191 333
q-5 7 -21.5 11t-22.5 10t-6 15t5.5 14.5t14.5 5.5t14.5 -6t10 -22.5t10.5 -21.5zM263 246q-8 0 -14 6t-10.5 22.5t-10.5 21.5l5 6q6 -7 22 -11t22.5 -10t6.5 -15t-6 -14.5t-15 -5.5zM161 246q-9 0 -14.5 5.5t-5.5 14.5t6 15t22.5 10t21.5 11l5 -6q-6 -5 -10.5 -21.5
t-10 -22.5t-14.5 -6zM233 333l-5 6q6 5 10.5 21.5t10.5 22.5t14 6q9 0 15 -5.5t6 -14.5t-6.5 -15t-22.5 -10t-22 -11zM212 298q-8 0 -13.5 6t-5.5 13q0 8 5.5 14t13.5 6t14 -6t6 -14q0 -7 -6 -13t-14 -6z" />
    <glyph glyph-name="extendedarabicindicfourarab_urdo" horiz-adv-x="557" 
d="M166 0h-127v370q1 102 39.5 166.5t104.5 64.5q86 0 127 -92q20 38 71 78.5t137 40.5v-132q-131 0 -182 -121q-11 -27 -29 -27q-19 0 -37 49q-28 73 -59 73q-43 0 -45 -92v-378z" />
    <glyph glyph-name="extendedarabicindicsevenarab_urdo" horiz-adv-x="528" 
d="M376 630l-164 -507h277v-123h-450l206 630h131z" />
    <glyph glyph-name="guillemotleft" unicode="&#xab;" horiz-adv-x="498" 
d="M284 0h-86l-110 159l110 158h86l-111 -158zM410 0h-86l-110 159l110 158h86l-111 -158z" />
    <glyph glyph-name="guillemotright" unicode="&#xbb;" horiz-adv-x="498" 
d="M299 0h-85l110 159l-110 158h85l111 -158zM174 0h-86l111 159l-111 158h86l110 -158z" />
    <glyph glyph-name="zero" unicode="0" horiz-adv-x="528" 
d="M265 -11q-231 0 -231 322q0 109 25.5 177t76.5 106t129 38q165 0 214 -176q15 -55 15 -145q0 -322 -229 -322zM264 103q42 0 72.5 39.5t30.5 167.5q0 130 -30.5 168.5t-72.5 38.5q-43 0 -69 -32q-34 -45 -34 -175q0 -129 30.5 -168t72.5 -39z" />
    <glyph glyph-name="one" unicode="1" horiz-adv-x="277" 
d="M243 0h-127v442l-72 -35v119q82 55 112 104h87v-630z" />
    <glyph glyph-name="two" unicode="2" horiz-adv-x="500" 
d="M471 1h-437v24q0 74 61 147q34 40 96 92q93 74 123 114.5t30 71.5q0 30 -22.5 51t-61.5 21q-81 0 -87 -105h-129q23 219 218 219q95 0 152 -54t57 -134t-69 -156q-34 -40 -113 -106q-44 -32 -80 -62h262v-123z" />
    <glyph glyph-name="three" unicode="3" horiz-adv-x="504" 
d="M247 -10q-86 0 -144 52t-69 166h125q15 -66 36 -85t53 -19q39 0 66 26.5t27 66.5q0 39 -24.5 63t-62.5 24q-14 0 -68 -13v125l39 -3q36 0 63 17.5t27 52.5q0 28 -19 46t-50 18q-59 0 -80 -90h-127q39 203 205 203q54 0 100.5 -23.5t71.5 -66t25 -89.5q0 -66 -42 -105
q71 -51 71 -157q0 -88 -63.5 -148.5t-159.5 -60.5z" />
    <glyph glyph-name="four" unicode="4" horiz-adv-x="529" 
d="M416 0h-126v141h-256v101l280 388h102v-370h79v-119h-79v-141zM290 260v147l-106 -147h106z" />
    <glyph glyph-name="five" unicode="5" horiz-adv-x="510" 
d="M250 -11q-189 0 -211 214h125q20 -100 86 -100q40 0 67 30.5t27 85.5q0 50 -26 77.5t-69 27.5q-53 0 -91 -59l-109 15l64 350h332v-122h-232l-14 -70q30 3 68 3q87 0 145.5 -60.5t58.5 -155.5q0 -88 -50 -154q-63 -82 -171 -82z" />
    <glyph glyph-name="six" unicode="6" horiz-adv-x="505" 
d="M262 -11q-101 0 -164.5 75t-63.5 237q0 179 68 263q62 77 167 77q167 0 195 -195h-124q-12 82 -76 82q-25 0 -44 -15q-50 -35 -61 -107q42 27 113 27q82 0 140.5 -60.5t58.5 -155.5q0 -62 -27 -115.5t-74.5 -83t-107.5 -29.5zM261 104q34 0 58.5 28t24.5 80q0 50 -24 77
t-62 27q-37 0 -63 -27t-26 -73q0 -31 13 -58.5t34 -40.5t45 -13z" />
    <glyph glyph-name="seven" unicode="7" horiz-adv-x="482" 
d="M234 1h-125q2 99 28.5 199.5t75.5 193.5t67 113h-251v123h429v-94q-61 -65 -114 -160.5t-82 -195.5q-20 -71 -28 -179z" />
    <glyph glyph-name="eight" unicode="8" horiz-adv-x="511" 
d="M256 -11q-99 0 -160.5 59.5t-61.5 148.5q0 66 21.5 104.5t38.5 51.5q-36 34 -36 112q0 76 54 126.5t142 50.5t143 -52t55 -128q0 -66 -41 -111q66 -48 66 -156q0 -88 -62 -147t-159 -59zM256 400q32 0 50.5 18.5t18.5 44.5q0 27 -19.5 46.5t-50.5 19.5t-50.5 -18.5
t-19.5 -43.5q0 -30 19 -48.5t52 -18.5zM256 104q42 0 67.5 25.5t25.5 64.5q0 40 -27 66t-68 26t-66.5 -25.5t-25.5 -63.5q0 -25 11.5 -47t33.5 -34t49 -12z" />
    <glyph glyph-name="nine" unicode="9" horiz-adv-x="505" 
d="M235 -11q-167 0 -194 196h124q11 -82 75 -82q60 0 91 76q13 34 14 46q-42 -28 -113 -28q-82 0 -140 61t-58 155q0 63 26.5 116.5t74.5 82.5t107 29q101 0 165 -74.5t64 -236.5q0 -179 -69 -264q-62 -77 -167 -77zM246 315q38 0 63.5 27t25.5 72q0 31 -12.5 58.5t-34 41
t-44.5 13.5q-34 0 -59 -28t-25 -81q0 -49 24.5 -76t61.5 -27z" />
    <glyph glyph-name="at" unicode="@" horiz-adv-x="731" 
d="M387 -4q-104 0 -181 37t-114.5 110t-37.5 159q0 94 42.5 175.5t116.5 122t169 40.5q80 0 143 -33t96 -94.5t33 -132.5q0 -86 -49 -156q-65 -88 -165 -88q-55 0 -61 27q-28 -27 -80 -27q-55 0 -91.5 40t-36.5 106q0 79 42 144q52 81 135 81q61 0 78 -28l4 20h101
q-53 -264 -53 -271q0 -6 2 -6q12 0 33 16q30 23 48 62.5t18 82.5q0 76 -52 127t-147 51q-81 0 -137 -34.5t-84.5 -97.5t-28.5 -131q0 -67 31.5 -120t88.5 -78t132 -25q143 0 208 86h87q-79 -165 -290 -165zM316 214q50 0 76 81q11 37 11 68q0 33 -14 49.5t-33 16.5
q-23 0 -43.5 -19t-31.5 -57t-11 -68q0 -71 46 -71z" />
    <glyph glyph-name="dollar" unicode="$" horiz-adv-x="607" 
d="M340 -75h-70v75q-148 17 -173 188l117 12q14 -68 56 -89v160q-156 45 -156 187q0 70 44 117.5t112 53.5v41h70v-41q131 -15 155 -153l-115 -15q-10 51 -40 64v-148q97 -26 133.5 -70t36.5 -113q0 -77 -46 -129t-124 -63v-77zM270 401v126q-43 -14 -43 -64q0 -44 43 -62z
M340 104q23 4 41 25.5t18 49.5q0 54 -59 71v-146z" />
    <glyph glyph-name="numbersign" unicode="#" horiz-adv-x="655" 
d="M407 0h-102l31 160h-80l-32 -160h-104l32 160h-55v101h75l23 110h-98v102h118l33 160h103l-33 -160h80l31 160h107l-33 -160h55v-102h-75l-23 -110h98v-101h-118zM356 261l22 110h-80l-22 -110h80z" />
    <glyph glyph-name="uni06C0" unicode="&#x6c0;" horiz-adv-x="485" 
d="M446 0h-132q-122 1 -176 42q-98 70 -99 188q0 120 90 191q62 47 141 47q93 0 176 -56v-412zM319 118v226q-22 14 -53 14q-37 0 -61 -25q-37 -41 -37 -97q0 -117 135 -118h16zM78 465l-8 49l22 11q-26 19 -26 51q0 44 39 65q13 7 35 7q24 0 47 -11l-9 -46q-15 5 -25 5
q-28 0 -28 -26q1 -25 44 -28q13 0 31 2l-2 -48q-68 -10 -120 -31z" />
    <glyph glyph-name="hyphen" unicode="-" horiz-adv-x="386" 
d="M347 0h-308v118h308v-118z" />
    <glyph glyph-name="uni00AD" unicode="&#xad;" horiz-adv-x="386" 
d="M347 0h-308v118h308v-118z" />
    <glyph glyph-name="quotesingle" unicode="'" horiz-adv-x="275" 
d="M162 458h-50l-15 91v83h81v-83z" />
    <glyph glyph-name="trademark" unicode="&#x2122;" horiz-adv-x="615" 
d="M114 373v203h-77v54h217v-54h-75v-203h-65zM282 373v257h89l60 -167l59 167h88v-257h-60v190l-66 -190h-44l-66 190v-190h-60z" />
    <glyph glyph-name="copyright" unicode="&#xa9;" horiz-adv-x="746" 
d="M373 -16q-137 0 -235.5 98t-98.5 235q0 91 45.5 167t121 121t167.5 45q91 0 167 -45t121.5 -121t45.5 -167t-45.5 -167t-121 -121t-167.5 -45zM373 60q108 0 183 74.5t75 182.5t-75 183t-183 75t-183 -75t-75 -183t75 -182.5t183 -74.5zM380 117q-81 0 -135 58t-54 142
q0 88 51.5 145.5t130.5 57.5q70 0 118 -43t55 -117h-99q-12 69 -68 69q-68 0 -72 -110q0 -108 77 -111q30 0 44 15.5t21 50.5h98q-10 -73 -55.5 -115t-111.5 -42z" />
    <glyph glyph-name="registered" unicode="&#xae;" horiz-adv-x="394" 
d="M197 329q-66 0 -113 47t-47 113t47 113t113 47t113 -47t47 -113t-47 -113t-113 -47zM197 363q52 0 89 37t37 89q0 53 -37 90t-89 37q-53 0 -90 -37t-37 -90q0 -52 37 -89t90 -37zM191 502q31 0 32 30q0 26 -30 26q-16 0 -19 -1v-55h17zM275 402h-45l-41 67h-15v-67h-42
v179q31 9 60 9q73 0 73 -58q0 -45 -35 -57z" />
    <glyph glyph-name="ampersand" unicode="&#x26;" horiz-adv-x="564" 
d="M262 0q-101 0 -162 53t-61 143q0 105 78 143q-50 32 -50 121q0 82 53 131t142 49q85 0 137 -45t58 -132h-122q-8 64 -73 64q-74 0 -74 -69q1 -69 72 -69h35v-118l-49 1q-76 0 -77 -75q0 -77 91 -79q88 0 94 70h-46v109h217v-109h-41q-4 -86 -63.5 -137t-158.5 -51z" />
    <glyph glyph-name="asterisk" unicode="*" horiz-adv-x="345" 
d="M210 394l-36 50l-37 -50l-60 43l36 50l-59 18l29 69l52 -18v62h77v-62l54 18l25 -69l-57 -18l36 -50z" />
    <glyph glyph-name="plus" unicode="+" horiz-adv-x="396" 
d="M357 285v-110h-105v-108h-110v108h-103v110h103v111h110v-111h105z" />
    <glyph glyph-name="semicolon" unicode=";" horiz-adv-x="238" 
d="M117 206q-29 0 -50 20.5t-21 50.5q0 29 21 50t50 21t50 -21t21 -50q0 -30 -21 -50.5t-50 -20.5zM69 -110l-29 61q43 28 46 49q-11 2 -29 23.5t-18 49.5q0 37 28 59q22 17 49 17q36 0 59.5 -26.5t23.5 -68.5q-1 -49 -35.5 -97t-94.5 -67z" />
    <glyph glyph-name="less" unicode="&#x3c;" horiz-adv-x="440" 
d="M39 212v111l362 202v-138l-201 -119l201 -118v-141z" />
    <glyph glyph-name="equal" unicode="=" horiz-adv-x="409" 
d="M375 290h-326v110h326v-110zM375 135h-326v110h326v-110z" />
    <glyph glyph-name="greater" unicode="&#x3e;" horiz-adv-x="440" 
d="M401 212l-362 -203v141l201 118l-201 119v138l362 -202v-111z" />
    <glyph glyph-name="question" unicode="?" horiz-adv-x="616" 
d="M364 141h-121q2 80 16.5 118t33.5 62t47 52t38.5 44t10.5 38q0 23 -18 40.5t-54 17.5q-69 0 -102 -100l-118 34q49 186 222 186q60 0 105.5 -24.5t70 -65.5t24.5 -88q0 -37 -11.5 -65t-27 -47t-40.5 -42.5t-39 -40t-23.5 -39.5t-13.5 -80zM305 -8q-30 0 -51 21t-21 51
q0 31 21 52t51 21t51 -21t21 -52q0 -30 -21 -51t-51 -21z" />
    <glyph glyph-name="A" unicode="A" horiz-adv-x="558" 
d="M551 0h-139l-42 135h-182l-42 -135h-139l214 630h116zM333 254l-54 171l-53 -171h107z" />
    <glyph glyph-name="B" unicode="B" horiz-adv-x="494" 
d="M235 0h-196v621q38 14 87.5 23t96.5 9q101 0 155 -48.5t54 -138.5q0 -55 -18.5 -91.5t-41.5 -45.5q48 -19 70.5 -60.5t22.5 -84.5q0 -78 -57.5 -131t-172.5 -53zM215 375q92 0 92 83v4q0 82 -81 82q-19 0 -35.5 -2.5t-23.5 -5.5v-161h48zM226 117q58 0 84 16t26 51
q0 75 -111 75h-58v-142h59z" />
    <glyph glyph-name="C" unicode="C" horiz-adv-x="543" 
d="M304 -8q-130 0 -202.5 86t-72.5 238q0 157 74.5 247t205.5 90q105 0 197 -77l-64 -105q-69 55 -133 55q-71 0 -109 -52.5t-38 -152.5q0 -201 149 -202q69 0 139 55l64 -103q-90 -79 -210 -79z" />
    <glyph glyph-name="D" unicode="D" horiz-adv-x="527" 
d="M217 0h-178v630h178q281 0 281 -306v-7q0 -313 -281 -317zM218 117q78 0 113 46t35 151q0 107 -34.5 154.5t-111.5 47.5h-51v-399h49z" />
    <glyph glyph-name="E" unicode="E" horiz-adv-x="425" 
d="M169 119h227v-119h-357v630h350v-116h-221v-139h163v-113h-162v-143z" />
    <glyph glyph-name="F" unicode="F" horiz-adv-x="408" 
d="M168 261v-261h-129v630h354v-116h-225v-139h176v-114h-176z" />
    <glyph glyph-name="G" unicode="G" horiz-adv-x="549" 
d="M302 -8q-128 0 -200.5 86t-72.5 239q0 157 74 246.5t205 89.5q110 0 197 -73l-65 -106q-65 52 -130 52q-69 0 -108 -53t-39 -152q0 -98 39 -150.5t110 -52.5q38 0 73 15v82h-62v128h187v-307l-92 -17q-63 -27 -116 -27z" />
    <glyph glyph-name="H" unicode="H" horiz-adv-x="534" 
d="M169 262v-262h-130v630h130v-254h196v254h130v-630h-130v262h-196z" />
    <glyph glyph-name="I" unicode="I" horiz-adv-x="218" 
d="M44 0v630h130v-630h-130z" />
    <glyph glyph-name="J" unicode="J" horiz-adv-x="287" 
d="M61 -3h-37v119q34 0 54.5 5t30.5 25t10 66v418h129v-419q0 -212 -187 -214z" />
    <glyph glyph-name="K" unicode="K" horiz-adv-x="524" 
d="M521 0h-160l-193 252v-252h-129v630h129v-264l175 264h142l-207 -313z" />
    <glyph glyph-name="L" unicode="L" horiz-adv-x="420" 
d="M44 0v630h129v-512h228v-118h-357z" />
    <glyph glyph-name="M" unicode="M" horiz-adv-x="700" 
d="M661 0h-128v334l-127 -333h-112l-126 333v-334h-129v630h128l184 -460l183 460h127v-630z" />
    <glyph glyph-name="N" unicode="N" horiz-adv-x="561" 
d="M522 0h-120l-234 396v-396h-129v630h122l232 -391v391h129v-630z" />
    <glyph glyph-name="O" unicode="O" horiz-adv-x="595" 
d="M298 -8q-124 0 -196.5 89t-72.5 241t73.5 241.5t199.5 89.5q120 0 192 -91t72 -240q0 -152 -72 -241t-196 -89zM298 117q138 0 139 202q0 208 -136 212q-141 0 -141 -213q0 -201 138 -201z" />
    <glyph glyph-name="P" unicode="P" horiz-adv-x="456" 
d="M168 0h-129v622q40 12 93.5 21t90.5 10q108 0 165.5 -50t57.5 -152q0 -107 -58.5 -162.5t-164.5 -55.5h-55v-233zM220 344q98 0 98 103v2q0 51 -23 72t-75 21q-19 -1 -35 -3.5t-18 -3.5v-191h53z" />
    <glyph glyph-name="Q" unicode="Q" horiz-adv-x="595" 
d="M298 119q136 0 139 201q0 103 -35.5 156.5t-100.5 53.5q-139 0 -141 -211q0 -197 138 -200zM372 -125l-89 119q-114 3 -184 89.5t-70 238.5q0 153 73 242t201 89q120 0 191.5 -90.5t71.5 -240.5q0 -152 -71 -240q-35 -43 -72 -60l65 -87z" />
    <glyph glyph-name="R" unicode="R" horiz-adv-x="505" 
d="M220 345q96 0 98 105q0 91 -94 91q-46 0 -56 -5v-191h52zM476 0h-138l-125 233h-44v-233h-130v622q93 29 184 31q222 0 223 -201q0 -157 -107 -198z" />
    <glyph glyph-name="S" unicode="S" horiz-adv-x="452" 
d="M236 -6q-190 4 -221 190l120 38q3 -61 28.5 -87t73.5 -26q78 0 78 65v5q0 29 -15.5 46t-58.5 36l-92 42q-113 53 -113 171q2 80 54.5 129.5t138.5 49.5q166 -5 202 -168l-119 -39q-5 94 -80 94h-5q-68 0 -68 -54v-5q0 -26 18.5 -45t65.5 -40l82 -38q112 -53 112 -176
q-3 -85 -57.5 -136.5t-143.5 -51.5z" />
    <glyph glyph-name="T" unicode="T" horiz-adv-x="470" 
d="M300 0h-129v512h-156v118h440v-118h-155v-512z" />
    <glyph glyph-name="U" unicode="U" horiz-adv-x="561" 
d="M281 -8q-117 0 -179.5 82.5t-62.5 220.5v335h130v-354q0 -65 27.5 -111.5t84.5 -46.5q56 0 83.5 46.5t27.5 111.5v354h130v-335q0 -138 -62.5 -220.5t-178.5 -82.5z" />
    <glyph glyph-name="V" unicode="V" horiz-adv-x="570" 
d="M344 0h-118l-216 630h139l136 -404l136 404h139z" />
    <glyph glyph-name="W" unicode="W" horiz-adv-x="790" 
d="M464 607l91 -362l77 385h143l-142 -630h-129l-110 423l-108 -423h-131l-140 630h142l76 -389l93 366h138z" />
    <glyph glyph-name="X" unicode="X" horiz-adv-x="531" 
d="M526 0h-147l-116 209l-111 -209h-147l187 325l-175 305h148l104 -189l105 189h141l-175 -305z" />
    <glyph glyph-name="Y" unicode="Y" horiz-adv-x="506" 
d="M233 0h-129l87 210l-181 420h130l114 -273l116 273h131z" />
    <glyph glyph-name="Z" unicode="Z" horiz-adv-x="501" 
d="M29 0l248 513h-238v117h433l-247 -512h225v-118h-421z" />
    <glyph glyph-name="bracketleft" unicode="[" horiz-adv-x="257" 
d="M218 568h-62v-581h54v-100h-171v782h179v-101z" />
    <glyph glyph-name="backslash" unicode="\" horiz-adv-x="502" 
d="M39 691h125l299 -749h-125z" />
    <glyph glyph-name="bracketright" unicode="]" horiz-adv-x="257" 
d="M39 568v101h179v-782h-170v100h54v581h-63z" />
    <glyph glyph-name="asciicircum" unicode="^" horiz-adv-x="446" 
d="M407 290h-129l-55 122l-55 -122h-129l184 345z" />
    <glyph glyph-name="underscore" unicode="_" horiz-adv-x="478" 
d="M439 -122h-400v113h400v-113z" />
    <glyph glyph-name="grave" unicode="`" horiz-adv-x="194" 
d="M154 545l-177 91l41 86l137 -72z" />
    <glyph glyph-name="a" unicode="a" horiz-adv-x="470" 
d="M431 0h-132q-122 2 -177 47q-97 77 -98 206q0 132 89 210q63 53 142 53q94 0 176 -62v-454zM305 116v268q-22 13 -54 13q-36 0 -61 -30q-37 -47 -37 -114q0 -136 135 -137h17z" />
    <glyph glyph-name="b" unicode="b" horiz-adv-x="470" 
d="M171 129q146 1 146 131q0 70 -39 108q-26 23 -71 28q-25 0 -48 -7l-4 -260h16zM171 0h-132v685h125l-3 -173q20 4 54 4q80 0 142 -53q89 -78 89 -210q-1 -129 -98 -207q-54 -45 -177 -46z" />
    <glyph glyph-name="c" unicode="c" horiz-adv-x="450" 
d="M253 -8q-109 0 -171.5 69t-62.5 190t63.5 192.5t171.5 71.5q101 0 178 -66l-59 -95q-57 43 -115 43q-53 0 -82 -38t-29 -107q0 -140 115 -143q61 0 120 47l58 -95q-77 -69 -187 -69z" />
    <glyph glyph-name="d" unicode="d" horiz-adv-x="470" 
d="M315 129l-4 257q-21 10 -52 10q-40 0 -66 -28q-40 -45 -40 -108q0 -130 146 -131h16zM431 0h-132q-122 1 -177 46q-97 78 -98 207q0 132 89 210q63 53 142 53q34 0 54 -5l-3 174h125v-685z" />
    <glyph glyph-name="e" unicode="e" horiz-adv-x="463" 
d="M259 -8q-109 0 -172 69t-63 187q0 120 60.5 193.5t160.5 73.5q94 0 148.5 -62t54.5 -186q0 -12 -1 -26.5t-4 -38.5h-288q5 -46 32.5 -70t79.5 -24q59 0 110 46l67 -90q-76 -72 -185 -72zM324 309q0 88 -81 89q-77 0 -88 -89h169z" />
    <glyph glyph-name="f" unicode="f" horiz-adv-x="351" 
d="M290 593q-16 0 -31.5 -3.5t-25.5 -16.5t-10 -41v-25h118v-108h-117v-399h-127v399h-63v108h63v23q0 57 18.5 92.5t45 53.5t54 24.5t46.5 6.5q50 0 80 -12v-107q-17 2 -28 3q-12 2 -23 2z" />
    <glyph glyph-name="g" unicode="g" horiz-adv-x="470" 
d="M181 -186q-34 0 -75 6l19 113q31 -5 54 -5q130 0 130 72q-131 0 -187 46q-97 78 -98 207q0 132 89 210q63 53 142 53q94 0 176 -62v-444q-4 -196 -250 -196zM313 129v251q-24 16 -56 16q-39 0 -65 -28q-39 -45 -39 -108q0 -130 143 -131h17z" />
    <glyph glyph-name="h" unicode="h" horiz-adv-x="494" 
d="M455 0h-126v282q0 64 -18 89.5t-62 25.5q-36 0 -64 -19.5t-28 -35.5v-342h-127v685h125v-202q13 13 41.5 22.5t67.5 9.5q186 0 191 -224v-291z" />
    <glyph glyph-name="i" unicode="i" horiz-adv-x="226" 
d="M113 554q-31 0 -52.5 21.5t-21.5 52.5t21.5 52.5t52.5 21.5t52.5 -21.5t21.5 -52.5t-21.5 -52.5t-52.5 -21.5zM176 0h-126v498h126v-498z" />
    <glyph glyph-name="j" unicode="j" horiz-adv-x="264" 
d="M151 558q-31 0 -52.5 21.5t-21.5 52.5t21.5 52.5t52.5 21.5t52.5 -21.5t21.5 -52.5t-21.5 -52.5t-52.5 -21.5zM63 -182h-53v117h42q22 0 29 9t7 36v518h126v-521q0 -83 -36 -121t-115 -38z" />
    <glyph glyph-name="k" unicode="k" horiz-adv-x="493" 
d="M439 498l-170 -198l214 -300h-162l-156 220v-220h-126v685h126v-328l124 141h150z" />
    <glyph glyph-name="l" unicode="l" horiz-adv-x="205" 
d="M166 0h-127v685h127v-685z" />
    <glyph glyph-name="m" unicode="m" horiz-adv-x="755" 
d="M716 0h-126v295q0 57 -17 79.5t-57 22.5q-37 0 -56 -19.5t-22 -38.5l4 -339h-126v295q0 57 -17 79.5t-58 22.5q-38 0 -57 -19.5t-20 -35.5l2 -342h-127v506h114v-29q11 15 39.5 26.5t64.5 11.5q106 0 145 -62q46 62 130 62q88 0 136 -55t48 -155v-305z" />
    <glyph glyph-name="n" unicode="n" horiz-adv-x="499" 
d="M460 0h-126v282q0 64 -17.5 89.5t-60.5 25.5q-36 0 -64 -19.5t-28 -35.5v-342h-125v506h124v-25q29 34 107 34q184 0 190 -224v-291z" />
    <glyph glyph-name="o" unicode="o" horiz-adv-x="465" 
d="M233 -8q-102 0 -158 70t-56 194q0 121 57 190t157 69q101 0 157 -69.5t56 -192.5q0 -122 -56.5 -191.5t-156.5 -69.5zM234 109q85 0 85 136v3q0 149 -81 149h-4q-85 0 -85 -148q0 -73 21 -106.5t64 -33.5z" />
    <glyph glyph-name="p" unicode="p" horiz-adv-x="470" 
d="M166 -178h-127v676h132q123 -1 177 -45q97 -77 98 -205q0 -131 -90 -208q-62 -44 -141 -44l-49 -1v-173zM200 123q53 0 81 20q35 26 36 113q0 138 -135 139h-16v-271q14 -1 34 -1z" />
    <glyph glyph-name="q" unicode="q" horiz-adv-x="473" 
d="M313 129q2 91 2 251q-23 16 -54 16q-36 0 -61 -27q-37 -46 -37 -109q0 -130 135 -131h15zM433 -177h-125l3 177q-123 0 -179 46q-97 78 -98 207q0 132 89 210q62 53 142 53q94 0 169 -59z" />
    <glyph glyph-name="r" unicode="r" horiz-adv-x="315" 
d="M166 0h-126v506h114v-40q9 19 49 31.5t102 12.5v-127q-51 0 -81.5 -10t-44 -39t-13.5 -85v-249z" />
    <glyph glyph-name="s" unicode="s" horiz-adv-x="393" 
d="M205 -6q-75 0 -124 41t-62 122l118 39q5 -54 27 -73q20 -18 43 -18h2q25 0 35.5 9t10.5 30q0 19 -9 28t-42 24l-72 31q-97 46 -97 141q2 65 48.5 106t115.5 41q65 -1 110.5 -37.5t61.5 -109.5l-119 -38q-3 47 -17.5 60.5t-42.5 13.5q-15 0 -25 -7.5t-11 -25.5
q0 -14 11.5 -24.5t46.5 -25.5l64 -29q96 -45 96 -146q-2 -68 -49.5 -110t-119.5 -42z" />
    <glyph glyph-name="t" unicode="t" horiz-adv-x="354" 
d="M335 0h-47q-206 1 -206 213v180h-53v113h53v179h126v-179h89v-113h-89v-176q0 -99 86 -99h41v-118z" />
    <glyph glyph-name="u" unicode="u" horiz-adv-x="475" 
d="M222 -8q-181 0 -182 220v286h127v-285q0 -103 68 -103q72 0 75 56l-1 332h126v-498h-120l-6 40q-27 -48 -87 -48z" />
    <glyph glyph-name="v" unicode="v" horiz-adv-x="493" 
d="M150 498l97 -314l97 314h136l-170 -498h-127q-54 160 -70 207q-12 34 -21 60.5t-26 78.5q-17 49 -53 152h137z" />
    <glyph glyph-name="w" unicode="w" horiz-adv-x="656" 
d="M525 0h-114l-86 270l-85 -270h-114l-116 498h131l53 -283l79 261h108l75 -260l59 282h131z" />
    <glyph glyph-name="x" unicode="x" horiz-adv-x="484" 
d="M477 0h-142l-93 154l-93 -154h-142l163 260l-152 238h143l81 -139l81 139h143l-153 -238z" />
    <glyph glyph-name="y" unicode="y" horiz-adv-x="491" 
d="M211 -177h-129l99 250l-174 425h137l101 -263l105 263h134z" />
    <glyph glyph-name="z" unicode="z" horiz-adv-x="453" 
d="M405 0h-376l206 387h-199v111h388l-193 -386h174v-112z" />
    <glyph glyph-name="braceleft" unicode="{" horiz-adv-x="340" 
d="M300 -125h-63q-28 0 -56 13.5t-47 41t-19 68.5v156q0 35 -24.5 49t-50.5 14v93q26 0 50.5 13.5t24.5 49.5v155q0 41 19 68.5t47 41t56 13.5h63v-89h-50q-23 0 -28.5 -16t-5.5 -36v-150q0 -32 -9.5 -52.5t-17.5 -31.5q-7 -9 -7 -13t6 -12q8 -11 18 -31.5t10 -53.5v-150
q0 -19 5.5 -35t28.5 -16h50v-90z" />
    <glyph glyph-name="bar" unicode="|" horiz-adv-x="332" 
d="M224 671v-719h-116v719h116z" />
    <glyph glyph-name="braceright" unicode="}" horiz-adv-x="340" 
d="M103 -125h-63v90h50q23 0 28.5 16t5.5 35v150q0 33 10 53.5t18 31.5q7 9 7 12q0 4 -7 12q-8 10 -18 31t-10 54v150q0 20 -5.5 36t-28.5 16h-50v89h63q28 0 56 -13.5t47 -41t19 -68.5v-155q0 -36 25 -49.5t50 -13.5v-93q-25 0 -50 -14t-25 -49v-156q0 -41 -19 -68.5
t-47 -41t-56 -13.5z" />
    <glyph glyph-name="asciitilde" unicode="~" horiz-adv-x="432" 
d="M289 166q-24 0 -51.5 8.5t-51.5 18.5q-35 15 -51 15q-13 0 -19.5 -11.5t-9.5 -30.5h-66q3 31 13.5 60t31.5 47.5t56 18.5q22 0 44.5 -6.5t44.5 -15.5q18 -7 35.5 -12.5t32.5 -5.5q13 0 18.5 10t9.5 30h66q-4 -33 -14.5 -61.5t-32 -46.5t-56.5 -18z" />
    <glyph glyph-name="uniFB01" unicode="&#xfb01;" horiz-adv-x="559" 
d="M230 0h-126v399h-64v108h64v23q0 57 18 92.5t45 53.5t54.5 24.5t45.5 6.5q51 0 81 -12v-107q-18 2 -29 3q-11 2 -23 2q-16 0 -31.5 -3.5t-25.5 -16.5t-10 -41v-25h119v-108h-118v-399zM445 554q-31 0 -52.5 21.5t-21.5 52.5t21.5 52.5t52.5 21.5t52.5 -21.5t21.5 -52.5
t-21.5 -52.5t-52.5 -21.5zM508 0h-126v498h126v-498z" />
    <glyph glyph-name="uniFB02" unicode="&#xfb02;" horiz-adv-x="548" 
d="M230 0h-126v399h-64v108h64v23q0 57 18 92.5t45 53.5t54.5 24.5t45.5 6.5q51 0 81 -12v-107q-18 2 -29 3q-11 2 -23 2q-16 0 -31.5 -3.5t-25.5 -16.5t-10 -41v-25h119v-108h-118v-399zM508 0h-126v685h126v-685z" />
    </font>
</defs>
</svg>
