<svg xmlns="http://www.w3.org/2000/svg" width="63.516" height="42.924" viewBox="0 0 63.516 42.924">
    <g id="Adidas_Logo">
        <g id="Group_1419" data-name="Group 1419" transform="translate(53.782 31.772)">
            <g id="Group_1418" data-name="Group 1418">
                <g id="Group_1417" data-name="Group 1417">
                    <path id="Path_471" d="M-18.12-41.449c-2.97 0-4.732-1.52-4.867-3.709h2.84c0 .73.4 1.7 2.162 1.762 1.218 0 1.892-.73 1.892-1.278-.135-.851-1.218-.911-2.3-1.1a11.1 11.1 0 0 1-2.84-.725 2.909 2.909 0 0 1-1.487-2.617c0-1.948 1.627-3.468 4.462-3.468 2.705 0 4.462 1.4 4.593 3.528h-2.7c0-.544-.135-1.46-1.757-1.46-1.083 0-1.757.181-1.892.972 0 1.1 2.3 1.037 4.053 1.46 1.622.428 2.705 1.46 2.705 2.924 0 2.677-2.162 3.709-4.867 3.709" data-name="Path 471" transform="translate(22.987 52.582)"/>
                </g>
            </g>
        </g>
        <g id="Group_1420" data-name="Group 1420" transform="translate(6.894 19.526)">
            <path id="Path_472" d="M0-20.162l9.325-5.415 5 8.581H1.757" data-name="Path 472" transform="translate(0 25.578)"/>
        </g>
        <g id="Group_1421" data-name="Group 1421" transform="translate(26.502 31.751)">
            <path id="Path_473" stroke="#000" stroke-width="4px" d="M0-40.324v-10.831" data-name="Path 473" transform="translate(0 51.155)"/>
        </g>
        <g id="Group_1424" data-name="Group 1424" transform="translate(0 31.791)">
            <g id="Group_1423" data-name="Group 1423">
                <g id="Group_1422" data-name="Group 1422">
                    <path id="Path_474" d="M-9.553-20.612a3.175 3.175 0 0 0 3.105 3.1 3.084 3.084 0 0 0 3.11-3.1 3.122 3.122 0 0 0-3.11-3.1 3.218 3.218 0 0 0-3.105 3.1m2.97 5.6a5.617 5.617 0 0 1-5.536-5.6 5.565 5.565 0 0 1 5.536-5.536 5.477 5.477 0 0 1 3.245.972v-.851h2.705v10.766h-2.705v-.669a5.552 5.552 0 0 1-3.245.916" data-name="Path 474" transform="translate(12.119 26.148)"/>
                </g>
            </g>
        </g>
        <g id="Group_1425" data-name="Group 1425" transform="translate(28.654)">
            <path id="Path_475" d="M-48.3-104.636l-12.974-22.629 9.325-5.476 16.218 28.1" data-name="Path 475" transform="translate(61.276 132.74)"/>
        </g>
        <g id="Group_1428" data-name="Group 1428" transform="translate(12.435 28.202)">
            <g id="Group_1427" data-name="Group 1427">
                <g id="Group_1426" data-name="Group 1426">
                    <path id="Path_476" d="M-9.553-33.973a3.087 3.087 0 0 0 3.11 3.1 3.179 3.179 0 0 0 3.11-3.1 3.222 3.222 0 0 0-3.11-3.1 3.125 3.125 0 0 0-3.11 3.1m2.975 5.6a5.532 5.532 0 0 1-5.541-5.6 5.48 5.48 0 0 1 5.541-5.536 5.5 5.5 0 0 1 3.245.972V-43.1h2.7v14.475h-2.7v-.669a5.879 5.879 0 0 1-3.245.916" data-name="Path 476" transform="translate(12.119 43.098)"/>
                </g>
            </g>
        </g>
        <g id="Group_1429" data-name="Group 1429" transform="translate(17.842 9.919)">
            <path id="Path_477" d="M0-19.92l9.46-5.35L19.867-7.086H10v2.677H7.3v-2.677" data-name="Path 477" transform="translate(0 25.27)"/>
        </g>
        <g id="Group_1435" data-name="Group 1435" transform="translate(28.922 28.188)">
            <g id="Group_1434" data-name="Group 1434">
                <g id="Group_1430" data-name="Group 1430" transform="translate(31.488)">
                    <path id="Path_478" d="M-5.036-9.969a1.4 1.4 0 0 1-1.353-1.339 1.4 1.4 0 0 1 1.353-1.339 1.314 1.314 0 0 1 1.353 1.339 1.314 1.314 0 0 1-1.353 1.339m0-2.492a1.086 1.086 0 0 0-1.083 1.153 1.09 1.09 0 0 0 1.083 1.158 1.089 1.089 0 0 0 1.078-1.157 1.085 1.085 0 0 0-1.078-1.153" data-name="Path 478" transform="translate(6.389 12.646)"/>
                </g>
                <g id="Group_1431" data-name="Group 1431" transform="translate(32.376 .614)">
                    <path id="Path_479" d="M-2.769-5.434l-.27-.609h-.27v.609h-.2v-1.46h.609a.483.483 0 0 1 .4.428.432.432 0 0 1-.27.423l.27.609m-.539-1.274h-.27v.483h.27c.27 0 .27-.06.27-.242 0-.126 0-.242-.27-.242" data-name="Path 479" transform="translate(3.513 6.894)"/>
                </g>
                <g id="Group_1432" data-name="Group 1432" transform="translate(12.425 3.603)">
                    <path id="Path_480" d="M-9.553-20.612a3.087 3.087 0 0 0 3.11 3.1 3.171 3.171 0 0 0 3.105-3.1 3.214 3.214 0 0 0-3.105-3.1 3.125 3.125 0 0 0-3.11 3.1m2.97 5.6a5.531 5.531 0 0 1-5.536-5.6 5.479 5.479 0 0 1 5.536-5.536 5.477 5.477 0 0 1 3.245.972v-.851h2.57v10.766h-2.57v-.669a5.857 5.857 0 0 1-3.245.916" data-name="Path 480" transform="translate(12.119 26.148)"/>
                </g>
                <g id="Group_1433" data-name="Group 1433" transform="translate(0 .014)">
                    <path id="Path_481" d="M-9.553-33.973a3.176 3.176 0 0 0 3.11 3.1 3.087 3.087 0 0 0 3.11-3.1 3.125 3.125 0 0 0-3.11-3.1 3.218 3.218 0 0 0-3.11 3.1m6.22-9.125h2.7v14.475h-2.7v-.669a5.145 5.145 0 0 1-3.11.916 5.646 5.646 0 0 1-5.676-5.6 5.6 5.6 0 0 1 5.676-5.536 4.828 4.828 0 0 1 3.11.972z" data-name="Path 481" transform="translate(12.119 43.098)"/>
                </g>
            </g>
        </g>
    </g>
</svg>
