<svg xmlns="http://www.w3.org/2000/svg" width="36.889" height="24.169" viewBox="0 0 36.889 24.169">
    <defs>
        <style>
            .cls-1{fill:#f5f5f5}.cls-2{fill:#ff4b55}
        </style>
    </defs>
    <g id="united-states">
        <path id="Path_563" d="M34.126 88.276H2.763A2.763 2.763 0 0 0 0 91.039v18.643a2.763 2.763 0 0 0 2.763 2.763h31.363a2.763 2.763 0 0 0 2.763-2.763V91.039a2.763 2.763 0 0 0-2.763-2.763z" class="cls-1" data-name="Path 563" transform="translate(0 -88.276)"/>
        <g id="Group_1547" data-name="Group 1547">
            <path id="Path_564" d="M2.109 90.135h36.585a2.763 2.763 0 0 0-2.611-1.859H4.72a2.763 2.763 0 0 0-2.611 1.859z" class="cls-2" data-name="Path 564" transform="translate(-1.957 -88.276)"/>
            <path id="Rectangle_187" d="M0 0H36.889V1.859H0z" class="cls-2" data-name="Rectangle 187" transform="translate(0 7.436)"/>
            <path id="Rectangle_188" d="M0 0H36.889V1.859H0z" class="cls-2" data-name="Rectangle 188" transform="translate(0 3.718)"/>
            <path id="Path_565" d="M0 244.321a.636.636 0 0 0 .636.636h36.253V243.1H0z" class="cls-2" data-name="Path 565" transform="translate(0 -231.943)"/>
            <path id="Rectangle_189" d="M0 0H36.889V1.859H0z" class="cls-2" data-name="Rectangle 189" transform="translate(0 18.592)"/>
            <path id="Path_566" d="M38.694 397.92H2.109a2.763 2.763 0 0 0 2.611 1.859h31.363a2.763 2.763 0 0 0 2.611-1.859z" class="cls-2" data-name="Path 566" transform="translate(-1.957 -375.611)"/>
            <path id="Rectangle_190" d="M0 0H36.889V1.859H0z" class="cls-2" data-name="Rectangle 190" transform="translate(0 14.873)"/>
        </g>
        <path id="Path_567" fill="#41479b" d="M.636 101.289h15.9a.636.636 0 0 0 .636-.636V88.911a.636.636 0 0 0-.636-.636H2.763A2.763 2.763 0 0 0 0 91.038v9.615a.636.636 0 0 0 .636.636z" data-name="Path 567" transform="translate(0 -88.275)"/>
        <g id="Group_1548" data-name="Group 1548" transform="translate(1.027 1.419)">
            <path id="Path_568" d="M15.012 108.009l.141.422h.445a.06.06 0 0 1 .035.108l-.358.264.134.424a.06.06 0 0 1-.092.067l-.362-.259-.362.259a.06.06 0 0 1-.092-.067l.134-.424-.358-.264a.06.06 0 0 1 .035-.108h.445l.141-.422a.06.06 0 0 1 .114 0z" class="cls-1" data-name="Path 568" transform="translate(-14.253 -107.968)"/>
            <path id="Path_569" d="M15.012 138.664l.141.422h.445a.06.06 0 0 1 .035.108l-.358.264.134.424a.06.06 0 0 1-.092.067l-.362-.259-.362.259a.06.06 0 0 1-.092-.067l.134-.424-.358-.264a.06.06 0 0 1 .035-.108h.445l.141-.422a.06.06 0 0 1 .114 0z" class="cls-1" data-name="Path 569" transform="translate(-14.253 -136.414)"/>
            <path id="Path_570" d="M15.012 169.318l.141.422h.445a.06.06 0 0 1 .035.108l-.358.264.134.424a.06.06 0 0 1-.092.067l-.362-.259-.362.259a.06.06 0 0 1-.092-.067l.134-.424-.358-.264a.06.06 0 0 1 .035-.108h.445l.141-.422a.06.06 0 0 1 .114 0z" class="cls-1" data-name="Path 570" transform="translate(-14.253 -164.86)"/>
            <path id="Path_571" d="M15.012 199.972l.141.422h.445a.06.06 0 0 1 .035.108l-.358.264.134.424a.06.06 0 0 1-.092.067l-.362-.257-.362.259a.06.06 0 0 1-.092-.067l.134-.424-.358-.264a.06.06 0 0 1 .035-.108h.445l.141-.422a.06.06 0 0 1 .114-.002z" class="cls-1" data-name="Path 571" transform="translate(-14.253 -193.305)"/>
            <path id="Path_572" d="M15.012 230.627l.141.422h.445a.06.06 0 0 1 .035.108l-.358.264.134.424a.06.06 0 0 1-.092.067l-.362-.259-.362.259a.06.06 0 0 1-.092-.067l.134-.424-.358-.264a.06.06 0 0 1 .035-.108h.445l.141-.422a.06.06 0 0 1 .114 0z" class="cls-1" data-name="Path 572" transform="translate(-14.253 -221.751)"/>
            <path id="Path_573" d="M38.8 123.038l.141.422h.445a.06.06 0 0 1 .035.108l-.358.264.134.424a.06.06 0 0 1-.092.067l-.362-.259-.362.259a.06.06 0 0 1-.092-.067l.134-.424-.358-.264a.06.06 0 0 1 .035-.108h.445l.141-.422a.06.06 0 0 1 .114 0z" class="cls-1" data-name="Path 573" transform="translate(-36.331 -121.915)"/>
            <path id="Path_574" d="M38.8 153.693l.141.422h.445a.06.06 0 0 1 .035.108l-.358.264.134.424a.06.06 0 0 1-.092.067l-.362-.259-.362.259a.06.06 0 0 1-.092-.067l.134-.424-.358-.264a.06.06 0 0 1 .035-.108h.445l.141-.422a.06.06 0 0 1 .114 0z" class="cls-1" data-name="Path 574" transform="translate(-36.331 -150.36)"/>
            <path id="Path_575" d="M38.8 184.347l.141.422h.445a.06.06 0 0 1 .035.108l-.358.264.134.424a.06.06 0 0 1-.092.067l-.362-.259-.362.259a.06.06 0 0 1-.092-.067l.134-.424-.358-.264a.06.06 0 0 1 .035-.108h.445l.141-.422a.06.06 0 0 1 .114 0z" class="cls-1" data-name="Path 575" transform="translate(-36.331 -178.806)"/>
            <path id="Path_576" d="M38.8 215l.141.422h.445a.06.06 0 0 1 .035.108l-.358.264.134.424a.06.06 0 0 1-.092.067l-.362-.259-.362.259a.06.06 0 0 1-.092-.067l.134-.424-.358-.264a.06.06 0 0 1 .035-.108h.445l.141-.422a.06.06 0 0 1 .114 0z" class="cls-1" data-name="Path 576" transform="translate(-36.331 -207.252)"/>
            <path id="Path_577" d="M62.6 108.009l.141.422h.445a.06.06 0 0 1 .035.108l-.358.264.134.424a.06.06 0 0 1-.092.067l-.362-.259-.362.259a.06.06 0 0 1-.092-.067l.134-.424-.358-.264a.06.06 0 0 1 .035-.108h.445l.141-.422a.06.06 0 0 1 .114 0z" class="cls-1" data-name="Path 577" transform="translate(-58.41 -107.968)"/>
            <path id="Path_578" d="M62.6 138.663l.141.422h.445a.06.06 0 0 1 .035.108l-.358.264.134.424a.06.06 0 0 1-.092.067l-.362-.259-.362.259a.06.06 0 0 1-.092-.067l.134-.424-.358-.264a.06.06 0 0 1 .035-.108h.445l.141-.422a.06.06 0 0 1 .114 0z" class="cls-1" data-name="Path 578" transform="translate(-58.41 -136.414)"/>
            <path id="Path_579" d="M62.6 169.318l.141.422h.445a.06.06 0 0 1 .035.108l-.358.264.134.424a.06.06 0 0 1-.092.067l-.362-.259-.362.259a.06.06 0 0 1-.092-.067l.134-.424-.358-.264a.06.06 0 0 1 .035-.108h.445l.141-.422a.06.06 0 0 1 .114 0z" class="cls-1" data-name="Path 579" transform="translate(-58.41 -164.86)"/>
            <path id="Path_580" d="M62.6 199.972l.141.422h.445a.06.06 0 0 1 .035.108l-.358.264.134.424a.06.06 0 0 1-.092.067l-.364-.257-.362.259a.06.06 0 0 1-.092-.067l.134-.424-.358-.264a.06.06 0 0 1 .035-.108h.445l.141-.422a.06.06 0 0 1 .116-.002z" class="cls-1" data-name="Path 580" transform="translate(-58.41 -193.305)"/>
            <path id="Path_581" d="M62.6 230.626l.141.422h.445a.06.06 0 0 1 .035.108l-.358.264.134.424a.06.06 0 0 1-.092.067l-.362-.259-.362.259a.06.06 0 0 1-.092-.067l.134-.424-.358-.264a.06.06 0 0 1 .035-.108h.445l.141-.422a.06.06 0 0 1 .114 0z" class="cls-1" data-name="Path 581" transform="translate(-58.41 -221.751)"/>
            <path id="Path_582" d="M86.392 123.038l.141.422h.445a.06.06 0 0 1 .035.108l-.358.264.134.424a.06.06 0 0 1-.092.067l-.362-.259-.362.259a.06.06 0 0 1-.092-.067l.134-.424-.358-.264a.06.06 0 0 1 .035-.108h.445l.141-.422a.06.06 0 0 1 .114 0z" class="cls-1" data-name="Path 582" transform="translate(-80.49 -121.915)"/>
            <path id="Path_583" d="M86.392 153.693l.141.422h.445a.06.06 0 0 1 .035.108l-.358.264.134.424a.06.06 0 0 1-.092.067l-.362-.259-.362.259a.06.06 0 0 1-.092-.067l.134-.424-.358-.264a.06.06 0 0 1 .035-.108h.445l.141-.422a.06.06 0 0 1 .114 0z" class="cls-1" data-name="Path 583" transform="translate(-80.49 -150.36)"/>
            <path id="Path_584" d="M86.392 184.347l.141.422h.445a.06.06 0 0 1 .035.108l-.358.264.134.424a.06.06 0 0 1-.092.067l-.362-.259-.362.259a.06.06 0 0 1-.092-.067l.134-.424-.358-.264a.06.06 0 0 1 .035-.108h.445l.141-.422a.06.06 0 0 1 .114 0z" class="cls-1" data-name="Path 584" transform="translate(-80.49 -178.806)"/>
            <path id="Path_585" d="M86.392 215l.141.422h.445a.06.06 0 0 1 .035.108l-.358.264.134.424a.06.06 0 0 1-.092.067l-.362-.259-.362.259a.06.06 0 0 1-.092-.067l.134-.424-.358-.264a.06.06 0 0 1 .035-.108h.445l.141-.422a.06.06 0 0 1 .114 0z" class="cls-1" data-name="Path 585" transform="translate(-80.49 -207.252)"/>
            <path id="Path_586" d="M110.184 108.009l.141.422h.445a.06.06 0 0 1 .035.108l-.358.264.134.424a.06.06 0 0 1-.092.067l-.362-.259-.362.259a.06.06 0 0 1-.092-.067l.134-.424-.358-.264a.06.06 0 0 1 .035-.108h.445l.141-.422a.06.06 0 0 1 .114 0z" class="cls-1" data-name="Path 586" transform="translate(-102.568 -107.968)"/>
            <path id="Path_587" d="M110.184 138.663l.141.422h.445a.06.06 0 0 1 .035.108l-.358.264.134.424a.06.06 0 0 1-.092.067l-.362-.259-.362.259a.06.06 0 0 1-.092-.067l.134-.424-.358-.264a.06.06 0 0 1 .035-.108h.445l.141-.422a.06.06 0 0 1 .114 0z" class="cls-1" data-name="Path 587" transform="translate(-102.568 -136.414)"/>
            <path id="Path_588" d="M110.184 169.318l.141.422h.445a.06.06 0 0 1 .035.108l-.358.264.134.424a.06.06 0 0 1-.092.067l-.362-.259-.362.259a.06.06 0 0 1-.092-.067l.134-.424-.358-.264a.06.06 0 0 1 .035-.108h.445l.141-.422a.06.06 0 0 1 .114 0z" class="cls-1" data-name="Path 588" transform="translate(-102.568 -164.859)"/>
            <path id="Path_589" d="M110.184 199.972l.141.422h.445a.06.06 0 0 1 .035.108l-.358.264.134.424a.06.06 0 0 1-.092.067l-.362-.259-.362.259a.06.06 0 0 1-.092-.067l.134-.424-.358-.264a.06.06 0 0 1 .035-.108h.445l.141-.422a.06.06 0 0 1 .114 0z" class="cls-1" data-name="Path 589" transform="translate(-102.568 -193.305)"/>
            <path id="Path_590" d="M110.184 230.626l.141.422h.445a.06.06 0 0 1 .035.108l-.358.264.134.424a.06.06 0 0 1-.092.067l-.362-.259-.362.259a.06.06 0 0 1-.092-.067l.134-.424-.358-.264a.06.06 0 0 1 .035-.108h.445l.141-.422a.06.06 0 0 1 .114 0z" class="cls-1" data-name="Path 590" transform="translate(-102.568 -221.751)"/>
            <path id="Path_591" d="M133.978 123.038l.141.422h.445a.06.06 0 0 1 .035.108l-.358.264.134.424a.06.06 0 0 1-.092.067l-.362-.259-.362.259a.06.06 0 0 1-.092-.067l.134-.424-.358-.264a.06.06 0 0 1 .035-.108h.445l.141-.422a.06.06 0 0 1 .114 0z" class="cls-1" data-name="Path 591" transform="translate(-124.647 -121.915)"/>
            <path id="Path_592" d="M133.978 153.693l.141.422h.445a.06.06 0 0 1 .035.108l-.358.264.134.424a.06.06 0 0 1-.092.067l-.362-.259-.362.259a.06.06 0 0 1-.092-.067l.134-.424-.358-.264a.06.06 0 0 1 .035-.108h.445l.141-.422a.06.06 0 0 1 .114 0z" class="cls-1" data-name="Path 592" transform="translate(-124.647 -150.36)"/>
            <path id="Path_593" d="M133.978 184.347l.141.422h.445a.06.06 0 0 1 .035.108l-.358.264.134.424a.06.06 0 0 1-.092.067l-.362-.259-.362.259a.06.06 0 0 1-.092-.067l.134-.424-.358-.264a.06.06 0 0 1 .035-.108h.445l.141-.422a.06.06 0 0 1 .114 0z" class="cls-1" data-name="Path 593" transform="translate(-124.647 -178.806)"/>
            <path id="Path_594" d="M133.978 215l.141.422h.445a.06.06 0 0 1 .035.108l-.358.264.134.424a.06.06 0 0 1-.092.067l-.362-.259-.362.259a.06.06 0 0 1-.092-.067l.134-.424-.358-.264a.06.06 0 0 1 .035-.108h.445l.141-.422a.06.06 0 0 1 .114 0z" class="cls-1" data-name="Path 594" transform="translate(-124.647 -207.252)"/>
            <path id="Path_595" d="M157.772 108.009l.141.422h.445a.06.06 0 0 1 .035.108l-.358.264.134.424a.06.06 0 0 1-.092.067l-.362-.259-.362.259a.06.06 0 0 1-.092-.067l.134-.424-.358-.264a.06.06 0 0 1 .035-.108h.445l.141-.422a.06.06 0 0 1 .114 0z" class="cls-1" data-name="Path 595" transform="translate(-146.727 -107.968)"/>
            <path id="Path_596" d="M157.772 138.663l.141.422h.445a.06.06 0 0 1 .035.108l-.358.264.134.424a.06.06 0 0 1-.092.067l-.362-.259-.362.259a.06.06 0 0 1-.092-.067l.134-.424-.358-.264a.06.06 0 0 1 .035-.108h.445l.141-.422a.06.06 0 0 1 .114 0z" class="cls-1" data-name="Path 596" transform="translate(-146.727 -136.414)"/>
            <path id="Path_597" d="M157.772 169.318l.141.422h.445a.06.06 0 0 1 .035.108l-.358.264.134.424a.06.06 0 0 1-.092.067l-.362-.259-.362.259a.06.06 0 0 1-.092-.067l.134-.424-.358-.264a.06.06 0 0 1 .035-.108h.445l.141-.422a.06.06 0 0 1 .114 0z" class="cls-1" data-name="Path 597" transform="translate(-146.727 -164.86)"/>
            <path id="Path_598" d="M157.772 199.972l.141.422h.445a.06.06 0 0 1 .035.108l-.358.264.134.424a.06.06 0 0 1-.092.067l-.362-.259-.362.259a.06.06 0 0 1-.092-.067l.134-.424-.358-.264a.06.06 0 0 1 .035-.108h.445l.141-.422a.06.06 0 0 1 .114 0z" class="cls-1" data-name="Path 598" transform="translate(-146.727 -193.305)"/>
            <path id="Path_599" d="M157.772 230.626l.141.422h.445a.06.06 0 0 1 .035.108l-.358.264.134.424a.06.06 0 0 1-.092.067l-.362-.259-.362.259a.06.06 0 0 1-.092-.067l.134-.424-.358-.264a.06.06 0 0 1 .035-.108h.445l.141-.422a.06.06 0 0 1 .114 0z" class="cls-1" data-name="Path 599" transform="translate(-146.727 -221.751)"/>
            <path id="Path_600" d="M181.565 123.038l.141.422h.445a.06.06 0 0 1 .035.108l-.358.264.134.424a.06.06 0 0 1-.092.067l-.362-.259-.362.259a.06.06 0 0 1-.092-.067l.134-.424-.358-.264a.06.06 0 0 1 .035-.108h.445l.141-.422a.06.06 0 0 1 .114 0z" class="cls-1" data-name="Path 600" transform="translate(-168.806 -121.915)"/>
            <path id="Path_601" d="M181.565 153.693l.141.422h.445a.06.06 0 0 1 .035.108l-.358.264.134.424a.06.06 0 0 1-.092.067l-.362-.259-.362.259a.06.06 0 0 1-.092-.067l.134-.424-.358-.264a.06.06 0 0 1 .035-.108h.445l.141-.422a.06.06 0 0 1 .114 0z" class="cls-1" data-name="Path 601" transform="translate(-168.806 -150.36)"/>
            <path id="Path_602" d="M181.565 184.347l.141.422h.445a.06.06 0 0 1 .035.108l-.358.264.134.424a.06.06 0 0 1-.092.067l-.362-.259-.362.259a.06.06 0 0 1-.092-.067l.134-.424-.358-.264a.06.06 0 0 1 .035-.108h.445l.141-.422a.06.06 0 0 1 .114 0z" class="cls-1" data-name="Path 602" transform="translate(-168.806 -178.806)"/>
            <path id="Path_603" d="M181.565 215l.141.422h.445a.06.06 0 0 1 .035.108l-.358.264.134.424a.06.06 0 0 1-.092.067l-.362-.259-.362.259a.06.06 0 0 1-.092-.067l.134-.424-.358-.264a.06.06 0 0 1 .035-.108h.445l.141-.422a.06.06 0 0 1 .114 0z" class="cls-1" data-name="Path 603" transform="translate(-168.806 -207.252)"/>
            <path id="Path_604" d="M205.359 108.009l.141.422h.445a.06.06 0 0 1 .035.108l-.358.264.134.424a.06.06 0 0 1-.092.067l-.362-.259-.362.259a.06.06 0 0 1-.092-.067l.134-.424-.358-.264a.06.06 0 0 1 .035-.108h.445l.141-.422a.06.06 0 0 1 .114 0z" class="cls-1" data-name="Path 604" transform="translate(-190.885 -107.968)"/>
            <path id="Path_605" d="M205.359 138.663l.141.422h.445a.06.06 0 0 1 .035.108l-.358.264.134.424a.06.06 0 0 1-.092.067l-.362-.259-.362.259a.06.06 0 0 1-.092-.067l.134-.424-.358-.264a.06.06 0 0 1 .035-.108h.445l.141-.422a.06.06 0 0 1 .114 0z" class="cls-1" data-name="Path 605" transform="translate(-190.885 -136.414)"/>
            <path id="Path_606" d="M205.359 169.318l.141.422h.445a.06.06 0 0 1 .035.108l-.358.264.134.424a.06.06 0 0 1-.092.067l-.362-.259-.362.259a.06.06 0 0 1-.092-.067l.134-.424-.358-.264a.06.06 0 0 1 .035-.108h.445l.141-.422a.06.06 0 0 1 .114 0z" class="cls-1" data-name="Path 606" transform="translate(-190.885 -164.86)"/>
            <path id="Path_607" d="M205.359 199.972l.141.422h.445a.06.06 0 0 1 .035.108l-.358.264.134.424a.06.06 0 0 1-.092.067L205.3 201l-.362.259a.06.06 0 0 1-.092-.067l.134-.424-.358-.264a.06.06 0 0 1 .035-.108h.445l.141-.422a.06.06 0 0 1 .116-.002z" class="cls-1" data-name="Path 607" transform="translate(-190.885 -193.305)"/>
            <path id="Path_608" d="M205.359 230.626l.141.422h.445a.06.06 0 0 1 .035.108l-.358.264.134.424a.06.06 0 0 1-.092.067l-.362-.259-.362.259a.06.06 0 0 1-.092-.067l.134-.424-.358-.264a.06.06 0 0 1 .035-.108h.445l.141-.422a.06.06 0 0 1 .114 0z" class="cls-1" data-name="Path 608" transform="translate(-190.885 -221.751)"/>
        </g>
    </g>
</svg>
