<svg xmlns="http://www.w3.org/2000/svg" width="36.889" height="24.169" viewBox="0 0 36.889 24.169">
    <g id="bahrain">
        <path id="Path_561" fill="#f5f5f5" d="M2.763 112.441h7.414l5.088-1.511-5.088-1.511 5.088-1.511-5.089-1.508 5.088-1.511-5.088-1.511 5.088-1.511-5.088-1.51 5.088-1.511-5.088-1.511 5.088-1.511-5.088-1.511 5.088-1.513-5.088-1.511 5.088-1.511-5.088-1.511H2.763A2.763 2.763 0 0 0 0 91.035v18.643a2.763 2.763 0 0 0 2.763 2.763z" data-name="Path 561" transform="translate(0 -88.272)"/>
        <path id="Path_562" fill="#ff4b55" d="M141.241 91.3l5.088 1.511-5.088 1.511 5.088 1.511-5.088 1.511 5.088 1.511-5.088 1.51 5.088 1.511-5.088 1.511 5.088 1.511-5.088 1.511 5.088 1.511-5.088 1.511 5.088 1.511-5.088 1.511h23.95a2.763 2.763 0 0 0 2.763-2.763V91.039a2.763 2.763 0 0 0-2.763-2.763h-23.95l5.088 1.511z" data-name="Path 562" transform="translate(-131.065 -88.276)"/>
    </g>
</svg>
