<svg xmlns="http://www.w3.org/2000/svg" width="51.962" height="41.716" viewBox="0 0 51.962 41.716">
  <g id="image-interface-symbol-with-a-landscape" transform="translate(0 -3.5)">
    <path id="Path_1047" data-name="Path 1047" d="M49.034,3.5H2.927A2.928,2.928,0,0,0,0,6.427V42.288a2.928,2.928,0,0,0,2.927,2.927H49.034a2.928,2.928,0,0,0,2.927-2.927V6.427A2.928,2.928,0,0,0,49.034,3.5ZM46.107,9.355v26.4l-6.7-8.129a.737.737,0,0,0-1-.126l-7.788,5.687L17.251,20.175a.771.771,0,0,0-.58-.206.736.736,0,0,0-.531.31L5.855,34.993V9.355ZM28.542,20.333A4.757,4.757,0,1,1,33.3,25.09,4.763,4.763,0,0,1,28.542,20.333Z" fill="#e2e2e2"/>
  </g>
</svg>
