<svg xmlns="http://www.w3.org/2000/svg" width="69.659" height="24.826" viewBox="0 0 69.659 24.826">
    <path d="M7.684 24.816a8.511 8.511 0 0 1-5.1-1.705 10.186 10.186 0 0 1-1.06-1.061 6.622 6.622 0 0 1-1.149-2.067c-.751-2.25-.365-5.2 1.106-8.444 1.259-2.775 3.2-5.526 6.592-9.338.5-.561 1.986-2.2 2-2.2s-.077.14-.179.311a19.978 19.978 0 0 0-2.046 4.721 8.469 8.469 0 0 0 .233 6.1 5.955 5.955 0 0 0 2.605 2.6c1.894.928 4.667 1 8.053.225.233-.054 11.786-3.121 25.673-6.815S69.663.428 69.665.43 37.401 14.241 20.651 21.404c-2.653 1.134-3.362 1.421-4.609 1.858a23.372 23.372 0 0 1-8.358 1.554z"/>
</svg>
