<svg xmlns="http://www.w3.org/2000/svg" width="80.68" height="43.434" viewBox="0 0 80.68 43.434">
    <path id="Ray-Ban_logo" fill="#ed1d24" d="M80.68 43.434H0V0h80.68zM52.364 5.026a7.743 7.743 0 0 0-2.119 1.805 13.086 13.086 0 0 0-1.467 2.444 9.775 9.775 0 0 0-.9 3.021c-.167 1.136-.215 2.368-.276 3.635-.15 3.148-.04 6.457-.288 9.5a6.779 6.779 0 0 1-.1.877c-.05.235-.19.622-.088.827.178.355.864.028 1.066-.075a2.772 2.772 0 0 0 1.642-1.692 9.948 9.948 0 0 0 .088-2.131c0-1.532.05-2.913.05-4.4q0-1.088.05-2.169c.067-1.429.047-2.835.225-4.225a17.754 17.754 0 0 1 .765-3.673A6.509 6.509 0 0 1 52.689 6a1.738 1.738 0 0 1 2.821.7 5.289 5.289 0 0 1-.326 3.7 20.479 20.479 0 0 1-3.836 5.052 1.987 1.987 0 0 0-.6 1.592 2.684 2.684 0 0 0 .827 1.4c.317.369.685.8 1.053 1.166a4.32 4.32 0 0 1 1 1.229 2.133 2.133 0 0 1-.1 1.793 8.91 8.91 0 0 1-.865 1.354c-.667.884-1.345 1.671-2.031 2.419-.328.358-.7.765-1.078 1.141-.169.169-.371.366-.552.564a2.572 2.572 0 0 0-.476.639 3.042 3.042 0 0 0 .489 2.57c.114.2.262.538.527.589a.483.483 0 0 0 .426-.125 1.724 1.724 0 0 0 .351-.476 14.407 14.407 0 0 1 1.028-1.479c1.214-1.55 2.549-3.05 3.874-4.463a6.363 6.363 0 0 0 1.442-1.893 2.835 2.835 0 0 0 .2-1.417 2.918 2.918 0 0 0-1.279-2.056 31.031 31.031 0 0 1-2.8-2.206c-.322-.293-1.006-.835-.664-1.429a2.253 2.253 0 0 1 .752-.627c.3-.2.543-.372.815-.564a13.1 13.1 0 0 0 4.113-4.168 6.225 6.225 0 0 0 .765-1.993 4.824 4.824 0 0 0-1.174-4.162 2.469 2.469 0 0 0-2.019-.75 6.692 6.692 0 0 0-3.008.926zM19.37 37.431a3.789 3.789 0 0 0 .351-2.131c0-.486-.049-1.053.426-1.065a1.557 1.557 0 0 1 .539.213c2.249 1.05 4.36 2.134 6.594 3.184a2.433 2.433 0 0 0 1.116.4 1.077 1.077 0 0 0 .815-.614 2.7 2.7 0 0 0 .464-.978c.129-.723-.619-.927-1.116-1.166q-3.977-1.914-7.923-3.874a4.608 4.608 0 0 1-.614-.3c-.347-.255-.226-1.023-.226-1.692 0-.241.013-.456.013-.7a2.868 2.868 0 0 1 .025-.69c.076-.253.352-.371.6-.526a21.2 21.2 0 0 0 5.654-5.178 17.186 17.186 0 0 0 1.58-2.369 7.564 7.564 0 0 0 .94-3 5.1 5.1 0 0 0-.727-3.172 5.051 5.051 0 0 0-2.093-1.843 7.9 7.9 0 0 0-4.187-.577c-.27.033-.527.073-.79.125a30.824 30.824 0 0 0-4.287 1.2 46.354 46.354 0 0 0-7.559 3.442c-.77.438-1.547.884-2.269 1.391A3.86 3.86 0 0 0 5.1 19.58a9.91 9.91 0 0 0-.226 2.52c0 .269.036.622.251.652.174.024.37-.186.489-.313a19.781 19.781 0 0 1 3-2.482A55.175 55.175 0 0 1 18.73 14.4a11.757 11.757 0 0 1 2.344-.79 8.572 8.572 0 0 1 2.858-.113 3.146 3.146 0 0 1 2.119 1.015 3.541 3.541 0 0 1 .727 2.407 7.735 7.735 0 0 1-.489 2.645 10.979 10.979 0 0 1-2.582 3.686 17.444 17.444 0 0 1-2.482 2.219c-.209.153-.71.558-1.04.526-.375-.035-.322-.653-.3-1.1.02-.434.034-.892.038-1.279.023-2.157.108-4.281.15-6.444a6.31 6.31 0 0 0-.013-1.266c-.18-.818-1.067-.283-1.529-.05a2.529 2.529 0 0 0-.815.527c-.293.321-.207 1.042-.226 1.63-.015.472-.025.963-.025 1.429 0 2.667-.085 5.177-.113 7.848a2.146 2.146 0 0 1-.05.677c-.073.191-.224.249-.426.363-.917.517-1.822 1.019-2.733 1.53-.28.157-.727.326-.727.727 0 .371.328.457.6.589.855.414 1.621.805 2.47 1.178.406.179.677.283.765.7a6.839 6.839 0 0 1 .013 1.342c0 1.471-.065 2.717-.075 4.162a3.352 3.352 0 0 0 2.181-1.127zm51.384-20.709c-.339.547-.581.994-.928 1.529-.131.2-.381.6-.7.527-.363-.084-.1-1.031-.125-1.354-.036-.411-.3-.868-.777-.8-.387.053-.715.525-.915.84-.456.717-.73 1.64-1.116 2.407a3.28 3.28 0 0 1-.715 1.053.737.737 0 0 1-.527.213c-.183-.029-.34-.321-.414-.564a5.021 5.021 0 0 1-.15-.827c-.088-.775-.006-1.73-.589-1.956a.9.9 0 0 0-.965.351c-.108.122-.19.261-.351.313a2.446 2.446 0 0 1-.689.013 3.075 3.075 0 0 0-1.6.677 6.233 6.233 0 0 0-1.454 1.58 6.533 6.533 0 0 0-.928 2.106c-.213.859-.251 1.955.414 2.332.554.314 1.225-.142 1.58-.4a10.635 10.635 0 0 0 1.755-1.768c.125-.141.262-.3.4-.477.106-.136.253-.468.426-.439.137.023.212.316.276.464a4.34 4.34 0 0 0 .238.5 1.428 1.428 0 0 0 .865.74 1.775 1.775 0 0 0 1.63-.865 7.867 7.867 0 0 0 .514-.74c.123-.2.322-.7.6-.664.177.022.178.248.226.489.113.567.433 1.031 1.065.765a2.457 2.457 0 0 0 .852-.727 10.672 10.672 0 0 0 1.216-1.968c.167-.313.329-.889.689-.9.455-.018.542.689.627 1.028.177.709.414 1.5 1.028 1.768a1.45 1.45 0 0 0 1.116-.075 2.47 2.47 0 0 0 .79-.552 3.944 3.944 0 0 0 .865-1.153c.044-.122.1-.433-.088-.489-.237-.07-.413.274-.652.3a.946.946 0 0 1-.84-.451 5.47 5.47 0 0 1-.552-1.7 3.883 3.883 0 0 0-.589-1.667.808.808 0 0 0-.652-.276c-.476.038-.645.476-.856.817zm-8.888 3.247c.62-.092.289.677.138.953s-.3.5-.439.727a6.374 6.374 0 0 1-.476.69 1.807 1.807 0 0 1-.614.551.687.687 0 0 1-.475.01c-.22-.15-.014-.708.075-.928a4.035 4.035 0 0 1 .953-1.454 1.691 1.691 0 0 1 .838-.549zm-20.2 2.758a2.275 2.275 0 0 0-.852 1.329c-.187 1.129.822 1.614 1.893 1.417a2.831 2.831 0 0 0 1.83-1.153 1.816 1.816 0 0 0 .338-1.153c-.068-.77-.8-1.145-1.655-1.078a2.677 2.677 0 0 0-1.549.638zm-3.686.815a17.287 17.287 0 0 0-.94 1.78 11.309 11.309 0 0 1-.614 1.2c-.169.268-.546.87-.978.84-.2-.014-.359-.23-.426-.364a3.642 3.642 0 0 1-.263-1.128 4.012 4.012 0 0 0-.138-1.266c-.2-.342-.635-.226-.9-.025a1.615 1.615 0 0 0-.514 1 8.954 8.954 0 0 1-1.028 2.482c-.17.255-.454.64-.8.614-.211-.015-.395-.252-.514-.476a4.708 4.708 0 0 1-.476-1.479 2.841 2.841 0 0 0-.163-.815.828.828 0 0 0-.326-.326 1.417 1.417 0 0 0-1.141.15c-.257.154-.334.442-.577.539-.321.128-.556-.011-.89-.025a2.094 2.094 0 0 0-1.529.627 6.161 6.161 0 0 0-1.692 2.62 3.976 3.976 0 0 0-.2 1.893 1.209 1.209 0 0 0 1.066 1.091 2.436 2.436 0 0 0 1.542-.627 6.328 6.328 0 0 0 1.091-1.065 8.56 8.56 0 0 0 .74-.877c.05-.077.171-.276.288-.263.144.015.191.3.263.476a4.052 4.052 0 0 0 .251.489 1.532 1.532 0 0 0 .765.727 1.471 1.471 0 0 0 1.128-.3 5.377 5.377 0 0 0 1.58-1.93c.081-.146.216-.357.376-.338s.185.255.238.414a1.629 1.629 0 0 0 .865 1.1.766.766 0 0 0 .689-.113 3.928 3.928 0 0 0 1.153-1.3c.106-.167.227-.408.426-.4.369.013.276.677.276 1.1 0 .481-.025.954-.025 1.391 0 .962-.019 1.789-.05 2.783-.042 1.355-.06 2.778-.088 4.162-.009.431-.081 1.089.125 1.266.162.139.568.088.94.088a3.766 3.766 0 0 0 .89-.025c.4-.133.31-.622.326-1.178.065-2.321.062-4.631.125-6.92.066-2.371.069-4.565.125-6.92a3.836 3.836 0 0 0-.013-.978.381.381 0 0 0-.414-.236c-.27.044-.425.319-.564.542zm-10 3.9c.694-.111.27.9.125 1.191a7.038 7.038 0 0 1-1.1 1.68c-.164.17-.619.587-.9.376-.216-.161-.04-.76.038-1.016a4.247 4.247 0 0 1 .364-.877 3.446 3.446 0 0 1 1.216-1.266.881.881 0 0 1 .259-.09z"/>
</svg>
