<svg xmlns="http://www.w3.org/2000/svg" width="85.387" height="17.065" viewBox="0 0 85.387 17.065">
    <defs>
        <style>
            .cls-2{fill:#2b2c2b}
        </style>
    </defs>
    <g id="g2993">
        <g id="g3035">
            <g id="g3019" transform="translate(65.751)">
                <path id="path3021" fill="#d01931" d="M-27.791-56.826l3.171-5.468.414-6.612h-.711l-8.783 15.14.371.639zm.751 1.281l-5.96 2.98.368.641 17.5.032.353-.612-5.975-3.035zm4.255-13.355h-.763l.377 6.613 3.149 5.486 5.566 3.743.392-.668z" transform="translate(33.699 68.906)"/>
            </g>
            <g id="g3031" transform="translate(42.656 6.415)">
                <path id="path3033" d="M-43.3-19.759v2.257c0 2.639-1.815 4.119-4.341 4.19h-.546c-2.528-.1-4.32-1.582-4.315-4.2v-2.257c.009-2.645 1.819-4.113 4.356-4.185h.5c2.546.081 4.353 1.575 4.346 4.2m-4.777-2.01a1.869 1.869 0 0 0-1.956 2v2.264a1.886 1.886 0 0 0 1.947 2c.051.006.3.006.356 0a1.878 1.878 0 0 0 1.947-2v-2.262a1.881 1.881 0 0 0-1.957-2.01 2.2 2.2 0 0 0-.341 0" class="cls-2" transform="translate(52.501 23.96)"/>
            </g>
            <g id="g3043" transform="translate(53.158 3.904)">
                <path id="path3037" d="M-11.793-32.866s3.71-4.222 3.932-4.457l3.1.008-4.508 5.094 4.73 5.246h-3.143l-4.118-4.583-.008 4.571h-2.5l.023-12.861h2.493z" class="cls-2" transform="translate(14.301 39.853)"/>
            </g>
            <g id="g3039" transform="translate(11.175 6.36)">
                <path id="path3041" d="M-43.315-28.381v-1.82c.007-2.644-1.84-4.124-4.371-4.211h-.477c-2.547.079-4.358 1.552-4.36 4.194v2.245a4.173 4.173 0 0 0 4.293 4.208h.565c3.034 0 4.169-1.532 4.308-3.29l-2.283-.006c-.061.333-.173 1.187-2.085 1.185a4.247 4.247 0 0 1-1.135-.2c-1.418-.475-1.191-2.224-1.191-2.32zm-6.739-2.008a1.819 1.819 0 0 1 1.975-1.932c.115 0 .231-.006.332 0a1.852 1.852 0 0 1 1.991 1.939v.175h-4.3z" class="cls-2" transform="translate(52.523 34.414)"/>
            </g>
            <g id="g3048" transform="translate(21.619 6.379)">
                <path id="path3045" d="M-43.361-28.367v-1.816c.007-2.644-1.842-4.124-4.375-4.215h-.464c-2.551.078-4.367 1.552-4.371 4.193v2.247a4.174 4.174 0 0 0 4.295 4.208h.568c3.039 0 4.166-1.536 4.306-3.289l-2.27-.009c-.074.334-.177 1.187-2.1 1.184a4.071 4.071 0 0 1-1.122-.2c-1.43-.472-1.2-2.222-1.2-2.316zm-6.747-2a1.824 1.824 0 0 1 1.975-1.933h.338a1.849 1.849 0 0 1 1.988 1.936v.176l-4.3-.006z" class="cls-2" transform="translate(52.579 34.397)"/>
            </g>
            <g id="g3047" transform="translate(32.168 3.866)">
                <path id="path3049" d="M-22.947-12a3.655 3.655 0 0 0-2.384.685v-3.232h-2.477l-.021 12.861h.433s1.1-.616 1.16-.636a4.35 4.35 0 0 0 2.744.965c.191 0 .367.017.553 0a4.067 4.067 0 0 0 4.328-4.19v-2.244A4.082 4.082 0 0 0-22.947-12m1.861 6.463a1.894 1.894 0 0 1-1.952 2h-.355a1.894 1.894 0 0 1-1.949-2l.006-2.26a1.876 1.876 0 0 1 1.952-2.012 1.8 1.8 0 0 1 .349 0 1.891 1.891 0 0 1 1.952 2.019z" class="cls-2" transform="translate(27.825 14.546)"/>
            </g>
            <g id="g3051" transform="translate(0 3.809)">
                <path id="path3053" d="M-51.088-60.588l-4.761-5.312c.237.014.472.023.713.023a3.514 3.514 0 0 0 3.675-3.65c.009-3.142-2.6-3.928-4.911-3.93l-5.551-.014-.026 12.86 2.515.006v-5.74l5.159 5.749zm-8.33-10.677l3.016.009c1.393 0 2.626.442 2.626 1.766s-.773 1.8-2.632 1.8h-3.017z" class="cls-2" transform="translate(61.949 73.468)"/>
            </g>
        </g>
    </g>
</svg>
