<svg xmlns="http://www.w3.org/2000/svg" width="16" height="16" viewBox="0 0 16 16">
  <g id="Group_2737" data-name="Group 2737" transform="translate(-12243 2945)">
    <path id="Path_900" data-name="Path 900" d="M0,0H16V16H0Z" transform="translate(12243 -2929) rotate(-90)" fill="#fff" opacity="0"/>
    <g id="planet-earth_1_" data-name="planet-earth (1)" transform="translate(12243.515 -2944.424)">
      <path id="Path_1090" data-name="Path 1090" d="M7.478,14.956A7.478,7.478,0,0,1,6.379.081,7.55,7.55,0,0,1,7.478,0a7.474,7.474,0,0,1,7.478,7.478c0,.048,0,.1,0,.145,0,0,0,0,0,0a7.432,7.432,0,0,1-.484,2.508c-.077.2-.166.408-.263.608l0,0-.005.01a7.481,7.481,0,0,1-1.07,1.615.42.42,0,0,1-.635-.55,6.65,6.65,0,0,0,.951-1.437l.006-.011c.086-.178.164-.359.232-.538a6.594,6.594,0,0,0,.43-2.223s0-.007,0-.01c0-.042,0-.085,0-.127a6.574,6.574,0,0,0-.633-2.832,6.64,6.64,0,0,0-12.094.185,6.641,6.641,0,0,0,8.854,8.684.42.42,0,1,1,.35.764A7.418,7.418,0,0,1,7.478,14.956Z" transform="translate(0 0)" fill="#172840"/>
      <path id="Path_1091" data-name="Path 1091" d="M385.482,155.906c0,.046,0,.092,0,.139v0a7.02,7.02,0,0,1-.457,2.367q-.112.294-.248.574l-.005.01a2.445,2.445,0,0,1-1.436-1.685l-.446-1.852a.4.4,0,0,0-.18-.247l-.41-.251a.4.4,0,0,1-.189-.374l.031-.358a.465.465,0,0,1,.164-.316l1-.842a.465.465,0,0,1,.34-.108l1.164-.072A7.027,7.027,0,0,1,385.482,155.906Z" transform="translate(-370.946 -148.428)" fill="#f0b440"/>
      <path id="Path_1092" data-name="Path 1092" d="M370.8,145.46a.419.419,0,0,1-.161-.032,2.865,2.865,0,0,1-1.683-1.975l-.444-1.843-.4-.246a.814.814,0,0,1-.389-.769l.031-.357a.891.891,0,0,1,.313-.6l1-.842a.883.883,0,0,1,.611-.207l1.138-.07a.42.42,0,0,1,.406.24,7.408,7.408,0,0,1,.714,3.191c0,.048,0,.1,0,.145v0a7.434,7.434,0,0,1-.484,2.508c-.077.2-.166.408-.263.608l0,0-.006.011A.42.42,0,0,1,370.8,145.46Zm-2.241-4.807.4.244a.815.815,0,0,1,.369.507l.446,1.852a2.028,2.028,0,0,0,.829,1.2q.031-.075.059-.151a6.592,6.592,0,0,0,.43-2.223s0-.007,0-.01c0-.042,0-.085,0-.127a6.576,6.576,0,0,0-.518-2.575l-.874.054a.424.424,0,0,1-.061,0h0a.045.045,0,0,0-.029.011l-1,.842a.046.046,0,0,0-.016.031Z" transform="translate(-356.98 -134.469)" fill="#172840"/>
      <path id="Path_1093" data-name="Path 1093" d="M42.936,24.542s-.807,2.218-1.169,3.212a.71.71,0,0,1-.667.467h-.008a.709.709,0,0,1-.665-.484L39.5,24.965a.412.412,0,0,0-.206-.237c-.268-.134-.487-.692-.487-.692l-.1-.81a2.228,2.228,0,0,0-1.671-1.9l-.122-.031a.174.174,0,0,1-.115-.243,7.065,7.065,0,0,1,5.327-3.971.03.03,0,0,1,.032.016l.525,1.051a.408.408,0,0,1,.043.183v.084a.41.41,0,0,1-.2.35l-.336.205a.408.408,0,0,0-.182.242l-.43,1.576a.433.433,0,0,1-.573.289l-.251-.095a1.274,1.274,0,0,0-.709.039.731.731,0,0,0-.542.7.729.729,0,0,0,.521.7c.286.085.535.735,1.323.735,0,0,1.388-.176,1.577.253A1.518,1.518,0,0,1,42.936,24.542Z" transform="translate(-35.711 -16.586)" fill="#f0b440"/>
      <path id="Path_1094" data-name="Path 1094" d="M27.129,14.68h-.008a1.132,1.132,0,0,1-1.064-.771l-.925-2.768a1.853,1.853,0,0,1-.687-.913.421.421,0,0,1-.026-.1l-.1-.81a1.808,1.808,0,0,0-1.356-1.538l-.123-.031a.594.594,0,0,1-.393-.829A7.461,7.461,0,0,1,28.1,2.709a.451.451,0,0,1,.47.244L29.091,4a.83.83,0,0,1,.088.371v.084a.835.835,0,0,1-.4.709l-.332.2L28.02,6.943a.851.851,0,0,1-.822.627.847.847,0,0,1-.309-.058l-.247-.093a.278.278,0,0,0-.084-.009,1.452,1.452,0,0,0-.366.06.311.311,0,0,0-.231.3.308.308,0,0,0,.22.3,1.156,1.156,0,0,1,.476.337.972.972,0,0,0,.7.38,5.947,5.947,0,0,1,.631-.035c.479,0,1.14.056,1.353.54a1.926,1.926,0,0,1,.015,1.439s-.807,2.218-1.169,3.213A1.134,1.134,0,0,1,27.129,14.68Zm-1.615-4.288a.832.832,0,0,1,.414.479l.926,2.771a.29.29,0,0,0,.271.2h0a.291.291,0,0,0,.273-.191c.362-.994,1.169-3.212,1.169-3.212a1.113,1.113,0,0,0,.022-.773,1.527,1.527,0,0,0-.6-.078,5.065,5.065,0,0,0-.556.032.422.422,0,0,1-.053,0,1.774,1.774,0,0,1-1.323-.628,1.7,1.7,0,0,0-.138-.13,1.149,1.149,0,0,1,.05-2.2,2.294,2.294,0,0,1,.585-.089,1.082,1.082,0,0,1,.381.063l.259.1a.011.011,0,0,0,.007,0,.011.011,0,0,0,0-.006l.43-1.576a.825.825,0,0,1,.368-.49l.331-.2V4.377l-.395-.79a6.62,6.62,0,0,0-4.6,3.423,2.648,2.648,0,0,1,1.814,2.2l.09.753A1.308,1.308,0,0,0,25.515,10.393Z" transform="translate(-21.741 -2.625)" fill="#172840"/>
    </g>
  </g>
</svg>
