<svg xmlns="http://www.w3.org/2000/svg" width="16" height="16" viewBox="0 0 16 16">
  <g id="Group_3020" data-name="Group 3020" transform="translate(-12212 2971)">
    <g id="calender_min" data-name="calender min" transform="translate(12212 -2971)" opacity="0">
      <path id="Path_900" data-name="Path 900" d="M0,0H16V16H0Z" transform="translate(0 16) rotate(-90)" fill="#fff"/>
    </g>
    <g id="star_1_" data-name="star (1)" transform="translate(12212 -2982.328)">
      <g id="Group_3019" data-name="Group 3019" transform="translate(0 11.828)">
        <path id="Path_1866" data-name="Path 1866" d="M4.025,23.053a.448.448,0,0,1-.442-.524l.16-.93L.135,18.083a.448.448,0,0,1,.248-.764L5.369,16.6,7.6,12.078a.448.448,0,0,1,.8,0l2.23,4.518,4.985.724a.448.448,0,0,1,.248.764l-1.418,1.383a.448.448,0,0,1-.625-.641l.769-.749-4.321-.628a.448.448,0,0,1-.337-.245L8,13.288,6.068,17.2a.448.448,0,0,1-.337.245l-4.321.628,3.126,3.047a.448.448,0,0,1,.129.4l-.2,1.162A.448.448,0,0,1,4.025,23.053Z" transform="translate(0 -11.828)" fill="#172840"/>
        <path id="Path_1867" data-name="Path 1867" d="M102.093,282.517a.447.447,0,0,1-.208-.051l-4.459-2.344-4.459,2.344a.448.448,0,0,1-.65-.472l.329-1.92a.448.448,0,0,1,.883.151l-.176,1.026,3.864-2.032a.448.448,0,0,1,.417,0l3.864,2.032-.738-4.3a.448.448,0,0,1,.129-.4l.952-.928a.448.448,0,1,1,.625.641l-.784.764.852,4.965a.448.448,0,0,1-.441.523Z" transform="translate(-89.425 -267.256)" fill="#172840"/>
      </g>
      <path id="Path_1868" data-name="Path 1868" d="M141.206,161.511l-2.289,1.2.437-2.548-1.852-1.8,2.559-.372,1.144-2.319,1.144,2.319,2.559.372-1.852,1.8.437,2.548Z" transform="translate(-133.206 -139.348)" fill="#f0b440"/>
      <path id="Path_1869" data-name="Path 1869" d="M129.613,149.28a.447.447,0,0,1-.208-.051l-2.08-1.094-2.08,1.094a.448.448,0,0,1-.65-.472l.4-2.316-1.683-1.64a.448.448,0,0,1,.248-.764l2.326-.338,1.04-2.107a.448.448,0,0,1,.8,0l1.04,2.107,2.326.338a.448.448,0,0,1,.248.764l-1.683,1.64.392,2.287a.448.448,0,0,1-.435.553Zm-2.289-2.1a.448.448,0,0,1,.208.051l1.486.781-.284-1.654a.448.448,0,0,1,.129-.4l1.2-1.171-1.661-.241a.448.448,0,0,1-.337-.245l-.743-1.5-.743,1.5a.448.448,0,0,1-.337.245l-1.661.241,1.2,1.171a.448.448,0,0,1,.129.4l-.284,1.654,1.485-.781A.447.447,0,0,1,127.325,147.181Z" transform="translate(-119.325 -125.466)" fill="#172840"/>
    </g>
  </g>
</svg>
