<svg xmlns="http://www.w3.org/2000/svg" width="32.652" height="28.194" viewBox="0 0 32.652 28.194">
  <g id="Group_3015" data-name="Group 3015" transform="translate(-1021.266 -169)">
    <g id="Group_1773" data-name="Group 1773" transform="translate(1022.233 169.968)">
      <path id="Path_661" data-name="Path 661" d="M43.534,50.126H17.527a2.355,2.355,0,0,0-2.355,2.355V58.94a3.072,3.072,0,0,0,3.072,3.072h0a3.072,3.072,0,0,0,3.072-3.072,3.072,3.072,0,0,0,3.072,3.072h0a3.072,3.072,0,0,0,3.072-3.072,3.072,3.072,0,0,0,3.072,3.072h0A3.072,3.072,0,0,0,33.6,58.94a3.072,3.072,0,0,0,3.072,3.072h0a3.072,3.072,0,0,0,3.072-3.072,3.072,3.072,0,0,0,3.072,3.072h0a3.072,3.072,0,0,0,3.072-3.072V52.481A2.355,2.355,0,0,0,43.534,50.126Z" transform="translate(-15.172 -50.126)" fill="#f0b440"/>
    </g>
    <path id="Path_662" data-name="Path 662" d="M29.33,34.954H3.323A3.326,3.326,0,0,0,0,38.276v6.459A4.041,4.041,0,0,0,1.966,48.2V62.18a.968.968,0,0,0,.968.968H29.718a.968.968,0,0,0,.968-.968V52.416a.968.968,0,1,0-1.935,0v8.8H21.394V52.921a.968.968,0,0,0-.968-.968h-8.2a.968.968,0,0,0-.968.968V56.5a.968.968,0,0,0,1.935,0V53.889h6.265v7.324H3.9V48.771c.046,0,.091,0,.138,0a4.032,4.032,0,0,0,3.072-1.419,4.034,4.034,0,0,0,6.143,0,4.034,4.034,0,0,0,6.143,0,4.034,4.034,0,0,0,6.143,0,4.038,4.038,0,0,0,7.111-2.62V38.276A3.326,3.326,0,0,0,29.33,34.954Zm1.387,9.782a2.1,2.1,0,0,1-4.208,0V41.924a.968.968,0,1,0-1.935,0v2.812a2.1,2.1,0,0,1-4.208,0V40.081a.968.968,0,0,0-1.935,0v4.655a2.1,2.1,0,0,1-4.208,0V41.924a.968.968,0,1,0-1.935,0v2.812a2.1,2.1,0,0,1-4.208,0V40.081a.968.968,0,0,0-1.935,0v4.655a2.1,2.1,0,0,1-4.208,0V38.276a1.389,1.389,0,0,1,1.387-1.387H29.33a1.389,1.389,0,0,1,1.387,1.387v6.459Z" transform="translate(1021.266 134.046)" fill="#fff"/>
  </g>
</svg>
