<svg xmlns="http://www.w3.org/2000/svg" width="16" height="16" viewBox="0 0 16 16">
  <g id="Group_2735" data-name="Group 2735" transform="translate(-12243 3001)">
    <path id="Path_900" data-name="Path 900" d="M0,0H16V16H0Z" transform="translate(12243 -2985) rotate(-90)" fill="#fff" opacity="0"/>
    <g id="cart" transform="translate(12244 -3001)">
      <g id="Group_2732" data-name="Group 2732" transform="translate(0 0)">
        <path id="Path_1082" data-name="Path 1082" d="M382.584,415.688H380.5a.465.465,0,1,1,0-.93h2.087a.465.465,0,1,1,0,.93Z" transform="translate(-369.263 -401.797)" fill="#172840"/>
        <path id="Path_1083" data-name="Path 1083" d="M43.8,13.892H38.089a.465.465,0,0,1-.465-.465V2.93a1.47,1.47,0,0,0-.687-1.248l-1.3-.824a.465.465,0,0,1,.5-.786l1.3.824a2.4,2.4,0,0,1,1.12,2.035V12.961H43.8a.465.465,0,1,1,0,.93Z" transform="translate(-35.42 0)" fill="#172840"/>
      </g>
      <ellipse id="Ellipse_31" data-name="Ellipse 31" cx="1.054" cy="1.054" rx="1.054" ry="1.054" transform="translate(3.668 13.426)" fill="#f0b440"/>
      <path id="Path_1084" data-name="Path 1084" d="M139.441,417.8a1.519,1.519,0,1,1,1.519-1.519A1.521,1.521,0,0,1,139.441,417.8Zm0-2.109a.589.589,0,1,0,.589.589A.59.59,0,0,0,139.441,415.687Z" transform="translate(-134.719 -401.796)" fill="#172840"/>
      <ellipse id="Ellipse_32" data-name="Ellipse 32" cx="1.054" cy="1.054" rx="1.054" ry="1.054" transform="translate(10.18 13.426)" fill="#f0b440"/>
      <g id="Group_2733" data-name="Group 2733" transform="translate(6.382 0.233)">
        <path id="Path_1085" data-name="Path 1085" d="M347.814,417.8a1.519,1.519,0,1,1,1.519-1.519A1.521,1.521,0,0,1,347.814,417.8Zm0-2.109a.589.589,0,1,0,.589.589A.59.59,0,0,0,347.814,415.687Z" transform="translate(-342.962 -402.029)" fill="#172840"/>
        <path id="Path_1086" data-name="Path 1086" d="M240.1,11.4a.465.465,0,0,1-.465-.465V7.912a.465.465,0,0,1,.465-.465h2.884a.465.465,0,0,1,.465.465V9.331a.465.465,0,1,1-.93,0V8.377H240.56v2.558A.465.465,0,0,1,240.1,11.4Z" transform="translate(-239.63 -7.447)" fill="#172840"/>
      </g>
      <path id="Path_1087" data-name="Path 1087" d="M190.947,119.077V122.3h-1.535v-3.225h-1.38v7.907h7.039v-7.907Z" transform="translate(-183.263 -115.356)" fill="#f0b440"/>
      <g id="Group_2734" data-name="Group 2734" transform="translate(4.304 3.256)">
        <path id="Path_1088" data-name="Path 1088" d="M180.652,113.03h-7.039a.465.465,0,0,1-.465-.465v-7.907a.465.465,0,0,1,.465-.465h1.38a.465.465,0,0,1,.465.465v2.759h.6v-2.759a.465.465,0,0,1,.465-.465h4.124a.465.465,0,0,1,.465.465v7.907A.465.465,0,0,1,180.652,113.03Zm-6.574-.93h6.109v-6.977h-3.194v2.759a.465.465,0,0,1-.465.465h-1.535a.465.465,0,0,1-.465-.465v-2.759h-.45V112.1Z" transform="translate(-173.148 -104.193)" fill="#172840"/>
        <path id="Path_1089" data-name="Path 1089" d="M208.373,105.123h-2.512a.465.465,0,1,1,0-.93h2.512a.465.465,0,0,1,0,.93Z" transform="translate(-204.388 -104.193)" fill="#172840"/>
      </g>
    </g>
  </g>
</svg>
