<svg xmlns="http://www.w3.org/2000/svg" width="16" height="16" viewBox="0 0 16 16">
  <g id="Group_2736" data-name="Group 2736" transform="translate(-12243 2973)">
    <path id="Path_900" data-name="Path 900" d="M0,0H16V16H0Z" transform="translate(12243 -2957) rotate(-90)" fill="#fff" opacity="0"/>
    <g id="shield_1_" data-name="shield (1)" transform="translate(12244.5 -2972.783)">
      <path id="Path_1095" data-name="Path 1095" d="M50.064,15.554a1.438,1.438,0,0,1-.6-.132c-1.759-.809-5.851-2.987-5.851-5.72V2.736a.738.738,0,0,1,.97-.7,3.408,3.408,0,0,0,1.085.176A3.392,3.392,0,0,0,48.587.566a1.181,1.181,0,0,1,1-.566h.951a1.181,1.181,0,0,1,1,.566,3.392,3.392,0,0,0,2.919,1.645,3.409,3.409,0,0,0,1.085-.176.738.738,0,0,1,.97.7V4.559a.447.447,0,0,1-.893,0V2.945a4.307,4.307,0,0,1-1.162.159A4.278,4.278,0,0,1,50.779,1.03.279.279,0,0,0,50.54.893h-.951a.279.279,0,0,0-.239.137A4.278,4.278,0,0,1,45.667,3.1,4.3,4.3,0,0,1,44.5,2.945V9.7c0,1.811,2.754,3.723,5.331,4.909a.545.545,0,0,0,.456,0c2.577-1.186,5.331-3.1,5.331-4.909V6.859a.447.447,0,1,1,.893,0V9.7c0,2.733-4.092,4.91-5.851,5.72A1.439,1.439,0,0,1,50.064,15.554Z" transform="translate(-43.612 0)" fill="#172840"/>
      <path id="Path_1096" data-name="Path 1096" d="M147.287,177.539l-2.361-1.181a.906.906,0,0,1-.405-1.216h0a.906.906,0,0,1,1.216-.405l1.706.853,2.148-2.685a.906.906,0,0,1,1.274-.142h0a.906.906,0,0,1,.142,1.274l-2.606,3.257A.906.906,0,0,1,147.287,177.539Z" transform="translate(-141.362 -167.323)" fill="#f0b440"/>
      <path id="Path_1097" data-name="Path 1097" d="M133.45,163.829a1.359,1.359,0,0,1-.6-.143l-2.361-1.181a1.353,1.353,0,1,1,1.21-2.42l1.383.692,1.922-2.4a1.353,1.353,0,0,1,2.113,1.69l-2.606,3.257A1.347,1.347,0,0,1,133.45,163.829Zm-2.36-2.993a.46.46,0,0,0-.206.871l2.361,1.181a.459.459,0,0,0,.564-.124l2.606-3.257a.46.46,0,1,0-.718-.574l-2.148,2.685a.446.446,0,0,1-.548.12l-1.706-.853A.454.454,0,0,0,131.09,160.836Z" transform="translate(-127.12 -153.071)" fill="#172840"/>
    </g>
  </g>
</svg>
