<?xml version="1.0" standalone="no"?>
<!DOCTYPE svg PUBLIC "-//W3C//DTD SVG 1.1//EN" "http://www.w3.org/Graphics/SVG/1.1/DTD/svg11.dtd" >
<svg xmlns="http://www.w3.org/2000/svg" xmlns:xlink="http://www.w3.org/1999/xlink" version="1.1">
<metadata>
Created by FontForge 20170924 at Tue Oct 15 22:17:25 2019
 By www-data
Typeface (c) (HANIFONTS). 2019. All Rights Reserved
</metadata>
<defs>
<font id="HaniArb-Medium" horiz-adv-x="0" >
  <font-face 
    font-family="Hanimation Arabic Medium"
    font-weight="500"
    font-stretch="normal"
    units-per-em="1000"
    panose-1="2 0 6 3 0 0 0 0 0 0"
    ascent="800"
    descent="-200"
    x-height="500"
    cap-height="630"
    bbox="-213 -438 1395 1030"
    underline-thickness="50"
    underline-position="-100"
    unicode-range="U+001D-FEFC"
  />
<missing-glyph horiz-adv-x="428" 
d="M60 0v630h308v-630h-308zM150 81h128v468h-128v-468z" />
    <glyph glyph-name="uniFDF2" unicode="&#xfedf;&#xfee0;&#xfeea;" horiz-adv-x="951" arabic-form="isolated" 
d="M549 699q-69 0 -73 72l-2 57l54 2q1 -27 2.5 -52.5t20.5 -25.5q24 0 24 48l-1 32l57 -1q0 -29 1.5 -52.5t21.5 -23.5q19 0 19 33q0 19 -6 50l57 4l2 -53q0 -85 -73 -85q-41 0 -51 22q-17 -27 -53 -27zM576 867l-4 139h51l-1 -119zM328 101v247q-30 20 -65 20
q-42 0 -70 -29q-41 -45 -41 -107q0 -130 149 -131h27zM312 0q-122 1 -175 41q-96 69 -97 185q0 118 88 188q61 47 139 47q93 0 171 -53v-307h120v529h110v-529h70q61 1 61 90v439h110v-430q0 -79 -35 -133q-43 -67 -134 -67h-428z" />
    <glyph glyph-name="falillah" unicode="&#xfed3;&#xfee0;&#xfee0;&#xfeea;" horiz-adv-x="1435" 
d="M549 699q-69 0 -73 72l-2 57l54 2q1 -27 2.5 -52.5t20.5 -25.5q24 0 24 48l-1 32l57 -1q0 -29 1.5 -52.5t21.5 -23.5q19 0 19 33q0 19 -6 50l57 4l2 -53q0 -85 -73 -85q-41 0 -51 22q-17 -27 -53 -27zM576 867l-4 139h51l-1 -119zM328 101v247q-30 20 -65 20
q-42 0 -70 -29q-41 -45 -41 -107q0 -130 149 -131h27zM1285 101v247q-30 20 -65 20q-42 0 -70 -29q-41 -45 -41 -107q0 -130 149 -131h27zM1395 0h-1083q-122 1 -175 41q-96 69 -97 185q0 118 88 188q61 47 139 47q93 0 171 -53v-307h120v529h110v-529h70q61 1 61 90v439
h110v-427q0 -57 -17 -102h142q-36 55 -37 125q0 118 88 188q61 47 139 47q93 0 171 -53v-408zM1084 491q-26 0 -45 18.5t-19 44.5q0 27 19 45.5t45 18.5t44.5 -18.5t18.5 -45.5q0 -26 -18.5 -44.5t-44.5 -18.5z" />
    <glyph glyph-name="uniFDFA" unicode="&#xfebb;&#xfee0;&#xfef0;&#x20;&#x627;&#xfdf2;&#x20;&#xfecb;&#xfee0;&#xfbff;&#xfba7;&#x20;&#x648;&#xfeb3;&#xfee0;&#xfee2;" horiz-adv-x="846" arabic-form="isolated" 
d="M222 293h-53q-29 0 -46 15q-21 19 -21 48q0 38 23 60l23 -16q-17 -19 -17 -43q0 -37 38 -37h30v103q19 6 43 6q48 -1 48 -53v-31h234v118h29v-118h44v82h29v-22q25 35 58 35q29 0 47 -24q15 -21 15 -44q0 -12 -8 -54h-477v56q0 31 -19 31q-8 0 -14 -3v-102q0 -7 -6 -7z
M713 345q4 14 4 25q0 15 -6 26q-10 17 -27 18q-33 0 -56 -46q-3 -7 -3 -23h88zM449 452h-112q-32 0 -46 11q-26 18 -26 49t23 49q16 13 37 13q24 0 45 -14v-81h32v139h29v-139h18q16 0 16 22v117h29v-115q0 -19 -9 -33q-11 -18 -36 -18zM341 479v65q-8 5 -17 5q-11 0 -19 -8
q-10 -12 -10 -28q0 -34 39 -34h7zM399 636q-18 0 -19 19v15l14 1q0 -7 0.5 -14t5.5 -7q6 0 6 13v9l15 -1q0 -20 6 -20q5 0 5 9l-1 13l15 1v-14q0 -22 -19 -22q-11 0 -14 6q-4 -8 -14 -8zM407 681l-2 36h14v-31zM554 522h-29v129h29v-129zM533 107q-7 0 -12 5t-5 12t5 11.5
t12 4.5q17 0 17 -16q0 -7 -5 -12t-12 -5zM495 107q-7 0 -12 5t-5 12t5 11.5t12 4.5q16 0 16 -16q0 -7 -5 -12t-11 -5zM745 155h-573q-32 0 -46 11q-26 18 -26 49t23 49q16 13 37 13q24 0 45 -14v-81h297q20 0 20 25v37h28q0 -51 -4 -62h35v121h29v-121h41q-14 16 -14 40
q0 25 16.5 42t45.5 17q27 0 45 -17l-11 -22q-17 12 -33 12t-24 -9.5t-8 -23.5q0 -27 29 -39h48v-27zM176 182v65q-8 5 -17 5q-11 0 -19 -7q-10 -12 -10 -29q0 -34 39 -34h7zM136 -61h-26q-7 44 -7 56q0 44 41 55q2 57 53 57q25 0 39.5 -16.5t14.5 -47.5q0 -14 -3 -25h133
v106h29v-106h46v63h29v-63q26 0 29 2q8 4 8 23v48h29v-48q0 -25 18 -25q19 0 19 26v55h29v-53q0 -57 -39 -57q-23 0 -35 15q-12 -13 -32 -13h-280q-11 -10 -30 -10q-43 0 -54 38q-17 -3 -17 -27q0 -11 6 -53zM198 6q25 0 25 35q0 41 -26 41t-26 -38t27 -38zM691 -61h-18v27
h17q25 0 26 25q-77 0 -78 60q0 31 24 49q16 13 36 13q25 0 45 -14v-107q-1 -53 -52 -53zM714 18v65q-8 5 -17 5q-11 0 -18 -7q-11 -12 -11 -29q0 -34 39 -34h7zM526 471q-18 0 -19 19v15l14 1q0 -7 0.5 -14t5.5 -7q6 0 6 13v8h15q0 -20 6 -20q5 0 5 9q0 5 -2 13l16 1v-14
q0 -23 -19 -23q-11 0 -14 6q-4 -7 -14 -7z" />
    <glyph glyph-name="uniFDFB" unicode="&#xfe9f;&#xfede;&#x20;&#xfe9f;&#xfee0;&#xfe8e;&#xfedf;&#xfba7;" horiz-adv-x="932" arabic-form="isolated" 
d="M304 354h-85q-53 1 -76 18q-43 30 -43 81q0 52 39 83q26 20 60 20q41 0 75 -23v-134h28q26 0 26 39v192h48v-188q0 -34 -15 -58q-18 -29 -57 -30zM226 399v108q-13 8 -28 8q-19 0 -31 -12q-18 -20 -18 -47q0 -57 65 -57h12zM511 413h-46l-19 216h44zM832 354h-415v45h91
q38 0 38 45v186h48v-186q0 -27 -7 -45h198v20q0 33 -19 55.5t-52 22.5q-40 0 -65 -34l-27 34q35 45 92 45q53 0 85.5 -38.5t32.5 -96.5v-53zM686 0q-12 0 -20 8t-8 20q0 11 8 19.5t20 8.5q11 0 19 -8.5t8 -19.5q0 -12 -8 -20t-19 -8zM310 6h-19q-48 0 -76 25q-36 32 -36 79
q1 63 39 100l38 -27q-29 -32 -29 -71q0 -61 64 -62h18q42 0 42 37v226h48v-177h316v20q0 33 -19 55.5t-52 22.5q-40 0 -65 -33l-27 34q35 45 92 45q53 0 85.5 -39t32.5 -96v-53h-363q-2 -86 -89 -86zM781 280q-11 0 -19.5 8t-8.5 19q0 12 8.5 20t19.5 8q12 0 20 -8t8 -20
q0 -11 -8 -19t-20 -8zM229 252q-14 0 -14 22q0 8 1 14l8 5l-1 -12q0 -11 7 -11q10 0 10 10l-1 15l7 6q2 -24 15 -24l6 3q-1 5 -8 22l8 11h1q8 -20 8 -29q-2 -23 -14 -23q-7 0 -13 4q-11 -13 -20 -13z" />
    <glyph glyph-name="uniFDFC" unicode="&#x631;&#xfef3;&#xfe8e;&#x644;" horiz-adv-x="1358" arabic-form="isolated" 
d="M340 -197h-45q-109 0 -173 57q-81 73 -82 181q2 144 90 228l85 -61q-65 -74 -65 -163q0 -139 146 -141h40q97 1 97 85v641h110v-622q0 -205 -203 -205zM952 0h-213q-103 1 -106 145v485h110v-498q0 -30 23 -31h160q23 1 23 31v278h110v-265q-3 -145 -107 -145zM949 -199
q-26 0 -45 18.5t-19 44.5q0 27 19 45.5t45 18.5t44.5 -18.5t18.5 -45.5q0 -26 -18.5 -44.5t-44.5 -18.5zM803 -199q-26 0 -45 18.5t-19 44.5q0 27 19 45.5t45 18.5t44.5 -18.5t18.5 -45.5q0 -26 -18.5 -44.5t-44.5 -18.5zM1116 -197h-58v101h47q103 0 103 97v409h110v-420
q0 -187 -202 -187z" />
    <glyph glyph-name="uniFEF5" unicode="&#xfedf;&#xfe82;" horiz-adv-x="486" arabic-form="isolated" 
d="M261 0h-221v101h205q91 0 91 104v425h110v-425q0 -194 -185 -205zM256 135l-105 -2l-44 495l101 -1zM180 674q-20 0 -43 20q-13 12 -20 12q-13 0 -14 -32h-38q0 82 50 82q25 0 51 -23q11 -10 19 -10q15 0 18 37l28 -17q0 -69 -51 -69z" />
    <glyph glyph-name="uniFEF6" unicode="&#xfee0;&#xfe82;" horiz-adv-x="500" arabic-form="final" 
d="M151 133l-44 495l101 -1l48 -492zM515 0h-475v101h205q91 0 91 104v425h110v-425q0 -61 -18 -104h87v-101zM180 674q-20 0 -43 20q-13 12 -20 12q-13 0 -14 -32h-38q0 82 50 82q25 0 51 -23q11 -10 19 -10q15 0 18 37l28 -17q0 -69 -51 -69z" />
    <glyph glyph-name="uniFEF7" unicode="&#xfedf;&#xfe84;" horiz-adv-x="486" arabic-form="isolated" 
d="M261 0h-221v101h205q91 0 91 104v425h110v-425q0 -194 -185 -205zM256 135l-105 -2l-44 495l101 -1zM91 660l-7 43l25 12q-29 21 -29 52q0 42 37 62q13 7 34 7q23 0 44 -10l-8 -40q-13 4 -23 4q-31 0 -31 -29q1 -28 47 -31q13 0 28 2l-2 -42q-66 -10 -115 -30z" />
    <glyph glyph-name="uniFEF8" unicode="&#xfee0;&#xfe84;" horiz-adv-x="500" arabic-form="final" 
d="M151 133l-44 495l101 -1l48 -492zM515 0h-475v101h205q91 0 91 104v425h110v-425q0 -61 -18 -104h87v-101zM91 660l-7 43l25 12q-29 21 -29 52q0 42 37 62q13 7 34 7q23 0 44 -10l-8 -40q-13 4 -23 4q-31 0 -31 -29q1 -28 47 -31q13 0 28 2l-2 -42q-66 -10 -115 -30z" />
    <glyph glyph-name="uniFEF9" unicode="&#xfedf;&#xfe88;" horiz-adv-x="486" arabic-form="isolated" 
d="M261 0h-221v101h205q91 0 91 104v425h110v-425q0 -194 -185 -205zM256 135l-105 -2l-44 495l101 -1zM147 -202l-7 43l25 12q-29 21 -29 52q0 42 37 62q13 7 34 7q23 0 44 -10l-8 -40q-13 4 -23 4q-31 0 -31 -29q1 -28 47 -31q13 0 28 2l-2 -42q-66 -10 -115 -30z" />
    <glyph glyph-name="uniFEFA" unicode="&#xfee0;&#xfe88;" horiz-adv-x="500" arabic-form="final" 
d="M151 133l-44 495l101 -1l48 -492zM515 0h-475v101h205q91 0 91 104v425h110v-425q0 -61 -18 -104h87v-101zM147 -202l-7 43l25 12q-29 21 -29 52q0 42 37 62q13 7 34 7q23 0 44 -10l-8 -40q-13 4 -23 4q-31 0 -31 -29q1 -28 47 -31q13 0 28 2l-2 -42q-66 -10 -115 -30z
" />
    <glyph glyph-name="uniFEFB" unicode="&#xfedf;&#xfe8e;" horiz-adv-x="486" arabic-form="isolated" 
d="M261 0h-221v101h205q91 0 91 104v425h110v-425q0 -194 -185 -205zM256 135l-105 -2l-44 495l101 -1z" />
    <glyph glyph-name="uniFEFC" unicode="&#xfee0;&#xfe8e;" horiz-adv-x="500" arabic-form="final" 
d="M151 133l-44 495l101 -1l48 -492zM515 0h-475v101h205q91 0 91 104v425h110v-425q0 -61 -18 -104h87v-101z" />
    <glyph glyph-name="laam_alfwasla" unicode="&#xfedf;&#xfb51;" horiz-adv-x="486" 
d="M261 0h-221v101h205q91 0 91 104v425h110v-425q0 -194 -185 -205zM256 135l-105 -2l-44 495l101 -1zM189 710q4 10 4 19q0 10 -6 19q-8 13 -26 13q-34 0 -54 -51h82zM219 676h-164v34h20q36 86 89 86q32 0 50 -20q13 -16 13 -45q0 -15 -8 -55z" />
    <glyph glyph-name="laam_alfwasla_final" unicode="&#xfee0;&#xfb51;" horiz-adv-x="500" 
d="M151 133l-44 495l101 -1l48 -492zM515 0h-475v101h205q91 0 91 104v425h110v-425q0 -61 -18 -104h87v-101zM189 710q4 10 4 19q0 10 -6 19q-8 13 -26 13q-34 0 -54 -51h82zM219 676h-164v34h20q36 86 89 86q32 0 50 -20q13 -16 13 -45q0 -15 -8 -55z" />
    <glyph glyph-name="uni06BA.init" unicode="&#x6ba;" horiz-adv-x="296" 
d="M0 0v101h123q23 0 23 30v279h110v-266q-3 -144 -107 -144h-149z" />
    <glyph glyph-name="uni06BA.medi" unicode="&#x6ba;" horiz-adv-x="290" 
d="M305 0h-305v101h44q75 0 75 97v212h107v-207q0 -58 -15 -102h94v-101z" />
    <glyph glyph-name="uni06C2.init" unicode="&#x6c2;" horiz-adv-x="296" 
d="M0 0v101h123q23 0 23 30v279h110v-266q-3 -144 -107 -144h-149zM122 -191q-23 0 -38 17t-15 44q1 33 24 65.5t59 43.5l15 -32q-28 -19 -32 -43q12 -3 23 -16.5t11 -30.5q0 -23 -17 -37q-13 -11 -30 -11zM131 468l-7 43l25 12q-29 21 -29 52q0 42 37 62q13 7 34 7
q23 0 44 -10l-8 -40q-13 4 -23 4q-31 0 -31 -29q1 -28 47 -31q13 0 28 2l-2 -42q-66 -10 -115 -30z" />
    <glyph glyph-name="uni06C2.medi" unicode="&#x6c2;" horiz-adv-x="473" 
d="M50 -164q-16 0 -27 12t-11 32q1 24 17.5 47.5t42.5 30.5l11 -23q-21 -13 -24 -31q9 -2 17 -11.5t8 -22.5q0 -16 -11 -25t-23 -9zM128 250l-7 43l25 12q-29 21 -29 52q0 42 37 62q13 7 34 7q23 0 44 -10l-8 -40q-13 4 -23 4q-31 0 -31 -29q1 -28 47 -31q13 0 28 2l-2 -42
q-66 -10 -115 -30zM289 -204q-44 0 -83 21q-86 49 -110 183h-96v101h109q13 66 43 132l88 -19q-49 -104 -50 -187q0 -70 43 -108q23 -22 50 -22q47 0 47 72q0 45 -27 70l1 62h184v-101h-68q10 -33 10 -65q0 -111 -101 -134q-21 -5 -40 -5z" />
    <glyph glyph-name="uni06C2.fina" unicode="&#x6c2;" horiz-adv-x="491" 
d="M328 101v247q-30 20 -65 20q-42 0 -70 -29q-41 -45 -41 -107q0 -130 149 -131h27zM506 0h-194q-122 1 -175 41q-96 69 -97 185q0 118 88 188q61 47 139 47q93 0 171 -53v-307h68v-101zM80 469l-7 43l25 12q-29 21 -29 52q0 42 37 62q13 7 34 7q23 0 44 -10l-8 -40
q-13 4 -23 4q-31 0 -31 -29q1 -28 47 -31q13 0 28 2l-2 -42q-66 -10 -115 -30z" />
    <glyph glyph-name="uni06C3.fina" unicode="&#x6c3;" horiz-adv-x="535" 
d="M127 422q-26 0 -45 18.5t-19 44.5q0 27 19 45.5t45 18.5t44.5 -18.5t18.5 -45.5q0 -26 -18.5 -44.5t-44.5 -18.5zM273 422q-26 0 -45 18.5t-19 44.5q0 27 19 45.5t45 18.5t44.5 -18.5t18.5 -45.5q0 -26 -18.5 -44.5t-44.5 -18.5zM550 0h-59q-208 0 -267 177
q-86 -20 -151 -173q-32 35 -32 69q0 29 13 59q64 140 200 201q77 -228 239 -232h57v-101z" />
    <glyph glyph-name="uniFB51" unicode="&#x671;" horiz-adv-x="241" arabic-form="final" 
d="M241 0h-89q-104 0 -108 144l-4 486h115v-499q0 -30 23 -30h63v-101zM139 717q4 10 4 19q0 10 -6 19q-8 13 -26 13q-34 0 -54 -51h82zM169 683h-164v34h20q36 86 89 86q32 0 50 -20q13 -16 13 -45q0 -15 -8 -55z" />
    <glyph glyph-name="uniFB57" unicode="&#x67e;" horiz-adv-x="669" arabic-form="final" 
d="M285 -179q-26 0 -45 18.5t-19 44.5q0 27 19 45.5t45 18.5t44.5 -18.5t18.5 -45.5q0 -26 -18.5 -44.5t-44.5 -18.5zM431 -179q-26 0 -45 18.5t-19 44.5q0 27 19 45.5t45 18.5t44.5 -18.5t18.5 -45.5q0 -26 -18.5 -44.5t-44.5 -18.5zM351 -307q-26 0 -45 18.5t-19 44.5
q0 27 19 45.5t45 18.5t44.5 -18.5t18.5 -45.5q0 -26 -18.5 -44.5t-44.5 -18.5zM684 0h-389q-109 0 -173 58q-81 73 -82 181q1 93 38 161l98 -50q-26 -51 -26 -107q0 -141 146 -142h210v309h113l-2 -1l-2 -308h69v-101z" />
    <glyph glyph-name="uniFB58" unicode="&#x67e;" horiz-adv-x="296" arabic-form="initial" 
d="M0 0v101h123q23 0 23 30v279h110v-266q-3 -144 -107 -144h-149zM66 -176q-23 0 -40 16.5t-17 40.5t17 40.5t40 16.5t40 -16.5t17 -40.5t-17 -40.5t-40 -16.5zM197 -176q-24 0 -41 16.5t-17 40.5t17 40.5t41 16.5q23 0 39.5 -16.5t16.5 -40.5t-16.5 -40.5t-39.5 -16.5z
M125 -290q-23 0 -40 16.5t-17 39.5q0 24 17 41t40 17t39.5 -17t16.5 -41q0 -23 -16.5 -39.5t-39.5 -16.5z" />
    <glyph glyph-name="uniFB59" unicode="&#x67e;" horiz-adv-x="290" arabic-form="medial" 
d="M305 0h-305v101h44q75 0 75 97v212h107v-207q0 -58 -15 -102h94v-101zM66 -176q-23 0 -40 16.5t-17 40.5t17 40.5t40 16.5t40 -16.5t17 -40.5t-17 -40.5t-40 -16.5zM197 -176q-24 0 -41 16.5t-17 40.5t17 40.5t41 16.5q23 0 39.5 -16.5t16.5 -40.5t-16.5 -40.5
t-39.5 -16.5zM125 -290q-23 0 -40 16.5t-17 39.5q0 24 17 41t40 17t39.5 -17t16.5 -41q0 -23 -16.5 -39.5t-39.5 -16.5z" />
    <glyph glyph-name="uniFB67" unicode="&#x679;" horiz-adv-x="670" arabic-form="final" 
d="M685 0h-390q-109 0 -173 58q-81 73 -82 181q1 93 38 161l98 -50q-26 -51 -26 -107q0 -141 146 -142h210v309h109v-309h70v-101zM379 526q4 10 4 19q0 10 -5 18q-9 14 -28 14q-35 0 -56 -51h85zM293 580q26 32 58 32t50 -20q13 -16 13 -45q0 -15 -8 -55h-164v34h20v111h31
v-57z" />
    <glyph glyph-name="uniFB68" unicode="&#x679;" horiz-adv-x="296" arabic-form="initial" 
d="M0 0v101h123q23 0 23 30v279h110v-266q-3 -144 -107 -144h-149zM230 526q4 10 4 19q0 10 -5 18q-9 14 -28 14q-35 0 -56 -51h85zM144 580q26 32 58 32t50 -20q13 -16 13 -45q0 -15 -8 -55h-164v34h20v111h31v-57z" />
    <glyph glyph-name="uniFB69" unicode="&#x679;" horiz-adv-x="290" arabic-form="medial" 
d="M305 0h-305v101h44q75 0 75 97v212h107v-207q0 -58 -15 -102h94v-101zM211 526q4 10 4 19q0 10 -5 18q-9 14 -28 14q-35 0 -56 -51h85zM125 580q26 32 58 32t50 -20q13 -16 13 -45q0 -15 -8 -55h-164v34h20v111h31v-57z" />
    <glyph glyph-name="uniFB6B" unicode="&#x6a4;" horiz-adv-x="834" arabic-form="final" 
d="M356 491q-26 0 -45 18.5t-19 44.5q0 27 19 45.5t45 18.5t44.5 -18.5t18.5 -45.5q0 -26 -18.5 -44.5t-44.5 -18.5zM502 491q-26 0 -45 18.5t-19 44.5q0 27 19 45.5t45 18.5t44.5 -18.5t18.5 -45.5q0 -26 -18.5 -44.5t-44.5 -18.5zM422 630q-26 0 -45 18.5t-19 44.5
q0 27 19 45.5t45 18.5t44.5 -18.5t18.5 -45.5q0 -26 -18.5 -44.5t-44.5 -18.5zM671 101v247q-30 20 -65 20q-42 0 -70 -29q-41 -45 -41 -107q0 -130 149 -131h27zM849 0h-554q-109 0 -173 58q-81 73 -82 181q1 93 38 161l98 -50q-26 -51 -26 -107q0 -141 146 -142h124
q-36 55 -37 125q0 118 88 188q61 47 139 47q93 0 171 -53v-307h68v-101z" />
    <glyph glyph-name="uniFB6C" unicode="&#x6a4;" horiz-adv-x="488" arabic-form="initial" 
d="M338 101v247q-30 20 -65 20q-42 0 -70 -29q-41 -45 -41 -107q0 -130 149 -131h27zM0 101h87q-36 55 -37 125q0 118 88 188q61 47 139 47q93 0 171 -53v-408h-448v101zM43 491q-26 0 -45 18.5t-19 44.5q0 27 19 45.5t45 18.5t44.5 -18.5t18.5 -45.5q0 -26 -18.5 -44.5
t-44.5 -18.5zM189 491q-26 0 -45 18.5t-19 44.5q0 27 19 45.5t45 18.5t44.5 -18.5t18.5 -45.5q0 -26 -18.5 -44.5t-44.5 -18.5zM109 630q-26 0 -45 18.5t-19 44.5q0 27 19 45.5t45 18.5t44.5 -18.5t18.5 -45.5q0 -26 -18.5 -44.5t-44.5 -18.5z" />
    <glyph glyph-name="uniFB6D" unicode="&#x6a4;" horiz-adv-x="502" arabic-form="medial" 
d="M43 491q-26 0 -45 18.5t-19 44.5q0 27 19 45.5t45 18.5t44.5 -18.5t18.5 -45.5q0 -26 -18.5 -44.5t-44.5 -18.5zM189 491q-26 0 -45 18.5t-19 44.5q0 27 19 45.5t45 18.5t44.5 -18.5t18.5 -45.5q0 -26 -18.5 -44.5t-44.5 -18.5zM109 630q-26 0 -45 18.5t-19 44.5
q0 27 19 45.5t45 18.5t44.5 -18.5t18.5 -45.5q0 -26 -18.5 -44.5t-44.5 -18.5zM338 101v247q-30 20 -65 20q-42 0 -70 -29q-41 -45 -41 -107q0 -130 149 -131h27zM517 0h-517v101h87q-36 55 -37 125q0 118 88 188q61 47 139 47q93 0 171 -53v-307h69v-101z" />
    <glyph glyph-name="uniFB7B" unicode="&#x686;" horiz-adv-x="583" arabic-form="final" 
d="M335 -179q-26 0 -45 18.5t-19 44.5q0 27 19 45.5t45 18.5t44.5 -18.5t18.5 -45.5q0 -26 -18.5 -44.5t-44.5 -18.5zM481 -179q-26 0 -45 18.5t-19 44.5q0 27 19 45.5t45 18.5t44.5 -18.5t18.5 -45.5q0 -26 -18.5 -44.5t-44.5 -18.5zM401 -307q-26 0 -45 18.5t-19 44.5
q0 27 19 45.5t45 18.5t44.5 -18.5t18.5 -45.5q0 -26 -18.5 -44.5t-44.5 -18.5zM246 -197h-6q-198 0 -200 186v112h382v46q0 75 -41 125q-46 53 -122 53q-60 0 -112 -39q-18 -13 -36 -37l-62 77q80 102 209 102q121 0 199 -89q72 -87 72 -219v-19h69v-101h-463q0 -94 111 -96
v-101z" />
    <glyph glyph-name="uniFB7C" unicode="&#x686;" horiz-adv-x="529" arabic-form="initial" 
d="M0 0v101h382v46q0 75 -41 125q-46 53 -122 53q-60 0 -112 -39q-18 -13 -36 -37l-62 77q80 102 209 102q121 0 199 -89q72 -87 72 -219v-120h-489zM220 -179q-26 0 -45 18.5t-19 44.5q0 27 19 45.5t45 18.5t44.5 -18.5t18.5 -45.5q0 -26 -18.5 -44.5t-44.5 -18.5z
M366 -179q-26 0 -45 18.5t-19 44.5q0 27 19 45.5t45 18.5t44.5 -18.5t18.5 -45.5q0 -26 -18.5 -44.5t-44.5 -18.5zM286 -307q-26 0 -45 18.5t-19 44.5q0 27 19 45.5t45 18.5t44.5 -18.5t18.5 -45.5q0 -26 -18.5 -44.5t-44.5 -18.5z" />
    <glyph glyph-name="uniFB7D" unicode="&#x686;" horiz-adv-x="529" arabic-form="medial" 
d="M220 -179q-26 0 -45 18.5t-19 44.5q0 27 19 45.5t45 18.5t44.5 -18.5t18.5 -45.5q0 -26 -18.5 -44.5t-44.5 -18.5zM366 -179q-26 0 -45 18.5t-19 44.5q0 27 19 45.5t45 18.5t44.5 -18.5t18.5 -45.5q0 -26 -18.5 -44.5t-44.5 -18.5zM286 -307q-26 0 -45 18.5t-19 44.5
q0 27 19 45.5t45 18.5t44.5 -18.5t18.5 -45.5q0 -26 -18.5 -44.5t-44.5 -18.5zM544 0h-544v101h382v46q0 75 -41 125q-46 53 -122 53q-60 0 -112 -39q-18 -13 -36 -37l-62 77q80 102 209 102q121 0 199 -89q72 -87 72 -219v-19h55v-101z" />
    <glyph glyph-name="uniFB89" unicode="&#x688;" horiz-adv-x="472" arabic-form="final" 
d="M199 546q4 10 4 19q0 10 -5 18q-9 14 -28 14q-35 0 -56 -51h85zM226 512h-164v34h20v111h31v-57q26 32 58 32q63 0 63 -65q0 -15 -8 -55zM487 0h-435v101h255v101q-1 67 -30 100t-79 33q-52 0 -108 -49l-50 87q73 63 161 63q92 0 154 -63.5t62 -171.5v-100h70v-101z" />
    <glyph glyph-name="uniFB8B" unicode="&#x698;" horiz-adv-x="305" arabic-form="final" 
d="M74 470q-26 0 -45 18.5t-19 44.5q0 27 19 45.5t45 18.5t44.5 -18.5t18.5 -45.5q0 -26 -18.5 -44.5t-44.5 -18.5zM220 470q-26 0 -45 18.5t-19 44.5q0 27 19 45.5t45 18.5t44.5 -18.5t18.5 -45.5q0 -26 -18.5 -44.5t-44.5 -18.5zM140 609q-26 0 -45 18.5t-19 44.5
q0 27 19 45.5t45 18.5t44.5 -18.5t18.5 -45.5q0 -26 -18.5 -44.5t-44.5 -18.5zM48 -197h-58v101h47q103 0 103 97v409h110v-309h70v-101h-70v-10q0 -187 -202 -187z" />
    <glyph glyph-name="uniFB8D" unicode="&#x691;" horiz-adv-x="303" arabic-form="final" 
d="M227 526q4 10 4 19q0 10 -5 18q-9 14 -28 14q-35 0 -56 -51h85zM254 492h-164v34h20v111h31v-57q26 32 58 32q63 0 63 -65q0 -15 -8 -55zM48 -197h-58v101h47q103 0 103 97v409h110v-309h68v-101h-68v-10q0 -187 -202 -187z" />
    <glyph glyph-name="uniFB8F" unicode="&#x6a9;" horiz-adv-x="692" arabic-form="final" 
d="M707 0h-412q-109 0 -173 58q-81 73 -82 181q1 93 38 161l98 -50q-26 -51 -26 -107q0 -141 146 -142h232q-23 181 -242 226v106l341 197l25 -104l-239 -136q190 -63 227 -289h67v-101z" />
    <glyph glyph-name="uniFB90" unicode="&#x6a9;" horiz-adv-x="431" arabic-form="initial" 
d="M0 0v101h267q-23 181 -242 226v106l341 197l25 -104l-239 -136q229 -76 236 -390h-388z" />
    <glyph glyph-name="uniFB91" unicode="&#x6a9;" horiz-adv-x="431" arabic-form="medial" 
d="M446 0h-446v101h267q-23 181 -242 226v106l341 197l25 -104l-239 -136q190 -63 227 -289h67v-101z" />
    <glyph glyph-name="uniFB93" unicode="&#x6af;" horiz-adv-x="692" arabic-form="final" 
d="M285 483l1 104l309 179l22 -95zM707 0h-412q-109 0 -173 58q-81 73 -82 181q1 93 38 161l98 -50q-26 -51 -26 -107q0 -141 146 -142h232q-23 181 -242 226v106l341 197l25 -104l-239 -136q190 -63 227 -289h67v-101z" />
    <glyph glyph-name="uniFB94" unicode="&#x6af;" horiz-adv-x="431" arabic-form="initial" 
d="M356 671l-332 -188l1 104l309 179zM0 0v101h267q-23 181 -242 226v106l341 197l25 -104l-239 -136q229 -76 236 -390h-388z" />
    <glyph glyph-name="uniFB95" unicode="&#x6af;" horiz-adv-x="431" arabic-form="medial" 
d="M24 483l1 104l309 179l22 -95zM446 0h-446v101h267q-23 181 -242 226v106l341 197l25 -104l-239 -136q190 -63 227 -289h67v-101z" />
    <glyph glyph-name="uniFB9F" unicode="&#x6ba;" horiz-adv-x="597" arabic-form="final" 
d="M543 0q-4 -197 -203 -197h-45q-109 0 -173 57q-81 73 -82 181q2 144 90 228l85 -61q-65 -74 -65 -163q0 -139 146 -141h40q97 1 97 85v421h110v-309h69v-101h-69z" />
    <glyph glyph-name="uniFBA7" unicode="&#x6c1;" horiz-adv-x="535" arabic-form="final" 
d="M550 0h-59q-208 0 -267 177q-86 -20 -151 -173q-32 35 -32 69q0 29 13 59q64 140 200 201q77 -228 239 -232h57v-101z" />
    <glyph glyph-name="uniFBA8" unicode="&#x6c1;" horiz-adv-x="296" arabic-form="initial" 
d="M0 0v101h123q23 0 23 30v279h110v-266q-3 -144 -107 -144h-149zM122 -191q-23 0 -38 17t-15 44q1 33 24 65.5t59 43.5l15 -32q-28 -19 -32 -43q12 -3 23 -16.5t11 -30.5q0 -23 -17 -37q-13 -11 -30 -11z" />
    <glyph glyph-name="uniFBA9" unicode="&#x6c1;" horiz-adv-x="473" arabic-form="medial" 
d="M289 -204q-44 0 -83 21q-86 49 -110 183h-96v101h109q13 66 43 132l88 -19q-49 -104 -50 -187q0 -70 43 -108q23 -22 50 -22q47 0 47 72q0 45 -27 70l1 62h184v-101h-68q10 -33 10 -65q0 -111 -101 -134q-21 -5 -40 -5zM50 -164q-16 0 -27 12t-11 32q1 24 17.5 47.5
t42.5 30.5l11 -23q-21 -13 -24 -31q9 -2 17 -11.5t8 -22.5q0 -16 -11 -25t-23 -9z" />
    <glyph glyph-name="uniFBAB" unicode="&#x6be;" horiz-adv-x="485" arabic-form="final" 
d="M296 101q38 39 39 100q0 84 -58 121q-72 -97 -79 -221h98zM300 -203q-149 1 -195 203h-65v101h69q18 207 168 344q150 -100 150 -257q0 -45 -16 -87h89v-101h-83q12 -42 12 -75q-2 -100 -89 -123q-21 -5 -40 -5zM293 -96q42 0 42 43q0 27 -11 53h-120q10 -50 40 -75
q23 -21 49 -21z" />
    <glyph glyph-name="uniFBAC" unicode="&#x6be;" horiz-adv-x="579" arabic-form="initial" 
d="M536 0h-536v102h62q-15 34 -15 80q0 112 84 157l-41 62q94 67 217 67q104 0 168 -68.5t64 -201.5zM204 102q11 0 25 3t24.5 20t10.5 57q0 81 -60 81q-59 0 -59 -81q0 -40 11.5 -57t25.5 -20t22 -3zM432 102v74q0 196 -148 196q-42 0 -73 -17q67 -4 106.5 -50t39.5 -123
q0 -46 -14 -80h89z" />
    <glyph glyph-name="uniFBAD" unicode="&#x6be;" horiz-adv-x="515" arabic-form="medial" 
d="M283 101q51 20 51 96q0 81 -48 116q-62 -82 -77 -212h74zM300 -203q-44 0 -90 19q-95 42 -105 184h-105v101h109q18 207 178 344q149 -116 149 -243q0 -59 -25 -101h119v-101h-102q14 -30 14 -63q-2 -114 -102 -135q-21 -5 -40 -5zM293 -96q42 0 42 43q0 27 -10 53h-121
q10 -50 40 -75q23 -21 49 -21z" />
    <glyph glyph-name="uniFBAF" unicode="&#x6d2;" horiz-adv-x="675" arabic-form="final" 
d="M435 -232h-374q-21 74 -21 165q3 168 202 168h448v-101h-444q-115 0 -115 -78q0 -32 10 -53h450q-19 -101 -156 -101z" />
    <glyph glyph-name="uniFBB1" unicode="&#x6d3;" horiz-adv-x="675" arabic-form="final" 
d="M435 -232h-374q-21 74 -21 165q3 168 202 168h448v-101h-444q-115 0 -115 -78q0 -32 10 -53h450q-19 -101 -156 -101zM76 127l-7 43l25 12q-29 21 -29 52q0 42 37 62q13 7 34 7q23 0 44 -10l-8 -40q-13 4 -23 4q-31 0 -31 -29q1 -28 47 -31q13 0 28 2l-2 -42
q-66 -10 -115 -30z" />
    <glyph glyph-name="uniFBE8" unicode="&#x649;" horiz-adv-x="296" arabic-form="initial" 
d="M0 0v101h123q23 0 23 30v279h110v-266q-3 -144 -107 -144h-149z" />
    <glyph glyph-name="uniFBE9" unicode="&#x649;" horiz-adv-x="290" arabic-form="medial" 
d="M305 0h-305v101h44q75 0 75 97v212h107v-207q0 -58 -15 -102h94v-101z" />
    <glyph glyph-name="uniFBFD" unicode="&#x6cc;" horiz-adv-x="810" arabic-form="final" 
d="M295 -97q-109 0 -173 58q-81 73 -82 181q2 144 90 228l85 -61q-65 -74 -65 -163q0 -139 146 -140h113v391q73 21 164 21q181 -3 181 -202l1 -115h70v-101h-180v212q0 115 -72 115q-32 0 -53 -10l-2 -384q0 -26 -23 -26z" />
    <glyph glyph-name="uniFBFE" unicode="&#x6cc;" horiz-adv-x="296" arabic-form="initial" 
d="M0 0v101h123q23 0 23 30v279h110v-266q-3 -144 -107 -144h-149zM66 -176q-23 0 -40 16.5t-17 40.5t17 40.5t40 16.5t40 -16.5t17 -40.5t-17 -40.5t-40 -16.5zM197 -176q-24 0 -41 16.5t-17 40.5t17 40.5t41 16.5q23 0 39.5 -16.5t16.5 -40.5t-16.5 -40.5t-39.5 -16.5z
" />
    <glyph glyph-name="uniFBFF" unicode="&#x6cc;" horiz-adv-x="290" arabic-form="medial" 
d="M305 0h-305v101h44q75 0 75 97v212h107v-207q0 -58 -15 -102h94v-101zM66 -176q-23 0 -40 16.5t-17 40.5t17 40.5t40 16.5t40 -16.5t17 -40.5t-17 -40.5t-40 -16.5zM197 -176q-24 0 -41 16.5t-17 40.5t17 40.5t41 16.5q23 0 39.5 -16.5t16.5 -40.5t-16.5 -40.5
t-39.5 -16.5z" />
    <glyph glyph-name="uniFC5E" unicode="&#xfc5e;" arabic-form="isolated" 
d="M-50 642q-69 0 -74 72l-2 57l54 3q1 -27 2.5 -53t20.5 -26q25 0 25 49l-2 32l57 -2q0 -29 1.5 -52t21.5 -23q19 0 19 33q0 19 -6 50l57 4l2 -54q0 -85 -73 -85q-41 0 -51 22q-17 -27 -52 -27zM25 847l36 9v11q0 29 -18 29q-19 -2 -20 -28q0 -14 2 -21zM-56 793
q-15 0 -21 13l-31 71l35 21l24 -63l33 6q-3 14 -3 24q0 26 19 46.5t47 21.5q26 0 43 -18t17 -47q0 -13 -2.5 -29t-18.5 -21z" />
    <glyph glyph-name="uniFC5F" unicode="&#xfc5f;" arabic-form="isolated" 
d="M-55 793q-69 0 -74 71l-2 58l54 2q1 -27 2.5 -52.5t20.5 -25.5q25 0 25 48l-2 32l57 -1q0 -30 1.5 -53t21.5 -23q19 0 19 33q0 19 -6 50l57 4l2 -53q0 -85 -73 -85q-41 0 -51 22q-16 -27 -52 -27zM-100 711l-3 43l203 28l1 -44zM-100 645l-3 43l203 28l1 -44z" />
    <glyph glyph-name="uniFC60" unicode="&#xfc60;" arabic-form="isolated" 
d="M-55 642q-69 0 -74 72l-2 57l54 2q1 -27 2.5 -52.5t20.5 -25.5q25 0 25 48l-2 32l57 -1q0 -29 1.5 -52.5t21.5 -23.5q19 0 19 33q0 19 -6 50l57 4l2 -53q0 -85 -73 -85q-41 0 -51 22q-16 -27 -52 -27zM-100 817l-3 43l203 27l1 -44zM-100 882l-3 43l203 28l1 -45z" />
    <glyph glyph-name="uniFC61" unicode="&#xfc61;" arabic-form="isolated" 
d="M-55 637q-69 0 -74 72l-2 57l54 2q1 -27 2.5 -52.5t20.5 -25.5q25 0 25 48l-2 32l57 -1q0 -29 1.5 -52.5t21.5 -23.5q19 0 19 33q0 19 -6 50l57 4l2 -53q0 -85 -73 -85q-41 0 -51 22q-16 -27 -52 -27zM-74 795l6 44l49 7q-3 14 -3 24q0 26 18.5 46.5t47.5 22.5
q27 0 43.5 -18.5t16.5 -46.5q0 -13 -2.5 -29.5t-18.5 -20.5zM22 852l36 8v12q0 20 -9 27q-4 2 -9 2q-17 -2 -20 -28q0 -14 2 -21z" />
    <glyph glyph-name="uniFC62" unicode="&#xfc62;" arabic-form="isolated" 
d="M-55 719q-69 0 -74 72l-2 58l54 2q1 -27 2.5 -53t20.5 -26q25 0 25 49l-2 32l57 -1q0 -30 1.5 -53t21.5 -23q19 0 19 33q0 19 -6 50l57 4l2 -54q0 -85 -73 -85q-41 0 -51 23q-16 -28 -52 -28zM-100 638l-3 43l203 28l1 -44z" />
    <glyph glyph-name="uniFC63" unicode="&#xfc63;" arabic-form="isolated" 
d="M-55 637q-69 0 -74 72l-2 57l54 2q1 -27 2.5 -52.5t20.5 -25.5q25 0 25 48l-2 32l57 -1q0 -29 1.5 -52.5t21.5 -23.5q19 0 19 33q0 19 -6 50l57 4l2 -53q0 -85 -73 -85q-41 0 -51 22q-16 -27 -52 -27zM-29 805l-3 139h50l-1 -119z" />
    <glyph glyph-name="uniFE80" unicode="&#x621;" horiz-adv-x="352" arabic-form="isolated" 
d="M63 -1l-14 91l53 26q-62 45 -62 111q0 88 79 131q27 15 72 15q49 0 93 -21l-17 -85q-27 8 -48 8q-66 0 -66 -61q2 -60 100 -66q27 0 59 4l-4 -89q-140 -21 -245 -64z" />
    <glyph glyph-name="uniFE81" unicode="&#x622;" horiz-adv-x="190" arabic-form="isolated" 
d="M150 0h-110v630h110v-630zM124 702q-20 0 -43 20q-13 12 -20 12q-13 0 -14 -32h-38q0 82 50 82q25 0 51 -23q11 -10 19 -10q15 0 18 37l28 -17q0 -69 -51 -69z" />
    <glyph glyph-name="uniFE82" unicode="&#x622;" horiz-adv-x="226" arabic-form="final" 
d="M241 0h-89q-104 0 -108 144l-4 486h115v-499q0 -30 23 -30h63v-101zM124 702q-20 0 -43 20q-13 12 -20 12q-13 0 -14 -32h-38q0 82 50 82q25 0 51 -23q11 -10 19 -10q15 0 18 37l28 -17q0 -69 -51 -69z" />
    <glyph glyph-name="uniFE83" unicode="&#x623;" horiz-adv-x="190" arabic-form="isolated" 
d="M150 0h-110v630h110v-630zM40 682l-7 43l25 12q-29 21 -29 52q0 42 37 62q13 7 34 7q23 0 44 -10l-8 -40q-13 4 -23 4q-31 0 -31 -29q1 -28 47 -31q13 0 28 2l-2 -42q-66 -10 -115 -30z" />
    <glyph glyph-name="uniFE84" unicode="&#x623;" horiz-adv-x="226" arabic-form="final" 
d="M241 0h-89q-104 0 -108 144l-4 486h115v-499q0 -30 23 -30h63v-101zM40 682l-7 43l25 12q-29 21 -29 52q0 42 37 62q13 7 34 7q23 0 44 -10l-8 -40q-13 4 -23 4q-31 0 -31 -29q1 -28 47 -31q13 0 28 2l-2 -42q-66 -10 -115 -30z" />
    <glyph glyph-name="uniFE85" unicode="&#x624;" horiz-adv-x="478" arabic-form="isolated" 
d="M241 -197h-68v101h62q95 0 100 96h-23q-122 1 -175 41q-96 69 -97 185q0 118 88 188q61 47 139 47q93 0 171 -53v-406q-4 -198 -197 -199zM328 101v247q-30 20 -65 20q-42 0 -70 -29q-41 -45 -41 -107q0 -130 149 -131h27zM64 469l-7 43l25 12q-29 21 -29 52q0 42 37 62
q13 7 34 7q23 0 44 -10l-8 -40q-13 4 -23 4q-31 0 -31 -29q1 -28 47 -31q13 0 28 2l-2 -42q-66 -10 -115 -30z" />
    <glyph glyph-name="uniFE86" unicode="&#x624;" horiz-adv-x="492" arabic-form="final" 
d="M64 469l-7 43l25 12q-29 21 -29 52q0 42 37 62q13 7 34 7q23 0 44 -10l-8 -40q-13 4 -23 4q-31 0 -31 -29q1 -28 47 -31q13 0 28 2l-2 -42q-66 -10 -115 -30zM328 101v247q-30 20 -65 20q-42 0 -70 -29q-41 -45 -41 -107q0 -130 149 -131h27zM241 -197h-68v101h62
q95 0 100 96q-144 0 -198 41q-96 69 -97 185q0 118 88 188q61 47 139 47q93 0 171 -53v-307h69v-101h-69q-5 -196 -197 -197z" />
    <glyph glyph-name="uniFE87" unicode="&#x625;" horiz-adv-x="190" arabic-form="isolated" 
d="M150 0h-110v630h110v-630zM39 -230l-7 43l25 12q-29 21 -29 52q0 42 37 62q13 7 34 7q23 0 44 -10l-8 -40q-13 4 -23 4q-31 0 -31 -29q1 -28 47 -31q13 0 28 2l-2 -42q-66 -10 -115 -30z" />
    <glyph glyph-name="uniFE88" unicode="&#x625;" horiz-adv-x="226" arabic-form="final" 
d="M241 0h-89q-104 0 -108 144l-4 486h115v-499q0 -30 23 -30h63v-101zM61 -230l-7 43l25 12q-29 21 -29 52q0 42 37 62q13 7 34 7q23 0 44 -10l-8 -40q-13 4 -23 4q-31 0 -31 -29q1 -28 47 -31q13 0 28 2l-2 -42q-66 -10 -115 -30z" />
    <glyph glyph-name="uniFE89" unicode="&#x626;" horiz-adv-x="795" arabic-form="isolated" 
d="M295 -97q-109 0 -173 58q-81 73 -82 181q2 144 90 228l85 -61q-65 -74 -65 -163q0 -139 146 -140h113v391q73 21 164 21q181 -3 181 -202l1 -117h-110v113q0 115 -72 115q-32 0 -53 -10l-2 -384q0 -26 -23 -26zM74 423l-7 43l25 12q-29 21 -29 52q0 42 37 62q13 7 34 7
q23 0 44 -10l-8 -40q-13 4 -23 4q-31 0 -31 -29q1 -28 47 -31q13 0 28 2l-2 -42q-66 -10 -115 -30z" />
    <glyph glyph-name="uniFE8A" unicode="&#x626;" horiz-adv-x="810" arabic-form="final" 
d="M295 -97q-109 0 -173 58q-81 73 -82 181q2 144 90 228l85 -61q-65 -74 -65 -163q0 -139 146 -140h113v391q73 21 164 21q181 -3 181 -202l1 -115h70v-101h-180v212q0 115 -72 115q-32 0 -53 -10l-2 -384q0 -26 -23 -26zM74 423l-7 43l25 12q-29 21 -29 52q0 42 37 62
q13 7 34 7q23 0 44 -10l-8 -40q-13 4 -23 4q-31 0 -31 -29q1 -28 47 -31q13 0 28 2l-2 -42q-66 -10 -115 -30z" />
    <glyph glyph-name="uniFE8B" unicode="&#x626;" horiz-adv-x="256" arabic-form="initial" 
d="M0 0v101h83q23 0 23 30v279h110v-266q-3 -144 -107 -144h-109zM95 451l-7 43l25 12q-29 21 -29 52q0 42 37 62q13 7 34 7q23 0 44 -10l-8 -40q-13 4 -23 4q-31 0 -31 -29q1 -28 47 -31q13 0 28 2l-2 -42q-66 -10 -115 -30z" />
    <glyph glyph-name="uniFE8C" unicode="&#x626;" horiz-adv-x="290" arabic-form="medial" 
d="M305 0h-305v101h44q75 0 75 97v212h107v-207q0 -58 -15 -102h94v-101zM105 451l-7 43l25 12q-29 21 -29 52q0 42 37 62q13 7 34 7q23 0 44 -10l-8 -40q-13 4 -23 4q-31 0 -31 -29q1 -28 47 -31q13 0 28 2l-2 -42q-66 -10 -115 -30z" />
    <glyph glyph-name="uniFE8D" unicode="&#x627;" horiz-adv-x="190" arabic-form="isolated" 
d="M150 630v-630h-110v630h110z" />
    <glyph glyph-name="uniFE8E" unicode="&#x627;" horiz-adv-x="241" arabic-form="final" 
d="M241 0h-89q-104 0 -107 144v486h110v-499q0 -30 23 -30h63v-101z" />
    <glyph glyph-name="uniFE8F" unicode="&#x628;" horiz-adv-x="655" arabic-form="isolated" 
d="M374 -196q-26 0 -45 18.5t-19 44.5q0 27 19 45.5t45 18.5t44.5 -18.5t18.5 -45.5q0 -26 -18.5 -44.5t-44.5 -18.5zM506 410h109v-384q0 -26 -23 -26h-297q-109 0 -173 58q-81 73 -82 181q1 93 38 161l98 -50q-26 -51 -26 -107q0 -141 146 -142h210v309z" />
    <glyph glyph-name="uniFE90" unicode="&#x628;" horiz-adv-x="669" arabic-form="final" 
d="M684 0h-389q-109 0 -173 58q-81 73 -82 181q1 93 38 161l98 -50q-26 -51 -26 -107q0 -141 146 -142h210v309h113l-2 -1l-2 -308h69v-101zM374 -196q-26 0 -45 18.5t-19 44.5q0 27 19 45.5t45 18.5t44.5 -18.5t18.5 -45.5q0 -26 -18.5 -44.5t-44.5 -18.5z" />
    <glyph glyph-name="uniFE91" unicode="&#x628;" horiz-adv-x="296" arabic-form="initial" 
d="M0 0v101h123q23 0 23 30v279h110v-266q-3 -144 -107 -144h-149zM122 -196q-26 0 -45 18.5t-19 44.5q0 27 19 45.5t45 18.5t44.5 -18.5t18.5 -45.5q0 -26 -18.5 -44.5t-44.5 -18.5z" />
    <glyph glyph-name="uniFE92" unicode="&#x628;" horiz-adv-x="290" arabic-form="medial" 
d="M305 0h-305v101h44q75 0 75 97v212h107v-207q0 -58 -15 -102h94v-101zM152 -196q-26 0 -45 18.5t-19 44.5q0 27 19 45.5t45 18.5t44.5 -18.5t18.5 -45.5q0 -26 -18.5 -44.5t-44.5 -18.5z" />
    <glyph glyph-name="uniFE93" unicode="&#x629;" horiz-adv-x="478" arabic-form="isolated" 
d="M438 0h-126q-122 1 -175 41q-96 69 -97 185q0 118 88 188q61 47 139 47q93 0 171 -53v-408zM328 101v247q-30 20 -65 20q-42 0 -70 -29q-41 -45 -41 -107q0 -130 149 -131h27zM152 519q-26 0 -45 18.5t-19 44.5q0 27 19 45.5t45 18.5t44.5 -18.5t18.5 -45.5
q0 -26 -18.5 -44.5t-44.5 -18.5zM298 519q-26 0 -45 18.5t-19 44.5q0 27 19 45.5t45 18.5t44.5 -18.5t18.5 -45.5q0 -26 -18.5 -44.5t-44.5 -18.5z" />
    <glyph glyph-name="uniFE94" unicode="&#x629;" horiz-adv-x="491" arabic-form="final" 
d="M328 101v247q-30 20 -65 20q-42 0 -70 -29q-41 -45 -41 -107q0 -130 149 -131h27zM506 0h-194q-122 1 -175 41q-96 69 -97 185q0 118 88 188q61 47 139 47q93 0 171 -53v-307h68v-101zM152 519q-26 0 -45 18.5t-19 44.5q0 27 19 45.5t45 18.5t44.5 -18.5t18.5 -45.5
q0 -26 -18.5 -44.5t-44.5 -18.5zM298 519q-26 0 -45 18.5t-19 44.5q0 27 19 45.5t45 18.5t44.5 -18.5t18.5 -45.5q0 -26 -18.5 -44.5t-44.5 -18.5z" />
    <glyph glyph-name="uniFE95" unicode="&#x62a;" horiz-adv-x="655" arabic-form="isolated" 
d="M251 470q-26 0 -45 18.5t-19 44.5q0 27 19 45.5t45 18.5t44.5 -18.5t18.5 -45.5q0 -26 -18.5 -44.5t-44.5 -18.5zM397 470q-26 0 -45 18.5t-19 44.5q0 27 19 45.5t45 18.5t44.5 -18.5t18.5 -45.5q0 -26 -18.5 -44.5t-44.5 -18.5zM506 410h109v-384q0 -26 -23 -26h-297
q-109 0 -173 58q-81 73 -82 181q1 93 38 161l98 -50q-26 -51 -26 -107q0 -141 146 -142h210v309z" />
    <glyph glyph-name="uniFE96" unicode="&#x62a;" horiz-adv-x="669" arabic-form="final" 
d="M684 0h-389q-109 0 -173 58q-81 73 -82 181q1 93 38 161l98 -50q-26 -51 -26 -107q0 -141 146 -142h210v309h113l-2 -1l-2 -308h69v-101zM251 470q-26 0 -45 18.5t-19 44.5q0 27 19 45.5t45 18.5t44.5 -18.5t18.5 -45.5q0 -26 -18.5 -44.5t-44.5 -18.5zM397 470
q-26 0 -45 18.5t-19 44.5q0 27 19 45.5t45 18.5t44.5 -18.5t18.5 -45.5q0 -26 -18.5 -44.5t-44.5 -18.5z" />
    <glyph glyph-name="uniFE97" unicode="&#x62a;" horiz-adv-x="296" arabic-form="initial" 
d="M0 0v101h123q23 0 23 30v279h110v-266q-3 -144 -107 -144h-149zM66 470q-26 0 -45 18.5t-19 44.5q0 27 19 45.5t45 18.5t44.5 -18.5t18.5 -45.5q0 -26 -18.5 -44.5t-44.5 -18.5zM212 470q-26 0 -45 18.5t-19 44.5q0 27 19 45.5t45 18.5t44.5 -18.5t18.5 -45.5
q0 -26 -18.5 -44.5t-44.5 -18.5z" />
    <glyph glyph-name="uniFE98" unicode="&#x62a;" horiz-adv-x="302" arabic-form="medial" 
d="M317 0h-317v101h56q75 0 75 97v212h107v-207q0 -58 -15 -102h94v-101zM77 470q-26 0 -45 18.5t-19 44.5q0 27 19 45.5t45 18.5t44.5 -18.5t18.5 -45.5q0 -26 -18.5 -44.5t-44.5 -18.5zM216 470q-26 0 -45 18.5t-19 44.5q0 27 19 45.5t45 18.5t44.5 -18.5t18.5 -45.5
q0 -26 -18.5 -44.5t-44.5 -18.5z" />
    <glyph glyph-name="uniFE99" unicode="&#x62b;" horiz-adv-x="655" arabic-form="isolated" 
d="M251 470q-26 0 -45 18.5t-19 44.5q0 27 19 45.5t45 18.5t44.5 -18.5t18.5 -45.5q0 -26 -18.5 -44.5t-44.5 -18.5zM397 470q-26 0 -45 18.5t-19 44.5q0 27 19 45.5t45 18.5t44.5 -18.5t18.5 -45.5q0 -26 -18.5 -44.5t-44.5 -18.5zM317 609q-26 0 -45 18.5t-19 44.5
q0 27 19 45.5t45 18.5t44.5 -18.5t18.5 -45.5q0 -26 -18.5 -44.5t-44.5 -18.5zM506 410h109v-384q0 -26 -23 -26h-297q-109 0 -173 58q-81 73 -82 181q1 93 38 161l98 -50q-26 -51 -26 -107q0 -141 146 -142h210v309z" />
    <glyph glyph-name="uniFE9A" unicode="&#x62b;" horiz-adv-x="669" arabic-form="final" 
d="M684 0h-389q-109 0 -173 58q-81 73 -82 181q1 93 38 161l98 -50q-26 -51 -26 -107q0 -141 146 -142h210v309h113l-2 -1l-2 -308h69v-101zM251 470q-26 0 -45 18.5t-19 44.5q0 27 19 45.5t45 18.5t44.5 -18.5t18.5 -45.5q0 -26 -18.5 -44.5t-44.5 -18.5zM397 470
q-26 0 -45 18.5t-19 44.5q0 27 19 45.5t45 18.5t44.5 -18.5t18.5 -45.5q0 -26 -18.5 -44.5t-44.5 -18.5zM317 609q-26 0 -45 18.5t-19 44.5q0 27 19 45.5t45 18.5t44.5 -18.5t18.5 -45.5q0 -26 -18.5 -44.5t-44.5 -18.5z" />
    <glyph glyph-name="uniFE9B" unicode="&#x62b;" horiz-adv-x="296" arabic-form="initial" 
d="M0 0v101h123q23 0 23 30v279h110v-266q-3 -144 -107 -144h-149zM75 470q-26 0 -45 18.5t-19 44.5q0 27 19 45.5t45 18.5t44.5 -18.5t18.5 -45.5q0 -26 -18.5 -44.5t-44.5 -18.5zM221 470q-26 0 -45 18.5t-19 44.5q0 27 19 45.5t45 18.5t44.5 -18.5t18.5 -45.5
q0 -26 -18.5 -44.5t-44.5 -18.5zM141 609q-26 0 -45 18.5t-19 44.5q0 27 19 45.5t45 18.5t44.5 -18.5t18.5 -45.5q0 -26 -18.5 -44.5t-44.5 -18.5z" />
    <glyph glyph-name="uniFE9C" unicode="&#x62b;" horiz-adv-x="290" arabic-form="medial" 
d="M305 0h-305v101h44q75 0 75 97v212h107v-207q0 -58 -15 -102h94v-101zM75 470q-26 0 -45 18.5t-19 44.5q0 27 19 45.5t45 18.5t44.5 -18.5t18.5 -45.5q0 -26 -18.5 -44.5t-44.5 -18.5zM221 470q-26 0 -45 18.5t-19 44.5q0 27 19 45.5t45 18.5t44.5 -18.5t18.5 -45.5
q0 -26 -18.5 -44.5t-44.5 -18.5zM141 609q-26 0 -45 18.5t-19 44.5q0 27 19 45.5t45 18.5t44.5 -18.5t18.5 -45.5q0 -26 -18.5 -44.5t-44.5 -18.5z" />
    <glyph glyph-name="uniFE9D" unicode="&#x62c;" horiz-adv-x="569" arabic-form="isolated" 
d="M318 -197h-78q-198 0 -200 186v112h382v46q0 75 -41 125q-46 53 -122 53q-60 0 -112 -39q-18 -13 -36 -37l-62 77q80 102 209 102q121 0 199 -89q72 -87 72 -219v-120h-394q0 -96 116 -96h67v-101zM412 -210q-26 0 -45 18.5t-19 44.5q0 27 19 45.5t45 18.5t44.5 -18.5
t18.5 -45.5q0 -26 -18.5 -44.5t-44.5 -18.5z" />
    <glyph glyph-name="uniFE9E" unicode="&#x62c;" horiz-adv-x="583" arabic-form="final" 
d="M318 -197h-78q-198 0 -200 186v112h382v46q0 75 -41 125q-46 53 -122 53q-60 0 -112 -39q-18 -13 -36 -37l-62 77q80 102 209 102q121 0 199 -89q72 -87 72 -219v-19h69v-101h-463q0 -96 116 -96h67v-101zM412 -210q-26 0 -45 18.5t-19 44.5q0 27 19 45.5t45 18.5
t44.5 -18.5t18.5 -45.5q0 -26 -18.5 -44.5t-44.5 -18.5z" />
    <glyph glyph-name="uniFE9F" unicode="&#x62c;" horiz-adv-x="529" arabic-form="initial" 
d="M0 0v101h382v46q0 75 -41 125q-46 53 -122 53q-60 0 -112 -39q-18 -13 -36 -37l-62 77q80 102 209 102q121 0 199 -89q72 -87 72 -219v-120h-489zM314 -210q-26 0 -45 18.5t-19 44.5q0 27 19 45.5t45 18.5t44.5 -18.5t18.5 -45.5q0 -26 -18.5 -44.5t-44.5 -18.5z" />
    <glyph glyph-name="uniFEA0" unicode="&#x62c;" horiz-adv-x="529" arabic-form="medial" 
d="M544 0h-544v101h382v46q0 75 -41 125q-46 53 -122 53q-60 0 -112 -39q-18 -13 -36 -37l-62 77q80 102 209 102q121 0 199 -89q72 -87 72 -219v-19h55v-101zM314 -210q-26 0 -45 18.5t-19 44.5q0 27 19 45.5t45 18.5t44.5 -18.5t18.5 -45.5q0 -26 -18.5 -44.5t-44.5 -18.5
z" />
    <glyph glyph-name="uniFEA1" unicode="&#x62d;" horiz-adv-x="569" arabic-form="isolated" 
d="M348 -197h-108q-198 0 -200 186v112h382v46q0 75 -41 125q-46 53 -122 53q-60 0 -112 -39q-18 -13 -36 -37l-62 77q80 102 209 102q121 0 199 -89q72 -87 72 -219v-120h-394q0 -96 116 -96h97v-101z" />
    <glyph glyph-name="uniFEA2" unicode="&#x62d;" horiz-adv-x="583" arabic-form="final" 
d="M348 -197h-108q-198 0 -200 186v112h382v46q0 75 -41 125q-46 53 -122 53q-60 0 -112 -39q-18 -13 -36 -37l-62 77q80 102 209 102q121 0 199 -89q72 -87 72 -219v-19h69v-101h-463q0 -96 116 -96h97v-101z" />
    <glyph glyph-name="uniFEA3" unicode="&#x62d;" horiz-adv-x="529" arabic-form="initial" 
d="M0 0v101h382v46q0 75 -41 125q-46 53 -122 53q-60 0 -112 -39q-18 -13 -36 -37l-62 77q80 102 209 102q121 0 199 -89q72 -87 72 -219v-120h-489z" />
    <glyph glyph-name="uniFEA4" unicode="&#x62d;" horiz-adv-x="529" arabic-form="medial" 
d="M544 0h-544v101h382v46q0 75 -41 125q-46 53 -122 53q-60 0 -112 -39q-18 -13 -36 -37l-62 77q80 102 209 102q121 0 199 -89q72 -87 72 -219v-19h55v-101z" />
    <glyph glyph-name="uniFEA5" unicode="&#x62e;" horiz-adv-x="569" arabic-form="isolated" 
d="M348 -197h-108q-198 0 -200 186v112h382v46q0 75 -41 125q-46 53 -122 53q-60 0 -112 -39q-18 -13 -36 -37l-62 77q80 102 209 102q121 0 199 -89q72 -87 72 -219v-120h-394q0 -96 116 -96h97v-101zM179 491q-26 0 -45 18.5t-19 44.5q0 27 19 45.5t45 18.5t44.5 -18.5
t18.5 -45.5q0 -26 -18.5 -44.5t-44.5 -18.5z" />
    <glyph glyph-name="uniFEA6" unicode="&#x62e;" horiz-adv-x="583" arabic-form="final" 
d="M348 -197h-108q-198 0 -200 186v112h382v46q0 75 -41 125q-46 53 -122 53q-60 0 -112 -39q-18 -13 -36 -37l-62 77q80 102 209 102q121 0 199 -89q72 -87 72 -219v-19h69v-101h-463q0 -96 116 -96h97v-101zM179 491q-26 0 -45 18.5t-19 44.5q0 27 19 45.5t45 18.5
t44.5 -18.5t18.5 -45.5q0 -26 -18.5 -44.5t-44.5 -18.5z" />
    <glyph glyph-name="uniFEA7" unicode="&#x62e;" horiz-adv-x="529" arabic-form="initial" 
d="M0 0v101h382v46q0 75 -41 125q-46 53 -122 53q-60 0 -112 -39q-18 -13 -36 -37l-62 77q80 102 209 102q121 0 199 -89q72 -87 72 -219v-120h-489zM129 491q-26 0 -45 18.5t-19 44.5q0 27 19 45.5t45 18.5t44.5 -18.5t18.5 -45.5q0 -26 -18.5 -44.5t-44.5 -18.5z" />
    <glyph glyph-name="uniFEA8" unicode="&#x62e;" horiz-adv-x="529" arabic-form="medial" 
d="M544 0h-544v101h382v46q0 75 -41 125q-46 53 -122 53q-60 0 -112 -39q-18 -13 -36 -37l-62 77q80 102 209 102q121 0 199 -89q72 -87 72 -219v-19h55v-101zM129 491q-26 0 -45 18.5t-19 44.5q0 27 19 45.5t45 18.5t44.5 -18.5t18.5 -45.5q0 -26 -18.5 -44.5t-44.5 -18.5z
" />
    <glyph glyph-name="uniFEA9" unicode="&#x62f;" horiz-adv-x="457" arabic-form="isolated" 
d="M417 0h-365v101h255v101q-1 67 -30 100t-79 33q-52 0 -108 -49l-50 87q73 63 161 63q92 0 154 -63.5t62 -171.5v-201z" />
    <glyph glyph-name="uniFEAA" unicode="&#x62f;" horiz-adv-x="472" arabic-form="final" 
d="M487 0h-435v101h255v101q-1 67 -30 100t-79 33q-52 0 -108 -49l-50 87q73 63 161 63q92 0 154 -63.5t62 -171.5v-100h70v-101z" />
    <glyph glyph-name="uniFEAB" unicode="&#x630;" horiz-adv-x="457" arabic-form="isolated" 
d="M417 0h-365v101h255v101q-1 67 -30 100t-79 33q-52 0 -108 -49l-50 87q73 63 161 63q92 0 154 -63.5t62 -171.5v-201zM149 491q-26 0 -45 18.5t-19 44.5q0 27 19 45.5t45 18.5t44.5 -18.5t18.5 -45.5q0 -26 -18.5 -44.5t-44.5 -18.5z" />
    <glyph glyph-name="uniFEAC" unicode="&#x630;" horiz-adv-x="472" arabic-form="final" 
d="M487 0h-435v101h255v101q-1 67 -30 100t-79 33q-52 0 -108 -49l-50 87q73 63 161 63q92 0 154 -63.5t62 -171.5v-100h70v-101zM149 491q-26 0 -45 18.5t-19 44.5q0 27 19 45.5t45 18.5t44.5 -18.5t18.5 -45.5q0 -26 -18.5 -44.5t-44.5 -18.5z" />
    <glyph glyph-name="uniFEAD" unicode="&#x631;" horiz-adv-x="290" arabic-form="isolated" 
d="M48 -197h-58v101h47q103 0 103 97v409h110v-420q0 -187 -202 -187z" />
    <glyph glyph-name="uniFEAE" unicode="&#x631;" horiz-adv-x="305" arabic-form="final" 
d="M48 -197h-58v101h47q103 0 103 97v409h110v-309h70v-101h-70v-10q0 -187 -202 -187z" />
    <glyph glyph-name="uniFEAF" unicode="&#x632;" horiz-adv-x="290" arabic-form="isolated" 
d="M48 -197h-58v101h47q103 0 103 97v409h110v-420q0 -187 -202 -187zM193 491q-26 0 -45 18.5t-19 44.5q0 27 19 45.5t45 18.5t44.5 -18.5t18.5 -45.5q0 -26 -18.5 -44.5t-44.5 -18.5z" />
    <glyph glyph-name="uniFEB0" unicode="&#x632;" horiz-adv-x="305" arabic-form="final" 
d="M48 -197h-58v101h47q103 0 103 97v409h110v-309h70v-101h-70v-10q0 -187 -202 -187zM193 491q-26 0 -45 18.5t-19 44.5q0 27 19 45.5t45 18.5t44.5 -18.5t18.5 -45.5q0 -26 -18.5 -44.5t-44.5 -18.5z" />
    <glyph glyph-name="uniFEB1" unicode="&#x633;" horiz-adv-x="1083" arabic-form="isolated" 
d="M340 -197h-45q-109 0 -173 57q-81 73 -82 181q2 144 90 228l85 -61q-65 -74 -65 -163q0 -139 146 -141h40q97 1 97 85v351h110v-239h58q39 0 53 8q29 17 29 88v182h110v-183q0 -95 69 -95q71 0 71 101v208h110v-202q-1 -102 -36 -153q-41 -61 -111 -61q-89 0 -135 54
q-45 -48 -122 -48h-96q-4 -197 -203 -197z" />
    <glyph glyph-name="uniFEB2" unicode="&#x633;" horiz-adv-x="1097" arabic-form="final" 
d="M340 -197h-45q-109 0 -173 57q-81 73 -82 181q2 144 90 228l85 -61q-65 -74 -65 -163q0 -139 146 -141h40q97 1 97 85v351h110v-239h58q39 0 53 8q29 17 29 88v182h110v-183q0 -95 69 -95q71 0 71 101v208h110v-202q-1 -63 -14 -107h83v-101h-175q-19 -2 -41 -2
q-89 0 -135 50q-45 -48 -122 -48h-96q-4 -197 -203 -197z" />
    <glyph glyph-name="uniFEB3" unicode="&#x633;" horiz-adv-x="772" arabic-form="initial" 
d="M122 101v239h110v-239h58q39 0 53 8q29 17 29 88v182h110v-183q0 -95 69 -95q71 0 71 101v208h110v-202q-1 -102 -36 -153q-41 -61 -111 -61q-89 0 -135 54q-45 -48 -122 -48h-328v101h122z" />
    <glyph glyph-name="uniFEB4" unicode="&#x633;" horiz-adv-x="786" arabic-form="medial" 
d="M585 -2q-89 0 -135 50q-45 -48 -122 -48h-328v101h122v239h110v-239h58q39 0 53 8q29 17 29 88v182h110v-183q0 -95 69 -95q71 0 71 101v208h110v-202q-1 -63 -14 -107h83v-101h-175q-19 -2 -41 -2z" />
    <glyph glyph-name="uniFEB5" unicode="&#x634;" horiz-adv-x="1083" arabic-form="isolated" 
d="M340 -197h-45q-109 0 -173 57q-81 73 -82 181q2 144 90 228l85 -61q-65 -74 -65 -163q0 -139 146 -141h40q97 1 97 85v351h110v-239h58q39 0 53 8q29 17 29 88v182h110v-183q0 -95 69 -95q71 0 71 101v208h110v-202q-1 -102 -36 -153q-41 -61 -111 -61q-89 0 -135 54
q-45 -48 -122 -48h-96q-4 -197 -203 -197zM643 470q-26 0 -45 18.5t-19 44.5q0 27 19 45.5t45 18.5t44.5 -18.5t18.5 -45.5q0 -26 -18.5 -44.5t-44.5 -18.5zM789 470q-26 0 -45 18.5t-19 44.5q0 27 19 45.5t45 18.5t44.5 -18.5t18.5 -45.5q0 -26 -18.5 -44.5t-44.5 -18.5z
M709 609q-26 0 -45 18.5t-19 44.5q0 27 19 45.5t45 18.5t44.5 -18.5t18.5 -45.5q0 -26 -18.5 -44.5t-44.5 -18.5z" />
    <glyph glyph-name="uniFEB6" unicode="&#x634;" horiz-adv-x="1097" arabic-form="final" 
d="M340 -197h-45q-109 0 -173 57q-81 73 -82 181q2 144 90 228l85 -61q-65 -74 -65 -163q0 -139 146 -141h40q97 1 97 85v351h110v-239h58q39 0 53 8q29 17 29 88v182h110v-183q0 -95 69 -95q71 0 71 101v208h110v-202q-1 -63 -14 -107h83v-101h-175q-19 -2 -41 -2
q-89 0 -135 50q-45 -48 -122 -48h-96q-4 -197 -203 -197zM643 470q-26 0 -45 18.5t-19 44.5q0 27 19 45.5t45 18.5t44.5 -18.5t18.5 -45.5q0 -26 -18.5 -44.5t-44.5 -18.5zM789 470q-26 0 -45 18.5t-19 44.5q0 27 19 45.5t45 18.5t44.5 -18.5t18.5 -45.5q0 -26 -18.5 -44.5
t-44.5 -18.5zM709 609q-26 0 -45 18.5t-19 44.5q0 27 19 45.5t45 18.5t44.5 -18.5t18.5 -45.5q0 -26 -18.5 -44.5t-44.5 -18.5z" />
    <glyph glyph-name="uniFEB7" unicode="&#x634;" horiz-adv-x="772" arabic-form="initial" 
d="M122 101v239h110v-239h58q39 0 53 8q29 17 29 88v182h110v-183q0 -95 69 -95q71 0 71 101v208h110v-202q-1 -102 -36 -153q-41 -61 -111 -61q-89 0 -135 54q-45 -48 -122 -48h-328v101h122zM341 470q-26 0 -45 18.5t-19 44.5q0 27 19 45.5t45 18.5t44.5 -18.5t18.5 -45.5
q0 -26 -18.5 -44.5t-44.5 -18.5zM487 470q-26 0 -45 18.5t-19 44.5q0 27 19 45.5t45 18.5t44.5 -18.5t18.5 -45.5q0 -26 -18.5 -44.5t-44.5 -18.5zM407 609q-26 0 -45 18.5t-19 44.5q0 27 19 45.5t45 18.5t44.5 -18.5t18.5 -45.5q0 -26 -18.5 -44.5t-44.5 -18.5z" />
    <glyph glyph-name="uniFEB8" unicode="&#x634;" horiz-adv-x="786" arabic-form="medial" 
d="M585 -2q-89 0 -135 50q-45 -48 -122 -48h-328v101h122v239h110v-239h58q39 0 53 8q29 17 29 88v182h110v-183q0 -95 69 -95q71 0 71 101v208h110v-202q-1 -63 -14 -107h83v-101h-175q-19 -2 -41 -2zM341 470q-26 0 -45 18.5t-19 44.5q0 27 19 45.5t45 18.5t44.5 -18.5
t18.5 -45.5q0 -26 -18.5 -44.5t-44.5 -18.5zM487 470q-26 0 -45 18.5t-19 44.5q0 27 19 45.5t45 18.5t44.5 -18.5t18.5 -45.5q0 -26 -18.5 -44.5t-44.5 -18.5zM407 609q-26 0 -45 18.5t-19 44.5q0 27 19 45.5t45 18.5t44.5 -18.5t18.5 -45.5q0 -26 -18.5 -44.5t-44.5 -18.5z
" />
    <glyph glyph-name="uniFEB9" unicode="&#x635;" horiz-adv-x="1037" arabic-form="isolated" 
d="M871 101q16 51 16 94q0 56 -23 97q-35 67 -103 68q-67 0 -130 -60q-45 -43 -81 -114q-11 -23 -11 -31v-54h332zM340 -197h-45q-109 0 -173 57q-81 73 -82 181q2 144 90 228l85 -61q-65 -74 -65 -163q0 -139 146 -141h40q97 1 97 85v421h110v-82q45 64 109 102
q53 31 112 31q109 0 178 -93q55 -79 55 -164q0 -47 -11 -103l-20 -101h-423q-4 -197 -203 -197z" />
    <glyph glyph-name="uniFEBA" unicode="&#x635;" horiz-adv-x="1054" arabic-form="final" 
d="M871 101q16 51 16 94q0 56 -23 97q-35 67 -103 68q-67 0 -130 -60q-45 -43 -81 -114q-11 -23 -11 -31v-54h332zM340 -197h-45q-109 0 -173 57q-81 73 -82 181q2 144 90 228l85 -61q-65 -74 -65 -163q0 -139 146 -141h40q97 1 97 85v421h110v-82q45 64 109 102
q53 31 112 31q109 0 178 -93q55 -79 55 -164q0 -47 -11 -103h83v-101h-526q-4 -197 -203 -197z" />
    <glyph glyph-name="uniFEBB" unicode="&#x635;" horiz-adv-x="719" arabic-form="initial" 
d="M553 101q16 51 16 94q0 56 -23 97q-35 67 -103 68q-67 0 -130 -60q-45 -43 -81 -114q-11 -23 -11 -31v-54h332zM648 0h-648v101h115v309h110v-82q45 64 109 102q53 31 112 31q109 0 178 -93q55 -79 55 -164q0 -47 -11 -103z" />
    <glyph glyph-name="uniFEBC" unicode="&#x635;" horiz-adv-x="736" arabic-form="medial" 
d="M553 101q16 51 16 94q0 56 -23 97q-35 67 -103 68q-67 0 -130 -60q-45 -43 -81 -114q-11 -23 -11 -31v-54h332zM115 101v309h110v-82q45 64 109 102q53 31 112 31q109 0 178 -93q55 -79 55 -164q0 -47 -11 -103h83v-101h-751v101h115z" />
    <glyph glyph-name="uniFEBD" unicode="&#x636;" horiz-adv-x="1037" arabic-form="isolated" 
d="M582 491q-26 0 -45 18.5t-19 44.5q0 27 19 45.5t45 18.5t44.5 -18.5t18.5 -45.5q0 -26 -18.5 -44.5t-44.5 -18.5zM871 101q16 51 16 94q0 56 -23 97q-35 67 -103 68q-67 0 -130 -60q-45 -43 -81 -114q-11 -23 -11 -31v-54h332zM340 -197h-45q-109 0 -173 57
q-81 73 -82 181q2 144 90 228l85 -61q-65 -74 -65 -163q0 -139 146 -141h40q97 1 97 85v421h110v-82q45 64 109 102q53 31 112 31q109 0 178 -93q55 -79 55 -164q0 -47 -11 -103l-20 -101h-423q-4 -197 -203 -197z" />
    <glyph glyph-name="uniFEBE" unicode="&#x636;" horiz-adv-x="1054" arabic-form="final" 
d="M871 101q16 51 16 94q0 56 -23 97q-35 67 -103 68q-67 0 -130 -60q-45 -43 -81 -114q-11 -23 -11 -31v-54h332zM340 -197h-45q-109 0 -173 57q-81 73 -82 181q2 144 90 228l85 -61q-65 -74 -65 -163q0 -139 146 -141h40q97 1 97 85v421h110v-82q45 64 109 102
q53 31 112 31q109 0 178 -93q55 -79 55 -164q0 -47 -11 -103h83v-101h-526q-4 -197 -203 -197zM582 491q-26 0 -45 18.5t-19 44.5q0 27 19 45.5t45 18.5t44.5 -18.5t18.5 -45.5q0 -26 -18.5 -44.5t-44.5 -18.5z" />
    <glyph glyph-name="uniFEBF" unicode="&#x636;" horiz-adv-x="719" arabic-form="initial" 
d="M553 101q16 51 16 94q0 56 -23 97q-35 67 -103 68q-67 0 -130 -60q-45 -43 -81 -114q-11 -23 -11 -31v-54h332zM648 0h-648v101h115v309h110v-82q45 64 109 102q53 31 112 31q109 0 178 -93q55 -79 55 -164q0 -47 -11 -103zM302 491q-26 0 -45 18.5t-19 44.5
q0 27 19 45.5t45 18.5t44.5 -18.5t18.5 -45.5q0 -26 -18.5 -44.5t-44.5 -18.5z" />
    <glyph glyph-name="uniFEC0" unicode="&#x636;" horiz-adv-x="736" arabic-form="medial" 
d="M553 101q16 51 16 94q0 56 -23 97q-35 67 -103 68q-67 0 -130 -60q-45 -43 -81 -114q-11 -23 -11 -31v-54h332zM115 101v309h110v-82q45 64 109 102q53 31 112 31q109 0 178 -93q55 -79 55 -164q0 -47 -11 -103h83v-101h-751v101h115zM302 491q-26 0 -45 18.5t-19 44.5
q0 27 19 45.5t45 18.5t44.5 -18.5t18.5 -45.5q0 -26 -18.5 -44.5t-44.5 -18.5z" />
    <glyph glyph-name="uniFEC1" unicode="&#x637;" horiz-adv-x="741" arabic-form="isolated" 
d="M575 101q16 51 16 94q0 56 -23 97q-35 67 -103 68q-67 0 -130 -60q-45 -43 -81 -114q-11 -23 -11 -31v-54h332zM670 0h-630v101h96q1 100 1 529h110v-302q45 64 109 102q53 31 112 31q109 0 178 -93q55 -79 55 -164q0 -47 -11 -103z" />
    <glyph glyph-name="uniFEC2" unicode="&#x637;" horiz-adv-x="756" arabic-form="final" 
d="M575 101q16 51 16 94q0 56 -23 97q-35 67 -103 68q-67 0 -130 -60q-45 -43 -81 -114q-11 -23 -11 -31v-54h332zM771 0h-731v101h96q1 100 1 529h110v-302q45 64 109 102q53 31 112 31q109 0 178 -93q55 -79 55 -164q0 -47 -11 -103h81v-101z" />
    <glyph glyph-name="uniFEC3" unicode="&#x637;" horiz-adv-x="711" arabic-form="initial" 
d="M545 101q16 51 16 94q0 56 -23 97q-35 67 -103 68q-67 0 -130 -60q-45 -43 -81 -114q-11 -23 -11 -31v-54h332zM640 0h-640v101h106q1 100 1 529h110v-302q45 64 109 102q53 31 112 31q109 0 178 -93q55 -79 55 -164q0 -47 -11 -103z" />
    <glyph glyph-name="uniFEC4" unicode="&#x637;" horiz-adv-x="726" arabic-form="medial" 
d="M545 101q16 51 16 94q0 56 -23 97q-35 67 -103 68q-67 0 -130 -60q-45 -43 -81 -114q-11 -23 -11 -31v-54h332zM741 0h-741v101h106q1 100 1 529h110v-302q45 64 109 102q53 31 112 31q109 0 178 -93q55 -79 55 -164q0 -47 -11 -103h81v-101z" />
    <glyph glyph-name="uniFEC5" unicode="&#x638;" horiz-adv-x="741" arabic-form="isolated" 
d="M575 101q16 51 16 94q0 56 -23 97q-35 67 -103 68q-67 0 -130 -60q-45 -43 -81 -114q-11 -23 -11 -31v-54h332zM670 0h-630v101h96q1 100 1 529h110v-302q45 64 109 102q53 31 112 31q109 0 178 -93q55 -79 55 -164q0 -47 -11 -103zM369 491q-26 0 -45 18.5t-19 44.5
q0 27 19 45.5t45 18.5t44.5 -18.5t18.5 -45.5q0 -26 -18.5 -44.5t-44.5 -18.5z" />
    <glyph glyph-name="uniFEC6" unicode="&#x638;" horiz-adv-x="756" arabic-form="final" 
d="M575 101q16 51 16 94q0 56 -23 97q-35 67 -103 68q-67 0 -130 -60q-45 -43 -81 -114q-11 -23 -11 -31v-54h332zM771 0h-731v101h96q1 100 1 529h110v-302q45 64 109 102q53 31 112 31q109 0 178 -93q55 -79 55 -164q0 -47 -11 -103h81v-101zM369 491q-26 0 -45 18.5
t-19 44.5q0 27 19 45.5t45 18.5t44.5 -18.5t18.5 -45.5q0 -26 -18.5 -44.5t-44.5 -18.5z" />
    <glyph glyph-name="uniFEC7" unicode="&#x638;" horiz-adv-x="711" arabic-form="initial" 
d="M545 101q16 51 16 94q0 56 -23 97q-35 67 -103 68q-67 0 -130 -60q-45 -43 -81 -114q-11 -23 -11 -31v-54h332zM640 0h-640v101h106q1 100 1 529h110v-302q45 64 109 102q53 31 112 31q109 0 178 -93q55 -79 55 -164q0 -47 -11 -103zM339 491q-26 0 -45 18.5t-19 44.5
q0 27 19 45.5t45 18.5t44.5 -18.5t18.5 -45.5q0 -26 -18.5 -44.5t-44.5 -18.5z" />
    <glyph glyph-name="uniFEC8" unicode="&#x638;" horiz-adv-x="726" arabic-form="medial" 
d="M545 101q16 51 16 94q0 56 -23 97q-35 67 -103 68q-67 0 -130 -60q-45 -43 -81 -114q-11 -23 -11 -31v-54h332zM741 0h-741v101h106q1 100 1 529h110v-302q45 64 109 102q53 31 112 31q109 0 178 -93q55 -79 55 -164q0 -47 -11 -103h81v-101zM339 491q-26 0 -45 18.5
t-19 44.5q0 27 19 45.5t45 18.5t44.5 -18.5t18.5 -45.5q0 -26 -18.5 -44.5t-44.5 -18.5z" />
    <glyph glyph-name="uniFEC9" unicode="&#x639;" horiz-adv-x="562" arabic-form="isolated" 
d="M338 -197h-98q-198 0 -200 186v112h129q-55 63 -55 152q0 94 63 158.5t171 64.5q102 0 170 -64l-38 -82q-65 45 -128 45q-58 0 -88.5 -36t-30.5 -88q0 -105 110 -150h179v-101h-387q0 -96 116 -96h87v-101z" />
    <glyph glyph-name="uniFECA" unicode="&#x639;" horiz-adv-x="582" arabic-form="final" 
d="M303 102q43 5 75 39q45 46 45 106q-1 92 -77 119q-18 6 -35 6q-21 0 -41 -9q-59 -28 -92 -119zM338 -197h-98q-198 0 -200 186v112h142l-117 125l8 23q47 144 153 194q42 19 84 19q32 0 65 -11q90 -29 130 -112q23 -48 23 -97q0 -76 -51 -141h120v-101h-462
q0 -96 116 -96h87v-101z" />
    <glyph glyph-name="uniFECB" unicode="&#x639;" horiz-adv-x="495" arabic-form="initial" 
d="M455 0h-470v101h117q-55 63 -55 152q0 94 63 158.5t171 64.5q102 0 170 -64l-38 -82q-65 45 -128 45q-58 0 -88.5 -36t-30.5 -88q0 -105 110 -150h179v-101z" />
    <glyph glyph-name="uniFECC" unicode="&#x639;" horiz-adv-x="545" arabic-form="medial" 
d="M266 102q43 5 75 39q45 46 45 106q-1 92 -77 119q-18 6 -35 6q-21 0 -41 -9q-59 -28 -92 -119zM560 0h-560v101h145l-117 125l8 23q47 144 153 194q42 19 84 19q32 0 65 -11q90 -29 130 -112q23 -48 23 -97q0 -76 -51 -141h120v-101z" />
    <glyph glyph-name="uniFECD" unicode="&#x63a;" horiz-adv-x="562" arabic-form="isolated" 
d="M338 -197h-98q-198 0 -200 186v112h129q-55 63 -55 152q0 94 63 158.5t171 64.5q102 0 170 -64l-38 -82q-65 45 -128 45q-58 0 -88.5 -36t-30.5 -88q0 -105 110 -150h179v-101h-387q0 -96 116 -96h87v-101zM237 518q-26 0 -45 18.5t-19 44.5q0 27 19 45.5t45 18.5
t44.5 -18.5t18.5 -45.5q0 -26 -18.5 -44.5t-44.5 -18.5z" />
    <glyph glyph-name="uniFECE" unicode="&#x63a;" horiz-adv-x="582" arabic-form="final" 
d="M303 102q43 5 75 39q45 46 45 106q-1 92 -77 119q-18 6 -35 6q-21 0 -41 -9q-59 -28 -92 -119zM338 -197h-98q-198 0 -200 186v112h142l-117 125l8 23q47 144 153 194q42 19 84 19q32 0 65 -11q90 -29 130 -112q23 -48 23 -97q0 -76 -51 -141h120v-101h-462
q0 -96 116 -96h87v-101zM207 518q-26 0 -45 18.5t-19 44.5q0 27 19 45.5t45 18.5t44.5 -18.5t18.5 -45.5q0 -26 -18.5 -44.5t-44.5 -18.5z" />
    <glyph glyph-name="uniFECF" unicode="&#x63a;" horiz-adv-x="495" arabic-form="initial" 
d="M455 0h-470v101h117q-55 63 -55 152q0 94 63 158.5t171 64.5q102 0 170 -64l-38 -82q-65 45 -128 45q-58 0 -88.5 -36t-30.5 -88q0 -105 110 -150h179v-101zM167 518q-26 0 -45 18.5t-19 44.5q0 27 19 45.5t45 18.5t44.5 -18.5t18.5 -45.5q0 -26 -18.5 -44.5t-44.5 -18.5
z" />
    <glyph glyph-name="uniFED0" unicode="&#x63a;" horiz-adv-x="545" arabic-form="medial" 
d="M266 102q43 5 75 39q45 46 45 106q-1 92 -77 119q-18 6 -35 6q-21 0 -41 -9q-59 -28 -92 -119zM560 0h-560v101h145l-117 125l8 23q47 144 153 194q42 19 84 19q32 0 65 -11q90 -29 130 -112q23 -48 23 -97q0 -76 -51 -141h120v-101zM237 518q-26 0 -45 18.5t-19 44.5
q0 27 19 45.5t45 18.5t44.5 -18.5t18.5 -45.5q0 -26 -18.5 -44.5t-44.5 -18.5z" />
    <glyph glyph-name="uniFED1" unicode="&#x641;" horiz-adv-x="821" arabic-form="isolated" 
d="M671 101v247q-30 20 -65 20q-42 0 -70 -29q-41 -45 -41 -107q0 -130 149 -131h27zM781 0h-486q-109 0 -173 58q-81 73 -82 181q1 93 38 161l98 -50q-26 -51 -26 -107q0 -139 146 -140h123q-35 53 -36 123q0 118 88 188q61 47 139 47q93 0 171 -53v-408zM452 491
q-26 0 -45 18.5t-19 44.5q0 27 19 45.5t45 18.5t44.5 -18.5t18.5 -45.5q0 -26 -18.5 -44.5t-44.5 -18.5z" />
    <glyph glyph-name="uniFED2" unicode="&#x641;" horiz-adv-x="834" arabic-form="final" 
d="M671 101v247q-30 20 -65 20q-42 0 -70 -29q-41 -45 -41 -107q0 -130 149 -131h27zM849 0h-554q-109 0 -173 58q-81 73 -82 181q1 93 38 161l98 -50q-26 -51 -26 -107q0 -141 146 -142h124q-36 55 -37 125q0 118 88 188q61 47 139 47q93 0 171 -53v-307h68v-101zM452 491
q-26 0 -45 18.5t-19 44.5q0 27 19 45.5t45 18.5t44.5 -18.5t18.5 -45.5q0 -26 -18.5 -44.5t-44.5 -18.5z" />
    <glyph glyph-name="uniFED3" unicode="&#x641;" horiz-adv-x="488" arabic-form="initial" 
d="M338 101v247q-30 20 -65 20q-42 0 -70 -29q-41 -45 -41 -107q0 -130 149 -131h27zM0 101h87q-36 55 -37 125q0 118 88 188q61 47 139 47q93 0 171 -53v-408h-448v101zM112 491q-26 0 -45 18.5t-19 44.5q0 27 19 45.5t45 18.5t44.5 -18.5t18.5 -45.5q0 -26 -18.5 -44.5
t-44.5 -18.5z" />
    <glyph glyph-name="uniFED4" unicode="&#x641;" horiz-adv-x="502" arabic-form="medial" 
d="M338 101v247q-30 20 -65 20q-42 0 -70 -29q-41 -45 -41 -107q0 -130 149 -131h27zM517 0h-517v101h87q-36 55 -37 125q0 118 88 188q61 47 139 47q93 0 171 -53v-307h69v-101zM112 491q-26 0 -45 18.5t-19 44.5q0 27 19 45.5t45 18.5t44.5 -18.5t18.5 -45.5
q0 -26 -18.5 -44.5t-44.5 -18.5z" />
    <glyph glyph-name="uniFED5" unicode="&#x642;" horiz-adv-x="663" arabic-form="isolated" 
d="M513 101v247q-30 20 -65 20q-42 0 -70 -29q-41 -45 -41 -107q0 -130 149 -131h27zM420 -197h-125q-109 0 -173 57q-81 73 -82 181q1 93 38 161l95 -57q-23 -47 -23 -100q0 -139 146 -141h120q97 1 97 83v13q-137 0 -191 41q-96 69 -97 185q0 118 88 188q61 47 139 47
q93 0 171 -53v-408q-4 -197 -203 -197zM253 507q-26 0 -45 18.5t-19 44.5q0 27 19 45.5t45 18.5t44.5 -18.5t18.5 -45.5q0 -26 -18.5 -44.5t-44.5 -18.5zM399 507q-26 0 -45 18.5t-19 44.5q0 27 19 45.5t45 18.5t44.5 -18.5t18.5 -45.5q0 -26 -18.5 -44.5t-44.5 -18.5z" />
    <glyph glyph-name="uniFED6" unicode="&#x642;" horiz-adv-x="681" arabic-form="final" 
d="M253 507q-26 0 -45 18.5t-19 44.5q0 27 19 45.5t45 18.5t44.5 -18.5t18.5 -45.5q0 -26 -18.5 -44.5t-44.5 -18.5zM399 507q-26 0 -45 18.5t-19 44.5q0 27 19 45.5t45 18.5t44.5 -18.5t18.5 -45.5q0 -26 -18.5 -44.5t-44.5 -18.5zM513 101v247q-30 20 -65 20
q-42 0 -70 -29q-41 -45 -41 -107q0 -130 149 -131h27zM420 -197h-125q-109 0 -173 57q-81 73 -82 181q1 93 38 161l95 -57q-23 -47 -23 -100q0 -139 146 -141h120q97 1 97 83v13q-137 0 -191 41q-96 69 -97 185q0 118 88 188q61 47 139 47q93 0 171 -53v-307h73v-101h-73
q-4 -197 -203 -197z" />
    <glyph glyph-name="uniFED7" unicode="&#x642;" horiz-adv-x="488" arabic-form="initial" 
d="M338 101v247q-30 20 -65 20q-42 0 -70 -29q-41 -45 -41 -107q0 -130 149 -131h27zM0 101h87q-36 55 -37 125q0 118 88 188q61 47 139 47q93 0 171 -53v-408h-448v101zM78 507q-26 0 -45 18.5t-19 44.5q0 27 19 45.5t45 18.5t44.5 -18.5t18.5 -45.5q0 -26 -18.5 -44.5
t-44.5 -18.5zM224 507q-26 0 -45 18.5t-19 44.5q0 27 19 45.5t45 18.5t44.5 -18.5t18.5 -45.5q0 -26 -18.5 -44.5t-44.5 -18.5z" />
    <glyph glyph-name="uniFED8" unicode="&#x642;" horiz-adv-x="502" arabic-form="medial" 
d="M338 101v247q-30 20 -65 20q-42 0 -70 -29q-41 -45 -41 -107q0 -130 149 -131h27zM517 0h-517v101h87q-36 55 -37 125q0 118 88 188q61 47 139 47q93 0 171 -53v-307h69v-101zM78 507q-26 0 -45 18.5t-19 44.5q0 27 19 45.5t45 18.5t44.5 -18.5t18.5 -45.5
q0 -26 -18.5 -44.5t-44.5 -18.5zM224 507q-26 0 -45 18.5t-19 44.5q0 27 19 45.5t45 18.5t44.5 -18.5t18.5 -45.5q0 -26 -18.5 -44.5t-44.5 -18.5z" />
    <glyph glyph-name="uniFED9" unicode="&#x643;" horiz-adv-x="655" arabic-form="isolated" 
d="M506 630h109v-604q0 -26 -23 -26h-297q-109 0 -173 58q-81 73 -82 181q1 93 38 161l98 -50q-26 -51 -26 -107q0 -141 146 -142h210v529zM272 242l-10 57l34 16q-39 29 -39 69q0 56 50 83q17 9 45 9q31 0 60 -13l-11 -53q-18 5 -31 5q-42 0 -42 -39q2 -37 63 -41
q18 0 38 3l-3 -56q-88 -13 -154 -40z" />
    <glyph glyph-name="uniFEDA" unicode="&#x643;" horiz-adv-x="667" arabic-form="final" 
d="M682 0h-387q-109 0 -173 58q-81 73 -82 181q1 93 38 161l98 -50q-26 -51 -26 -107q0 -141 146 -142h210v529h109v-529h67v-101zM272 242l-10 57l34 16q-39 29 -39 69q0 56 50 83q17 9 45 9q31 0 60 -13l-11 -53q-18 5 -31 5q-42 0 -42 -39q2 -37 63 -41q18 0 38 3l-3 -56
q-88 -13 -154 -40z" />
    <glyph glyph-name="uniFEDB" unicode="&#x643;" horiz-adv-x="431" arabic-form="initial" 
d="M0 0v101h267q-23 181 -242 226v106l341 197l25 -104l-239 -136q229 -76 236 -390h-388z" />
    <glyph glyph-name="uniFEDC" unicode="&#x643;" horiz-adv-x="431" arabic-form="medial" 
d="M446 0h-446v101h267q-23 181 -242 226v106l341 197l25 -104l-239 -136q190 -63 227 -289h67v-101z" />
    <glyph glyph-name="uniFEDD" unicode="&#x644;" horiz-adv-x="583" arabic-form="isolated" 
d="M340 -197h-45q-109 0 -173 57q-81 73 -82 181q2 144 90 228l85 -61q-65 -74 -65 -163q0 -139 146 -141h40q97 1 97 85v641h110v-622q0 -205 -203 -205z" />
    <glyph glyph-name="uniFEDE" unicode="&#x644;" horiz-adv-x="597" arabic-form="final" 
d="M543 0q-4 -197 -203 -197h-45q-109 0 -173 57q-81 73 -82 181q2 144 90 228l85 -61q-65 -74 -65 -163q0 -139 146 -141h40q97 1 97 85v641h110v-529h69v-101h-69z" />
    <glyph glyph-name="uniFEDF" unicode="&#x644;" horiz-adv-x="222" arabic-form="initial" 
d="M0 101h9q61 1 61 90v439h110v-430q0 -79 -35 -133q-43 -67 -134 -67h-11v101z" />
    <glyph glyph-name="uniFEE0" unicode="&#x644;" horiz-adv-x="218" arabic-form="medial" 
d="M233 0h-233v101h55v529h110v-529h68v-101z" />
    <glyph glyph-name="uniFEE1" unicode="&#x645;" horiz-adv-x="640" arabic-form="isolated" 
d="M400 57q96 0 96 132q0 156 -101 156q-96 -2 -96 -143q0 -145 101 -145zM166 -197h-100q-26 168 -26 213q0 167 156 208q3 98 50 155q51 62 148 62q95 0 150.5 -63.5t55.5 -178.5q0 -85 -30 -142q-50 -96 -158 -96q-106 0 -165 70q-28 33 -39 75q-67 -13 -67 -103
q0 -41 25 -200z" />
    <glyph glyph-name="uniFEE2" unicode="&#x645;" horiz-adv-x="653" arabic-form="final" 
d="M400 57q96 0 96 132q0 156 -101 156q-96 -2 -96 -143q0 -145 101 -145zM166 -197h-100q-26 168 -26 213q0 167 156 208q3 98 50 155q51 62 148 62q95 0 150.5 -63.5t55.5 -181.5q0 -53 -12 -95h80v-101h-142q-45 -39 -114 -39q-106 0 -165 70q-28 33 -39 75
q-67 -13 -67 -103q0 -41 25 -200z" />
    <glyph glyph-name="uniFEE3" unicode="&#x645;" horiz-adv-x="538" arabic-form="initial" 
d="M298 57q96 0 96 132q0 156 -101 156q-96 -2 -96 -143q0 -145 101 -145zM312 -39q-120 0 -182 89q-26 -49 -88 -50h-58v101h50q59 1 60 92v16q0 109 50.5 170.5t147.5 61.5q95 0 150.5 -63.5t55.5 -178.5q0 -85 -30 -142q-49 -94 -156 -96z" />
    <glyph glyph-name="uniFEE4" unicode="&#x645;" horiz-adv-x="551" arabic-form="medial" 
d="M298 57q96 0 96 132q0 156 -101 156q-96 -2 -96 -143q0 -145 101 -145zM312 -39q-120 0 -182 89q-26 -49 -88 -50h-58v101h50q59 1 60 92v16q0 109 50.5 170.5t147.5 61.5q95 0 150.5 -63.5t55.5 -181.5q0 -53 -12 -95h80v-101h-142q-44 -38 -112 -39z" />
    <glyph glyph-name="uniFEE5" unicode="&#x646;" horiz-adv-x="583" arabic-form="isolated" 
d="M340 -197h-45q-109 0 -173 57q-81 73 -82 181q2 144 90 228l85 -61q-65 -74 -65 -163q0 -139 146 -141h40q97 1 97 85v421h110v-402q0 -205 -203 -205zM276 491q-26 0 -45 18.5t-19 44.5q0 27 19 45.5t45 18.5t44.5 -18.5t18.5 -45.5q0 -26 -18.5 -44.5t-44.5 -18.5z" />
    <glyph glyph-name="uniFEE6" unicode="&#x646;" horiz-adv-x="597" arabic-form="final" 
d="M543 0q-4 -197 -203 -197h-45q-109 0 -173 57q-81 73 -82 181q2 144 90 228l85 -61q-65 -74 -65 -163q0 -139 146 -141h40q97 1 97 85v421h110v-309h69v-101h-69zM276 491q-26 0 -45 18.5t-19 44.5q0 27 19 45.5t45 18.5t44.5 -18.5t18.5 -45.5q0 -26 -18.5 -44.5
t-44.5 -18.5z" />
    <glyph glyph-name="uniFEE7" unicode="&#x646;" horiz-adv-x="246" arabic-form="initial" 
d="M0 0v101h73q23 0 23 30v279h110v-266q-3 -144 -107 -144h-99zM150 491q-26 0 -45 18.5t-19 44.5q0 27 19 45.5t45 18.5t44.5 -18.5t18.5 -45.5q0 -26 -18.5 -44.5t-44.5 -18.5z" />
    <glyph glyph-name="uniFEE8" unicode="&#x646;" horiz-adv-x="290" arabic-form="medial" 
d="M305 0h-305v101h44q75 0 75 97v212h107v-207q0 -58 -15 -102h94v-101zM150 491q-26 0 -45 18.5t-19 44.5q0 27 19 45.5t45 18.5t44.5 -18.5t18.5 -45.5q0 -26 -18.5 -44.5t-44.5 -18.5z" />
    <glyph glyph-name="uniFEE9" unicode="&#x647;" horiz-adv-x="478" arabic-form="isolated" 
d="M438 0h-126q-122 1 -175 41q-96 69 -97 185q0 118 88 188q61 47 139 47q93 0 171 -53v-408zM328 101v247q-30 20 -65 20q-42 0 -70 -29q-41 -45 -41 -107q0 -130 149 -131h27z" />
    <glyph glyph-name="uniFEEA" unicode="&#x647;" horiz-adv-x="491" arabic-form="final" 
d="M328 101v247q-30 20 -65 20q-42 0 -70 -29q-41 -45 -41 -107q0 -130 149 -131h27zM506 0h-194q-122 1 -175 41q-96 69 -97 185q0 118 88 188q61 47 139 47q93 0 171 -53v-307h68v-101z" />
    <glyph glyph-name="uniFEEB" unicode="&#x647;" horiz-adv-x="579" arabic-form="initial" 
d="M536 0h-536v102h62q-15 34 -15 80q0 112 84 157l-41 62q94 67 217 67q104 0 168 -68.5t64 -201.5zM204 102q11 0 25 3t24.5 20t10.5 57q0 81 -60 81q-59 0 -59 -81q0 -40 11.5 -57t25.5 -20t22 -3zM432 102v74q0 196 -148 196q-42 0 -73 -17q67 -4 106.5 -50t39.5 -123
q0 -46 -14 -80h89z" />
    <glyph glyph-name="uniFEEC" unicode="&#x647;" horiz-adv-x="424" arabic-form="medial" 
d="M241 101q38 39 39 100q0 84 -58 121q-72 -97 -79 -221h98zM245 -203q-149 1 -195 203h-50v101h54q18 207 168 344q150 -100 150 -257q0 -45 -16 -87h83v-101h-77q12 -42 12 -75q-2 -100 -89 -123q-21 -5 -40 -5zM238 -96q42 0 42 43q0 27 -11 53h-120q10 -50 40 -75
q23 -21 49 -21z" />
    <glyph glyph-name="uniFEED" unicode="&#x648;" horiz-adv-x="478" arabic-form="isolated" 
d="M241 -197h-68v101h62q95 0 100 96h-23q-122 1 -175 41q-96 69 -97 185q0 118 88 188q61 47 139 47q93 0 171 -53v-406q-4 -198 -197 -199zM328 101v247q-30 20 -65 20q-42 0 -70 -29q-41 -45 -41 -107q0 -130 149 -131h27z" />
    <glyph glyph-name="uniFEEE" unicode="&#x648;" horiz-adv-x="492" arabic-form="final" 
d="M328 101v247q-30 20 -65 20q-42 0 -70 -29q-41 -45 -41 -107q0 -130 149 -131h27zM241 -197h-68v101h62q95 0 100 96q-144 0 -198 41q-96 69 -97 185q0 118 88 188q61 47 139 47q93 0 171 -53v-307h69v-101h-69q-5 -196 -197 -197z" />
    <glyph glyph-name="uniFEEF" unicode="&#x649;" horiz-adv-x="795" arabic-form="isolated" 
d="M295 -96q-109 0 -173 57q-81 73 -82 181q2 144 90 228l85 -61q-65 -74 -65 -163q0 -139 146 -140h113v391q73 21 164 21q181 -3 181 -202l1 -117h-110v113q0 115 -72 115q-32 0 -53 -10l-2 -388q0 -26 -23 -26z" />
    <glyph glyph-name="uniFEF0" unicode="&#x649;" horiz-adv-x="810" arabic-form="final" 
d="M295 -96q-109 0 -173 57q-81 73 -82 181q2 144 90 228l85 -61q-65 -74 -65 -163q0 -139 146 -140h113v391q73 21 164 21q181 -3 181 -202l1 -115h70v-101h-180v212q0 115 -72 115q-32 0 -53 -10l-2 -387q0 -26 -23 -26h-200z" />
    <glyph glyph-name="uniFEF1" unicode="&#x64a;" horiz-adv-x="795" arabic-form="isolated" 
d="M295 -96q-109 0 -173 57q-81 73 -82 181q2 144 90 228l85 -61q-65 -74 -65 -163q0 -139 146 -140h113v391q73 21 164 21q181 -3 181 -202l1 -117h-110v113q0 115 -72 115q-32 0 -53 -10l-2 -388q0 -26 -23 -26zM252 -279q-26 0 -45 18.5t-19 44.5q0 27 19 45.5t45 18.5
t44.5 -18.5t18.5 -45.5q0 -26 -18.5 -44.5t-44.5 -18.5zM398 -279q-26 0 -45 18.5t-19 44.5q0 27 19 45.5t45 18.5t44.5 -18.5t18.5 -45.5q0 -26 -18.5 -44.5t-44.5 -18.5z" />
    <glyph glyph-name="uniFEF2" unicode="&#x64a;" horiz-adv-x="810" arabic-form="final" 
d="M295 -96q-109 0 -173 57q-81 73 -82 181q2 144 90 228l85 -61q-65 -74 -65 -163q0 -139 146 -140h113v391q73 21 164 21q181 -3 181 -202l1 -115h70v-101h-180v212q0 115 -72 115q-32 0 -53 -10l-2 -387q0 -26 -23 -26h-200zM252 -279q-26 0 -45 18.5t-19 44.5
q0 27 19 45.5t45 18.5t44.5 -18.5t18.5 -45.5q0 -26 -18.5 -44.5t-44.5 -18.5zM398 -279q-26 0 -45 18.5t-19 44.5q0 27 19 45.5t45 18.5t44.5 -18.5t18.5 -45.5q0 -26 -18.5 -44.5t-44.5 -18.5z" />
    <glyph glyph-name="uniFEF3" unicode="&#x64a;" horiz-adv-x="296" arabic-form="initial" 
d="M0 0v101h123q23 0 23 30v279h110v-266q-3 -144 -107 -144h-149zM41 -199q-26 0 -45 18.5t-19 44.5q0 27 19 45.5t45 18.5t44.5 -18.5t18.5 -45.5q0 -26 -18.5 -44.5t-44.5 -18.5zM187 -199q-26 0 -45 18.5t-19 44.5q0 27 19 45.5t45 18.5t44.5 -18.5t18.5 -45.5
q0 -26 -18.5 -44.5t-44.5 -18.5z" />
    <glyph glyph-name="uniFEF4" unicode="&#x64a;" horiz-adv-x="320" arabic-form="medial" 
d="M335 0h-335v101h74q75 0 75 97v212h107v-207q0 -58 -15 -102h94v-101zM46 -199q-26 0 -45 18.5t-19 44.5q0 27 19 45.5t45 18.5t44.5 -18.5t18.5 -45.5q0 -26 -18.5 -44.5t-44.5 -18.5zM192 -199q-26 0 -45 18.5t-19 44.5q0 27 19 45.5t45 18.5t44.5 -18.5t18.5 -45.5
q0 -26 -18.5 -44.5t-44.5 -18.5z" />
    <glyph glyph-name=".notdef" horiz-adv-x="428" 
d="M60 0v630h308v-630h-308zM150 81h128v468h-128v-468z" />
    <glyph glyph-name="uni0000" 
 />
    <glyph glyph-name="uni0000" 
 />
    <glyph glyph-name="uni0009" horiz-adv-x="508" 
 />
    <glyph glyph-name="space" unicode=" " horiz-adv-x="150" 
 />
    <glyph glyph-name="space" unicode="&#xa0;" horiz-adv-x="150" 
 />
    <glyph glyph-name="exclam" unicode="!" horiz-adv-x="237" 
d="M119 -4q-26 0 -45 18.5t-19 44.5q0 27 19 45.5t45 18.5t44.5 -18.5t18.5 -45.5q0 -26 -18.5 -44.5t-44.5 -18.5zM170 578v-400h-110v400h110z" />
    <glyph glyph-name="quotedbl" unicode="&#x22;" horiz-adv-x="342" 
d="M257 433h-60v173h60v-173zM145 433h-60v173h60v-173z" />
    <glyph glyph-name="percent" unicode="%" horiz-adv-x="520" 
d="M74 -2l288 631h85l-288 -631h-85zM387 -11q-26 0 -45 18.5t-19 44.5q0 27 19 45.5t45 18.5t44.5 -18.5t18.5 -45.5q0 -26 -18.5 -44.5t-44.5 -18.5zM134 510q-26 0 -45 18.5t-19 44.5q0 27 19 45.5t45 18.5t44.5 -18.5t18.5 -45.5q0 -26 -18.5 -44.5t-44.5 -18.5z" />
    <glyph glyph-name="parenleft" unicode="(" horiz-adv-x="339" 
d="M239 0h-62q-50 63 -83.5 145t-33.5 171q0 158 117 314h61q-42 -73 -54 -101q-45 -101 -45 -213q0 -155 100 -316z" />
    <glyph glyph-name="parenright" unicode=")" horiz-adv-x="339" 
d="M100 0q101 161 101 316q0 112 -45 213q-13 28 -55 101h61q117 -156 117 -314q0 -89 -33.5 -171t-83.5 -145h-62z" />
    <glyph glyph-name="comma" unicode="," horiz-adv-x="274" 
d="M184 0h-94v83q0 47 25 74q23 24 68 28v-45q-39 -10 -39 -47h40v-93z" />
    <glyph glyph-name="period" unicode="." horiz-adv-x="319" 
d="M160 -4q-25 0 -42.5 17.5t-17.5 41.5q0 25 17.5 42t42.5 17q24 0 41.5 -17t17.5 -42q0 -24 -17.5 -41.5t-41.5 -17.5z" />
    <glyph glyph-name="slash" unicode="/" horiz-adv-x="453" 
d="M40 -2l288 631h85l-288 -631h-85z" />
    <glyph glyph-name="colon" unicode=":" horiz-adv-x="234" 
d="M125 84q-25 0 -42.5 17.5t-17.5 42.5q0 24 17.5 41.5t42.5 17.5q24 0 41.5 -17.5t17.5 -41.5q0 -25 -17.5 -42.5t-41.5 -17.5zM125 355q-25 0 -42.5 17.5t-17.5 42.5q0 24 17.5 41.5t42.5 17.5q24 0 41.5 -17.5t17.5 -41.5q0 -25 -17.5 -42.5t-41.5 -17.5z" />
    <glyph glyph-name="paragraph" unicode="&#xb6;" horiz-adv-x="630" 
d="M549 -438h-100v963h-123v-963h-97v592q-105 6 -167 69.5t-62 162.5q0 110 69 175.5t201 65.5h360v-102h-81v-963z" />
    <glyph glyph-name="uni060C" unicode="&#x60c;" horiz-adv-x="334" 
d="M168 -27q-20 0 -36 10q-31 19 -32 66q0 46 33 102.5t75 67.5q7 0 24 -7q-54 -53 -60 -107q25 -2 43.5 -20t18.5 -46q0 -27 -19.5 -46.5t-46.5 -19.5z" />
    <glyph glyph-name="uni061B" unicode="&#x61b;" horiz-adv-x="244" 
d="M122 -4q-21 0 -36.5 15.5t-15.5 37.5q0 21 15.5 36.5t36.5 15.5q22 0 37 -15.5t15 -36.5q0 -22 -15 -37.5t-37 -15.5zM123 132q-20 0 -36 10q-31 19 -32 66q6 106 108 170q7 0 24 -7q-54 -53 -60 -107q25 -2 43.5 -20t18.5 -46q0 -27 -19.5 -46.5t-46.5 -19.5z" />
    <glyph glyph-name="uni061F" unicode="&#x61f;" horiz-adv-x="581" 
d="M364 144h-106q-3 52 -13.5 76.5t-25.5 42.5t-40.5 42t-41 43t-26.5 46t-11 64q0 45 23.5 85t68 63.5t103.5 23.5q170 0 216 -174l-102 -29q-33 100 -111 100q-42 0 -63 -21t-21 -49q0 -25 11.5 -43t40.5 -47t48 -53t33 -61.5t17 -108.5zM310 -8q-27 0 -45.5 18.5
t-18.5 44.5q0 28 18.5 46.5t45.5 18.5q26 0 45 -18.5t19 -46.5q0 -26 -19 -44.5t-45 -18.5z" />
    <glyph glyph-name="uni0621" unicode="&#x621;" horiz-adv-x="352" 
d="M63 -1l-14 91l53 26q-62 45 -62 111q0 88 79 131q27 15 72 15q49 0 93 -21l-17 -85q-27 8 -48 8q-66 0 -66 -61q2 -60 100 -66q27 0 59 4l-4 -89q-140 -21 -245 -64z" />
    <glyph glyph-name="uni0622" unicode="&#x622;" horiz-adv-x="190" 
d="M150 0h-110v630h110v-630zM124 702q-20 0 -43 20q-13 12 -20 12q-13 0 -14 -32h-38q0 82 50 82q25 0 51 -23q11 -10 19 -10q15 0 18 37l28 -17q0 -69 -51 -69z" />
    <glyph glyph-name="uni0623" unicode="&#x623;" horiz-adv-x="190" 
d="M150 0h-110v630h110v-630zM40 682l-7 43l25 12q-29 21 -29 52q0 42 37 62q13 7 34 7q23 0 44 -10l-8 -40q-13 4 -23 4q-31 0 -31 -29q1 -28 47 -31q13 0 28 2l-2 -42q-66 -10 -115 -30z" />
    <glyph glyph-name="uni0624" unicode="&#x624;" horiz-adv-x="478" 
d="M241 -197h-68v101h62q95 0 100 96h-23q-122 1 -175 41q-96 69 -97 185q0 118 88 188q61 47 139 47q93 0 171 -53v-406q-4 -198 -197 -199zM328 101v247q-30 20 -65 20q-42 0 -70 -29q-41 -45 -41 -107q0 -130 149 -131h27zM64 469l-7 43l25 12q-29 21 -29 52q0 42 37 62
q13 7 34 7q23 0 44 -10l-8 -40q-13 4 -23 4q-31 0 -31 -29q1 -28 47 -31q13 0 28 2l-2 -42q-66 -10 -115 -30z" />
    <glyph glyph-name="uni0625" unicode="&#x625;" horiz-adv-x="190" 
d="M150 0h-110v630h110v-630zM39 -230l-7 43l25 12q-29 21 -29 52q0 42 37 62q13 7 34 7q23 0 44 -10l-8 -40q-13 4 -23 4q-31 0 -31 -29q1 -28 47 -31q13 0 28 2l-2 -42q-66 -10 -115 -30z" />
    <glyph glyph-name="uni0626" unicode="&#x626;" horiz-adv-x="795" 
d="M295 -97q-109 0 -173 58q-81 73 -82 181q2 144 90 228l85 -61q-65 -74 -65 -163q0 -139 146 -140h113v391q73 21 164 21q181 -3 181 -202l1 -117h-110v113q0 115 -72 115q-32 0 -53 -10l-2 -384q0 -26 -23 -26zM74 423l-7 43l25 12q-29 21 -29 52q0 42 37 62q13 7 34 7
q23 0 44 -10l-8 -40q-13 4 -23 4q-31 0 -31 -29q1 -28 47 -31q13 0 28 2l-2 -42q-66 -10 -115 -30z" />
    <glyph glyph-name="uni0627" unicode="&#x627;" horiz-adv-x="190" 
d="M150 630v-630h-110v630h110z" />
    <glyph glyph-name="uni0628" unicode="&#x628;" horiz-adv-x="655" 
d="M374 -196q-26 0 -45 18.5t-19 44.5q0 27 19 45.5t45 18.5t44.5 -18.5t18.5 -45.5q0 -26 -18.5 -44.5t-44.5 -18.5zM506 410h109v-384q0 -26 -23 -26h-297q-109 0 -173 58q-81 73 -82 181q1 93 38 161l98 -50q-26 -51 -26 -107q0 -141 146 -142h210v309z" />
    <glyph glyph-name="uni0629" unicode="&#x629;" horiz-adv-x="478" 
d="M438 0h-126q-122 1 -175 41q-96 69 -97 185q0 118 88 188q61 47 139 47q93 0 171 -53v-408zM328 101v247q-30 20 -65 20q-42 0 -70 -29q-41 -45 -41 -107q0 -130 149 -131h27zM152 519q-26 0 -45 18.5t-19 44.5q0 27 19 45.5t45 18.5t44.5 -18.5t18.5 -45.5
q0 -26 -18.5 -44.5t-44.5 -18.5zM298 519q-26 0 -45 18.5t-19 44.5q0 27 19 45.5t45 18.5t44.5 -18.5t18.5 -45.5q0 -26 -18.5 -44.5t-44.5 -18.5z" />
    <glyph glyph-name="uni062A" unicode="&#x62a;" horiz-adv-x="655" 
d="M251 470q-26 0 -45 18.5t-19 44.5q0 27 19 45.5t45 18.5t44.5 -18.5t18.5 -45.5q0 -26 -18.5 -44.5t-44.5 -18.5zM397 470q-26 0 -45 18.5t-19 44.5q0 27 19 45.5t45 18.5t44.5 -18.5t18.5 -45.5q0 -26 -18.5 -44.5t-44.5 -18.5zM506 410h109v-384q0 -26 -23 -26h-297
q-109 0 -173 58q-81 73 -82 181q1 93 38 161l98 -50q-26 -51 -26 -107q0 -141 146 -142h210v309z" />
    <glyph glyph-name="uni062B" unicode="&#x62b;" horiz-adv-x="655" 
d="M251 470q-26 0 -45 18.5t-19 44.5q0 27 19 45.5t45 18.5t44.5 -18.5t18.5 -45.5q0 -26 -18.5 -44.5t-44.5 -18.5zM397 470q-26 0 -45 18.5t-19 44.5q0 27 19 45.5t45 18.5t44.5 -18.5t18.5 -45.5q0 -26 -18.5 -44.5t-44.5 -18.5zM317 609q-26 0 -45 18.5t-19 44.5
q0 27 19 45.5t45 18.5t44.5 -18.5t18.5 -45.5q0 -26 -18.5 -44.5t-44.5 -18.5zM506 410h109v-384q0 -26 -23 -26h-297q-109 0 -173 58q-81 73 -82 181q1 93 38 161l98 -50q-26 -51 -26 -107q0 -141 146 -142h210v309z" />
    <glyph glyph-name="uni062C" unicode="&#x62c;" horiz-adv-x="569" 
d="M318 -197h-78q-198 0 -200 186v112h382v46q0 75 -41 125q-46 53 -122 53q-60 0 -112 -39q-18 -13 -36 -37l-62 77q80 102 209 102q121 0 199 -89q72 -87 72 -219v-120h-394q0 -96 116 -96h67v-101zM412 -210q-26 0 -45 18.5t-19 44.5q0 27 19 45.5t45 18.5t44.5 -18.5
t18.5 -45.5q0 -26 -18.5 -44.5t-44.5 -18.5z" />
    <glyph glyph-name="uni062D" unicode="&#x62d;" horiz-adv-x="569" 
d="M348 -197h-108q-198 0 -200 186v112h382v46q0 75 -41 125q-46 53 -122 53q-60 0 -112 -39q-18 -13 -36 -37l-62 77q80 102 209 102q121 0 199 -89q72 -87 72 -219v-120h-394q0 -96 116 -96h97v-101z" />
    <glyph glyph-name="uni062E" unicode="&#x62e;" horiz-adv-x="569" 
d="M348 -197h-108q-198 0 -200 186v112h382v46q0 75 -41 125q-46 53 -122 53q-60 0 -112 -39q-18 -13 -36 -37l-62 77q80 102 209 102q121 0 199 -89q72 -87 72 -219v-120h-394q0 -96 116 -96h97v-101zM179 491q-26 0 -45 18.5t-19 44.5q0 27 19 45.5t45 18.5t44.5 -18.5
t18.5 -45.5q0 -26 -18.5 -44.5t-44.5 -18.5z" />
    <glyph glyph-name="uni062F" unicode="&#x62f;" horiz-adv-x="457" 
d="M417 0h-365v101h255v101q-1 67 -30 100t-79 33q-52 0 -108 -49l-50 87q73 63 161 63q92 0 154 -63.5t62 -171.5v-201z" />
    <glyph glyph-name="uni0630" unicode="&#x630;" horiz-adv-x="457" 
d="M417 0h-365v101h255v101q-1 67 -30 100t-79 33q-52 0 -108 -49l-50 87q73 63 161 63q92 0 154 -63.5t62 -171.5v-201zM149 491q-26 0 -45 18.5t-19 44.5q0 27 19 45.5t45 18.5t44.5 -18.5t18.5 -45.5q0 -26 -18.5 -44.5t-44.5 -18.5z" />
    <glyph glyph-name="uni0631" unicode="&#x631;" horiz-adv-x="290" 
d="M48 -197h-58v101h47q103 0 103 97v409h110v-420q0 -187 -202 -187z" />
    <glyph glyph-name="uni0632" unicode="&#x632;" horiz-adv-x="292" 
d="M48 -197h-58v101h47q103 0 103 97v409h110v-420q0 -187 -202 -187zM193 491q-26 0 -45 18.5t-19 44.5q0 27 19 45.5t45 18.5t44.5 -18.5t18.5 -45.5q0 -26 -18.5 -44.5t-44.5 -18.5z" />
    <glyph glyph-name="uni0633" unicode="&#x633;" horiz-adv-x="1083" 
d="M340 -197h-45q-109 0 -173 57q-81 73 -82 181q2 144 90 228l85 -61q-65 -74 -65 -163q0 -139 146 -141h40q97 1 97 85v351h110v-239h58q39 0 53 8q29 17 29 88v182h110v-183q0 -95 69 -95q71 0 71 101v208h110v-202q-1 -102 -36 -153q-41 -61 -111 -61q-89 0 -135 54
q-45 -48 -122 -48h-96q-4 -197 -203 -197z" />
    <glyph glyph-name="uni0634" unicode="&#x634;" horiz-adv-x="1083" 
d="M340 -197h-45q-109 0 -173 57q-81 73 -82 181q2 144 90 228l85 -61q-65 -74 -65 -163q0 -139 146 -141h40q97 1 97 85v351h110v-239h58q39 0 53 8q29 17 29 88v182h110v-183q0 -95 69 -95q71 0 71 101v208h110v-202q-1 -102 -36 -153q-41 -61 -111 -61q-89 0 -135 54
q-45 -48 -122 -48h-96q-4 -197 -203 -197zM643 470q-26 0 -45 18.5t-19 44.5q0 27 19 45.5t45 18.5t44.5 -18.5t18.5 -45.5q0 -26 -18.5 -44.5t-44.5 -18.5zM789 470q-26 0 -45 18.5t-19 44.5q0 27 19 45.5t45 18.5t44.5 -18.5t18.5 -45.5q0 -26 -18.5 -44.5t-44.5 -18.5z
M709 609q-26 0 -45 18.5t-19 44.5q0 27 19 45.5t45 18.5t44.5 -18.5t18.5 -45.5q0 -26 -18.5 -44.5t-44.5 -18.5z" />
    <glyph glyph-name="uni0635" unicode="&#x635;" horiz-adv-x="1037" 
d="M871 101q16 51 16 94q0 56 -23 97q-35 67 -103 68q-67 0 -130 -60q-45 -43 -81 -114q-11 -23 -11 -31v-54h332zM340 -197h-45q-109 0 -173 57q-81 73 -82 181q2 144 90 228l85 -61q-65 -74 -65 -163q0 -139 146 -141h40q97 1 97 85v421h110v-82q45 64 109 102
q53 31 112 31q109 0 178 -93q55 -79 55 -164q0 -47 -11 -103l-20 -101h-423q-4 -197 -203 -197z" />
    <glyph glyph-name="uni0636" unicode="&#x636;" horiz-adv-x="1037" 
d="M582 491q-26 0 -45 18.5t-19 44.5q0 27 19 45.5t45 18.5t44.5 -18.5t18.5 -45.5q0 -26 -18.5 -44.5t-44.5 -18.5zM871 101q16 51 16 94q0 56 -23 97q-35 67 -103 68q-67 0 -130 -60q-45 -43 -81 -114q-11 -23 -11 -31v-54h332zM340 -197h-45q-109 0 -173 57
q-81 73 -82 181q2 144 90 228l85 -61q-65 -74 -65 -163q0 -139 146 -141h40q97 1 97 85v421h110v-82q45 64 109 102q53 31 112 31q109 0 178 -93q55 -79 55 -164q0 -47 -11 -103l-20 -101h-423q-4 -197 -203 -197z" />
    <glyph glyph-name="uni0637" unicode="&#x637;" horiz-adv-x="741" 
d="M575 101q16 51 16 94q0 56 -23 97q-35 67 -103 68q-67 0 -130 -60q-45 -43 -81 -114q-11 -23 -11 -31v-54h332zM670 0h-630v101h96q1 100 1 529h110v-302q45 64 109 102q53 31 112 31q109 0 178 -93q55 -79 55 -164q0 -47 -11 -103z" />
    <glyph glyph-name="uni0638" unicode="&#x638;" horiz-adv-x="741" 
d="M575 101q16 51 16 94q0 56 -23 97q-35 67 -103 68q-67 0 -130 -60q-45 -43 -81 -114q-11 -23 -11 -31v-54h332zM670 0h-630v101h96q1 100 1 529h110v-302q45 64 109 102q53 31 112 31q109 0 178 -93q55 -79 55 -164q0 -47 -11 -103zM369 491q-26 0 -45 18.5t-19 44.5
q0 27 19 45.5t45 18.5t44.5 -18.5t18.5 -45.5q0 -26 -18.5 -44.5t-44.5 -18.5z" />
    <glyph glyph-name="uni0639" unicode="&#x639;" horiz-adv-x="562" 
d="M338 -197h-98q-198 0 -200 186v112h129q-55 63 -55 152q0 94 63 158.5t171 64.5q102 0 170 -64l-38 -82q-65 45 -128 45q-58 0 -88.5 -36t-30.5 -88q0 -105 110 -150h179v-101h-387q0 -96 116 -96h87v-101z" />
    <glyph glyph-name="uni063A" unicode="&#x63a;" horiz-adv-x="562" 
d="M338 -197h-98q-198 0 -200 186v112h129q-55 63 -55 152q0 94 63 158.5t171 64.5q102 0 170 -64l-38 -82q-65 45 -128 45q-58 0 -88.5 -36t-30.5 -88q0 -105 110 -150h179v-101h-387q0 -96 116 -96h87v-101zM237 518q-26 0 -45 18.5t-19 44.5q0 27 19 45.5t45 18.5
t44.5 -18.5t18.5 -45.5q0 -26 -18.5 -44.5t-44.5 -18.5z" />
    <glyph glyph-name="uni0640" unicode="&#x640;" horiz-adv-x="146" 
d="M161 0h-161v101h161v-101z" />
    <glyph glyph-name="uni0641" unicode="&#x641;" horiz-adv-x="821" 
d="M671 101v247q-30 20 -65 20q-42 0 -70 -29q-41 -45 -41 -107q0 -130 149 -131h27zM781 0h-486q-109 0 -173 58q-81 73 -82 181q1 93 38 161l98 -50q-26 -51 -26 -107q0 -139 146 -140h123q-35 53 -36 123q0 118 88 188q61 47 139 47q93 0 171 -53v-408zM452 491
q-26 0 -45 18.5t-19 44.5q0 27 19 45.5t45 18.5t44.5 -18.5t18.5 -45.5q0 -26 -18.5 -44.5t-44.5 -18.5z" />
    <glyph glyph-name="uni0642" unicode="&#x642;" horiz-adv-x="663" 
d="M513 101v247q-30 20 -65 20q-42 0 -70 -29q-41 -45 -41 -107q0 -130 149 -131h27zM420 -197h-125q-109 0 -173 57q-81 73 -82 181q1 93 38 161l95 -57q-23 -47 -23 -100q0 -139 146 -141h120q97 1 97 83v13q-137 0 -191 41q-96 69 -97 185q0 118 88 188q61 47 139 47
q93 0 171 -53v-408q-4 -197 -203 -197zM253 507q-26 0 -45 18.5t-19 44.5q0 27 19 45.5t45 18.5t44.5 -18.5t18.5 -45.5q0 -26 -18.5 -44.5t-44.5 -18.5zM399 507q-26 0 -45 18.5t-19 44.5q0 27 19 45.5t45 18.5t44.5 -18.5t18.5 -45.5q0 -26 -18.5 -44.5t-44.5 -18.5z" />
    <glyph glyph-name="uni0643" unicode="&#x643;" horiz-adv-x="655" 
d="M506 630h109v-604q0 -26 -23 -26h-297q-109 0 -173 58q-81 73 -82 181q1 93 38 161l98 -50q-26 -51 -26 -107q0 -141 146 -142h210v529zM272 242l-10 57l34 16q-39 29 -39 69q0 56 50 83q17 9 45 9q31 0 60 -13l-11 -53q-18 5 -31 5q-42 0 -42 -39q2 -37 63 -41
q18 0 38 3l-3 -56q-88 -13 -154 -40z" />
    <glyph glyph-name="uni0644" unicode="&#x644;" horiz-adv-x="583" 
d="M340 -197h-45q-109 0 -173 57q-81 73 -82 181q2 144 90 228l85 -61q-65 -74 -65 -163q0 -139 146 -141h40q97 1 97 85v641h110v-622q0 -205 -203 -205z" />
    <glyph glyph-name="uni0645" unicode="&#x645;" horiz-adv-x="640" 
d="M400 57q96 0 96 132q0 156 -101 156q-96 -2 -96 -143q0 -145 101 -145zM166 -197h-100q-26 168 -26 213q0 167 156 208q3 98 50 155q51 62 148 62q95 0 150.5 -63.5t55.5 -178.5q0 -85 -30 -142q-50 -96 -158 -96q-106 0 -165 70q-28 33 -39 75q-67 -13 -67 -103
q0 -41 25 -200z" />
    <glyph glyph-name="uni0646" unicode="&#x646;" horiz-adv-x="583" 
d="M340 -197h-45q-109 0 -173 57q-81 73 -82 181q2 144 90 228l85 -61q-65 -74 -65 -163q0 -139 146 -141h40q97 1 97 85v421h110v-402q0 -205 -203 -205zM276 491q-26 0 -45 18.5t-19 44.5q0 27 19 45.5t45 18.5t44.5 -18.5t18.5 -45.5q0 -26 -18.5 -44.5t-44.5 -18.5z" />
    <glyph glyph-name="uni0647" unicode="&#x647;" horiz-adv-x="478" 
d="M438 0h-126q-122 1 -175 41q-96 69 -97 185q0 118 88 188q61 47 139 47q93 0 171 -53v-408zM328 101v247q-30 20 -65 20q-42 0 -70 -29q-41 -45 -41 -107q0 -130 149 -131h27z" />
    <glyph glyph-name="uni0648" unicode="&#x648;" horiz-adv-x="478" 
d="M241 -197h-68v101h62q95 0 100 96h-23q-122 1 -175 41q-96 69 -97 185q0 118 88 188q61 47 139 47q93 0 171 -53v-406q-4 -198 -197 -199zM328 101v247q-30 20 -65 20q-42 0 -70 -29q-41 -45 -41 -107q0 -130 149 -131h27z" />
    <glyph glyph-name="uni0649" unicode="&#x649;" horiz-adv-x="795" 
d="M295 -97q-109 0 -173 58q-81 73 -82 181q2 144 90 228l85 -61q-65 -74 -65 -163q0 -139 146 -140h113v391q73 21 164 21q181 -3 181 -202l1 -117h-110v113q0 115 -72 115q-32 0 -53 -10l-2 -384q0 -26 -23 -26z" />
    <glyph glyph-name="uni064A" unicode="&#x64a;" horiz-adv-x="795" 
d="M295 -96q-109 0 -173 57q-81 73 -82 181q2 144 90 228l85 -61q-65 -74 -65 -163q0 -139 146 -140h113v391q73 21 164 21q181 -3 181 -202l1 -117h-110v113q0 115 -72 115q-32 0 -53 -10l-2 -388q0 -26 -23 -26zM252 -279q-26 0 -45 18.5t-19 44.5q0 27 19 45.5t45 18.5
t44.5 -18.5t18.5 -45.5q0 -26 -18.5 -44.5t-44.5 -18.5zM398 -279q-26 0 -45 18.5t-19 44.5q0 27 19 45.5t45 18.5t44.5 -18.5t18.5 -45.5q0 -26 -18.5 -44.5t-44.5 -18.5z" />
    <glyph glyph-name="uni064B" unicode="&#x64b;" 
d="M-89 635v47l186 27v-47zM-90 704v47l186 27v-48z" />
    <glyph glyph-name="uni064C" unicode="&#x64c;" 
d="M22 691l36 8l1 12q0 28 -19 28q-19 -2 -20 -28q0 -13 2 -20zM-56 637h-3q-15 0 -21 13l-30 71l34 21l24 -63l34 5q-3 14 -3 25q0 25 18.5 46t47.5 22q26 0 42.5 -18.5t16.5 -46.5q0 -13 -2 -29t-19 -21z" />
    <glyph glyph-name="uni064D" unicode="&#x64d;" 
d="M-86 -166v47l186 27v-47zM-87 -97v47l186 26v-47z" />
    <glyph glyph-name="uni064E" unicode="&#x64e;" 
d="M-86 634v47l186 27v-47z" />
    <glyph glyph-name="uni064F" unicode="&#x64f;" 
d="M-74 634l6 43l50 8q-3 13 -3 23q0 27 18.5 47.5t47.5 21.5q26 0 42.5 -18t16.5 -47q0 -13 -2 -29.5t-18 -20.5zM23 691l36 8v11q0 29 -17 29q-18 0 -21 -28q0 -14 2 -20z" />
    <glyph glyph-name="uni0650" unicode="&#x650;" 
d="M-87 -129v47l186 27v-47z" />
    <glyph glyph-name="uni0651" unicode="&#x651;" 
d="M-53 647q-69 0 -74 72l-2 57l54 2q1 -27 2.5 -52.5t20.5 -25.5q25 0 25 48l-2 32l57 -1q0 -29 1.5 -52.5t21.5 -23.5q19 0 19 33q0 19 -6 50l57 4l2 -53q0 -85 -73 -85q-41 0 -51 22q-17 -27 -52 -27z" />
    <glyph glyph-name="uni0652" unicode="&#x652;" 
d="M-3 641q-72 0 -72 79q0 77 77 82q70 0 74 -82q0 -36 -22.5 -57.5t-56.5 -21.5zM-1 681q35 0 35 38q0 42 -35 42q-9 0 -20.5 -8.5t-11.5 -30.5q0 -41 32 -41z" />
    <glyph glyph-name="uni0653" unicode="&#x653;" 
d="M37 649q-24 0 -44 16q-8 6 -12.5 7.5t-8.5 1.5q-5 0 -7.5 -4t-2.5 -17h-50q6 71 57 71q25 0 48 -18q8 -5 11.5 -6.5t6.5 -1.5q6 0 9.5 7t7.5 28l42 -25q-11 -59 -57 -59z" />
    <glyph glyph-name="uni0654" unicode="&#x654;" 
d="M-54 642l-12 49q18 11 27 14q-24 21 -24 56q0 37 31 59q20 15 53 15q17 0 43 -4l-2 -50q-20 3 -30 3q-38 -1 -38 -28q3 -30 56 -31q12 0 33 3v-50q-78 -12 -137 -36z" />
    <glyph glyph-name="uni0655" unicode="&#x655;" 
d="M-64 -280l-12 50q18 10 27 13q-24 21 -24 57t31 59q20 15 53 15q17 0 44 -5l-2 -49q-21 3 -31 3q-38 -2 -38 -29q3 -30 57 -30q11 0 32 3v-50q-78 -12 -137 -37z" />
    <glyph glyph-name="uni0656" unicode="&#x656;" 
d="M-26 -210v157h52v-150z" />
    <glyph glyph-name="uni0658" unicode="&#x658;" 
d="M-5 650q-33 0 -53.5 18t-20.5 54v71h51v-69q0 -25 23 -25t23 25v90h51q0 -85 -1 -107q-10 -57 -73 -57z" />
    <glyph glyph-name="uni0660" unicode="&#x660;" horiz-adv-x="218" 
d="M178 147h-138v134h138v-134z" />
    <glyph glyph-name="uni0661" unicode="&#x661;" horiz-adv-x="190" 
d="M150 0h-110v629h110v-629z" />
    <glyph glyph-name="uni0662" unicode="&#x662;" horiz-adv-x="467" 
d="M150 0h-110v630h110v-232h7q79 0 119 22.5t41 98.5v111h110v-124q0 -205 -219 -205q-32 0 -58 2v-303z" />
    <glyph glyph-name="uni0663" unicode="&#x663;" horiz-adv-x="587" 
d="M150 0h-110v630h110v-233q93 0 95 122v111h107q0 -112 -1 -192q0 -18 32 -18q62 0 63 89v121h101v-120q-3 -133 -84 -184q-31 -20 -66 -20q-52 0 -103 40q-50 -45 -114 -45q-20 0 -30 1v-302z" />
    <glyph glyph-name="uni0664" unicode="&#x664;" horiz-adv-x="456" 
d="M416 0h-150q-102 0 -163.5 47t-62.5 132q0 111 93 161q-71 42 -73 130q0 160 286 160l3 -100l-79 -7q-96 -9 -96 -79q1 -61 115 -61q47 0 95 2l3 -94l-89 -2q-75 -2 -110 -34t-35 -76q1 -81 120 -81h143v-98z" />
    <glyph glyph-name="uni0665" unicode="&#x665;" horiz-adv-x="588" 
d="M294 -14q-118 0 -186 87.5t-68 235.5q0 147 70 236t185 89q116 0 184.5 -88t68.5 -237q0 -148 -67.5 -235.5t-186.5 -87.5zM297 82q66 0 99.5 58t33.5 168q0 225 -133 225q-135 0 -135 -225q0 -109 34 -167.5t101 -58.5z" />
    <glyph glyph-name="uni0666" unicode="&#x666;" horiz-adv-x="439" 
d="M399 0h-112v523h-247v106h359v-629z" />
    <glyph glyph-name="uni0667" unicode="&#x667;" horiz-adv-x="612" 
d="M158 629l149 -466l144 466h121l-202 -629h-120l-210 629h118z" />
    <glyph glyph-name="uni0668" unicode="&#x668;" horiz-adv-x="614" 
d="M456 -1l-149 466l-144 -466h-123l203 630h120l211 -630h-118z" />
    <glyph glyph-name="uni0669" unicode="&#x669;" horiz-adv-x="523" 
d="M253 309q40 0 73.5 33.5t33.5 74.5q0 47 -32 81t-71 34q-48 0 -77.5 -34.5t-29.5 -79.5q0 -44 31 -76.5t72 -32.5zM483 -1h-111v261q-40 -45 -128 -45q-52 0 -101 28.5t-76 77t-27 95.5q0 50 28.5 101.5t80.5 82t110 30.5q109 0 170 -83q54 -78 54 -185v-363z" />
    <glyph glyph-name="uni066A" unicode="&#x66a;" horiz-adv-x="520" 
d="M74 -2l288 631h85l-288 -631h-85zM387 -11q-26 0 -45 18.5t-19 44.5q0 27 19 45.5t45 18.5t44.5 -18.5t18.5 -45.5q0 -26 -18.5 -44.5t-44.5 -18.5zM134 510q-26 0 -45 18.5t-19 44.5q0 27 19 45.5t45 18.5t44.5 -18.5t18.5 -45.5q0 -26 -18.5 -44.5t-44.5 -18.5z" />
    <glyph glyph-name="uni066B" unicode="&#x66b;" horiz-adv-x="225" 
d="M145 -116h-90l26 168h89z" />
    <glyph glyph-name="uni066C" unicode="&#x66c;" horiz-adv-x="214" 
d="M55 -130v49q44 11 44 54h-44v104h104v-93q0 -105 -104 -114z" />
    <glyph glyph-name="uni066D" unicode="&#x66d;" horiz-adv-x="327" 
d="M204 408l-39 55l-40 -55l-46 33l39 54l-63 20l22 52l58 -20v68h59v-68l59 20l19 -52l-61 -20l39 -54z" />
    <glyph glyph-name="uni0670" unicode="&#x670;" 
d="M-20 632l-3 140h50l-1 -120z" />
    <glyph glyph-name="uni0671" unicode="&#x671;" horiz-adv-x="190" 
d="M150 0h-110v630h110v-630zM139 717q4 10 4 19q0 10 -6 19q-8 13 -26 13q-34 0 -54 -51h82zM169 683h-164v34h20q36 86 89 86q32 0 50 -20q13 -16 13 -45q0 -15 -8 -55z" />
    <glyph glyph-name="uni0679" unicode="&#x679;" horiz-adv-x="659" 
d="M379 526q4 10 4 19q0 10 -5 18q-9 14 -28 14q-35 0 -56 -51h85zM293 580q26 32 58 32t50 -20q13 -16 13 -45q0 -15 -8 -55h-164v34h20v111h31v-57zM506 410h113q-1 0 -2 -1l-2 -383q0 -26 -23 -26h-297q-109 0 -173 58q-81 73 -82 181q1 93 38 161l98 -50
q-26 -51 -26 -107q0 -141 146 -142h210v309z" />
    <glyph glyph-name="uni067E" unicode="&#x67e;" horiz-adv-x="659" 
d="M285 -179q-26 0 -45 18.5t-19 44.5q0 27 19 45.5t45 18.5t44.5 -18.5t18.5 -45.5q0 -26 -18.5 -44.5t-44.5 -18.5zM431 -179q-26 0 -45 18.5t-19 44.5q0 27 19 45.5t45 18.5t44.5 -18.5t18.5 -45.5q0 -26 -18.5 -44.5t-44.5 -18.5zM351 -307q-26 0 -45 18.5t-19 44.5
q0 27 19 45.5t45 18.5t44.5 -18.5t18.5 -45.5q0 -26 -18.5 -44.5t-44.5 -18.5zM506 410h113q-1 0 -2 -1l-2 -383q0 -26 -23 -26h-297q-109 0 -173 58q-81 73 -82 181q1 93 38 161l98 -50q-26 -51 -26 -107q0 -141 146 -142h210v309z" />
    <glyph glyph-name="uni0686" unicode="&#x686;" horiz-adv-x="569" 
d="M246 -96v-101h-6q-198 0 -200 186v112h382v46q0 75 -41 125q-46 53 -122 53q-60 0 -112 -39q-18 -13 -36 -37l-62 77q80 102 209 102q121 0 199 -89q72 -87 72 -219v-120h-394q0 -94 111 -96zM335 -179q-26 0 -45 18.5t-19 44.5q0 27 19 45.5t45 18.5t44.5 -18.5
t18.5 -45.5q0 -26 -18.5 -44.5t-44.5 -18.5zM481 -179q-26 0 -45 18.5t-19 44.5q0 27 19 45.5t45 18.5t44.5 -18.5t18.5 -45.5q0 -26 -18.5 -44.5t-44.5 -18.5zM401 -307q-26 0 -45 18.5t-19 44.5q0 27 19 45.5t45 18.5t44.5 -18.5t18.5 -45.5q0 -26 -18.5 -44.5
t-44.5 -18.5z" />
    <glyph glyph-name="uni0688" unicode="&#x688;" horiz-adv-x="457" 
d="M417 0h-365v101h255v101q-1 67 -30 100t-79 33q-52 0 -108 -49l-50 87q73 63 161 63q92 0 154 -63.5t62 -171.5v-201zM199 546q4 10 4 19q0 10 -5 18q-9 14 -28 14q-35 0 -56 -51h85zM113 600q26 32 58 32t50 -20q13 -16 13 -45q0 -15 -8 -55h-164v34h20v111h31v-57z" />
    <glyph glyph-name="uni0691" unicode="&#x691;" horiz-adv-x="290" 
d="M48 -197h-58v101h47q103 0 103 97v409h110v-420q0 -187 -202 -187zM227 526q4 10 4 19q0 10 -5 18q-9 14 -28 14q-35 0 -56 -51h85zM141 580q26 32 58 32t50 -20q13 -16 13 -45q0 -15 -8 -55h-164v34h20v111h31v-57z" />
    <glyph glyph-name="uni0698" unicode="&#x698;" horiz-adv-x="290" 
d="M48 -197h-58v101h47q103 0 103 97v409h110v-420q0 -187 -202 -187zM74 470q-26 0 -45 18.5t-19 44.5q0 27 19 45.5t45 18.5t44.5 -18.5t18.5 -45.5q0 -26 -18.5 -44.5t-44.5 -18.5zM220 470q-26 0 -45 18.5t-19 44.5q0 27 19 45.5t45 18.5t44.5 -18.5t18.5 -45.5
q0 -26 -18.5 -44.5t-44.5 -18.5zM140 609q-26 0 -45 18.5t-19 44.5q0 27 19 45.5t45 18.5t44.5 -18.5t18.5 -45.5q0 -26 -18.5 -44.5t-44.5 -18.5z" />
    <glyph glyph-name="uni06A4" unicode="&#x6a4;" horiz-adv-x="821" 
d="M671 101v247q-30 20 -65 20q-42 0 -70 -29q-41 -45 -41 -107q0 -130 149 -131h27zM781 0h-486q-109 0 -173 58q-81 73 -82 181q1 93 38 161l98 -50q-26 -51 -26 -107q0 -141 146 -142h124q-36 55 -37 125q0 118 88 188q61 47 139 47q93 0 171 -53v-408zM356 491
q-26 0 -45 18.5t-19 44.5q0 27 19 45.5t45 18.5t44.5 -18.5t18.5 -45.5q0 -26 -18.5 -44.5t-44.5 -18.5zM502 491q-26 0 -45 18.5t-19 44.5q0 27 19 45.5t45 18.5t44.5 -18.5t18.5 -45.5q0 -26 -18.5 -44.5t-44.5 -18.5zM422 630q-26 0 -45 18.5t-19 44.5q0 27 19 45.5
t45 18.5t44.5 -18.5t18.5 -45.5q0 -26 -18.5 -44.5t-44.5 -18.5z" />
    <glyph glyph-name="uni06A9" unicode="&#x6a9;" horiz-adv-x="692" 
d="M295 0q-109 0 -173 58q-81 73 -82 181q1 93 38 161l98 -50q-26 -51 -26 -107q0 -141 146 -142h232q-23 181 -242 226v106l341 197l25 -104l-239 -136q229 -76 236 -390h-354z" />
    <glyph glyph-name="uni06AF" unicode="&#x6af;" horiz-adv-x="692" 
d="M617 671l-332 -188l1 104l309 179zM295 0q-109 0 -173 58q-81 73 -82 181q1 93 38 161l98 -50q-26 -51 -26 -107q0 -141 146 -142h232q-23 181 -242 226v106l341 197l25 -104l-239 -136q229 -76 236 -390h-354z" />
    <glyph glyph-name="uni06BA" unicode="&#x6ba;" horiz-adv-x="583" 
d="M340 -197h-45q-109 0 -173 57q-81 73 -82 181q2 144 90 228l85 -61q-65 -74 -65 -163q0 -139 146 -141h40q97 1 97 85v421h110v-402q0 -205 -203 -205z" />
    <glyph glyph-name="uni06BE" unicode="&#x6be;" horiz-adv-x="619" 
d="M576 0h-536v102h62q-15 34 -15 80q0 112 84 157l-41 62q94 67 217 67q104 0 168 -68.5t64 -201.5zM244 102q11 0 25 3t24.5 20t10.5 57q0 81 -60 81q-59 0 -59 -81q0 -40 11.5 -57t25.5 -20t22 -3zM472 102v74q0 196 -148 196q-42 0 -73 -17q67 -4 106.5 -50t39.5 -123
q0 -46 -14 -80h89z" />
    <glyph glyph-name="uni06C1" unicode="&#x6c1;" horiz-adv-x="478" 
d="M438 0h-126q-122 1 -175 41q-96 69 -97 185q0 118 88 188q61 47 139 47q93 0 171 -53v-408zM328 101v247q-30 20 -65 20q-42 0 -70 -29q-41 -45 -41 -107q0 -130 149 -131h27z" />
    <glyph glyph-name="uni06C2" unicode="&#x6c2;" horiz-adv-x="478" 
d="M438 0h-126q-122 1 -175 41q-96 69 -97 185q0 118 88 188q61 47 139 47q93 0 171 -53v-408zM328 101v247q-30 20 -65 20q-42 0 -70 -29q-41 -45 -41 -107q0 -130 149 -131h27zM80 469l-7 43l25 12q-29 21 -29 52q0 42 37 62q13 7 34 7q23 0 44 -10l-8 -40q-13 4 -23 4
q-31 0 -31 -29q1 -28 47 -31q13 0 28 2l-2 -42q-66 -10 -115 -30z" />
    <glyph glyph-name="uni06C3" unicode="&#x6c3;" horiz-adv-x="478" 
d="M438 0h-126q-122 1 -175 41q-96 69 -97 185q0 118 88 188q61 47 139 47q93 0 171 -53v-408zM328 101v247q-30 20 -65 20q-42 0 -70 -29q-41 -45 -41 -107q0 -130 149 -131h27zM152 519q-26 0 -45 18.5t-19 44.5q0 27 19 45.5t45 18.5t44.5 -18.5t18.5 -45.5
q0 -26 -18.5 -44.5t-44.5 -18.5zM298 519q-26 0 -45 18.5t-19 44.5q0 27 19 45.5t45 18.5t44.5 -18.5t18.5 -45.5q0 -26 -18.5 -44.5t-44.5 -18.5z" />
    <glyph glyph-name="uni06CC" unicode="&#x6cc;" horiz-adv-x="795" 
d="M295 -97q-109 0 -173 58q-81 73 -82 181q2 144 90 228l85 -61q-65 -74 -65 -163q0 -139 146 -140h113v391q73 21 164 21q181 -3 181 -202l1 -117h-110v113q0 115 -72 115q-32 0 -53 -10l-2 -384q0 -26 -23 -26z" />
    <glyph glyph-name="uni06D2" unicode="&#x6d2;" horiz-adv-x="611" 
d="M591 101q-19 -101 -156 -101h-374q-21 74 -21 165q3 181 202 181l84 1v-90h-80q-115 0 -115 -103q0 -32 10 -53h450z" />
    <glyph glyph-name="uni06D3" unicode="&#x6d3;" horiz-adv-x="611" 
d="M591 101q-19 -101 -156 -101h-374q-21 74 -21 165q3 181 202 181l84 1v-90h-80q-115 0 -115 -103q0 -32 10 -53h450zM80 378l-7 43l25 12q-29 21 -29 52q0 42 37 62q13 7 34 7q23 0 44 -10l-8 -40q-13 4 -23 4q-31 0 -31 -29q1 -28 47 -31q13 0 28 2l-2 -42
q-66 -10 -115 -30z" />
    <glyph glyph-name="uni06D4" unicode="&#x6d4;" horiz-adv-x="319" 
d="M160 -4q-25 0 -42.5 17.5t-17.5 41.5q0 25 17.5 42t42.5 17q24 0 41.5 -17t17.5 -42q0 -24 -17.5 -41.5t-41.5 -17.5z" />
    <glyph glyph-name="uni06F0" unicode="&#x6f0;" horiz-adv-x="218" 
d="M178 147h-138v134h138v-134z" />
    <glyph glyph-name="uni06F1" unicode="&#x6f1;" horiz-adv-x="190" 
d="M150 0h-110v629h110v-629z" />
    <glyph glyph-name="uni06F2" unicode="&#x6f2;" horiz-adv-x="467" 
d="M150 0h-110v630h110v-232h7q79 0 119 22.5t41 98.5v111h110v-124q0 -205 -219 -205q-32 0 -58 2v-303z" />
    <glyph glyph-name="uni06F3" unicode="&#x6f3;" horiz-adv-x="587" 
d="M150 0h-110v630h110v-233q93 0 95 122v111h107q0 -112 -1 -192q0 -18 32 -18q62 0 63 89v121h101v-120q-3 -133 -84 -184q-31 -20 -66 -20q-52 0 -103 40q-50 -45 -114 -45q-20 0 -30 1v-302z" />
    <glyph glyph-name="uni06F4" unicode="&#x6f4;" horiz-adv-x="513" 
d="M150 0h-110v629h110v-257q26 -15 67 -15q28 0 58 6q-65 32 -70 118q0 62 40.5 100.5t102.5 38.5q69 0 114 -53l-51 -61q-35 45 -66 45q-14 0 -31 -17.5t-17 -53.5q0 -39 24 -61q24 -17 61 -17l81 50l1 -83q-101 -105 -250 -105q-39 0 -64 6v-270z" />
    <glyph glyph-name="uni06F5" unicode="&#x6f5;" horiz-adv-x="538" 
d="M264 92q121 0 121 116q0 160 -127 275q-60 -56 -92 -147q-19 -56 -19 -107q0 -84 53 -120q26 -17 64 -17zM276 -8q-117 1 -179 69q-57 65 -57 159q0 79 33 154q50 118 122 190l-25 25l66 73q58 -49 139 -149q123 -160 123 -288q-4 -233 -222 -233z" />
    <glyph glyph-name="uni06F6" unicode="&#x6f6;" horiz-adv-x="476" 
d="M165 -5l-82 89q43 66 110 139l-44 28q-109 70 -109 191q2 78 63.5 134t151.5 56q100 0 161 -62l-69 -86q-45 53 -86 53q-39 -1 -71 -31q-35 -33 -35 -83q0 -54 40.5 -80.5t77.5 -26.5q56 0 146 76l17 -122q-153 -86 -271 -275z" />
    <glyph glyph-name="uni06F7" unicode="&#x6f7;" horiz-adv-x="612" 
d="M158 629l149 -466l144 466h121l-202 -629h-120l-210 629h118z" />
    <glyph glyph-name="uni06F8" unicode="&#x6f8;" horiz-adv-x="614" 
d="M456 -1l-149 466l-144 -466h-123l203 630h120l211 -630h-118z" />
    <glyph glyph-name="uni06F9" unicode="&#x6f9;" horiz-adv-x="523" 
d="M253 309q40 0 73.5 33.5t33.5 74.5q0 47 -32 81t-71 34q-48 0 -77.5 -34.5t-29.5 -79.5q0 -44 31 -76.5t72 -32.5zM483 -1h-111v261q-40 -45 -128 -45q-52 0 -101 28.5t-76 77t-27 95.5q0 50 28.5 101.5t80.5 82t110 30.5q109 0 170 -83q54 -78 54 -185v-363z" />
    <glyph glyph-name="uni2002" unicode="&#x2002;" horiz-adv-x="850" 
 />
    <glyph glyph-name="uni2003" unicode="&#x2003;" horiz-adv-x="1700" 
 />
    <glyph glyph-name="uni2009" unicode="&#x2009;" horiz-adv-x="250" 
 />
    <glyph glyph-name="uni200A" unicode="&#x200a;" horiz-adv-x="30" 
 />
    <glyph glyph-name="uni200C" unicode="&#x200c;" horiz-adv-x="32" 
 />
    <glyph glyph-name="uni200D" unicode="&#x200d;" horiz-adv-x="32" 
d="M159 840h-33v66h-219v-66h-32v99h284v-99z" />
    <glyph glyph-name="uni200E" unicode="&#x200e;" horiz-adv-x="32" 
d="M146 823l-24 25l59 58h-149v-61h-32v94h181l-59 56l24 25l98 -99z" />
    <glyph glyph-name="uni200F" unicode="&#x200f;" horiz-adv-x="32" 
d="M-115 824l-98 97l98 99l24 -22l-59 -59h182v-93h-32v60h-148l57 -58z" />
    <glyph glyph-name="uni2010" unicode="&#x2010;" horiz-adv-x="458" 
d="M418 143h-378v101h378v-101z" />
    <glyph glyph-name="endash" unicode="&#x2013;" horiz-adv-x="541" 
d="M501 163h-447v101h447v-101z" />
    <glyph glyph-name="emdash" unicode="&#x2014;" horiz-adv-x="975" 
d="M935 163h-895v101h895v-101z" />
    <glyph glyph-name="quoteleft" unicode="&#x2018;" horiz-adv-x="240" 
d="M123 409q-29 0 -48.5 22t-19.5 57q1 43 31 85t76 56l20 -42q-37 -24 -42 -55q16 -4 30.5 -21.5t14.5 -39.5q0 -30 -22 -48q-18 -14 -40 -14z" />
    <glyph glyph-name="quoteright" unicode="&#x2019;" horiz-adv-x="240" 
d="M117 629q29 0 52 -26q16 -18 16 -53q-1 -43 -31 -85t-76 -56l-20 42q37 24 42 55q-16 4 -30.5 21.5t-14.5 39.5q0 30 22 48q18 14 40 14z" />
    <glyph glyph-name="quotesinglbase" unicode="&#x201a;" horiz-adv-x="206" 
d="M104 -50q-14 0 -24 11t-10 29q0 22 15.5 43t38.5 28l10 -21q-19 -12 -21 -28q23 -8 23 -31q0 -15 -9.5 -23t-22.5 -8z" />
    <glyph glyph-name="quotedblleft" unicode="&#x201c;" horiz-adv-x="427" 
d="M138 409q-29 0 -48.5 22t-19.5 57q1 43 31 85t76 56l20 -42q-37 -24 -42 -55q16 -4 30.5 -21.5t14.5 -39.5q0 -30 -22 -48q-18 -14 -40 -14zM295 409q-29 0 -48.5 22t-19.5 57q1 43 31 85t76 56l20 -42q-37 -24 -42 -55q16 -4 30.5 -21.5t14.5 -39.5q0 -30 -22 -48
q-18 -14 -40 -14z" />
    <glyph glyph-name="quotedblright" unicode="&#x201d;" horiz-adv-x="427" 
d="M289 629q29 0 48.5 -22t19.5 -57q-1 -43 -31 -85t-76 -56l-20 42q37 24 42 55q-16 4 -30.5 21.5t-14.5 39.5q0 30 22 48q18 14 40 14zM132 629q29 0 48.5 -22t19.5 -57q-1 -43 -31 -85t-76 -56l-20 42q37 24 42 55q-16 4 -30.5 21.5t-14.5 39.5q0 30 22 48q18 14 40 14z
" />
    <glyph glyph-name="quotedblbase" unicode="&#x201e;" horiz-adv-x="427" 
d="M289 119q29 0 48.5 -22t19.5 -57q-1 -43 -31 -85t-76 -56l-20 42q37 24 42 55q-16 4 -30.5 21.5t-14.5 39.5q0 30 22 48q18 14 40 14zM132 119q29 0 48.5 -22t19.5 -57q-1 -43 -31 -85t-76 -56l-20 42q37 24 42 55q-16 4 -30.5 21.5t-14.5 39.5q0 30 22 48q18 14 40 14z
" />
    <glyph glyph-name="dagger" unicode="&#x2020;" horiz-adv-x="591" 
d="M341 -102h-91v467h-195v82h195v183h91v-183h195v-82h-195v-467z" />
    <glyph glyph-name="daggerdbl" unicode="&#x2021;" horiz-adv-x="591" 
d="M341 -102h-91v183h-195v82h195v202h-195v82h195v183h91v-183h195v-82h-195v-202h195v-82h-195v-183z" />
    <glyph glyph-name="bullet" unicode="&#x2022;" horiz-adv-x="354" 
d="M177 175q-50 0 -86 36t-36 85q0 50 36 86t86 36t86 -36t36 -86q0 -49 -36 -85t-86 -36z" />
    <glyph glyph-name="ellipsis" unicode="&#x2026;" horiz-adv-x="622" 
d="M100 -4q-25 0 -42.5 17.5t-17.5 41.5q0 25 17.5 42t42.5 17q24 0 41.5 -17t17.5 -42q0 -24 -17.5 -41.5t-41.5 -17.5zM311 -4q-25 0 -42.5 17.5t-17.5 41.5q0 25 17.5 42t42.5 17q24 0 41.5 -17t17.5 -42q0 -24 -17.5 -41.5t-41.5 -17.5zM523 -4q-25 0 -42.5 17.5
t-17.5 41.5q0 25 17.5 42t42.5 17q24 0 41.5 -17t17.5 -42q0 -24 -17.5 -41.5t-41.5 -17.5z" />
    <glyph glyph-name="uni202A" unicode="&#x202a;" horiz-adv-x="32" 
d="M-18 818l-23 23l75 75l-75 75l23 24l98 -99z" />
    <glyph glyph-name="uni202B" unicode="&#x202b;" horiz-adv-x="32" 
d="M45 818l-98 98l98 99l23 -24l-75 -75l75 -75z" />
    <glyph glyph-name="uni202C" unicode="&#x202c;" horiz-adv-x="33" 
d="M33 845h-33v121l-56 -56l-24 23l98 97l97 -97l-24 -23l-58 56v-121z" />
    <glyph glyph-name="uni202D" unicode="&#x202d;" horiz-adv-x="32" 
d="M44 818l-23 23l75 75l-75 75l23 24l98 -99zM-76 818l-23 23l75 75l-75 75l23 24l98 -99z" />
    <glyph glyph-name="uni202E" unicode="&#x202e;" horiz-adv-x="32" 
d="M-17 818l-98 98l98 99l23 -24l-75 -75l75 -75zM103 818l-98 98l98 99l23 -24l-75 -75l75 -75z" />
    <glyph glyph-name="perthousand" unicode="&#x2030;" horiz-adv-x="807" 
d="M158 416q-47 0 -75 31.5t-28 81.5q0 52 29 83t74 31t73.5 -30.5t28.5 -83.5q0 -51 -28 -82t-74 -31zM157 472q19 0 29 15.5t10 41.5q0 27 -10.5 42.5t-28.5 15.5t-28 -16t-10 -42t10.5 -41.5t27.5 -15.5zM406 -2q-47 0 -75 31.5t-28 82.5t29 82.5t74 31.5t73.5 -31
t28.5 -83q0 -51 -28 -82.5t-74 -31.5zM406 54q18 0 28 16t10 42q0 27 -10.5 42.5t-27.5 15.5q-19 0 -29 -16t-10 -42q0 -27 10.5 -42.5t28.5 -15.5zM650 54q18 0 28 16t10 42q0 27 -10.5 42.5t-27.5 15.5q-18 0 -28.5 -16t-10.5 -42q0 -27 10.5 -42.5t28.5 -15.5zM650 -2
q-46 0 -74.5 31.5t-28.5 82.5t29.5 82.5t73.5 31.5q45 0 73.5 -31t28.5 -83q0 -51 -28 -82.5t-74 -31.5zM87 -2l288 631h85l-288 -631h-85z" />
    <glyph glyph-name="guilsinglleft" unicode="&#x2039;" horiz-adv-x="264" 
d="M224 63h-87l-97 176l97 172h87l-86 -172z" />
    <glyph glyph-name="guilsinglright" unicode="&#x203a;" horiz-adv-x="264" 
d="M127 63h-87l86 172l-86 176h87l97 -176z" />
    <glyph glyph-name="fraction" unicode="&#x2044;" horiz-adv-x="453" 
d="M40 -2l288 631h85l-288 -631h-85z" />
    <glyph glyph-name="Euro" unicode="&#x20ac;" horiz-adv-x="610" 
d="M392 -6q-225 0 -261 216h-76v55h72q0 47 3 92h-75v56h81q47 222 271 222q88 0 139 -27l-20 -75q-40 23 -120 23q-133 0 -158 -143h183v-56h-192q-2 -21 -2 -43q0 -27 3 -49h191v-55h-184q22 -136 162 -136q73 0 123 31l23 -70q-65 -41 -163 -41z" />
    <glyph glyph-name="lozenge" unicode="&#x25ca;" horiz-adv-x="643" 
d="M361 0h-76l-230 316l228 314h75l230 -317zM325 68l175 240l-185 253l-173 -240z" />
    <glyph glyph-name="uni25CC" unicode="&#x25cc;" horiz-adv-x="670" 
d="M96 228q-41 0 -41 41q0 43 41 43q46 0 46 -43q0 -41 -46 -41zM572 228q-41 0 -41 41q0 43 41 43q43 0 43 -43q0 -41 -43 -41zM336 463q-44 0 -44 45q0 43 44 43q42 0 42 -43q0 -45 -42 -45zM336 -11q-44 0 -44 43t44 43q42 0 42 -43t-42 -43zM544 345q-43 0 -43 45
q0 42 43 42q41 0 41 -42q0 -45 -41 -45zM544 108q-43 0 -43 42q0 43 43 43q41 0 41 -43q0 -42 -41 -42zM127 345q-42 0 -42 45q0 42 42 42q45 0 45 -42q0 -45 -45 -45zM127 108q-42 0 -42 42q0 43 42 43q45 0 45 -43q0 -42 -45 -42zM214 434q-39 0 -39 43t39 43q45 0 45 -43
t-45 -43zM454 434q-19 0 -31.5 11t-12.5 32q0 43 44 43q42 0 42 -43t-42 -43zM214 20q-39 0 -39 41q0 45 39 45q45 0 45 -45q0 -41 -45 -41zM454 20q-44 0 -44 41q0 21 12.5 33t31.5 12q42 0 42 -45q0 -41 -42 -41z" />
    <glyph glyph-name="uni274A" unicode="&#x274a;" horiz-adv-x="388" 
d="M194 389q-15 0 -26.5 11t-11.5 27q0 15 11 26q16 15 16 28v45l-38 -22q-11 -7 -16 -28q-4 -15 -18 -24q-9 -5 -19 -5q-21 0 -32 19q-5 10 -5 19q0 21 19 33q9 5 18 5l10 -1q11 -5 20 -5q6 0 53 27l-40 22q-6 3 -13 3q-9 0 -20 -3q-5 -2 -10 -2q-9 0 -18 6q-19 10 -19 33
q0 9 5 18q11 19 32 19q10 0 19 -6q14 -6 18 -22q5 -22 16 -29l38 -23v46q0 13 -16 28q-11 11 -11 27q0 15 11.5 26t26.5 11q16 0 27 -11t11 -26q0 -16 -12 -27q-16 -15 -16 -28v-46l39 23q11 7 16 29q5 15 17 22q10 6 19 6q22 0 33 -19q5 -9 5 -18q0 -23 -19 -33
q-9 -6 -19 -6q-4 0 -9 2q-11 3 -20 3q-8 0 -13 -3l-39 -22l39 -23q5 -4 13 -4q9 0 20 5l9 1q10 0 19 -5q19 -12 19 -33q0 -9 -5 -19q-11 -19 -33 -19q-28 0 -36 29q-5 21 -16 28l-39 22v-45q0 -13 16 -28q12 -11 12 -26q0 -16 -11 -27t-27 -11z" />
    <glyph glyph-name="uni064B0651" 
d="M-55 637q-69 0 -74 72l-2 57l54 2q1 -27 2.5 -52.5t20.5 -25.5q25 0 25 48l-2 32l57 -1q0 -29 1.5 -52.5t21.5 -23.5q19 0 19 33q0 19 -6 50l57 4l2 -53q0 -85 -73 -85q-41 0 -51 22q-16 -27 -52 -27zM-100 812l-3 43l203 27l1 -44z" />
    <glyph glyph-name="HamzDamma_ar" 
d="M-55 641l-12 49q19 11 27 14q-23 21 -23 56q0 37 31 59q20 15 53 15q17 0 43 -4l-2 -50q-20 3 -30 3q-38 -1 -38 -28q3 -30 56 -31q12 0 33 3v-50q-79 -12 -138 -36zM-95 843l5 43l50 8q-3 13 -3 24q0 26 18.5 46.5t47.5 21.5q27 0 43.5 -18t16.5 -47q0 -13 -2.5 -29.5
t-18.5 -20.5zM1 900l36 8v11q0 29 -16 29q-19 0 -22 -28q0 -14 2 -20z" />
    <glyph glyph-name="HamzFatha_ar" 
d="M-55 641l-12 49q19 11 27 14q-23 21 -23 56q0 37 31 59q20 15 53 15q17 0 43 -4l-2 -50q-20 3 -30 3q-38 -1 -38 -28q3 -30 56 -31q12 0 33 3v-50q-79 -12 -138 -36zM-94 855v47l186 27v-47z" />
    <glyph glyph-name="HamzSkoon_ar" 
d="M-54 641l-12 49q18 11 27 14q-24 21 -24 56q0 37 31 59q20 15 53 15q17 0 43 -4l-2 -50q-20 3 -30 3q-38 -1 -38 -28q3 -30 56 -31q12 0 33 3v-50q-78 -12 -137 -36zM-3 849q-72 0 -72 79q0 77 77 82q70 0 74 -82q0 -36 -22.5 -57.5t-56.5 -21.5zM-1 889q35 0 35 39
q0 41 -35 41q-9 0 -20.5 -8t-11.5 -31q0 -41 32 -41z" />
    <glyph glyph-name="HamzDammateen_ar" 
d="M-55 638l-12 49q19 11 27 14q-23 21 -23 56q0 37 30 59q20 15 54 15q16 0 43 -4l-2 -50q-21 3 -30 3q-39 -1 -39 -28q4 -30 57 -31q11 0 32 3v-50q-78 -12 -137 -36zM9 897l36 8q1 2 1 12q0 29 -19 29q-20 -4 -20 -34q0 -8 2 -15zM-69 843h-3q-15 0 -21 13l-30 71l34 21
l25 -63l33 5q-3 15 -3 25q0 25 18.5 46t47.5 22q26 0 42.5 -18.5t16.5 -46.5q0 -13 -2 -29t-18 -21z" />
    <glyph glyph-name="HamzFathateen_ar" 
d="M-55 636l-12 49q19 11 27 14q-23 21 -23 56q0 37 31 59q20 15 53 15q17 0 43 -4l-2 -50q-20 3 -30 3q-38 -1 -38 -28q3 -30 56 -31q12 0 33 3v-50q-79 -12 -138 -36zM-97 836v47l186 27v-47zM-98 905v47l187 27v-47z" />
    <glyph glyph-name="HamzKasra_ar" 
d="M-65 -280l-11 50q18 10 27 13q-24 21 -24 57t31 59q20 15 53 15q17 0 43 -5l-2 -49q-20 3 -30 3q-38 -2 -38 -29q3 -30 56 -30q12 0 33 3v-50q-79 -12 -138 -37zM-91 -357v47l186 27v-48z" />
    <glyph glyph-name="HamzKasrateen_ar" 
d="M-65 -280l-11 50q18 10 27 13q-24 21 -24 57t31 59q20 15 53 15q17 0 43 -5l-2 -49q-20 3 -30 3q-38 -2 -38 -29q3 -30 56 -30q12 0 33 3v-50q-79 -12 -138 -37zM-87 -417v47l186 26v-47zM-88 -349v47l186 27v-47z" />
    <glyph glyph-name="uniFD3E" unicode="&#xfd3e;" horiz-adv-x="379" 
d="M261 0h-51q-78 103 -106 214h67q14 -64 34 -111q13 -30 56 -103zM172 419h-67q29 115 105 212h51q-67 -107 -89 -212zM146 343h-7q0 8 -8.5 23t-8.5 22q0 9 6.5 15.5t14.5 6.5t14 -6.5t6 -15.5q0 -7 -8.5 -22t-8.5 -23zM143 224q-8 0 -14.5 6.5t-6.5 14.5t8.5 23t8.5 23
h7q0 -8 8.5 -23t8.5 -23t-6 -14.5t-14 -6.5zM214 297q-8 0 -22.5 8t-23.5 8v7q9 0 23.5 8.5t22.5 8.5q9 0 15 -6t6 -14t-6 -14t-15 -6zM71 297q-9 0 -15 6t-6 14t6 14t15 6q8 0 22.5 -8.5t23.5 -8.5v-7q-9 0 -23.5 -8t-22.5 -8zM164 333l-5 5q6 5 10.5 21.5t10 22.5t14.5 6
t14.5 -5.5t5.5 -14.5t-6 -14.5t-22.5 -10t-21.5 -10.5zM91 245q-8 0 -14 6t-6 15t6.5 14.5t22.5 10t22 10.5l5 -5q-6 -6 -10.5 -22t-10.5 -22.5t-15 -6.5zM194 245q-9 0 -14.5 6.5t-10 22.5t-10.5 22l5 5q5 -6 21.5 -10.5t22.5 -10t6 -14.5t-5.5 -15t-14.5 -6zM122 333
q-6 6 -22 10.5t-22.5 10t-6.5 14.5t6 14.5t14 5.5q9 0 15 -6t10.5 -22.5t10.5 -21.5zM143 298q-8 0 -14 5.5t-6 13.5t6 13.5t14 5.5t13.5 -5.5t5.5 -13.5t-5.5 -13.5t-13.5 -5.5z" />
    <glyph glyph-name="uniFD3F" unicode="&#xfd3f;" horiz-adv-x="379" 
d="M143 0h-52q43 73 57 103q20 47 34 111h66q-27 -111 -105 -214zM248 420h-67q-23 104 -90 212h52q76 -97 105 -212zM216 343h-7q0 9 -8.5 23.5t-8.5 22.5q0 9 6 15t14 6t14 -6t6 -15q0 -8 -8 -22.5t-8 -23.5zM212 225q-8 0 -14 6t-6 15q0 8 8.5 22.5t8.5 23.5h7
q0 -9 8 -23.5t8 -22.5q0 -9 -6 -15t-14 -6zM141 297q-9 0 -15.5 6.5t-6.5 13.5q0 8 6.5 14.5t15.5 6.5q7 0 22 -8.5t24 -8.5v-7q-9 0 -24 -8.5t-22 -8.5zM284 297q-8 0 -22.5 8.5t-23.5 8.5v7q9 0 23.5 8.5t22.5 8.5q9 0 15 -6.5t6 -14.5q0 -7 -6 -13.5t-15 -6.5zM191 333
q-5 7 -21.5 11t-22.5 10t-6 15t5.5 14.5t14.5 5.5t14.5 -6t10 -22.5t10.5 -21.5zM263 246q-8 0 -14 6t-10.5 22.5t-10.5 21.5l5 6q6 -7 22 -11t22.5 -10t6.5 -15t-6 -14.5t-15 -5.5zM161 246q-9 0 -14.5 5.5t-5.5 14.5t6 15t22.5 10t21.5 11l5 -6q-6 -5 -10.5 -21.5
t-10 -22.5t-14.5 -6zM233 333l-5 6q6 5 10.5 21.5t10.5 22.5t14 6q9 0 15 -5.5t6 -14.5t-6.5 -15t-22.5 -10t-22 -11zM212 298q-8 0 -13.5 6t-5.5 13q0 8 5.5 14t13.5 6t14 -6t6 -14q0 -7 -6 -13t-14 -6z" />
    <glyph glyph-name="extendedarabicindicfourarab_urdo" horiz-adv-x="552" 
d="M150 0h-110v370q1 102 38.5 164.5t99.5 62.5q47 0 83 -41.5t45 -69.5q19 39 75 89t131 50v-116q-131 0 -186 -130q-9 -22 -21 -22t-29 44q-31 82 -70 82q-54 -1 -56 -105v-378z" />
    <glyph glyph-name="extendedarabicindicsevenarab_urdo" horiz-adv-x="519" 
d="M360 630l-169 -524h288v-106h-439l205 630h115z" />
    <glyph glyph-name="guillemotleft" unicode="&#xab;" horiz-adv-x="479" 
d="M260 0h-64l-106 153l106 152h64l-107 -152zM389 0h-63l-107 153l107 152h63l-106 -152z" />
    <glyph glyph-name="guillemotright" unicode="&#xbb;" horiz-adv-x="479" 
d="M219 0l107 153l-107 152h64l106 -152l-106 -153h-64zM90 0l106 153l-106 152h63l107 -152l-107 -153h-63z" />
    <glyph glyph-name="zero" unicode="0" horiz-adv-x="523" 
d="M262 -12q-227 0 -227 321q0 110 25 177.5t75 105t127 37.5q162 0 210 -174q16 -54 16 -146q0 -321 -226 -321zM261 85q48 0 82 44t34 180t-34 179t-82 43q-49 0 -78 -37q-38 -49 -38 -185q0 -137 34 -180.5t82 -43.5z" />
    <glyph glyph-name="one" unicode="1" horiz-adv-x="264" 
d="M229 0h-110v467q-13 -10 -74 -40v101q82 55 111 102h73v-630z" />
    <glyph glyph-name="two" unicode="2" horiz-adv-x="495" 
d="M465 0h-430v15q0 73 62 145q33 40 97 93q96 77 128 120.5t32 78.5t-26 59.5t-70 24.5q-93 0 -99 -108h-112q22 205 213 205q93 0 149 -52.5t56 -130.5q0 -79 -68 -154q-35 -40 -116 -108q-89 -74 -94 -81h278v-107z" />
    <glyph glyph-name="three" unicode="3" horiz-adv-x="497" 
d="M243 -11q-85 0 -141.5 51t-66.5 153h109q14 -63 38.5 -85t61.5 -22q44 0 74.5 30.5t30.5 75.5q0 44 -28 71.5t-71 27.5q-16 0 -60 -10v105l29 -3q41 0 72 20.5t31 61.5q0 33 -22 54.5t-58 21.5q-69 0 -91 -92h-110q36 188 199 188q53 0 98 -23t69.5 -64t24.5 -87
q0 -44 -24 -81q-19 -30 -19 -34q6 -2 39.5 -45.5t33.5 -108.5q0 -86 -62.5 -145.5t-156.5 -59.5z" />
    <glyph glyph-name="four" unicode="4" horiz-adv-x="524" 
d="M407 630v-383h82v-103h-82v-144h-109v144h-263v91l282 395h90zM298 247v195l-138 -195h138z" />
    <glyph glyph-name="five" unicode="5" horiz-adv-x="504" 
d="M247 -11q-86 0 -141 50t-66 151h110q20 -103 97 -103q45 0 75.5 34.5t30.5 94.5q0 56 -29.5 87.5t-77.5 31.5q-60 0 -99 -60l-96 13l63 344h323v-106h-237l-20 -105q22 16 85 16q84 0 141.5 -60t57.5 -154q0 -89 -50 -154q-61 -80 -167 -80z" />
    <glyph glyph-name="six" unicode="6" horiz-adv-x="499" 
d="M260 -11q-99 0 -162 73.5t-63 236.5q0 180 68 264q61 76 164 76q163 0 189 -182h-108q-5 38 -24 59q-25 26 -62 26q-28 0 -51 -17q-31 -22 -49 -67t-18 -70q26 17 53 27t73 10q81 0 137.5 -59.5t56.5 -152.5q0 -62 -26 -114.5t-72.5 -81t-105.5 -28.5zM259 86
q39 0 67.5 32t28.5 90q0 55 -28 85.5t-71 30.5t-72.5 -30.5t-29.5 -81.5q0 -34 14.5 -64.5t39 -46t51.5 -15.5z" />
    <glyph glyph-name="seven" unicode="7" horiz-adv-x="477" 
d="M223 0h-110q2 92 29 194.5t77 197t82 131.5h-271v107h422v-83q-61 -65 -116 -164.5t-86 -204.5q-21 -74 -27 -178z" />
    <glyph glyph-name="eight" unicode="8" horiz-adv-x="506" 
d="M254 -11q-98 0 -158.5 58t-60.5 145q0 64 34 109t38 46q-17 17 -32 43.5t-15 76.5q0 74 53 123.5t139 49.5t140 -51t54 -124q0 -65 -52 -119q12 -4 44.5 -49.5t32.5 -106.5q0 -86 -61 -143.5t-156 -57.5zM254 390q36 0 58.5 22t22.5 54t-23 54.5t-59 22.5t-59 -21.5
t-23 -51.5q0 -36 22.5 -58t60.5 -22zM254 86q47 0 76.5 29.5t29.5 73.5q0 45 -31 75t-77 30t-75.5 -29.5t-29.5 -72.5q0 -28 13 -53t38.5 -39t55.5 -14z" />
    <glyph glyph-name="nine" unicode="9" horiz-adv-x="499" 
d="M240 639q99 0 161.5 -73.5t62.5 -236.5q0 -181 -68 -265q-61 -75 -163 -75q-164 0 -189 181h107q6 -38 25 -59q25 -26 61 -26q29 0 52 17q31 22 49 67t18 71q-27 -18 -53.5 -28t-72.5 -10q-81 0 -138 59.5t-57 152.5q0 62 26.5 114.5t73 81.5t105.5 29zM241 541
q-39 0 -67.5 -32t-28.5 -89q0 -55 28 -86t71 -31t72 31t29 81q0 34 -14 65t-38.5 46t-51.5 15z" />
    <glyph glyph-name="at" unicode="@" horiz-adv-x="724" 
d="M387 -5q-105 0 -181.5 37t-113.5 109.5t-37 158.5q0 94 42.5 175t115.5 121.5t168 40.5q81 0 143 -32.5t95 -93t33 -131.5q0 -85 -49 -154q-64 -87 -162 -87q-48 0 -57 38q-38 -38 -87 -38q-53 0 -87.5 38t-34.5 102q0 79 41 143q51 79 131 79q57 0 84 -46l8 37h84
l-48 -239q-5 -22 -5 -29q0 -17 12 -17q16 0 40 19q33 25 53 68t20 89q0 83 -56.5 138t-158.5 55q-87 0 -147 -37t-90 -104t-30 -139q0 -71 34 -128.5t95 -84.5t140 -27q152 0 219 89h68q-32 -67 -98 -106q-76 -44 -184 -44zM314 200q59 0 87 89q12 40 12 74q0 37 -16.5 57.5
t-41.5 20.5q-28 0 -51.5 -22t-35 -63t-11.5 -73q0 -43 16.5 -63t40.5 -20z" />
    <glyph glyph-name="dollar" unicode="$" horiz-adv-x="603" 
d="M328 -78h-52v76q-153 18 -176 176l101 10q14 -66 75 -96v188q-160 46 -160 184q0 68 42.5 114t117.5 53v41h52v-41q136 -16 158 -139l-99 -13q-9 48 -59 70v-176q104 -28 139.5 -70.5t35.5 -109.5q0 -75 -45 -126t-130 -63v-78zM276 386v159q-64 -21 -64 -80
q0 -52 64 -79zM328 85q39 7 60 31.5t21 57.5q0 30 -18 51.5t-63 34.5v-175z" />
    <glyph glyph-name="numbersign" unicode="#" horiz-adv-x="654" 
d="M400 0h-85l32 164h-102l-33 -164h-87l33 164h-58v84h75l27 133h-102v85h119l34 164h86l-34 -164h102l33 164h89l-34 -164h59v-85h-76l-27 -133h103v-84h-120zM364 248l27 133h-103l-26 -133h102z" />
    <glyph glyph-name="uni06C0" unicode="&#x6c0;" horiz-adv-x="478" 
d="M438 0h-126q-122 1 -175 41q-96 69 -97 185q0 118 88 188q61 47 139 47q93 0 171 -53v-408zM328 101v247q-30 20 -65 20q-42 0 -70 -29q-41 -45 -41 -107q0 -130 149 -131h27zM80 469l-7 43l25 12q-29 21 -29 52q0 42 37 62q13 7 34 7q23 0 44 -10l-8 -40q-13 4 -23 4
q-31 0 -31 -29q1 -28 47 -31q13 0 28 2l-2 -42q-66 -10 -115 -30z" />
    <glyph glyph-name="hyphen" unicode="-" horiz-adv-x="376" 
d="M336 0h-296v101h296v-101z" />
    <glyph glyph-name="uni00AD" unicode="&#xad;" horiz-adv-x="376" 
d="M336 0h-296v101h296v-101z" />
    <glyph glyph-name="quotesingle" unicode="'" horiz-adv-x="263" 
d="M114 470l-14 84v75h63v-75l-15 -84h-34z" />
    <glyph glyph-name="trademark" unicode="&#x2122;" horiz-adv-x="615" 
d="M117 376v203h-77v48h211v-48h-75v-203h-59zM285 376v251h84l62 -173l61 173h83v-251h-54v204l-71 -204h-40l-71 204v-204h-54z" />
    <glyph glyph-name="copyright" unicode="&#xa9;" horiz-adv-x="746" 
d="M373 648q138 0 235.5 -97.5t97.5 -234.5q0 -138 -97.5 -235.5t-235.5 -97.5t-235.5 97.5t-97.5 235.5q0 137 97.5 234.5t235.5 97.5zM373 590q-114 0 -194.5 -80t-80.5 -194t80.5 -194.5t194.5 -80.5t194.5 80.5t80.5 194.5t-80.5 194t-194.5 80zM541 261
q-9 -64 -52.5 -102.5t-107.5 -38.5q-80 0 -132.5 56t-52.5 140q0 87 49.5 142.5t127.5 55.5q69 0 115 -40t52 -104h-82q-15 70 -79 70q-39 0 -61.5 -32.5t-22.5 -90.5t23.5 -90.5t65.5 -32.5q35 0 52 17.5t23 49.5h82z" />
    <glyph glyph-name="registered" unicode="&#xae;" horiz-adv-x="394" 
d="M197 646q65 0 111 -46t46 -111t-46 -111t-111 -46t-111 46t-46 111t46 111t111 46zM197 619q-54 0 -92 -38t-38 -92q0 -53 38 -91t92 -38q53 0 91 38t38 91q0 54 -38 92t-91 38zM195 495q33 0 34 33q0 29 -33 29q-15 0 -21 -3v-59h20zM270 403h-36l-39 66h-19v-66h-35
v172q11 3 27.5 5.5t27.5 2.5q67 0 67 -55q0 -42 -35 -54z" />
    <glyph glyph-name="ampersand" unicode="&#x26;" horiz-adv-x="559" 
d="M259 0q-100 0 -159.5 51.5t-59.5 139.5q0 102 90 146q-62 39 -62 125q0 80 51.5 127.5t139.5 47.5q84 0 134 -43.5t56 -118.5h-106q-8 66 -84 66q-86 0 -86 -81q6 -82 92 -82l18 1v-100l-23 1q-98 0 -107 -87q0 -90 104 -92q100 0 107 92h-48v92h203v-92h-42
q-4 -94 -62 -143.5t-156 -49.5z" />
    <glyph glyph-name="asterisk" unicode="*" horiz-adv-x="327" 
d="M204 408l-39 55l-40 -55l-46 33l39 54l-63 20l22 52l58 -20v68h59v-68l59 20l19 -52l-61 -20l39 -54z" />
    <glyph glyph-name="plus" unicode="+" horiz-adv-x="387" 
d="M347 272v-93h-108v-111h-93v111h-106v93h106v115h93v-115h108z" />
    <glyph glyph-name="semicolon" unicode=";" horiz-adv-x="224" 
d="M110 337q26 0 44.5 -18.5t18.5 -44.5t-18.5 -44.5t-44.5 -18.5t-44.5 18.5t-18.5 44.5t18.5 44.5t44.5 18.5zM109 133q32 0 53.5 -24.5t21.5 -62.5q-1 -48 -34.5 -94.5t-84.5 -62.5l-22 47q41 26 47 61q-18 4 -34 23.5t-16 43.5q0 34 24 53q20 16 45 16z" />
    <glyph glyph-name="less" unicode="&#x3c;" horiz-adv-x="432" 
d="M40 213v103l352 196v-119l-216 -128l216 -127v-122z" />
    <glyph glyph-name="equal" unicode="=" horiz-adv-x="400" 
d="M365 298h-315v93h315v-93zM365 138h-315v93h315v-93z" />
    <glyph glyph-name="greater" unicode="&#x3e;" horiz-adv-x="432" 
d="M392 213l-352 -197v122l216 127l-216 128v119l352 -196v-103z" />
    <glyph glyph-name="question" unicode="?" horiz-adv-x="611" 
d="M248 144q2 71 16 108.5t33 61.5t48 53t40.5 47t11.5 43q0 28 -21 49t-62 21q-79 0 -112 -100l-102 29q46 174 216 174q59 0 103.5 -23.5t68 -63.5t23.5 -85q0 -37 -11 -64t-26.5 -46t-41 -43t-40.5 -42t-25.5 -42.5t-13.5 -76.5h-105zM301 -8q-26 0 -44.5 18.5
t-18.5 44.5q0 28 18.5 46.5t44.5 18.5q27 0 45.5 -18.5t18.5 -46.5q0 -26 -18.5 -44.5t-45.5 -18.5z" />
    <glyph glyph-name="A" unicode="A" horiz-adv-x="545" 
d="M538 0h-122l-43 138h-202l-43 -138h-121l213 630h105zM341 242l-69 220l-68 -220h137z" />
    <glyph glyph-name="B" unicode="B" horiz-adv-x="488" 
d="M231 0h-191v627q33 12 82 21t97 9q202 0 205 -184q0 -111 -80 -143q64 -25 89 -65.5t25 -84.5q0 -77 -55.5 -128.5t-171.5 -51.5zM211 368q102 0 104 101q0 91 -93 95q-43 -1 -71 -12v-184h60zM222 101q123 0 123 80q0 85 -124 88h-70v-168h71z" />
    <glyph glyph-name="C" unicode="C" horiz-adv-x="535" 
d="M450 155l55 -90q-81 -74 -203 -74q-130 0 -201 85.5t-71 240.5q0 159 73.5 249t204.5 90q105 0 189 -72l-56 -92q-65 52 -134 52q-76 0 -118.5 -58t-42.5 -164q0 -107 42.5 -163t121.5 -56q74 0 140 52z" />
    <glyph glyph-name="D" unicode="D" horiz-adv-x="522" 
d="M40 0v630h173q143 0 211 -76.5t68 -236.5q0 -317 -277 -317h-175zM214 101q84 0 123 51t39 162q0 113 -38.5 165.5t-121.5 52.5h-63v-431h61z" />
    <glyph glyph-name="E" unicode="E" horiz-adv-x="417" 
d="M153 103h234v-103h-347v630h340v-100h-228v-163h168v-97h-167v-167z" />
    <glyph glyph-name="F" unicode="F" horiz-adv-x="399" 
d="M153 269v-269h-113v630h344v-100h-231v-163h181v-98h-181z" />
    <glyph glyph-name="G" unicode="G" horiz-adv-x="544" 
d="M300 -9q-127 0 -198.5 85.5t-71.5 239.5q0 158 73 247t203 89q110 0 190 -67l-57 -93q-60 49 -131 49q-76 0 -118.5 -58t-42.5 -163q0 -104 42.5 -161.5t120.5 -57.5q42 0 85 19v101h-63v111h172v-297l-88 -17q-63 -27 -116 -27z" />
    <glyph glyph-name="H" unicode="H" horiz-adv-x="528" 
d="M153 270v-270h-113v630h113v-263h222v263h113v-630h-113v270h-222z" />
    <glyph glyph-name="I" unicode="I" horiz-adv-x="203" 
d="M45 0v630h113v-630h-113z" />
    <glyph glyph-name="J" unicode="J" horiz-adv-x="275" 
d="M235 630v-422q0 -212 -179 -212h-31v104h17q80 0 80 102v428h113z" />
    <glyph glyph-name="K" unicode="K" horiz-adv-x="508" 
d="M40 0v630h113v-296l195 296h122l-206 -313l241 -317h-139l-213 279v-279h-113z" />
    <glyph glyph-name="L" unicode="L" horiz-adv-x="412" 
d="M45 0v630h113v-529h234v-101h-347z" />
    <glyph glyph-name="M" unicode="M" horiz-adv-x="699" 
d="M299 1l-147 388v-389h-112v630h114l196 -492l195 492h114v-630h-112v389l-147 -388h-101z" />
    <glyph glyph-name="N" unicode="N" horiz-adv-x="556" 
d="M40 0v630h109l255 -430v430h112v-630h-107l-257 435v-435h-112z" />
    <glyph glyph-name="O" unicode="O" horiz-adv-x="592" 
d="M301 656q119 0 190 -90.5t71 -242.5q0 -155 -71 -243.5t-195 -88.5t-195 88.5t-71 243.5t72 244t199 89zM299 549q-152 0 -155 -230q0 -106 39 -162t113 -56q150 0 153 219q0 110 -39 169.5t-111 59.5z" />
    <glyph glyph-name="P" unicode="P" horiz-adv-x="448" 
d="M153 0h-113v627q35 11 88.5 20t90.5 10q109 0 164 -49t55 -150q0 -216 -219 -217h-66v-241zM216 337q54 0 82.5 29t28.5 90q0 56 -27.5 80.5t-83.5 24.5q-21 0 -39 -3t-25 -7v-214h64z" />
    <glyph glyph-name="Q" unicode="Q" horiz-adv-x="592" 
d="M296 98q150 0 153 213q0 107 -39 164.5t-111 57.5q-152 0 -155 -223q0 -207 152 -212zM375 -126l-90 117q-116 4 -184 86q-71 86 -71 236q0 151 72 237.5t199 86.5q119 0 190 -88t71 -236q0 -150 -71 -236q-35 -42 -82 -63l67 -89z" />
    <glyph glyph-name="R" unicode="R" horiz-adv-x="492" 
d="M216 337q108 0 111 119q0 105 -107 105q-50 0 -68 -10v-214h64zM462 0h-119l-128 241h-62v-241h-113v627q35 11 88.5 20t90.5 10q218 0 219 -199q0 -156 -114 -200z" />
    <glyph glyph-name="S" unicode="S" horiz-adv-x="442" 
d="M231 -6q-189 4 -216 179l103 33q8 -113 114 -113q89 0 90 82q0 32 -18 52.5t-64 41.5l-95 44q-110 50 -110 168q2 79 52.5 127t135.5 48q164 -6 196 -157l-101 -33q-6 91 -96 93q-79 0 -81 -72q0 -59 92 -96l85 -40q109 -50 109 -173q-2 -84 -55 -134t-141 -50z" />
    <glyph glyph-name="T" unicode="T" horiz-adv-x="462" 
d="M288 528v-528h-113v528h-160v102h432v-102h-159z" />
    <glyph glyph-name="U" unicode="U" horiz-adv-x="556" 
d="M278 -9q-115 0 -176.5 82t-61.5 221v336h113v-356q0 -69 31.5 -120.5t93.5 -51.5t93.5 51.5t31.5 120.5v356h113v-336q0 -139 -61 -221t-177 -82z" />
    <glyph glyph-name="V" unicode="V" horiz-adv-x="557" 
d="M225 0l-215 630h121l147 -439l147 439h122l-215 -630h-107z" />
    <glyph glyph-name="W" unicode="W" horiz-adv-x="786" 
d="M457 606l102 -409l86 433h126l-141 -630h-117l-121 466l-119 -466h-118l-140 630h125l86 -437l104 413h127z" />
    <glyph glyph-name="X" unicode="X" horiz-adv-x="511" 
d="M506 0h-128l-126 227l-119 -227h-128l186 326l-174 304h129l113 -206l114 206h121l-174 -304z" />
    <glyph glyph-name="Y" unicode="Y" horiz-adv-x="489" 
d="M217 0h-111l86 207l-182 423h112l124 -297l125 297h113z" />
    <glyph glyph-name="Z" unicode="Z" horiz-adv-x="484" 
d="M30 0l255 529h-250v101h419l-254 -528h237v-102h-407z" />
    <glyph glyph-name="bracketleft" unicode="[" horiz-adv-x="244" 
d="M204 584h-64v-618h55v-83h-155v784h164v-83z" />
    <glyph glyph-name="backslash" unicode="\" horiz-adv-x="487" 
d="M40 690h107l300 -750h-107z" />
    <glyph glyph-name="bracketright" unicode="]" horiz-adv-x="244" 
d="M40 584v83h164v-784h-155v83h55v618h-64z" />
    <glyph glyph-name="asciicircum" unicode="^" horiz-adv-x="425" 
d="M385 298h-109l-64 139l-63 -139h-109l172 323z" />
    <glyph glyph-name="underscore" unicode="_" horiz-adv-x="471" 
d="M431 -126h-391v96h391v-96z" />
    <glyph glyph-name="grave" unicode="`" horiz-adv-x="176" 
d="M-24 648l33 70l127 -66l-1 -86z" />
    <glyph glyph-name="a" unicode="a" horiz-adv-x="463" 
d="M423 0h-126q-122 1 -175 45q-96 77 -97 205q0 131 88 208q61 52 139 52q93 0 171 -59v-451zM313 112v279q-30 16 -65 16q-42 0 -70 -32q-41 -50 -41 -118q0 -144 149 -145h27z" />
    <glyph glyph-name="b" unicode="b" horiz-adv-x="463" 
d="M166 112q160 1 160 145q0 76 -44 118q-29 26 -79 31q-27 0 -60 -9l-4 -285h27zM166 0h-126v684h108l-3 -181q32 7 66 7q78 0 139 -52q88 -77 88 -208q-1 -128 -97 -205q-53 -44 -175 -45z" />
    <glyph glyph-name="c" unicode="c" horiz-adv-x="440" 
d="M421 449l-50 -81q-53 40 -116 40q-58 0 -91 -42.5t-33 -116.5q0 -75 34 -116t95 -41q65 0 120 43l50 -81q-69 -63 -180 -63q-109 0 -169.5 68t-60.5 189t62 191t169 70q102 0 170 -60z" />
    <glyph glyph-name="d" unicode="d" horiz-adv-x="463" 
d="M297 112h27l-4 281q-30 14 -64 14q-45 0 -75 -32q-44 -50 -44 -118q0 -144 160 -145zM297 0q-122 1 -175 45q-96 77 -97 205q0 131 88 208q61 52 139 52q34 0 66 -8l-3 182h108v-684h-126z" />
    <glyph glyph-name="e" unicode="e" horiz-adv-x="456" 
d="M437 207h-299q13 -116 127 -116q63 0 111 42l57 -76q-67 -66 -177 -66q-108 0 -169.5 67.5t-61.5 185.5q0 121 59 193t158 72q110 0 165 -88q34 -58 34 -157q0 -24 -4 -57zM138 297h195q0 111 -93 112q-85 0 -102 -112z" />
    <glyph glyph-name="f" unicode="f" horiz-adv-x="341" 
d="M288 609q-16 0 -34.5 -4t-31.5 -19.5t-13 -49.5v-35h122v-91h-121v-410h-110v410h-65v91h65v33q0 56 17.5 90t43 52t52.5 24t45 6q51 0 73 -9v-92q-9 1 -17 2q-12 2 -26 2z" />
    <glyph glyph-name="g" unicode="g" horiz-adv-x="463" 
d="M127 -91q23 -3 47 -3q143 0 143 94q-141 0 -195 45q-96 77 -97 205q0 131 88 208q61 52 139 52q93 0 171 -59v-451q-4 -192 -247 -192q-34 0 -66 5zM321 112l1 273q-32 22 -68 22q-44 0 -74 -32q-43 -50 -43 -118q0 -144 157 -145h27z" />
    <glyph glyph-name="h" unicode="h" horiz-adv-x="497" 
d="M148 684v-222q44 47 122 47q185 0 187 -220v-289h-110v279q0 69 -21.5 99t-70.5 30q-40 0 -72.5 -23.5t-32.5 -43.5v-341h-110v684h108z" />
    <glyph glyph-name="i" unicode="i" horiz-adv-x="212" 
d="M106 701q29 0 47.5 -18.5t18.5 -47.5q0 -28 -18.5 -47t-47.5 -19q-28 0 -47 19t-19 47q0 29 19 47.5t47 18.5zM161 0h-110v500h110v-500z" />
    <glyph glyph-name="j" unicode="j" horiz-adv-x="251" 
d="M145 705q29 0 47.5 -18.5t18.5 -47.5q0 -28 -18.5 -47t-47.5 -19q-28 0 -47 19t-19 47q0 29 19 47.5t47 18.5zM200 500v-534q0 -82 -33.5 -117.5t-111.5 -35.5h-45v100h34q26 0 36 12.5t10 43.5v531h110z" />
    <glyph glyph-name="k" unicode="k" horiz-adv-x="477" 
d="M467 0h-142l-175 247v-247h-110v684h110v-354l149 170h128l-173 -202z" />
    <glyph glyph-name="l" unicode="l" horiz-adv-x="190" 
d="M150 0h-110v684h110v-684z" />
    <glyph glyph-name="m" unicode="m" horiz-adv-x="756" 
d="M716 0h-110v293q0 61 -20.5 88t-65.5 27q-42 0 -64.5 -24t-25.5 -45l4 -339h-110v293q0 61 -20.5 88t-66.5 27q-43 0 -65 -23.5t-24 -43.5l2 -341h-110v500h97v-50q45 59 117 59q105 0 148 -72q52 72 134 72q87 0 133.5 -53t46.5 -153v-303z" />
    <glyph glyph-name="n" unicode="n" horiz-adv-x="492" 
d="M147 500v-43q43 52 120 52q183 0 185 -220v-289h-109v279q0 69 -21 99t-70 30q-39 0 -71 -23.5t-32 -43.5v-341h-109v500h107z" />
    <glyph glyph-name="o" unicode="o" horiz-adv-x="459" 
d="M230 509q100 0 154.5 -67.5t54.5 -191.5q0 -123 -55 -191t-154 -68q-101 0 -155.5 68.5t-54.5 193.5q0 122 55 189t155 67zM230 408q-95 0 -97 -163q0 -153 96 -153h1q98 0 98 152q0 162 -98 164z" />
    <glyph glyph-name="p" unicode="p" horiz-adv-x="463" 
d="M150 -183h-110v682h126q122 -1 175 -45q96 -77 97 -205q0 -131 -88 -208q-61 -44 -139 -44q-31 0 -61 -1v-179zM195 105q58 0 90 23q40 29 41 124q0 152 -149 153h-27v-297q24 -3 45 -3z" />
    <glyph glyph-name="q" unicode="q" horiz-adv-x="466" 
d="M296 112h25l2 104v169q-30 22 -65 22q-42 0 -70 -32q-41 -50 -41 -118q0 -144 149 -145zM316 -182l3 182q-133 0 -187 45q-96 77 -97 205q0 131 88 208q61 52 139 52q93 0 164 -56q-1 -151 -1 -636h-109z" />
    <glyph glyph-name="r" unicode="r" horiz-adv-x="302" 
d="M137 500v-60q40 61 141 64h14v-111h-14q-68 -1 -98 -35.5t-30 -111.5v-246h-110v500h97z" />
    <glyph glyph-name="s" unicode="s" horiz-adv-x="384" 
d="M200 -7q-153 2 -180 151l101 33q5 -51 31 -70q24 -19 49 -19h2q58 0 58 46v3q0 23 -11.5 35t-46.5 28l-74 32q-94 43 -94 136q2 63 46.5 102t112.5 39q132 -2 165 -134l-102 -33q-3 43 -21 59q-17 14 -45 14h-4q-27 0 -37.5 -11t-10.5 -33q0 -18 14.5 -31.5t51.5 -29.5
l66 -29q93 -42 93 -141q-2 -66 -47.5 -106.5t-116.5 -40.5z" />
    <glyph glyph-name="t" unicode="t" horiz-adv-x="344" 
d="M84 500v184h110v-184h91v-96h-91v-191q0 -112 98 -112h32v-101h-38q-202 1 -202 208v196h-54v96h54z" />
    <glyph glyph-name="u" unicode="u" horiz-adv-x="466" 
d="M217 -9q-176 0 -177 217v292h110v-292q0 -115 80 -115q84 0 87 67l-1 340h110v-500h-110v47q-31 -56 -99 -56z" />
    <glyph glyph-name="v" unicode="v" horiz-adv-x="478" 
d="M10 500h120l109 -355l109 355h120l-171 -500h-116z" />
    <glyph glyph-name="w" unicode="w" horiz-adv-x="649" 
d="M525 500h114l-120 -500h-102l-96 305l-94 -305h-102l-115 500h114l61 -329l90 306h96l87 -304z" />
    <glyph glyph-name="x" unicode="x" horiz-adv-x="462" 
d="M455 0h-122l-102 170l-102 -170h-122l161 261l-149 239h123l89 -156l89 156h123l-151 -239z" />
    <glyph glyph-name="y" unicode="y" horiz-adv-x="475" 
d="M182 68l-175 432h120l110 -292l115 292h116l-272 -682h-112z" />
    <glyph glyph-name="z" unicode="z" horiz-adv-x="433" 
d="M403 500l-198 -403h185v-97h-360l212 404h-211v96h372z" />
    <glyph glyph-name="braceleft" unicode="{" horiz-adv-x="327" 
d="M232 649h55v-72h-41q-30 0 -38 -21.5t-8 -41.5v-154q0 -39 -15.5 -60t-34.5 -30t-33 -10q14 -1 33 -10t34.5 -30t15.5 -60v-154q0 -21 8 -42t38 -21h41v-72h-55q-27 0 -53.5 12.5t-44 38.5t-17.5 66v159q0 28 -13.5 44.5t-32 23.5t-31.5 7v76q13 0 31.5 7t32 23.5
t13.5 44.5v159q0 40 17.5 65.5t44 38.5t53.5 13z" />
    <glyph glyph-name="bar" unicode="|" horiz-adv-x="310" 
d="M199 669v-719h-99v719h99z" />
    <glyph glyph-name="braceright" unicode="}" horiz-adv-x="327" 
d="M95 649q27 0 53.5 -13t44 -38.5t17.5 -65.5v-159q0 -28 13.5 -44.5t32 -23.5t31.5 -7v-76q-13 0 -31.5 -7t-32 -23.5t-13.5 -44.5v-159q0 -40 -17.5 -66t-44 -38.5t-53.5 -12.5h-55v72h41q30 0 38 21t8 42v154q0 39 15.5 60t34.5 30t33 10q-14 1 -33 10t-34.5 30
t-15.5 60v154q0 20 -8 41.5t-38 21.5h-41v72h55z" />
    <glyph glyph-name="asciitilde" unicode="~" horiz-adv-x="419" 
d="M284 171q-22 0 -51 8.5t-55 19.5q-13 4 -24 8q-16 6 -28 6q-18 0 -27 -14t-11 -29h-48q2 26 11.5 51t29 42t52.5 17q16 0 32.5 -4.5t32.5 -10.5l18 -6q5 -2 11 -4q16 -5 34.5 -10.5t32.5 -5.5q18 0 26 12.5t11 28.5h48q-3 -28 -12.5 -53t-29.5 -40.5t-53 -15.5z" />
    <glyph glyph-name="uniFB01" unicode="&#xfb01;" horiz-adv-x="552" 
d="M293 609q-16 0 -34.5 -4t-31.5 -19.5t-13 -49.5v-35h122v-91h-121v-410h-110v410h-65v91h65v33q0 56 17.5 90t43 52t52.5 24t45 6q51 0 73 -9v-92q-9 1 -17 2q-12 2 -26 2zM446 701q29 0 47.5 -18.5t18.5 -47.5q0 -28 -18.5 -47t-47.5 -19q-28 0 -47 19t-19 47
q0 29 19 47.5t47 18.5zM501 0h-110v500h110v-500z" />
    <glyph glyph-name="uniFB02" unicode="&#xfb02;" horiz-adv-x="541" 
d="M293 609q-16 0 -34.5 -4t-31.5 -19.5t-13 -49.5v-35h122v-91h-121v-410h-110v410h-65v91h65v33q0 56 17.5 90t43 52t52.5 24t45 6q51 0 73 -9v-92q-9 1 -17 2q-12 2 -26 2zM501 0h-110v684h110v-684z" />
    </font>
</defs>
</svg>
