<svg width="51" height="51" viewBox="0 0 51 51" fill="none" xmlns="http://www.w3.org/2000/svg">
<rect x="0.349121" y="0.769043" width="50" height="50" rx="25" fill="#F0B440"/>
<path d="M35.6005 25.769C35.6005 31.43 31.0114 36.019 25.3505 36.019C19.6895 36.019 15.1005 31.43 15.1005 25.769C15.1005 23.2182 16.0313 20.8866 17.5728 19.0927C19.4537 16.9036 22.24 15.519 25.3505 15.519C31.0114 15.519 35.6005 20.1081 35.6005 25.769Z" stroke="#404554" stroke-width="1.5" stroke-linecap="round" stroke-linejoin="round"/>
<g clip-path="url(#clip0)">
<path d="M25.349 20.769L26.894 23.899L30.349 24.404L27.849 26.839L28.439 30.279L25.349 28.654L22.259 30.279L22.849 26.839L20.349 24.404L23.804 23.899L25.349 20.769Z" fill="#F0B440" stroke="#404553" stroke-width="1.5" stroke-linecap="round" stroke-linejoin="round"/>
</g>
<defs>
<clipPath id="clip0">
<rect width="12" height="12" fill="white" transform="translate(19.349 19.769)"/>
</clipPath>
</defs>
</svg>
