<svg width="50" height="50" viewBox="0 0 50 50" fill="none" xmlns="http://www.w3.org/2000/svg">
<rect width="50" height="50" rx="25" fill="#F0B440"/>
<path d="M15.7475 18.0035C15.7463 16.76 16.754 15.7514 17.9975 15.7514H32.0046C33.2475 15.7514 34.2549 16.759 34.2546 18.0019L34.2515 32.0019C34.2512 33.2443 33.2439 34.2514 32.0015 34.2514H18.0106C16.7688 34.2514 15.7618 33.2453 15.7607 32.0035L15.7475 18.0035Z" stroke="#404553" stroke-width="1.5"/>
<path d="M18.7542 19.0029C18.7538 18.8645 18.8659 18.7521 19.0042 18.7521H22.011C22.1492 18.7521 22.2611 18.8641 22.261 19.0023L22.258 23.0023C22.2579 23.1403 22.146 23.2521 22.008 23.2521H19.0168C18.879 23.2521 18.7672 23.1406 18.7668 23.0029L18.7542 19.0029Z" stroke="#404553" stroke-width="1.5"/>
<path d="M18.7542 27.0029C18.7538 26.8645 18.8659 26.7521 19.0042 26.7521H22.011C22.1492 26.7521 22.2611 26.8641 22.261 27.0023L22.258 31.0023C22.2579 31.1403 22.146 31.2521 22.008 31.2521H19.0168C18.879 31.2521 18.7672 31.1406 18.7668 31.0029L18.7542 27.0029Z" stroke="#404553" stroke-width="1.5"/>
<path d="M24.7574 19.0037C24.7561 18.8647 24.8684 18.7513 25.0074 18.7513H31.0064C31.1446 18.7513 31.2567 18.8636 31.2563 19.0019C31.256 19.1398 31.1442 19.2513 31.0063 19.2513H25.0074C24.8703 19.2513 24.7587 19.1408 24.7574 19.0037Z" stroke="#404553" stroke-width="1.5"/>
<path d="M24.7574 27.0037C24.7561 26.8647 24.8684 26.7513 25.0074 26.7513H31.0064C31.1446 26.7513 31.2567 26.8636 31.2563 27.0019C31.256 27.1398 31.1442 27.2513 31.0063 27.2513H25.0074C24.8703 27.2513 24.7587 27.1408 24.7574 27.0037Z" stroke="#404553" stroke-width="1.5"/>
</svg>
