<svg width="50" height="50" viewBox="0 0 50 50" fill="none" xmlns="http://www.w3.org/2000/svg">
<rect width="50" height="50" rx="25" fill="#F0B440"/>
<path d="M15.7475 18.0035C15.7463 16.76 16.754 15.7514 17.9975 15.7514H32.0046C33.2475 15.7514 34.2549 16.759 34.2546 18.0019L34.2515 32.0019C34.2512 33.2443 33.2439 34.2514 32.0015 34.2514H18.0106C16.7688 34.2514 15.7618 33.2453 15.7607 32.0035L15.7475 18.0035Z" stroke="#404553" stroke-width="1.5"/>
<path d="M15.7543 22.7582C15.7505 21.651 16.647 20.7513 17.7543 20.7513H32.2533C33.3585 20.7513 34.2542 21.6478 34.2533 22.753C34.2523 23.8569 33.3572 24.7513 32.2533 24.7513H17.7543C16.6524 24.7513 15.7581 23.8601 15.7543 22.7582Z" stroke="#404553" stroke-width="1.5"/>
<mask id="path-4-inside-1" fill="white">
<path fill-rule="evenodd" clip-rule="evenodd" d="M19.0044 29.7608C18.9991 29.3429 19.3364 29.0013 19.7543 29.0013L25.2533 29.0013C25.6684 29.0013 26.0045 29.3385 26.0032 29.7536C26.002 30.1669 25.6666 30.5013 25.2533 30.5013H19.7543C19.3438 30.5013 19.0095 30.1713 19.0044 29.7608Z"/>
</mask>
<path d="M19.7543 30.5013H25.2533V27.5013H19.7543V30.5013ZM25.2533 29.0013H19.7543V32.0013H25.2533V29.0013ZM19.7543 29.0013C20.1649 29.0013 20.4991 29.3314 20.5043 29.7419L17.5045 29.7796C17.52 31.0111 18.5227 32.0013 19.7543 32.0013V29.0013ZM24.5033 29.7491C24.5045 29.3357 24.8399 29.0013 25.2533 29.0013V32.0013C26.4932 32.0013 27.4995 30.9981 27.5032 29.7581L24.5033 29.7491ZM25.2533 30.5013C24.8382 30.5013 24.502 30.1642 24.5033 29.7491L27.5032 29.7581C27.507 28.5128 26.4985 27.5013 25.2533 27.5013V30.5013ZM19.7543 27.5013C18.5006 27.5013 17.4888 28.526 17.5045 29.7796L20.5043 29.7419C20.5095 30.1598 20.1722 30.5013 19.7543 30.5013V27.5013Z" fill="#404553" mask="url(#path-4-inside-1)"/>
</svg>
