<svg width="50" height="50" viewBox="0 0 50 50" fill="none" xmlns="http://www.w3.org/2000/svg">
<rect width="50" height="50" rx="25" fill="#F0B440"/>
<path d="M15.7475 18.0036C15.7463 16.7601 16.754 15.7515 17.9975 15.7515H32.0046C33.2475 15.7515 34.2549 16.7592 34.2546 18.002L34.2515 32.002C34.2512 33.2444 33.2439 34.2515 32.0015 34.2515H18.0106C16.7688 34.2515 15.7618 33.2454 15.7607 32.0036L15.7475 18.0036Z" stroke="#404553" stroke-width="1.5"/>
<mask id="path-3-inside-1" fill="white">
<path fill-rule="evenodd" clip-rule="evenodd" d="M21.989 21.0001C21.9911 21.0001 21.9931 21.0001 21.9952 21.0001H25.0048C27.7657 21.0001 30.0038 23.2383 30.0038 25.9992C30.003 28.7626 27.7638 31.0012 25.0018 31.0012H22.0018"/>
</mask>
<path fill-rule="evenodd" clip-rule="evenodd" d="M21.989 21.0001C21.9911 21.0001 21.9931 21.0001 21.9952 21.0001H25.0048C27.7657 21.0001 30.0038 23.2383 30.0038 25.9992C30.003 28.7626 27.7638 31.0012 25.0018 31.0012H22.0018" fill="#F0B440"/>
<path d="M25.0048 21.0001V22.5001V21.0001ZM30.0038 25.9992L31.5038 25.9996V25.9992H30.0038ZM21.9909 22.5001C21.9923 22.5001 21.9937 22.5001 21.9952 22.5001V19.5001C21.9925 19.5001 21.9899 19.5001 21.9872 19.5001L21.9909 22.5001ZM21.9952 22.5001H25.0048V19.5001H21.9952V22.5001ZM25.0048 22.5001C26.9372 22.5001 28.5038 24.0667 28.5038 25.9992H31.5038C31.5038 22.4099 28.5941 19.5001 25.0048 19.5001V22.5001ZM28.5038 25.9987C28.5033 27.9342 26.9352 29.5012 25.0018 29.5012V32.5012C28.5923 32.5012 31.5028 29.591 31.5038 25.9996L28.5038 25.9987ZM25.0018 29.5012H22.0018V32.5012H25.0018V29.5012Z" fill="#404553" mask="url(#path-3-inside-1)"/>
<path d="M23.8099 24.5826L20.9815 21.7542L23.8099 18.9258" stroke="#404554" stroke-width="1.5"/>
</svg>
