<svg xmlns="http://www.w3.org/2000/svg" width="24" height="24" viewBox="0 0 24 24"><rect width="24" height="24" fill="#fff" opacity="0"/><path d="M18.377,19a.619.619,0,0,1-.448-.2l-5.037-5.093a7.932,7.932,0,0,1-2.337,1.406,7.572,7.572,0,0,1-2.765.509,7.6,7.6,0,0,1-3.038-.616,8.019,8.019,0,0,1-2.483-1.67A7.754,7.754,0,0,1,0,7.812,7.754,7.754,0,0,1,2.269,2.285,8,8,0,0,1,4.752.616a7.755,7.755,0,0,1,6.056,0,8.023,8.023,0,0,1,2.483,1.67,7.838,7.838,0,0,1,1.674,2.481,7.652,7.652,0,0,1,.614,3.047,7.572,7.572,0,0,1-.487,2.706,8.184,8.184,0,0,1-1.324,2.3l5.056,5.113a.6.6,0,0,1,.175.439.591.591,0,0,1-.175.439A.611.611,0,0,1,18.377,19ZM7.79,1.23a6.419,6.419,0,0,0-2.561.518A6.574,6.574,0,0,0,3.145,3.165a6.809,6.809,0,0,0-1.4,2.09,6.381,6.381,0,0,0-.517,2.558,6.383,6.383,0,0,0,.517,2.559,6.809,6.809,0,0,0,1.4,2.09,6.557,6.557,0,0,0,2.085,1.416,6.547,6.547,0,0,0,5.1,0,6.562,6.562,0,0,0,2.084-1.416,6.828,6.828,0,0,0,1.4-2.09,6.4,6.4,0,0,0,.516-2.559,6.4,6.4,0,0,0-.516-2.558,6.828,6.828,0,0,0-1.4-2.09,6.579,6.579,0,0,0-2.084-1.417A6.379,6.379,0,0,0,7.79,1.23Z" transform="translate(2 2)" fill="#f0b440" stroke="#f0b440" stroke-miterlimit="10" stroke-width="0.4"/></svg>