<svg xmlns="http://www.w3.org/2000/svg" width="50" height="50" viewBox="0 0 50 50">
  <g id="Group_3042" data-name="Group 3042" transform="translate(-16521 3749)">
    <g id="Ellipse_37" data-name="Ellipse 37" transform="translate(16521 -3749)" fill="none" stroke="#172840" stroke-width="2">
      <circle cx="25" cy="25" r="25" stroke="none"/>
      <circle cx="25" cy="25" r="24" fill="none"/>
    </g>
    <g id="Group_3041" data-name="Group 3041" transform="translate(-6.149 -3.463)">
      <g id="heart_outline" data-name="heart outline" transform="translate(16534 -3734.662)">
        <g id="Group_566" data-name="Group 566">
          <path id="Path_447" data-name="Path 447" d="M36.284,38.364a10.66,10.66,0,0,0-2.9-6.831,9.327,9.327,0,0,0-6.724-3,8.617,8.617,0,0,0-6.309,2.616,12.751,12.751,0,0,0-2.273,3.127,12.751,12.751,0,0,0-2.273-3.127A8.621,8.621,0,0,0,9.5,28.536a9.122,9.122,0,0,0-6.662,3.006A10.786,10.786,0,0,0,.013,38.364c-.316,6.709,4.965,11.21,12.96,18.022,1.405,1.2,2.859,2.436,4.4,3.789l.7.613.7-.613c1.639-1.434,3.177-2.739,4.664-4C31.364,49.45,36.6,45.008,36.284,38.364Z" transform="translate(0 -28.536)" fill="#f0b440"/>
        </g>
      </g>
      <g id="heart_outline-2" data-name="heart outline" transform="translate(16534 -3734.662)">
        <g id="Group_566-2" data-name="Group 566">
          <path id="Path_447-2" data-name="Path 447" d="M36.284,38.364a10.66,10.66,0,0,0-2.9-6.831,9.327,9.327,0,0,0-6.724-3,8.617,8.617,0,0,0-6.309,2.616,12.751,12.751,0,0,0-2.273,3.127,12.751,12.751,0,0,0-2.273-3.127A8.621,8.621,0,0,0,9.5,28.536a9.122,9.122,0,0,0-6.662,3.006A10.786,10.786,0,0,0,.013,38.364c-.316,6.709,4.965,11.21,12.96,18.022,1.405,1.2,2.859,2.436,4.4,3.789l.7.613.7-.613c1.639-1.434,3.177-2.739,4.664-4C31.364,49.45,36.6,45.008,36.284,38.364Zm-5.1,7.679c-2.125,2.577-5.209,5.2-9.114,8.509-1.28,1.086-2.6,2.2-3.988,3.412-1.3-1.127-2.528-2.176-3.725-3.2C10.4,51.4,7.276,48.737,5.135,46.13c-2.2-2.675-3.121-5.039-3-7.666.2-4.344,3.444-7.77,7.375-7.8H9.57c4.109,0,6.2,3.5,7.09,5.587a1.537,1.537,0,0,0,2.837,0c.885-2.091,2.98-5.587,7.09-5.587h.057c3.943.031,7.315,3.53,7.517,7.8C34.282,41.057,33.363,43.395,31.18,46.043Z" transform="translate(0 -28.536)" fill="#172840"/>
        </g>
      </g>
    </g>
  </g>
</svg>
