<svg xmlns="http://www.w3.org/2000/svg" width="50" height="50" viewBox="0 0 50 50">
  <g id="Group_3042" data-name="Group 3042" transform="translate(-15154.553 5471.447)">
    <circle id="Ellipse_37" data-name="Ellipse 37" cx="25" cy="25" r="25" transform="translate(15154.553 -5471.447)" fill="#f0b440"/>
    <g id="Group_3041" data-name="Group 3041" transform="translate(15164.662 -5459.308)">
      <path id="Path_662" data-name="Path 662" d="M26.757,34.954H3.031A3.035,3.035,0,0,0,0,37.985v5.893a3.686,3.686,0,0,0,1.794,3.161V59.793a.883.883,0,0,0,.883.883H27.112a.883.883,0,0,0,.883-.883V46.6a.883.883,0,0,0-1.765,0V58.91H19.517V51.346a.883.883,0,0,0-.883-.883H11.154a.883.883,0,0,0-.883.883v7.548a.883.883,0,0,0,1.765,0V52.228h5.715V58.91H3.559V47.56c.042,0,.083,0,.125,0a3.679,3.679,0,0,0,2.8-1.295,3.68,3.68,0,0,0,5.6,0,3.68,3.68,0,0,0,5.6,0,3.68,3.68,0,0,0,5.6,0,3.684,3.684,0,0,0,6.487-2.39V37.985A3.035,3.035,0,0,0,26.757,34.954Zm1.266,8.924a1.92,1.92,0,0,1-3.839,0V41.313a.883.883,0,0,0-1.765,0v2.565a1.92,1.92,0,0,1-3.839,0V39.631a.883.883,0,0,0-1.765,0v4.247a1.92,1.92,0,0,1-3.839,0V41.313a.883.883,0,0,0-1.765,0v2.565a1.92,1.92,0,0,1-3.839,0V39.631a.883.883,0,0,0-1.765,0v4.247a1.92,1.92,0,0,1-3.839,0V37.985a1.267,1.267,0,0,1,1.266-1.266H26.757a1.267,1.267,0,0,1,1.266,1.266v5.893Z" transform="translate(0 -34.954)" fill="#172840"/>
    </g>
  </g>
</svg>
