<svg xmlns="http://www.w3.org/2000/svg" width="50" height="50" viewBox="0 0 50 50">
  <g id="Group_3045" data-name="Group 3045" transform="translate(-15202 5472)">
    <rect id="Rectangle_364" data-name="Rectangle 364" width="50" height="50" transform="translate(15202 -5472)" fill="#d94040" opacity="0"/>
    <g id="Group_3043" data-name="Group 3043" transform="translate(-3.296 -12.317)">
      <g id="Group_3044" data-name="Group 3044" transform="translate(15207.144 -5457.713)">
        <path id="Path_1881" data-name="Path 1881" d="M15212.325-5450.341s-3.318,30.622,30.211,30.212c2.016-.268,6.105-10.8,5.723-16.238-.594-8.566-6.223-14.356-11.836-17.254C15225.181-5460.554,15212.325-5450.341,15212.325-5450.341Z" transform="translate(-15204.115 5457.957)" fill="#f0b440"/>
        <g id="whatsapp" transform="translate(0)">
          <path id="Path_652" data-name="Path 652" d="M39.464,6.731A23.166,23.166,0,0,0,6.817,6.725,22.738,22.738,0,0,0,0,22.96v.011A22.855,22.855,0,0,0,2.82,33.82L.063,46.35l12.675-2.883a23.2,23.2,0,0,0,10.4,2.472h.009a23.091,23.091,0,0,0,16.335-6.726,22.724,22.724,0,0,0-.024-32.483ZM23.152,42.322h-.008a19.554,19.554,0,0,1-9.294-2.356l-.6-.325L4.822,41.557l1.831-8.32L6.3,32.629a19.337,19.337,0,0,1-2.682-9.661A19.529,19.529,0,0,1,36.911,9.294a19.23,19.23,0,0,1,5.778,13.683A19.469,19.469,0,0,1,23.152,42.322Zm0,0" transform="translate(0)" fill="#172840"/>
          <path id="Path_653" data-name="Path 653" d="M143.148,141.863h-1.015a1.948,1.948,0,0,0-1.412.66,5.91,5.91,0,0,0-1.854,4.4c0,2.6,1.9,5.106,2.162,5.459s3.664,5.852,9.047,7.967c4.474,1.758,5.384,1.408,6.355,1.32s3.134-1.277,3.575-2.509a4.4,4.4,0,0,0,.309-2.51c-.133-.22-.486-.352-1.015-.616s-3.125-1.563-3.611-1.739-.838-.264-1.192.265-1.393,1.748-1.7,2.1-.618.4-1.148.133a14.645,14.645,0,0,1-4.241-2.63,16.225,16.225,0,0,1-2.977-3.712c-.309-.528-.033-.814.233-1.077.238-.236.559-.56.824-.868a3.568,3.568,0,0,0,.517-.88.969.969,0,0,0-.044-.924c-.133-.264-1.149-2.874-1.62-3.918h0c-.4-.879-.814-.909-1.192-.924Zm0,0" transform="translate(-126.295 -129.02)" fill="#172840"/>
        </g>
      </g>
    </g>
  </g>
</svg>
