<svg xmlns="http://www.w3.org/2000/svg" width="30" height="30" viewBox="0 0 30 30"><rect width="30" height="30" fill="#fff" opacity="0"/><path d="M71,56A15,15,0,1,0,86,71,15.017,15.017,0,0,0,71,56Zm0,27.75A12.75,12.75,0,1,1,83.75,71,12.764,12.764,0,0,1,71,83.75Zm0,0" transform="translate(-56 -56)" fill="#172840"/><g transform="translate(7.473 10.001)"><path d="M42.963,40.206l-7.5,7.144-3.572-3.69a1.166,1.166,0,1,0-1.688,1.609l4.4,4.514a1.2,1.2,0,0,0,.824.353,1.35,1.35,0,0,0,.824-.314l8.36-7.929a1.138,1.138,0,0,0,.039-1.649A1.222,1.222,0,0,0,42.963,40.206Z" transform="translate(-29.887 -39.887)" fill="#172840"/></g></svg>