<svg xmlns="http://www.w3.org/2000/svg" width="30" height="30" viewBox="0 0 30 30"><rect width="30" height="30" fill="#fff" opacity="0"/><path d="M71,56A15,15,0,1,0,86,71,15.017,15.017,0,0,0,71,56Zm0,27.75A12.75,12.75,0,1,1,83.75,71,12.764,12.764,0,0,1,71,83.75Zm0,0" transform="translate(-56 -56)" fill="#172840"/><path d="M2,11A2,2,0,0,1,0,9V2A2,2,0,0,1,2,0H15a2,2,0,0,1,2,2V9a2,2,0,0,1-2,2ZM1.619,8.31a1,1,0,0,0,1,1H14.381a1,1,0,0,0,1-1V5.5H1.619ZM15.381,3.387V2.694a1,1,0,0,0-1-1H2.619a1,1,0,0,0-1,1v.693Z" transform="translate(6.49 9.598)" fill="#172840"/></svg>