<svg xmlns="http://www.w3.org/2000/svg" width="30" height="30" viewBox="0 0 30 30"><rect width="30" height="30" fill="#fff" opacity="0"/><path d="M30,15A15,15,0,1,1,15,0,15,15,0,0,1,30,15Zm0,0" fill="#f0b440"/><g transform="translate(9 7.544)"><path d="M176.516,150.852a6.074,6.074,0,0,0-6.067,6.067c0,4.742,5.23,8.493,5.453,8.651a1.065,1.065,0,0,0,1.228,0c.223-.158,5.453-3.909,5.453-8.651A6.074,6.074,0,0,0,176.516,150.852Zm0,12.5c-1.244-1.04-3.939-3.618-3.939-6.43a3.939,3.939,0,1,1,7.879,0C180.455,159.731,177.759,162.309,176.516,163.348Zm0,0" transform="translate(-170.449 -150.852)" fill="#fff"/><path d="M239.182,218.194a1.39,1.39,0,1,1-1.39-1.39A1.39,1.39,0,0,1,239.182,218.194Zm0,0" transform="translate(-231.724 -212.128)" fill="#fff"/></g></svg>