<svg xmlns="http://www.w3.org/2000/svg" width="24" height="24" viewBox="0 0 24 24">
  <g id="Group_1967" data-name="Group 1967" transform="translate(16768 19174)">
    <rect id="Rectangle_899" data-name="Rectangle 899" width="24" height="24" transform="translate(-16768 -19174)" fill="#fff" opacity="0"/>
    <g id="discount_1_" data-name="discount (1)" transform="translate(-16777.871 -19173.998)">
      <g id="Group_1960" data-name="Group 1960" transform="translate(10.359 -0.002)">
        <g id="Group_1959" data-name="Group 1959" transform="translate(0)">
          <path id="Path_742" data-name="Path 742" d="M32.275,12.308a.7.7,0,0,1,0-.622l.9-1.831a2.083,2.083,0,0,0-.9-2.766l-1.8-.955a.7.7,0,0,1-.365-.5l-.352-2.007A2.083,2.083,0,0,0,27.4,1.914L25.383,2.2a.7.7,0,0,1-.591-.192L23.327.59a2.083,2.083,0,0,0-2.909,0L18.953,2.007a.7.7,0,0,1-.591.192l-2.018-.285a2.083,2.083,0,0,0-2.353,1.71l-.352,2.007a.7.7,0,0,1-.365.5l-1.8.955a2.083,2.083,0,0,0-.9,2.766l.895,1.831a.7.7,0,0,1,0,.622l-.9,1.831a2.083,2.083,0,0,0,.9,2.766l1.8.955a.7.7,0,0,1,.365.5l.352,2.007A2.082,2.082,0,0,0,16.044,22.1a2.141,2.141,0,0,0,.3-.021l2.018-.285a.7.7,0,0,1,.591.192L20.418,23.4a2.083,2.083,0,0,0,2.909,0l1.465-1.417a.7.7,0,0,1,.591-.192l2.018.285a2.083,2.083,0,0,0,2.353-1.71l.352-2.007a.7.7,0,0,1,.365-.5l1.8-.955a2.083,2.083,0,0,0,.9-2.766Zm-.653,3.375-1.8.955a2.079,2.079,0,0,0-1.08,1.486l-.352,2.007a.7.7,0,0,1-.8.578l-2.018-.285a2.078,2.078,0,0,0-1.747.568l-1.465,1.417a.7.7,0,0,1-.984,0l-1.465-1.417a2.076,2.076,0,0,0-1.449-.589,2.124,2.124,0,0,0-.3.021l-2.018.285a.7.7,0,0,1-.8-.578L15,18.124a2.078,2.078,0,0,0-1.08-1.486l-1.8-.955a.7.7,0,0,1-.3-.936l.9-1.831a2.078,2.078,0,0,0,0-1.837l-.9-1.831a.7.7,0,0,1,.3-.936l1.8-.955A2.079,2.079,0,0,0,15,5.87l.352-2.007a.7.7,0,0,1,.8-.578l2.018.285A2.078,2.078,0,0,0,19.915,3L21.38,1.585a.7.7,0,0,1,.984,0L23.829,3a2.078,2.078,0,0,0,1.747.568l2.018-.285a.7.7,0,0,1,.8.578l.352,2.007a2.078,2.078,0,0,0,1.08,1.486l1.8.955a.7.7,0,0,1,.3.936l-.9,1.831a2.079,2.079,0,0,0,0,1.837l.9,1.831A.7.7,0,0,1,31.623,15.682Z" transform="translate(-10.359 0.002)" fill="#f0b440"/>
        </g>
      </g>
      <g id="Group_1962" data-name="Group 1962" transform="translate(16.613 6.738)">
        <g id="Group_1961" data-name="Group 1961">
          <path id="Path_743" data-name="Path 743" d="M154.107,143.994a.692.692,0,0,0-.979,0l-9.134,9.134a.692.692,0,1,0,.979.979l9.134-9.134A.692.692,0,0,0,154.107,143.994Z" transform="translate(-143.791 -143.791)" fill="#f0b440"/>
        </g>
      </g>
      <g id="Group_1964" data-name="Group 1964" transform="translate(16.567 5.769)">
        <g id="Group_1963" data-name="Group 1963">
          <path id="Path_744" data-name="Path 744" d="M145.339,123.116a2.537,2.537,0,1,0,2.537,2.537A2.54,2.54,0,0,0,145.339,123.116Zm0,3.691a1.153,1.153,0,1,1,1.153-1.153A1.155,1.155,0,0,1,145.339,126.807Z" transform="translate(-142.802 -123.116)" fill="#f0b440"/>
        </g>
      </g>
      <g id="Group_1966" data-name="Group 1966" transform="translate(22.103 13.15)">
        <g id="Group_1965" data-name="Group 1965">
          <path id="Path_745" data-name="Path 745" d="M263.459,280.61A2.537,2.537,0,1,0,266,283.147,2.54,2.54,0,0,0,263.459,280.61Zm0,3.691a1.153,1.153,0,1,1,1.153-1.153A1.155,1.155,0,0,1,263.459,284.3Z" transform="translate(-260.922 -280.61)" fill="#f0b440"/>
        </g>
      </g>
    </g>
  </g>
</svg>
