<svg xmlns="http://www.w3.org/2000/svg" id="business-and-trade" width="19.132" height="19.684" viewBox="0 0 19.132 19.684">
    <defs>
        <style>
            .trad-1{fill:#acb1b8}
        </style>
    </defs>
    <path id="Path_834" d="M10.387 1.576L1.626.2A1.378 1.378 0 0 0 .494.518 1.5 1.5 0 0 0 0 1.626v17.41a.815.815 0 0 0 .8.826h2.588v-4.338a1.418 1.418 0 0 1 1.4-1.446h1.988a1.418 1.418 0 0 1 1.4 1.446v4.338h3.388V3.006a1.433 1.433 0 0 0-1.172-1.429zm-6 10.642h-1.2a.62.62 0 0 1 0-1.239h1.2a.62.62 0 0 1 0 1.239zm0-2.479h-1.2a.62.62 0 0 1 0-1.239h1.2a.62.62 0 0 1 0 1.239zm0-2.479h-1.2a.62.62 0 0 1 0-1.239h1.2a.62.62 0 0 1 0 1.239zm0-2.479h-1.2a.62.62 0 0 1 0-1.239h1.2a.62.62 0 0 1 0 1.239zm3.983 7.437h-1.2a.62.62 0 0 1 0-1.239h1.2a.62.62 0 0 1 0 1.239zm0-2.479h-1.2a.62.62 0 0 1 0-1.239h1.2a.62.62 0 0 1 0 1.239zm0-2.479h-1.2a.62.62 0 0 1 0-1.239h1.2a.62.62 0 0 1 0 1.239zm0-2.479h-1.2a.62.62 0 0 1 0-1.239h1.2a.62.62 0 0 1 0 1.239z" class="trad-1" data-name="Path 834" transform="translate(0 -.178)"/>
    <path id="Path_835" d="M21.176 10.583L15.5 9.351v12.1h5.381a1.423 1.423 0 0 0 1.4-1.446V12a1.428 1.428 0 0 0-1.105-1.417zm-1.889 8.393h-1.2a.62.62 0 0 1 0-1.239h1.2a.62.62 0 0 1 0 1.239zm0-2.479h-1.2a.62.62 0 0 1 0-1.239h1.2a.62.62 0 0 1 0 1.239zm0-2.479h-1.2a.62.62 0 0 1 0-1.239h1.2a.62.62 0 0 1 0 1.239z" class="trad-1" data-name="Path 835" transform="translate(-3.144 -1.772)"/>
</svg>
