<svg xmlns="http://www.w3.org/2000/svg" width="20.042" height="20.042" viewBox="0 0 20.042 20.042">
  <g id="Group_2714" data-name="Group 2714" transform="translate(-1045.542 -918.793)">
    <g id="give" transform="translate(1045.542 930.709)">
      <g id="Group_2712" data-name="Group 2712" transform="translate(0 0)">
        <g id="Group_2711" data-name="Group 2711">
          <path id="Path_1069" data-name="Path 1069" d="M24.871,238.158l-.679,4.758a.46.46,0,0,1-.453.392H21.333v-6.3l3.176.635A.457.457,0,0,1,24.871,238.158Zm15.321,4.091c-2.2,1.08-5.874,2.888-7.434,2.888-1.662,0-6.028-1.946-7.57-2.7h-.005l.538-3.766a8.785,8.785,0,0,1,2.467-.392,4.125,4.125,0,0,1,1.855.569,8.726,8.726,0,0,0,2.167.793c1.986.4,2.833.815,2.833,1.38a.271.271,0,0,1-.121.245c-.29.217-1.426.582-5.691-.683a.457.457,0,0,0-.261.877,18.537,18.537,0,0,0,4.856.935,5.657,5.657,0,0,0,1.808-.479,21.49,21.49,0,0,1,3.979-.894,2.109,2.109,0,0,1,1.76.652C41.056,241.824,40.653,242.023,40.193,242.248Z" transform="translate(-21.333 -237.01)" fill="#0288d1"/>
        </g>
      </g>
    </g>
    <g id="bag" transform="translate(1053.263 918.793)">
      <g id="Group_2713" data-name="Group 2713">
        <path id="Path_1070" data-name="Path 1070" d="M76.833,9.782l-.6-6.629a.353.353,0,0,0-.353-.322H74.815V2.123a2.111,2.111,0,0,0-.621-1.5,2.125,2.125,0,0,0-3.626,1.5v.708H69.507a.353.353,0,0,0-.352.322l-.6,6.628a1.415,1.415,0,0,0,1.41,1.544h5.461a1.416,1.416,0,0,0,1.411-1.543ZM74.107,2.831H71.276V2.123a1.416,1.416,0,1,1,2.831,0Z" transform="translate(-68.546 0)" fill="#0288d1"/>
      </g>
    </g>
  </g>
</svg>
