<svg xmlns="http://www.w3.org/2000/svg" id="calendar" width="15.753" height="14.38" viewBox="0 0 15.753 14.38">
    <defs>
        <style>
            .cal-2{fill:#172840}.cal-1{fill:#f0b440}
        </style>
    </defs>
    <path id="Path_677" d="M13.866 92.834H1.887A1.889 1.889 0 0 1 0 90.947v-8.824a1.889 1.889 0 0 1 1.887-1.887h11.979a1.889 1.889 0 0 1 1.887 1.887v8.824a1.889 1.889 0 0 1-1.887 1.887zM1.887 81.15a.974.974 0 0 0-.973.973v8.824a.974.974 0 0 0 .973.973h11.979a.974.974 0 0 0 .973-.973v-8.824a.974.974 0 0 0-.973-.973z" class="cal-2" data-name="Path 677" transform="translate(0 -78.454)"/>
    <path id="Path_678" d="M71.41 40.259h-.531a.619.619 0 0 1-.619-.619v-1.858a.619.619 0 0 1 .619-.619h.531a.619.619 0 0 1 .619.619v1.858a.619.619 0 0 1-.619.619z" class="cal-1" data-name="Path 678" transform="translate(-68.098 -36.706)"/>
    <path id="Path_679" d="M57.012 26.318h-.531a1.078 1.078 0 0 1-1.081-1.076v-1.858a1.078 1.078 0 0 1 1.076-1.076h.531a1.078 1.078 0 0 1 1.076 1.076v1.858a1.078 1.078 0 0 1-1.071 1.076zm-.531-3.1a.162.162 0 0 0-.162.162v1.858a.162.162 0 0 0 .162.162h.531a.162.162 0 0 0 .162-.162v-1.854a.162.162 0 0 0-.162-.162z" class="cal-2" data-name="Path 679" transform="translate(-53.7 -22.308)"/>
    <path id="Path_680" d="M385.384 40.259h-.531a.619.619 0 0 1-.619-.619v-1.858a.619.619 0 0 1 .619-.619h.531a.619.619 0 0 1 .619.619v1.858a.619.619 0 0 1-.619.619z" class="cal-1" data-name="Path 680" transform="translate(-372.412 -36.706)"/>
    <path id="Path_681" d="M370.987 26.318h-.531a1.078 1.078 0 0 1-1.076-1.076v-1.858a1.077 1.077 0 0 1 1.076-1.076h.531a1.077 1.077 0 0 1 1.076 1.076v1.858a1.077 1.077 0 0 1-1.076 1.076zm-.531-3.1a.162.162 0 0 0-.162.162v1.858a.162.162 0 0 0 .162.162h.531a.162.162 0 0 0 .162-.162v-1.854a.162.162 0 0 0-.162-.162z" class="cal-2" data-name="Path 681" transform="translate(-358.015 -22.308)"/>
    <path id="Path_682" d="M228.4 40.259h-.531a.619.619 0 0 1-.619-.619v-1.858a.619.619 0 0 1 .619-.619h.531a.619.619 0 0 1 .619.619v1.858a.619.619 0 0 1-.619.619z" class="cal-1" data-name="Path 682" transform="translate(-220.255 -36.706)"/>
    <path id="Path_683" d="M214 26.318h-.531a1.078 1.078 0 0 1-1.076-1.076v-1.858a1.078 1.078 0 0 1 1.076-1.076H214a1.078 1.078 0 0 1 1.076 1.076v1.858A1.077 1.077 0 0 1 214 26.318zm-.531-3.1a.162.162 0 0 0-.162.162v1.858a.162.162 0 0 0 .162.162H214a.162.162 0 0 0 .162-.162v-1.854a.162.162 0 0 0-.162-.162z" class="cal-2" data-name="Path 683" transform="translate(-205.857 -22.308)"/>
    <path id="Path_684" d="M29.695 98.278V96.52a1.43 1.43 0 0 0-1.43-1.43H16.286a1.43 1.43 0 0 0-1.43 1.43v1.759z" class="cal-1" data-name="Path 684" transform="translate(-14.399 -92.851)"/>
    <g id="Group_1801" data-name="Group 1801" transform="translate(0 1.782)">
        <path id="Path_685" d="M15.753 84.337H0v-2.215a1.889 1.889 0 0 1 1.887-1.887h11.979a1.889 1.889 0 0 1 1.887 1.887v2.216zM.914 83.423h13.925v-1.3a.974.974 0 0 0-.973-.973H1.887a.974.974 0 0 0-.973.973z" class="cal-2" data-name="Path 685" transform="translate(0 -80.235)"/>
        <path id="Path_686" d="M65.279 249.951h-.914v-1.331a.7.7 0 0 1 .7-.7h1.585v.914h-1.371z" class="cal-2" data-name="Path 686" transform="translate(-62.385 -242.758)"/>
        <path id="Path_687" d="M168.771 249.951h-.914v-1.331a.7.7 0 0 1 .7-.7h1.582v.914h-1.371v1.12z" class="cal-2" data-name="Path 687" transform="translate(-162.692 -242.758)"/>
        <path id="Path_688" d="M272.264 249.951h-.914v-1.331a.7.7 0 0 1 .7-.7h1.582v.914h-1.371v1.12z" class="cal-2" data-name="Path 688" transform="translate(-263.001 -242.758)"/>
        <path id="Path_689" d="M375.757 249.951h-.914v-1.331a.7.7 0 0 1 .7-.7h1.582v.914h-1.371z" class="cal-2" data-name="Path 689" transform="translate(-363.31 -242.758)"/>
        <path id="Path_690" d="M65.279 356.91h-.914v-1.331a.7.7 0 0 1 .7-.7h1.585v.914h-1.371z" class="cal-2" data-name="Path 690" transform="translate(-62.385 -346.426)"/>
        <path id="Path_691" d="M168.771 356.91h-.914v-1.331a.7.7 0 0 1 .7-.7h1.582v.914h-1.371v1.12z" class="cal-2" data-name="Path 691" transform="translate(-162.692 -346.426)"/>
        <path id="Path_692" d="M272.264 356.91h-.914v-1.331a.7.7 0 0 1 .7-.7h1.582v.914h-1.371v1.12z" class="cal-2" data-name="Path 692" transform="translate(-263.001 -346.426)"/>
        <path id="Path_693" d="M375.757 356.91h-.914v-1.331a.7.7 0 0 1 .7-.7h1.582v.914h-1.371z" class="cal-2" data-name="Path 693" transform="translate(-363.31 -346.426)"/>
    </g>
</svg>
