<svg xmlns="http://www.w3.org/2000/svg" id="cancel" width="24" height="24" viewBox="0 0 24 24">
    <defs>
        <style>
            .cls-2{fill:#172840}
        </style>
    </defs>
    <g id="cancel-2" data-name="cancel" transform="translate(2.994 3.031)">
        <path id="Path_931" d="M2.953 17.975a2.933 2.933 0 0 1-2.075-5.009L7.942 5.9a.572.572 0 0 1 .809.809l-7.064 7.067a1.79 1.79 0 0 0 2.532 2.532L16.286 4.24a1.79 1.79 0 1 0-2.532-2.532l-1.817 1.818a.572.572 0 1 1-.809-.809L12.945.9A2.935 2.935 0 0 1 17.1 5.05L5.028 17.117a2.926 2.926 0 0 1-2.075.858z" class="cls-2" data-name="Path 931" transform="translate(0 -.039)"/>
        <path id="Path_932" fill="#f0b440" d="M32.264 32.284a2.341 2.341 0 0 1-3.31 0L17 20.33a2.341 2.341 0 0 1 0-3.31 2.341 2.341 0 0 1 3.31 0l11.954 11.954a2.341 2.341 0 0 1 0 3.31z" data-name="Path 932" transform="translate(-15.645 -15.683)"/>
        <path id="Path_933" d="M15.021 17.937a2.916 2.916 0 0 1-2.075-.86L.878 5.01A2.935 2.935 0 0 1 5.029.86L17.1 12.927a2.935 2.935 0 0 1-2.075 5.01zM2.953 1.144A1.79 1.79 0 0 0 1.687 4.2l12.068 12.068a1.79 1.79 0 0 0 2.532-2.532L4.219 1.669a1.778 1.778 0 0 0-1.266-.525z" class="cls-2" data-name="Path 933"/>
    </g>
</svg>
