<svg xmlns="http://www.w3.org/2000/svg" width="24" height="24" viewBox="0 0 24 24"><path d="M0,0H24V24H0Z" transform="translate(0 24) rotate(-90)" fill="#fff" opacity="0"/><g transform="translate(3.352 3.709)"><path d="M5.525,0H1.85A1.852,1.852,0,0,0,0,1.85V5.525a1.852,1.852,0,0,0,1.85,1.85H5.525a1.852,1.852,0,0,0,1.85-1.85V1.85A1.852,1.852,0,0,0,5.525,0Zm.6,5.525a.6.6,0,0,1-.6.6H1.85a.6.6,0,0,1-.6-.6V1.85a.6.6,0,0,1,.6-.6H5.525a.6.6,0,0,1,.6.6Z" fill="#acb1b8" stroke="#acb1b8" stroke-width="0.5"/><g transform="translate(9.608)"><path d="M281.5,0h-3.625A1.877,1.877,0,0,0,276,1.875V5.5a1.877,1.877,0,0,0,1.875,1.875H281.5A1.877,1.877,0,0,0,283.375,5.5V1.875A1.877,1.877,0,0,0,281.5,0Zm.625,5.5a.626.626,0,0,1-.625.625h-3.625a.626.626,0,0,1-.625-.625V1.875a.626.626,0,0,1,.625-.625H281.5a.626.626,0,0,1,.625.625Z" transform="translate(-276)" fill="#acb1b8" stroke="#acb1b8" stroke-width="0.5"/></g><g transform="translate(0 9.605)"><path d="M5.525,276H1.85A1.852,1.852,0,0,0,0,277.85v3.675a1.852,1.852,0,0,0,1.85,1.85H5.525a1.852,1.852,0,0,0,1.85-1.85V277.85A1.852,1.852,0,0,0,5.525,276Zm.6,5.525a.6.6,0,0,1-.6.6H1.85a.6.6,0,0,1-.6-.6V277.85a.6.6,0,0,1,.6-.6H5.525a.6.6,0,0,1,.6.6Z" transform="translate(0 -276)" fill="#acb1b8" stroke="#acb1b8" stroke-width="0.5"/></g><g transform="translate(9.608 9.605)"><path d="M281.5,276h-3.625A1.877,1.877,0,0,0,276,277.875V281.5a1.877,1.877,0,0,0,1.875,1.875H281.5a1.877,1.877,0,0,0,1.875-1.875v-3.625A1.877,1.877,0,0,0,281.5,276Zm.625,5.5a.626.626,0,0,1-.625.625h-3.625a.626.626,0,0,1-.625-.625v-3.625a.626.626,0,0,1,.625-.625H281.5a.626.626,0,0,1,.625.625Z" transform="translate(-276 -276)" fill="#acb1b8" stroke="#acb1b8" stroke-width="0.5"/></g></g></svg>