<svg xmlns="http://www.w3.org/2000/svg" id="Component_88" width="24" height="24" data-name="Component 88" viewBox="0 0 24 24">
    <defs>
        <style>
            .cmp-3{fill:#172840}
        </style>
    </defs>
    <g id="medal" transform="translate(-81.999 1.816)">
        <path id="Path_934" fill="#f0b440" d="M107.474 14.322a6.153 6.153 0 1 0 6.153 6.153 6.153 6.153 0 0 0-6.153-6.153zm1.674 8.73l-1.675-.88-1.674.88.32-1.865-1.355-1.32 1.872-.272.837-1.7.837 1.7 1.872.272-1.355 1.32z" data-name="Path 934" transform="translate(-13.752 -13.752)"/>
        <g id="Group_2400" data-name="Group 2400" transform="translate(86.999)">
            <path id="Path_935" d="M98.944 12.546a.57.57 0 0 0-.57.57v3.736l-1.723-1.16a.57.57 0 0 0-.636 0l-1.723 1.16v-2.12a.57.57 0 0 0-1.14 0v4l-1.723-1.16a.57.57 0 0 0-.636 0l-1.723 1.16v-7.16a6.717 6.717 0 1 0-1.14-1.438V19.8a.57.57 0 0 0 .888.473l2.293-1.544 2.289 1.542a.57.57 0 0 0 .888-.473v-1.573l2.041-1.374 2.293 1.544a.57.57 0 0 0 .888-.473v-4.806a.57.57 0 0 0-.566-.57zM93.722 1.14a5.584 5.584 0 1 1-5.584 5.584 5.59 5.59 0 0 1 5.584-5.584z" class="cmp-3" data-name="Path 935" transform="translate(-86.999)"/>
            <path id="Path_936" d="M174.885 93.963l-.269 1.569a.57.57 0 0 0 .827.6l1.409-.741 1.409.741a.57.57 0 0 0 .827-.6l-.269-1.569 1.14-1.111a.57.57 0 0 0-.316-.972l-1.576-.229-.7-1.428a.57.57 0 0 0-1.022 0l-.7 1.428-1.576.229a.57.57 0 0 0-.316.972zm1.212-1.228a.57.57 0 0 0 .429-.312l.326-.661.326.661a.57.57 0 0 0 .429.312l.73.106-.528.515a.57.57 0 0 0-.164.5l.125.727-.653-.343a.569.569 0 0 0-.53 0l-.653.343.125-.727a.57.57 0 0 0-.164-.5l-.528-.515z" class="cmp-3" data-name="Path 936" transform="translate(-170.129 -86.328)"/>
        </g>
    </g>
</svg>
