<svg id="correct" xmlns="http://www.w3.org/2000/svg" width="41" height="41" viewBox="0 0 41 41">
  <path id="Path_982" data-name="Path 982" d="M41,4.7A4.7,4.7,0,0,0,36.3,0H4.7A4.7,4.7,0,0,0,0,4.7V36.3A4.7,4.7,0,0,0,4.7,41H36.3A4.7,4.7,0,0,0,41,36.3Zm0,0" fill="#4caf50"/>
  <path id="Path_983" data-name="Path 983" d="M160.9,165.829a1.706,1.706,0,0,1,0,2.415l-11.1,11.1a1.706,1.706,0,0,1-2.415,0l-5.551-5.551a1.708,1.708,0,0,1,2.415-2.415l4.343,4.343,9.895-9.894A1.706,1.706,0,0,1,160.9,165.829Zm0,0" transform="translate(-130.009 -152.087)" fill="#fafafa"/>
</svg>
