<svg xmlns="http://www.w3.org/2000/svg" id="Component_92" width="16" height="16" data-name="Component 92" viewBox="0 0 16 16">
    <g id="bill" transform="translate(2.526 .842)">
        <g id="Group_2490" data-name="Group 2490">
            <path id="Path_957" fill="#acb1b8" d="M74.7 0h-10a.425.425 0 0 0-.425.425v12.39a.425.425 0 0 0 .124.3l1.25 1.25a.425.425 0 0 0 .6 0l.95-.95.95.95a.424.424 0 0 0 .6 0l.95-.95.95.95a.424.424 0 0 0 .6 0l.95-.95.95.95a.424.424 0 0 0 .6 0L75 13.116a.424.424 0 0 0 .124-.3V.425A.424.424 0 0 0 74.7 0zm-5.43 3.189V2.7a.425.425 0 0 1 .849 0v.485h.481a.425.425 0 0 1 0 .849h-1.209a.485.485 0 0 0 0 .97H70a1.334 1.334 0 0 1 .121 2.662v.491a.425.425 0 0 1-.849 0V7.67h-.485a.425.425 0 1 1 0-.849H70a.485.485 0 1 0 0-.97h-.606a1.334 1.334 0 0 1-.121-2.662zm2.7 7.664h-4.549a.425.425 0 0 1 0-.849h4.547a.425.425 0 1 1 0 .849z" data-name="Path 957" transform="translate(-64.268)"/>
        </g>
    </g>
</svg>
