<svg xmlns="http://www.w3.org/2000/svg" width="34" height="34" viewBox="0 0 34 34"><g fill="#fff" stroke="#d1d1d1" stroke-width="1"><circle cx="17" cy="17" r="17" stroke="none"/><circle cx="17" cy="17" r="16.5" fill="none"/></g><g transform="translate(9.457 11.254)"><path d="M13.759,61H1.326A1.328,1.328,0,0,0,0,62.326v8.839A1.328,1.328,0,0,0,1.326,72.49H13.759a1.328,1.328,0,0,0,1.326-1.326V62.326A1.328,1.328,0,0,0,13.759,61Zm-.183.884L7.57,67.889,1.513,61.884ZM.884,70.981V62.5l4.257,4.22Zm.625.625,4.259-4.259,1.492,1.48a.442.442,0,0,0,.624,0L9.339,67.37l4.236,4.236ZM14.2,70.981,9.964,66.745,14.2,62.509Z" transform="translate(0 -61)" fill="#172840" stroke="#172840" stroke-width="0.3"/></g></svg>