<svg xmlns="http://www.w3.org/2000/svg" width="140" height="140" viewBox="0 0 140 140"><rect width="140" height="140" fill="#fff" opacity="0"/><g transform="translate(-705.143 -218.894)"><g transform="translate(719 231.405)"><g transform="translate(4.38 11.255)"><path d="M88.193,87.641c-17.087,19.292-31.51,20.486-42.626,6.063C30.226,73.77,2.024,83.6.094,58.612-1.927,33.625,44.925-4.959,75.975.553S119.8,52,88.193,87.641Z" transform="translate(-0.031 0.006)" fill="#f4f4f4"/><path d="M17.286,89.236C9.478,84.091.567,90.706.2,96.31s17.179,7.074,19.935,4.869C22.8,98.974,19.491,90.706,17.286,89.236Z" transform="translate(-0.044 -7.101)" fill="#f4f4f4"/><path d="M115.925,7.073c-.643-6.522-8.084-8.36-11.3-6.247-3.215,2.2,3.675,12.4,6.063,12.861C113.077,14.239,116.109,8.91,115.925,7.073Z" transform="translate(-8.471 0.008)" fill="#f4f4f4"/></g><g transform="translate(0 0)"><path d="M0,0H96.376V65.711H0Z" transform="translate(109.956 94.185) rotate(180)" fill="#eee"/><g transform="translate(88.052 63.52)"><path d="M402,326h21.9v30.665H402Z" transform="translate(-402 -326)" fill="#eee"/></g><path d="M242,166h26.284v13.142H242Z" transform="translate(-188.993 -137.525)" fill="#eee"/><path d="M62,346H79.523v26.284H62Z" transform="translate(-48.42 -278.099)" fill="#eee"/><path d="M402,166h21.9v26.284H402Z" transform="translate(-313.948 -137.525)" fill="#eee"/><path d="M136.472,166h-8.761v39.426H110.188l-8.761-8.761H62v8.761H79.523v26.284h8.761V205.426h8.761l8.761,8.761h21.9v17.523h8.761V201.046h21.9v-8.761h-21.9Z" transform="translate(-48.42 -137.525)" fill="#fff"/><ellipse cx="21.783" cy="21.364" rx="21.783" ry="21.364" transform="translate(2.234 3.012)" fill="#fff"/><g transform="translate(0 0)"><path d="M109.956,62.284H48.087c.065-.722.1-1.452.1-2.19a24.094,24.094,0,1,0-36.8,20.463v49.628a2.19,2.19,0,0,0,2.19,2.19h96.376a2.19,2.19,0,0,0,2.19-2.19V64.475A2.19,2.19,0,0,0,109.956,62.284ZM85.862,99.52v28.475H81.481V112.662a2.19,2.19,0,0,0-2.19-2.19h-21l-8.12-8.12a2.192,2.192,0,0,0-1.549-.642H39.864a2.19,2.19,0,0,0-2.19,2.19v24.094H33.293V103.9a2.19,2.19,0,0,0-2.19-2.19H15.771V97.33H52.1l8.12,8.12a2.191,2.191,0,0,0,1.549.642H79.291a2.19,2.19,0,0,0,2.19-2.19V66.665h4.381V90.759a2.19,2.19,0,0,0,2.19,2.19h19.713V97.33H88.052A2.19,2.19,0,0,0,85.862,99.52ZM77.1,127.995H42.055v-21.9h5.664l8.12,8.12a2.191,2.191,0,0,0,1.549.642H77.1v13.142ZM55.2,79.807H77.1v21.9H62.675L55.2,94.232Zm21.9-4.381H55.2V66.665H77.1Zm30.665,13.142H90.243v-21.9h17.523ZM4.381,60.094A19.713,19.713,0,1,1,24.094,79.807,19.736,19.736,0,0,1,4.381,60.094ZM24.094,84.188A24.138,24.138,0,0,0,47.277,66.665h3.539V92.949H15.771V82.705a23.983,23.983,0,0,0,8.323,1.482Zm-8.323,21.9H28.913v21.9H15.771Zm74.472,21.9V101.711h17.523v26.284Z" transform="translate(0 -36)" fill="#acb1b8"/></g></g></g><g transform="translate(732.472 245.329)"><ellipse cx="6" cy="5.5" rx="6" ry="5.5" transform="translate(3.671 4.564)" fill="#f0b440"/><path d="M46.546,2.925A9.986,9.986,0,1,0,37.36,19.744l2.126,2.834,2.126-2.834A9.987,9.987,0,0,0,46.546,2.925Zm-7.061-.318a7.335,7.335,0,1,1-7.335,7.335A7.343,7.343,0,0,1,39.486,2.607Z" transform="translate(-29.5 0)" fill="#f0b440"/></g></g></svg>