<svg xmlns="http://www.w3.org/2000/svg" id="empty_box" width="140" height="140" data-name="empty box" viewBox="0 0 140 140">
    <defs>
        <style>
            .box-1{fill:#f4f4f4}.box-3{fill:#eee}.box-5{fill:#f0b440}
        </style>
    </defs>
    <g id="Group_2170" data-name="Group 2170" transform="translate(-702.786 -216.816)">
        <g id="Untitled-2" transform="rotate(-23 995.38 -1613.033)">
            <path id="Path_729" d="M14.928 78.9C-2.834 66.733-6.268 26.3 12.965 8.15 33.376-11.083 95.688 5.6 96.08 38.57S32.983 91.167 14.928 78.9z" class="box-1" data-name="Path 729" transform="translate(0 14.971)"/>
            <path id="Path_730" d="M11.427.591C4.852-1.96-.545 4.32.044 8.442s13.64 2.355 15.308.393c1.668-2.061-2.159-7.557-3.925-8.244z" class="box-1" data-name="Path 730" transform="translate(17.929)"/>
        </g>
        <g id="Group_1845" data-name="Group 1845" transform="translate(721.323 255.594)">
            <path id="Path_758" d="M-3546.876 3258.776l-27.142 11.814 8.885 17.281 29.681-13.376z" class="box-3" data-name="Path 758" transform="translate(3633.448 -3247.599)"/>
            <path id="Path_759" d="M35.65 0L0 17.781l1.849 19.787L38.944 22z" class="box-3" data-name="Path 759" transform="rotate(38 11.671 39.248)"/>
            <g id="empty-white-box">
                <g id="Group_1843" data-name="Group 1843">
                    <path id="Path_756" fill="#acb1b8" d="M89.366 12.928a2.576 2.576 0 0 0-2.51-1.052c-.036-.009-.073-.024-.109-.029L47.586 6.1a2.585 2.585 0 0 0-1.272.132L14.95 17.726c-.014.005-.026.014-.04.019-.033.014-.064.035-.1.047a2.69 2.69 0 0 0-.478.272l-.133.1a2.528 2.528 0 0 0-.431.44c-.007.01-.017.016-.024.026L.5 36.749A2.6 2.6 0 0 0 1.949 40.8l11.492 2.968V72.18a2.6 2.6 0 0 0 1.84 2.486L57.36 87.523c.014.007.029 0 .043.009a2.7 2.7 0 0 0 .7.1h.019a2.6 2.6 0 0 0 .733-.116c.076-.024.147-.057.225-.09a2.608 2.608 0 0 0 .3-.118l30.2-16.757a2.6 2.6 0 0 0 1.337-2.273v-28.4l10.214-4.9a2.6 2.6 0 0 0 1-3.835zm-41.882-1.59l30.566 4.486-20.276 9.428-32.107-5.916zM16.979 23.019l36.79 6.78-10.813 16.222-36-9.294zm1.66 47.238V45.108l24.8 6.4a2.694 2.694 0 0 0 .65.083 2.6 2.6 0 0 0 2.162-1.157l9.266-13.9v44.992zm67.077-3.5l-25 13.871V39.58l4.565 9.7a2.6 2.6 0 0 0 1.479 1.339 2.512 2.512 0 0 0 .87.151 2.65 2.65 0 0 0 1.124-.253l16.958-8.139v24.376zM68.87 44.7l-7.288-15.486 24.776-11.52 9.76 13.923z" data-name="Path 756" transform="translate(0 -6.071)"/>
                </g>
            </g>
        </g>
        <g id="Group_1858" data-name="Group 1858" transform="translate(753.543 231.765)">
            <path id="Path_777" d="M228.257 9.478a2.257 2.257 0 0 0 2.257-2.257V2.257a2.257 2.257 0 0 0-4.513 0v4.964a2.257 2.257 0 0 0 2.256 2.257z" class="box-5" data-name="Path 777" transform="translate(-212.033)"/>
            <path id="Path_778" d="M133.962 45.88l3.8 3.191a2.257 2.257 0 0 0 2.9-3.457l-3.8-3.191a2.257 2.257 0 1 0-2.9 3.457z" class="box-5" data-name="Path 778" transform="translate(-133.156 -35.593)"/>
            <path id="Path_779" d="M297.271 49.072l3.8-3.191a2.257 2.257 0 1 0-2.9-3.457l-3.8 3.191a2.257 2.257 0 0 0 2.9 3.457z" class="box-5" data-name="Path 779" transform="translate(-269.432 -35.593)"/>
        </g>
    </g>
</svg>
