<svg xmlns="http://www.w3.org/2000/svg" id="empty_wallet" width="140" height="140" data-name="empty wallet" viewBox="0 0 140 140">
    <defs>
        <style>
            .add-2{fill:#f4f4f4}.add-3{fill:#acb1b8}.add-4{fill:#f0b440}
        </style>
    </defs>
    <g id="Group_2172" data-name="Group 2172" transform="translate(7078.072 5376.455)">
        <g id="Group_2171" data-name="Group 2171" transform="translate(-7077.688 -5369.14)">
            <g id="Untitled-3" transform="rotate(-12.04 118.088 12.49)">
                <path id="Path_774" d="M.025 50.955C-1.063 26.357 33.549-4.555 63.263.561c31.456 5.442 59.1 73.8 29.279 96.761C62.719 120.4 1.222 75.88.025 50.955z" class="add-2" data-name="Path 774"/>
                <path id="Path_775" d="M.271 1.453c-2.612 2.721 14.367 27.1 20.68 27.973S26.72 15.058 22.475 8.2C18.339 1.235 3.645-2.139.271 1.453z" class="add-2" data-name="Path 775" transform="translate(93.778 9.876)"/>
            </g>
        </g>
        <g id="no-money" transform="translate(-7050.373 -5358.567)">
            <path id="Path_776" d="M92.61 151.491h-2.472v-7.249a7.427 7.427 0 0 0-4.943-6.99v-7.837A7.422 7.422 0 0 0 77.782 122h-51.9A9.9 9.9 0 0 0 16 131.885v44.483a9.9 9.9 0 0 0 9.885 9.885h56.84a7.422 7.422 0 0 0 7.414-7.414v-7.579h2.471a2.471 2.471 0 0 0 2.471-2.471v-14.827a2.471 2.471 0 0 0-2.471-2.471zm-66.725-24.548h51.9a2.474 2.474 0 0 1 2.471 2.471v7.414H25.885a4.943 4.943 0 1 1 0-9.885zm59.311 51.9a2.474 2.474 0 0 1-2.471 2.471h-56.84a4.948 4.948 0 0 1-4.943-4.943V140.44a9.82 9.82 0 0 0 4.943 1.33h56.84a2.474 2.474 0 0 1 2.471 2.471v7.249h-9.885a2.471 2.471 0 0 0-1.747.724l-7.414 7.414a2.471 2.471 0 0 0 0 3.495l7.414 7.414a2.471 2.471 0 0 0 1.747.724H85.2zm4.943-12.521h-13.8l-4.943-4.943 4.943-4.943h13.8z" class="add-3" data-name="Path 776" transform="translate(-16 -101.9)"/>
            <g id="Group_1857" data-name="Group 1857" transform="translate(19.302)">
                <path id="Path_777" d="M228.471 10.379a2.471 2.471 0 0 0 2.471-2.471V2.471a2.471 2.471 0 0 0-4.943 0v5.437a2.471 2.471 0 0 0 2.472 2.471z" class="add-4" data-name="Path 777" transform="translate(-210.704)"/>
                <path id="Path_778" d="M134.039 46.259l4.165 3.495a2.471 2.471 0 0 0 3.177-3.786l-4.165-3.495a2.471 2.471 0 0 0-3.177 3.786z" class="add-4" data-name="Path 778" transform="translate(-133.156 -34.993)"/>
                <path id="Path_779" d="M297.624 49.755l4.165-3.495a2.471 2.471 0 0 0-3.177-3.786l-4.165 3.495a2.471 2.471 0 0 0 3.177 3.786z" class="add-4" data-name="Path 779" transform="translate(-267.137 -34.993)"/>
            </g>
            <path id="Path_780" d="M93.3 361H78.471A2.471 2.471 0 0 0 76 363.471v9.885a2.471 2.471 0 0 0 2.471 2.471H93.3a2.471 2.471 0 0 0 2.471-2.471v-9.885A2.471 2.471 0 0 0 93.3 361zm-2.471 9.885h-9.886v-4.943h9.885z" class="add-3" data-name="Path 780" transform="translate(-66.115 -301.525)"/>
        </g>
    </g>
</svg>
