<svg id="remove" xmlns="http://www.w3.org/2000/svg" width="41" height="41" viewBox="0 0 41 41">
  <path id="Path_1044" data-name="Path 1044" d="M36.3,0H4.7A4.7,4.7,0,0,0,0,4.7V36.3A4.7,4.7,0,0,0,4.7,41H36.3A4.7,4.7,0,0,0,41,36.3V4.7A4.7,4.7,0,0,0,36.3,0Zm0,0" fill="#fe1743"/>
  <path id="Path_1045" data-name="Path 1045" d="M171.071,168.655a1.708,1.708,0,1,1-2.416,2.416l-5.133-5.134-5.133,5.134a1.708,1.708,0,0,1-2.416-2.416l5.134-5.133-5.134-5.133a1.708,1.708,0,1,1,2.416-2.416l5.133,5.134,5.133-5.134a1.708,1.708,0,0,1,2.416,2.416l-5.134,5.133Zm0,0" transform="translate(-143.021 -143.021)" fill="#fafafa"/>
</svg>
