<svg xmlns="http://www.w3.org/2000/svg" id="header_-_Order_Tracking" width="16" height="16" data-name="header - Order Tracking" viewBox="0 0 16 16">
    <path id="box" fill="#172840" d="M14.833 0H1.167A1.172 1.172 0 0 0 0 1.167v13.666A1.172 1.172 0 0 0 1.167 16h13.666A1.172 1.172 0 0 0 16 14.833V1.167A1.172 1.172 0 0 0 14.833 0zM7.907 6.18L5.453 7.907a.52.52 0 0 1-.52.04.514.514 0 0 1-.266-.447V1h6.667v6.5a.514.514 0 0 1-.267.447.568.568 0 0 1-.234.053.507.507 0 0 1-.287-.093L8.093 6.18a.16.16 0 0 0-.186 0zM14 13.5a.5.5 0 0 1-.5.5H9.167a.5.5 0 0 1-.5-.5v-2.334a.5.5 0 0 1 .5-.5H13.5a.5.5 0 0 1 .5.5z"/>
</svg>
