<svg xmlns="http://www.w3.org/2000/svg" id="header_-_deals" width="16" height="16" data-name="header - deals" viewBox="0 0 16 16">
    <defs>
        <style>
            .cls-2{fill:#172840}
        </style>
    </defs>
    <g id="coupon" transform="translate(0 -16.744)">
        <path id="Path_546" d="M107.672 222.991a.727.727 0 1 0 .539.7.646.646 0 0 0-.539-.7z" class="cls-2" data-name="Path 546" transform="translate(-103.79 -199.553)"/>
        <path id="Path_547" d="M259.036 341.981a.727.727 0 1 0 .539.7.646.646 0 0 0-.539-.7z" class="cls-2" data-name="Path 547" transform="translate(-250.43 -314.83)"/>
        <path id="Path_548" d="M11.667 21.462c-4.746-4.367-4.5-4.2-4.881-4.347a1.557 1.557 0 0 0-1.615.3L.777 21.462A2.416 2.416 0 0 0 0 23.237V30.4a1.528 1.528 0 0 0 1.522 1.53h9.4a1.528 1.528 0 0 0 1.522-1.53v-7.163a2.417 2.417 0 0 0-.777-1.774zm-5.9-1.535a.468.468 0 1 1 .374.505.468.468 0 0 1-.372-.504zm-3.36 4.213a1.565 1.565 0 0 1 1.475-1.64 1.648 1.648 0 0 1 0 3.277 1.565 1.565 0 0 1-1.475-1.637zm2.684 4.982a.469.469 0 0 1-.431-.649l2.279-5.431a.468.468 0 0 1 .861.358l-2.278 5.435a.468.468 0 0 1-.431.287zm3.515.369a1.648 1.648 0 0 1 0-3.277 1.648 1.648 0 0 1 0 3.277z" class="cls-2" data-name="Path 548"/>
        <path id="Path_549" d="M290.551 44.837c-1.524-4.437-2.371-6.9-2.383-6.932a2.391 2.391 0 0 0-1.412-1.309c-.036-.012.178.04-3.217-.766l3.452 3.176a3.354 3.354 0 0 1 1.08 2.463v6.067l1.684-.721a1.52 1.52 0 0 0 .796-1.978z" class="cls-2" data-name="Path 549" transform="translate(-274.691 -18.234)"/>
    </g>
</svg>
