<svg xmlns="http://www.w3.org/2000/svg" id="header_-_store" width="16" height="16" data-name="header - store" viewBox="0 0 16 16">
    <defs>
        <style>
            .cls-2{fill:#172840}
        </style>
    </defs>
    <g id="fair-stand" transform="translate(1.415)">
        <g id="Layer_5_38_">
            <path id="Path_554" d="M47.352 2.779a.193.193 0 0 1-.192.284H34.595a.2.2 0 0 1-.2-.287L35.32.287A.474.474 0 0 1 35.732 0h10.194a.491.491 0 0 1 .421.284z" class="cls-2" data-name="Path 554" transform="translate(-34.288)"/>
            <path id="Path_555" d="M32.344 90.952a1.11 1.11 0 0 0 2.134.428c.033-.079.11-.078.143 0a1.11 1.11 0 0 0 2.05-.005c.032-.078.106-.085.136-.009a1.11 1.11 0 0 0 2.059 0c.031-.076.1-.076.133 0a1.11 1.11 0 0 0 2.059 0c.031-.076.1-.076.133 0a1.11 1.11 0 0 0 2.059 0c.03-.076.1-.076.133 0a1.11 1.11 0 0 0 2.14-.415v-.469a.219.219 0 0 0-.231-.219H32.651c-.307 0-.307.228-.307.228z" class="cls-2" data-name="Path 555" transform="translate(-32.344 -86.327)"/>
            <path id="Path_556" d="M52.257 235.551v-4.4a.487.487 0 0 0-.485-.485H40.208a.487.487 0 0 0-.485.485v4.6a.857.857 0 0 0 1.609.411c.021-.038.036-.119.242-.119h8.845c.194 0 .23.08.25.117a.856.856 0 0 0 .753.449.839.839 0 0 0 .835-.858v-.2z" class="cls-2" data-name="Path 556" transform="translate(-39.401 -220.602)"/>
            <path id="Path_557" d="M74.839 145.666a.153.153 0 0 0-.152-.142h-.442a.154.154 0 0 0-.153.153v2.539a.154.154 0 0 0 .153.153h.442a.153.153 0 0 0 .152-.142v-2.557a.013.013 0 0 0 0-.004z" class="cls-2" data-name="Path 557" transform="translate(-72.271 -139.176)"/>
            <path id="Path_558" d="M277.243 145.666a.153.153 0 0 0-.152-.142h-.442a.154.154 0 0 0-.153.153v2.539a.154.154 0 0 0 .153.153h.442a.153.153 0 0 0 .152-.142v-2.557a.014.014 0 0 0 0-.004z" class="cls-2" data-name="Path 558" transform="translate(-265.845 -139.176)"/>
        </g>
    </g>
</svg>
