<svg id="dislike" xmlns="http://www.w3.org/2000/svg" width="25" height="24" viewBox="0 0 25 24">
  <defs>
    <style>
      .cls-1 {
        fill: #fff;
        opacity: 0;
      }

      .cls-2 {
        fill: #fe1743;
      }
    </style>
  </defs>
  <rect id="Rectangle_260" data-name="Rectangle 260" class="cls-1" width="25" height="24" transform="translate(0)"/>
  <g id="heart_outline" data-name="heart outline" transform="translate(0 1)">
    <g id="Group_566" data-name="Group 566">
      <path id="Path_447" data-name="Path 447" class="cls-2" d="M23.991,35.034a7.048,7.048,0,0,0-1.918-4.517,6.167,6.167,0,0,0-4.446-1.981,5.7,5.7,0,0,0-4.171,1.73,8.431,8.431,0,0,0-1.5,2.067,8.431,8.431,0,0,0-1.5-2.067,5.7,5.7,0,0,0-4.172-1.73,6.031,6.031,0,0,0-4.4,1.987A7.132,7.132,0,0,0,.009,35.034C-.2,39.47,3.292,42.446,8.578,46.951c.929.792,1.89,1.611,2.912,2.505l.463.405.463-.405c1.084-.948,2.1-1.811,3.084-2.646C20.738,42.364,24.2,39.427,23.991,35.034Zm-3.375,5.077a50.166,50.166,0,0,1-6.026,5.626c-.846.718-1.718,1.458-2.637,2.256-.857-.745-1.672-1.439-2.463-2.113A50.937,50.937,0,0,1,3.4,40.169,7.188,7.188,0,0,1,1.413,35.1,5.177,5.177,0,0,1,6.29,29.943h.038c2.717,0,4.1,2.312,4.688,3.694a1.017,1.017,0,0,0,1.876,0c.585-1.382,1.97-3.694,4.688-3.694h.038a5.284,5.284,0,0,1,4.97,5.158A7.1,7.1,0,0,1,20.616,40.111Z" transform="translate(0 -28.536)"/>
    </g>
  </g>
</svg>
