<svg xmlns="http://www.w3.org/2000/svg" id="heart_fill" width="24" height="21.325" data-name="heart fill" viewBox="0 0 24 21.325">
    <g id="Group_565" data-name="Group 565">
        <path id="Path_446" fill="#fe1743" d="M23.991 35.028a6.62 6.62 0 0 0-6.317-6.5h-.049A6.444 6.444 0 0 0 12 32.33a6.444 6.444 0 0 0-5.626-3.8h-.049a6.62 6.62 0 0 0-6.317 6.5c-.208 4.433 3.33 7.41 8.617 11.914.915.78 1.889 1.61 2.912 2.5l.463.405.463-.405c1.023-.9 2-1.725 2.912-2.5 5.286-4.504 8.825-7.481 8.616-11.916z" data-name="Path 446" transform="translate(0 -28.529)"/>
    </g>
</svg>
