<svg xmlns="http://www.w3.org/2000/svg" id="Group_1735" width="41" height="41" data-name="Group 1735" viewBox="0 0 41 41">
    <circle id="Ellipse_14" cx="20.5" cy="20.5" r="20.5" fill="#e6e6e6" data-name="Ellipse 14"/>
    <g id="heart_fill" data-name="heart fill" transform="translate(11.63 13.319)">
        <g id="Group_565" data-name="Group 565">
            <path id="Path_446" fill="#acb1b8" d="M17.581 33.291a4.851 4.851 0 0 0-4.629-4.762h-.036a4.722 4.722 0 0 0-4.123 2.786 4.722 4.722 0 0 0-4.123-2.786h-.035a4.851 4.851 0 0 0-4.629 4.762c-.153 3.251 2.44 5.432 6.314 8.733.671.576 1.38 1.176 2.135 1.836l.339.3.339-.3c.75-.656 1.463-1.264 2.134-1.836 3.874-3.301 6.468-5.482 6.314-8.733z" data-name="Path 446" transform="translate(0 -28.529)"/>
        </g>
    </g>
</svg>
