<svg xmlns="http://www.w3.org/2000/svg" xmlns:xlink="http://www.w3.org/1999/xlink" width="20" height="20" viewBox="0 0 20 20">
  <defs>
    <clipPath id="clip-path">
      <rect id="Rectangle_8839" data-name="Rectangle 8839" width="20" height="20" fill="#fff"/>
    </clipPath>
  </defs>
  <g id="help-circle" clip-path="url(#clip-path)">
    <path id="Path_7428" data-name="Path 7428" d="M10,18.333A8.333,8.333,0,1,1,18.333,10,8.333,8.333,0,0,1,10,18.333Z" transform="translate(0)" fill="none" stroke="#7e859b" stroke-linecap="round" stroke-linejoin="round" stroke-width="2"/>
    <path id="Path_7429" data-name="Path 7429" d="M10.659,11.9v-.434a2.468,2.468,0,0,0-.066-.586,2.1,2.1,0,0,0-.2-.52,2.6,2.6,0,0,0-.369-.5,6.428,6.428,0,0,0-.573-.54A4.091,4.091,0,0,1,8.9,8.738a1.044,1.044,0,0,1-.2-.645.969.969,0,0,1,.3-.7,1.08,1.08,0,0,1,.809-.3,1.284,1.284,0,0,1,.9.342,1.464,1.464,0,0,1,.283.355,1.624,1.624,0,0,1,.165.408l1.514-.632a2.893,2.893,0,0,0-.336-.737,2.83,2.83,0,0,0-1.4-1.145A2.922,2.922,0,0,0,9.856,5.5,3.377,3.377,0,0,0,8.7,5.691a2.73,2.73,0,0,0-.9.527,2.392,2.392,0,0,0-.586.8,2.485,2.485,0,0,0-.118,1.672,2.527,2.527,0,0,0,.25.566,3.075,3.075,0,0,0,.369.494q.211.23.447.454t.375.382a1.69,1.69,0,0,1,.237.336,1.38,1.38,0,0,1,.125.349,2.018,2.018,0,0,1,.04.421V11.9Zm-.842,3.317a1.082,1.082,0,0,0,.8-.336,1.114,1.114,0,0,0,.329-.809,1.124,1.124,0,0,0-1.132-1.132,1.114,1.114,0,0,0-.81.329,1.082,1.082,0,0,0-.336.8,1.146,1.146,0,0,0,1.145,1.145Z" transform="translate(0.34)" fill="#7e859b" fill-rule="evenodd"/>
  </g>
</svg>
