<svg xmlns="http://www.w3.org/2000/svg" width="15.999" height="14.544" viewBox="0 0 15.999 14.544">
    <g id="house" transform="translate(.001 -23.276)">
        <g id="Group_1537" data-name="Group 1537" transform="translate(-.001 23.276)">
            <path id="Path_543" fill="#172840" d="M15.271 36.365h-.727v-7.236l.331.215a.727.727 0 1 0 .793-1.219L8.4 23.393a.727.727 0 0 0-.793 0L.33 28.125a.727.727 0 0 0 .793 1.219l.331-.215v7.237H.727a.727.727 0 1 0 0 1.454h14.544a.727.727 0 0 0 0-1.454zm-5.09 0H5.817v-4.12a.727.727 0 0 1 .727-.727h2.909a.727.727 0 0 1 .727.727v4.121z" data-name="Path 543" transform="translate(.001 -23.276)"/>
        </g>
    </g>
</svg>
