<svg xmlns="http://www.w3.org/2000/svg" width="10.298" height="9.866" viewBox="0 0 10.298 9.866">
    <path id="star" fill="#f5b618" d="M10.074 5.518a.739.739 0 0 0-.41-1.26L7.171 3.9a.326.326 0 0 1-.245-.178L5.811 1.459a.739.739 0 0 0-1.324 0L3.371 3.718a.326.326 0 0 1-.246.178l-2.493.363a.739.739 0 0 0-.41 1.26l1.8 1.759a.326.326 0 0 1 .094.289L1.7 10.049a.723.723 0 0 0 .161.6.746.746 0 0 0 .91.18L5 9.655a.334.334 0 0 1 .3 0l2.23 1.172a.731.731 0 0 0 .344.086.741.741 0 0 0 .567-.266.723.723 0 0 0 .161-.6l-.426-2.481a.326.326 0 0 1 .094-.289z" transform="translate(.001 -1.047)"/>
</svg>
