<svg xmlns="http://www.w3.org/2000/svg" width="24" height="24" viewBox="0 0 24 24">
    <defs>
        <style>.a{fill:#9a9a9a;opacity:0;}.b{fill:#fff;fill-rule:evenodd;}</style>
    </defs>
    <g transform="translate(22889 24678)">
        <rect class="a" width="24" height="24" transform="translate(-22889 -24678)"/>
        <g transform="translate(-22884 -24678.002)">
            <g transform="translate(0 0.002)">
                <path class="b" d="M.758,69.532a.773.773,0,0,1,1.5-.25c.28.6.518,1.335.75,1.966.12.324.248.646.38.966.064.155.107.347.273.419a.576.576,0,0,0,.522-.095,13.951,13.951,0,0,0,.128-2.612c-.014-1.81.02-3.625,0-5.433-.006-.438.021-.879.023-1.322V61.8c0-.456-.013-.909.013-1.357.024-.392-.092-.864.294-1.075a.68.68,0,0,1,.939.182,1.882,1.882,0,0,1,.173,1.2c-.01,2.255.021,4.556,0,6.8a1.475,1.475,0,0,0,.051.633.483.483,0,0,0,.425.239c.5-.054.423-.563.425-.921,0-.456,0-.912,0-1.367,0-.379-.056-.832.371-1a.818.818,0,0,1,.972.292,20.451,20.451,0,0,1,.095,2.624c.017.353-.075.96.425.953.562,0,.483-.5.484-.889,0-.443-.009-.9,0-1.344a.683.683,0,0,1,.619-.755c1.053-.107.85,1.177.849,1.856,0,.423-.019.907.022,1.324a.418.418,0,0,0,.779.184,9.78,9.78,0,0,0,.079-1.288c.012-.4-.023-.768.4-.968a.664.664,0,0,1,.9.286,21.343,21.343,0,0,1,.24,3.831,11.246,11.246,0,0,1-1.032,4.424,4.49,4.49,0,0,1-3.182,2.25A8.7,8.7,0,0,1,6.144,77.8,5.6,5.6,0,0,1,4.2,77.01c-1.4-.907-1.608-1.879-2.1-3.356C2.02,73.429.77,69.671.758,69.534Zm12.894.733c-.01-.8-.05-1.636-.112-2.284a2.33,2.33,0,0,0-.289-1.13,1.355,1.355,0,0,0-.858-.561c-.663-.128-.832.138-1.187.16a1.5,1.5,0,0,0-.791-1.094,1.786,1.786,0,0,0-1.531.092,1.085,1.085,0,0,1-.141-.3,1.419,1.419,0,0,0-.668-.678,1.927,1.927,0,0,0-1.145-.116,2.4,2.4,0,0,1-.372.093c-.075-.6-.051-2.432-.049-3.181A10.82,10.82,0,0,0,6.4,59.41a1.512,1.512,0,0,0-2.774-.048.946.946,0,0,0-.081.576c0,3.471-.024,6.928-.024,10.4-.049-.047-.031-.033-.056-.115l-.331-.892a2.252,2.252,0,0,0-.5-.918,1.321,1.321,0,0,0-1-.414,1.76,1.76,0,0,0-1.088.32,1.658,1.658,0,0,0-.532.888A1.08,1.08,0,0,0,0,69.352v.128a3.689,3.689,0,0,0,.205.925c.415,1.28.96,3.048,1.414,4.263a5.755,5.755,0,0,0,.941,1.9,6.423,6.423,0,0,0,4.7,2.169,10.142,10.142,0,0,0,1.576-.07,4.817,4.817,0,0,0,2.042-.8,5.605,5.605,0,0,0,2.279-3.4,12.812,12.812,0,0,0,.448-2.389c.026-.317.041-.7.046-1.1Z" transform="translate(0 -54.734)"/>
                <path class="b" d="M7.7,8.862a4.9,4.9,0,0,0,.045-.79A4.345,4.345,0,0,1,6.22,6.344a4.093,4.093,0,0,1-.192-2.809A3.933,3.933,0,0,1,10.53.861a4.543,4.543,0,0,1,.627.18,3.923,3.923,0,0,1,1.5,6.289,5.213,5.213,0,0,1-.417.39c-.582.49-.455.128-.458,1.206a4.557,4.557,0,0,0,1.193-.813,4.8,4.8,0,0,0,.888-1.144,4.536,4.536,0,0,0,.534-1.5,5.416,5.416,0,0,0-.064-1.862A4.735,4.735,0,0,0,8.107.309a4.8,4.8,0,0,0-2.894,3.2A4.81,4.81,0,0,0,6.506,8.065C6.676,8.235,7.49,8.941,7.7,8.862Z" transform="translate(-4.738 -0.002)"/>
                <path class="b" d="M32.832,31.651v-.806a2.226,2.226,0,0,0-.088-.768,2.431,2.431,0,0,1,.072-1.476,2.22,2.22,0,0,1,4.11.009,2.16,2.16,0,0,1,.1,1.442,1.683,1.683,0,0,0-.138.719c0,.291,0,.589,0,.881a2.479,2.479,0,0,0,.519-.606A3,3,0,0,0,33.923,26.6a3.116,3.116,0,0,0-1.8,1.645,3.08,3.08,0,0,0-.148.411,3.792,3.792,0,0,0,0,1.556A3.281,3.281,0,0,0,32.832,31.651Z" transform="translate(-29.847 -24.755)"/>
            </g>
        </g>
    </g>
</svg>