<svg xmlns="http://www.w3.org/2000/svg" width="24" height="24" viewBox="0 0 24 24">
    <g id="header_-_cart" data-name="header - cart">
        <path id="cart" fill="#f0b440" d="M133.309 132.3a3.78 3.78 0 0 1-3.517-5.158.31.31 0 0 0-.031-.285.32.32 0 0 0-.254-.136h-3.536a.3.3 0 0 0-.254.136.312.312 0 0 0-.031.285 3.784 3.784 0 1 1-6.143-1.35.3.3 0 0 0 .093-.223.31.31 0 0 0-.1-.223 4.78 4.78 0 0 1-1.474-3l-.694-7.654v-.012l-.272-4.016a.305.305 0 0 0-.31-.279h-1.6a.991.991 0 0 1 0-1.982h2.787a1 1 0 0 1 .991.9l.272 4a.305.305 0 0 0 .31.279h14.527a3.3 3.3 0 0 1 .427.025 4.124 4.124 0 0 1 3.672 4.533l-.384 4.217a4.8 4.8 0 0 1-1.666 3.17.293.293 0 0 0-.105.217.308.308 0 0 0 .081.229 3.772 3.772 0 0 1-2.793 6.328zm-11.152-1.988a1.79 1.79 0 1 0-.012 0zm11.158 0a1.8 1.8 0 1 0 0-3.592 1.8 1.8 0 0 0-.012 3.592zm-13.536-14.756a.308.308 0 0 0-.31.334l.57 6.267a2.919 2.919 0 0 0 2.811 2.57h10.143a2.914 2.914 0 0 0 2.811-2.57l.384-4.211a1.8 1.8 0 0 0 .012-.316 2.135 2.135 0 0 0-2.143-2.081H134z" transform="translate(-114.2 -108.4)"/>
    </g>
</svg>
