<svg xmlns="http://www.w3.org/2000/svg" width="36" height="36" viewBox="0 0 36 36">
    <g id="Group_2144" data-name="Group 2144" transform="translate(-137 -298)">
        <circle id="Ellipse_5" cx="18" cy="18" r="18" fill="#e6e6e6" data-name="Ellipse 5" transform="translate(137 298)"/>
        <g id="add-to-cart" transform="translate(146 307.5)">
            <path id="Path_644" fill="#fff" d="M16.951 7.148c-2.742 5.808-3.635 5.808-4.167 5.808H7.539A3.463 3.463 0 0 1 3.953 10.2c-.01-.048-1.053-5.146-1.314-6.57-.13-.7-.462-1.164-1.655-1.164A.983.983 0 1 1 .983.5a3.282 3.282 0 0 1 3.589 2.769c.263 1.409 1.3 6.489 1.309 6.541a1.527 1.527 0 0 0 1.659 1.18h4.986a27.734 27.734 0 0 0 2.647-4.682.983.983 0 0 1 1.779.84zM6.884 13.612a1.639 1.639 0 1 0 1.639 1.639 1.639 1.639 0 0 0-1.639-1.639zm5.9 0a1.639 1.639 0 1 0 1.639 1.639 1.639 1.639 0 0 0-1.639-1.639zM9.613 8.265a.366.366 0 0 0 .454 0A24.362 24.362 0 0 0 12.9 5.017a.366.366 0 0 0-.3-.57h-1.466S10.992 1.634 10.9 1.5a1.652 1.652 0 0 0-1.061-.32 1.687 1.687 0 0 0-1.071.32c-.092.13-.215 2.944-.215 2.944H7.075a.366.366 0 0 0-.3.57 24.133 24.133 0 0 0 2.838 3.251z" data-name="Path 644"/>
        </g>
    </g>
</svg>
