<svg xmlns="http://www.w3.org/2000/svg" width="30.498" height="27.099" viewBox="0 0 30.498 27.099">
    <g id="heart_outline" data-name="heart outline">
        <g id="Group_566" data-name="Group 566">
            <path id="Path_447" fill="#acb1b8" d="M30.487 36.794a8.956 8.956 0 0 0-2.437-5.739 7.837 7.837 0 0 0-5.65-2.518 7.24 7.24 0 0 0-5.3 2.2 10.714 10.714 0 0 0-1.91 2.627 10.714 10.714 0 0 0-1.91-2.627 7.244 7.244 0 0 0-5.3-2.2 7.664 7.664 0 0 0-5.6 2.526 9.063 9.063 0 0 0-2.37 5.732c-.265 5.636 4.173 9.417 10.89 15.141 1.181 1.006 2.4 2.047 3.7 3.183l.588.515.588-.515c1.377-1.205 2.669-2.3 3.919-3.362 6.658-5.649 11.055-9.381 10.792-14.963zM26.2 43.245a63.748 63.748 0 0 1-7.66 7.155c-1.076.913-2.183 1.852-3.351 2.867-1.089-.947-2.124-1.829-3.13-2.686a64.728 64.728 0 0 1-7.745-7.257c-1.845-2.252-2.622-4.239-2.514-6.446.172-3.65 2.894-6.529 6.2-6.555h.048c3.453 0 5.214 2.937 5.957 4.694a1.292 1.292 0 0 0 2.383 0c.743-1.757 2.5-4.694 5.957-4.694h.048a6.715 6.715 0 0 1 6.307 6.555c.1 2.179-.668 4.143-2.5 6.367z" data-name="Path 447" transform="translate(0 -28.536)"/>
        </g>
    </g>
</svg>
