<svg xmlns="http://www.w3.org/2000/svg" width="36" height="36" viewBox="0 0 36 36">
  <defs>
    <style>
      .cls-1 {
        fill: #f0b440;
      }

      .cls-2 {
        fill: #fff;
      }
    </style>
  </defs>
  <g id="Group_2113" data-name="Group 2113" transform="translate(-318.778 -298)">
    <path id="Path_646" data-name="Path 646" class="cls-1" d="M18,0A18,18,0,1,1,0,18,18,18,0,0,1,18,0Z" transform="translate(318.778 298)"/>
    <g id="add-to-cart" transform="translate(327.778 307.5)">
      <path id="Path_644" data-name="Path 644" class="cls-2" d="M16.951,7.148c-2.742,5.808-3.635,5.808-4.167,5.808H7.539A3.463,3.463,0,0,1,3.953,10.2C3.943,10.152,2.9,5.054,2.639,3.63c-.13-.7-.462-1.164-1.655-1.164A.983.983,0,1,1,.983.5,3.282,3.282,0,0,1,4.572,3.269c.263,1.409,1.3,6.489,1.309,6.541a1.527,1.527,0,0,0,1.659,1.18h4.986a27.734,27.734,0,0,0,2.647-4.682.983.983,0,0,1,1.779.84ZM6.884,13.612a1.639,1.639,0,1,0,1.639,1.639A1.639,1.639,0,0,0,6.884,13.612Zm5.9,0a1.639,1.639,0,1,0,1.639,1.639A1.639,1.639,0,0,0,12.784,13.612ZM9.613,8.265a.366.366,0,0,0,.454,0A24.362,24.362,0,0,0,12.9,5.017a.366.366,0,0,0-.3-.57H11.134S10.992,1.634,10.9,1.5A1.652,1.652,0,0,0,9.839,1.18,1.687,1.687,0,0,0,8.768,1.5c-.092.13-.215,2.944-.215,2.944H7.075a.366.366,0,0,0-.3.57A24.133,24.133,0,0,0,9.613,8.265Z" transform="translate(0 0)"/>
    </g>
  </g>
</svg>
