<svg xmlns="http://www.w3.org/2000/svg" id="header_-_heart" width="24" height="24" data-name="header - heart" viewBox="0 0 24 24">
    <path id="heart" fill="#f0b440" d="M209.7 167.277a.958.958 0 0 1-.4-.092 26.777 26.777 0 0 1-8.807-6.217 10.153 10.153 0 0 1-2.789-6.586v-.218a7.22 7.22 0 0 1 1.913-4.8 6.054 6.054 0 0 1 4.424-1.967h.241a7.852 7.852 0 0 1 5.414 2.2 7.871 7.871 0 0 1 5.414-2.2h.278c3.5.02 6.332 3.148 6.314 6.975v.013a10.159 10.159 0 0 1-2.795 6.586 26.816 26.816 0 0 1-8.8 6.216.971.971 0 0 1-.407.09zm-10.02-12.921a7.961 7.961 0 0 0 2.251 5.2l.006.007a24.423 24.423 0 0 0 7.768 5.55 24.49 24.49 0 0 0 7.768-5.55l.006-.007a8 8 0 0 0 2.264-5.2v-.178a4.653 4.653 0 0 0-4.412-4.718h-.175a5.922 5.922 0 0 0-3.453 1.122 5.342 5.342 0 0 0-1.2 1.135.837.837 0 0 1-.163.172.955.955 0 0 1-1.418-.178 5.344 5.344 0 0 0-1.2-1.135 5.914 5.914 0 0 0-3.459-1.128h-.241a4.671 4.671 0 0 0-4.342 4.908z" transform="translate(-197.7 -145.4)"/>
</svg>
