<svg id="Component_122_1" data-name="Component 122 – 1" xmlns="http://www.w3.org/2000/svg" width="140" height="140" viewBox="0 0 140 140">
  <rect id="Rectangle_266" data-name="Rectangle 266" width="140" height="140" fill="#fff" opacity="0"/>
  <g id="Group_2898" data-name="Group 2898" transform="translate(6985 5330)">
    <g id="Untitled-6" transform="translate(-6970.126 -5323.933)">
      <path id="Path_791" data-name="Path 791" d="M.462,55.963C-.757,29.278,37.576-4.941,70.858.609c35.232,5.9,65.193,71.128,31.79,96.041C69.244,121.681,1.387,111.915.462,55.963Z" transform="translate(-3.713 17.23)" fill="#f4f4f4"/>
      <path id="Path_792" data-name="Path 792" d="M.423,20.672c1.889,3.66,32.942-4.841,36.13-10.981S24.038-1.408,15.419.363-2.056,15.949.423,20.672Z" transform="translate(17.905 0)" fill="#f4f4f4"/>
    </g>
    <g id="Group_2897" data-name="Group 2897" transform="translate(1 132)">
      <g id="search" transform="translate(-6957.374 -5429.374)">
        <path id="Path_1073" data-name="Path 1073" d="M204.847,105.736a22.868,22.868,0,1,0-22.868-22.868A22.894,22.894,0,0,0,204.847,105.736Zm0-40.654a17.786,17.786,0,1,1-17.786,17.786A17.806,17.806,0,0,1,204.847,65.082Z" transform="translate(-151.153 -49.836)" fill="#acb1b8"/>
        <path id="Path_1075" data-name="Path 1075" d="M2.229,84.5a7.632,7.632,0,0,0,10.78,0L36.365,61.141a33.059,33.059,0,1,0-10.78-10.78L2.229,73.716a7.632,7.632,0,0,0,0,10.78ZM53.694,5.082a27.95,27.95,0,1,1-27.95,27.95A27.982,27.982,0,0,1,53.694,5.082ZM5.823,77.31l22.8-22.8A33.338,33.338,0,0,0,32.215,58.1L9.416,80.9A2.541,2.541,0,0,1,5.823,77.31Z" fill="#acb1b8"/>
      </g>
      <path id="close_1_" data-name="close (1)" d="M359.56,325.653l-5.441,5.441,5.441,5.441a2.14,2.14,0,0,1-3.026,3.026l-5.441-5.441-5.441,5.441a2.14,2.14,0,1,1-3.026-3.026l5.441-5.441-5.441-5.441a2.14,2.14,0,0,1,3.026-3.026l5.441,5.441,5.441-5.441a2.14,2.14,0,0,1,3.026,3.026Z" transform="translate(-7255.094 -5727.094)" fill="#f0b440"/>
    </g>
  </g>
</svg>
