<svg xmlns="http://www.w3.org/2000/svg" width="14.144" height="14.144" viewBox="0 0 14.144 14.144">
    <g>
        <path fill="#fff" d="M13.444 70.763l-2.364-1.554a1.548 1.548 0 0 0-1.818.08 1.153 1.153 0 0 1-1.535-.089l-2.4-2.4a1.153 1.153 0 0 1-.087-1.534 1.548 1.548 0 0 0 .08-1.818l-1.553-2.362a1.523 1.523 0 0 0-1.186-.7 1.523 1.523 0 0 0-1.274.518 5.192 5.192 0 0 0 .212 7.111l4.993 4.993a5.193 5.193 0 0 0 7.111.212 1.554 1.554 0 0 0-.179-2.461zm0 0" transform="translate(0 -60.385)"/>
    </g>
</svg>
