<svg xmlns="http://www.w3.org/2000/svg" id="linear_arrow_right_small" width="16" height="16" data-name="linear arrow right small" viewBox="0 0 16 16">
    <g id="down-arrow" transform="rotate(-90 8.729 3.286)">
        <g id="Group_1406" data-name="Group 1406">
            <path id="Path_468" fill="#172840" d="M8.616.432L8.329.143a.48.48 0 0 0-.678 0L4.38 3.415 1.1.14a.48.48 0 0 0-.677 0L.14.427a.479.479 0 0 0 0 .677l3.9 3.913a.49.49 0 0 0 .34.154.49.49 0 0 0 .339-.154l3.9-3.9a.484.484 0 0 0 .14-.342.479.479 0 0 0-.143-.343z" data-name="Path 468"/>
        </g>
    </g>
</svg>
