<svg xmlns="http://www.w3.org/2000/svg" id="information" width="15.728" height="15.729" viewBox="0 0 15.728 15.729">
    <defs>
        <style>
            .cls-1{fill:#172840}
        </style>
    </defs>
    <path id="Path_647" d="M7.864 0a7.864 7.864 0 1 0 7.864 7.864A7.873 7.873 0 0 0 7.864 0zm0 14.3A6.434 6.434 0 1 1 14.3 7.864 6.442 6.442 0 0 1 7.864 14.3z" class="cls-1" data-name="Path 647"/>
    <path id="Path_648" d="M145.955 70a.953.953 0 1 0 .953.954.954.954 0 0 0-.953-.954z" class="cls-1" data-name="Path 648" transform="translate(-138.091 -66.664)"/>
    <path id="Path_649" d="M150.715 140a.715.715 0 0 0-.715.715V145a.715.715 0 1 0 1.43 0v-4.29a.715.715 0 0 0-.715-.71z" class="cls-1" data-name="Path 649" transform="translate(-142.851 -133.327)"/>
</svg>
