<svg xmlns="http://www.w3.org/2000/svg" width="18.04" height="18.054" viewBox="0 0 18.04 18.054">
    <g id="instagram" transform="translate(-3.133 -3.13)">
        <path id="Path_294" fill="#fff" d="M12.153 3.139c-3.695 0-7.2-.329-8.543 3.111-.554 1.42-.473 3.265-.473 5.907 0 2.318-.074 4.5.473 5.906 1.337 3.441 4.874 3.112 8.541 3.112 3.538 0 7.186.368 8.542-3.112.555-1.435.473-3.252.473-5.906 0-3.523.194-5.8-1.514-7.5-1.73-1.73-4.069-1.513-7.5-1.513zm-.808 1.625c7.707-.012 8.687-.869 8.146 11.033-.192 4.209-3.4 3.747-7.337 3.747-7.184 0-7.39-.206-7.39-7.392 0-7.27.57-7.384 6.581-7.39zm5.621 1.5a1.082 1.082 0 1 0 1.082 1.082 1.082 1.082 0 0 0-1.082-1.085zm-4.813 1.262a4.63 4.63 0 1 0 4.629 4.631 4.63 4.63 0 0 0-4.629-4.631zm0 1.625c3.973 0 3.978 6.011 0 6.011s-3.978-6.011 0-6.011z" data-name="Path 294"/>
    </g>
</svg>
