<svg xmlns="http://www.w3.org/2000/svg" id="like" width="16" height="16" viewBox="0 0 16 16">
    <g id="Group_2168" data-name="Group 2168" transform="translate(1.477 2.215)">
        <g id="heart_fill" data-name="heart fill">
            <g id="Group_565" data-name="Group 565">
                <path id="Path_446" fill="#acb1b8" d="M13.215 32.109a3.647 3.647 0 0 0-3.479-3.58h-.027a3.55 3.55 0 0 0-3.1 2.094 3.55 3.55 0 0 0-3.1-2.094h-.025A3.647 3.647 0 0 0 0 32.109c-.115 2.443 1.834 4.083 4.746 6.564.5.43 1.04.887 1.6 1.38l.255.223.255-.223c.564-.493 1.1-.95 1.6-1.38 2.925-2.481 4.874-4.121 4.759-6.564z" data-name="Path 446" transform="translate(0 -28.529)"/>
            </g>
        </g>
    </g>
</svg>
