<svg xmlns="http://www.w3.org/2000/svg" width="15.385" height="11.79" viewBox="0 0 15.385 11.79">
    <g id="mail" transform="translate(.15 -60.85)">
        <g id="Group_1626" data-name="Group 1626" transform="translate(0 61)">
            <path id="Path_650" fill="#172840" stroke="#172840" stroke-width="0.3px" d="M13.759 61H1.326A1.328 1.328 0 0 0 0 62.326v8.839a1.328 1.328 0 0 0 1.326 1.325h12.433a1.328 1.328 0 0 0 1.326-1.326v-8.838A1.328 1.328 0 0 0 13.759 61zm-.183.884L7.57 67.889l-6.057-6.005zM.884 70.981V62.5l4.257 4.22zm.625.625l4.259-4.259 1.492 1.48a.442.442 0 0 0 .624 0l1.455-1.457 4.236 4.236zm12.691-.625l-4.236-4.236 4.236-4.236z" data-name="Path 650" transform="translate(0 -61)"/>
        </g>
    </g>
</svg>
