<svg xmlns="http://www.w3.org/2000/svg" id="menu_-_credit" width="16" height="16.006" data-name="menu - credit" viewBox="0 0 16 16.006">
    <defs>
        <style>
            .cls-2{fill:#172840}
        </style>
    </defs>
    <g id="wallet" transform="translate(1.538)">
        <path id="Path_634" d="M59.592 4.109L55.621.138a.469.469 0 0 0-.663 0l-5.3 5.3h-1.406a1.614 1.614 0 0 0-1.612 1.61v7.346a1.614 1.614 0 0 0 1.612 1.612h9.571a1.614 1.614 0 0 0 1.612-1.612V7.048a1.613 1.613 0 0 0-.755-1.365l.911-.911a.469.469 0 0 0 0-.663zm-4.3-2.977l.6.6a1.41 1.41 0 0 1-1.207 0zM54 2.423a2.344 2.344 0 0 0 2.581 0l.727.727a2.348 2.348 0 0 0-.167 2.285H55.6a1.669 1.669 0 0 0-3.273 0h-1.341zm.62 3.012h-1.308a.732.732 0 0 1 1.307 0zm3.88 8.959a.675.675 0 0 1-.675.675h-9.573a.675.675 0 0 1-.675-.675V7.048a.676.676 0 0 1 .675-.675h9.571a.676.676 0 0 1 .675.675v1.819h-1.93a1.854 1.854 0 0 0 0 3.708H58.5zm0-2.757h-1.93a.916.916 0 0 1 0-1.832h1.93zM58 5.045a1.41 1.41 0 0 1 0-1.208l.6.6z" class="cls-2" data-name="Path 634" transform="translate(-46.64 -.001)"/>
        <path id="Path_635" d="M355.26 328.4a.469.469 0 1 0 .469-.469.477.477 0 0 0-.469.469z" class="cls-2" data-name="Path 635" transform="translate(-345.612 -317.68)"/>
    </g>
</svg>
