<svg xmlns="http://www.w3.org/2000/svg" id="menu_-_profile" width="16" height="16.006" data-name="menu - profile" viewBox="0 0 16 16.006">
    <defs>
        <style>
            .cls-2{fill:#172840}
        </style>
    </defs>
    <g id="user" transform="translate(1.29)">
        <path id="Path_639" d="M90.887 7.71a3.73 3.73 0 0 0 2.726-1.129 3.731 3.731 0 0 0 1.129-2.726 3.731 3.731 0 0 0-1.129-2.726 3.854 3.854 0 0 0-5.451 0 3.73 3.73 0 0 0-1.129 2.726 3.73 3.73 0 0 0 1.129 2.726 3.731 3.731 0 0 0 2.725 1.129zm-2.063-5.917a2.916 2.916 0 0 1 4.125 0 2.787 2.787 0 0 1 .851 2.062 2.787 2.787 0 0 1-.855 2.063 2.916 2.916 0 0 1-4.125 0 2.786 2.786 0 0 1-.855-2.063 2.787 2.787 0 0 1 .855-2.062zm0 0" class="cls-2" data-name="Path 639" transform="translate(-84.311)"/>
        <path id="Path_640" d="M13.321 251.893a9.525 9.525 0 0 0-.13-1.011 7.969 7.969 0 0 0-.249-1.017 5.021 5.021 0 0 0-.418-.948 3.574 3.574 0 0 0-.63-.821 2.779 2.779 0 0 0-.905-.569 3.129 3.129 0 0 0-1.156-.209 1.174 1.174 0 0 0-.627.266c-.188.123-.407.264-.653.421a3.741 3.741 0 0 1-.845.372 3.279 3.279 0 0 1-2.066 0A3.731 3.731 0 0 1 4.8 248c-.243-.155-.463-.3-.653-.421a1.172 1.172 0 0 0-.626-.266 3.126 3.126 0 0 0-1.156.209 2.778 2.778 0 0 0-.906.569 3.575 3.575 0 0 0-.63.821 5.031 5.031 0 0 0-.418.948 7.987 7.987 0 0 0-.249 1.017 9.459 9.459 0 0 0-.13 1.012c-.021.306-.032.624-.032.945a2.658 2.658 0 0 0 .789 2.011 2.841 2.841 0 0 0 2.034.742h7.707a2.842 2.842 0 0 0 2.034-.742 2.657 2.657 0 0 0 .789-2.011c0-.323-.011-.641-.032-.945zm-1.4 2.277a1.913 1.913 0 0 1-1.387.483H2.823a1.913 1.913 0 0 1-1.387-.483 1.736 1.736 0 0 1-.5-1.331c0-.3.01-.6.03-.88a8.531 8.531 0 0 1 .117-.911 7.045 7.045 0 0 1 .219-.9 4.1 4.1 0 0 1 .34-.771 2.651 2.651 0 0 1 .463-.607 1.843 1.843 0 0 1 .6-.374 2.157 2.157 0 0 1 .739-.143c.033.017.091.051.186.113.193.126.415.269.661.426a4.647 4.647 0 0 0 1.06.474 4.217 4.217 0 0 0 2.643 0 4.652 4.652 0 0 0 1.061-.474c.251-.161.467-.3.66-.426.095-.062.153-.1.186-.113a2.159 2.159 0 0 1 .739.143 1.847 1.847 0 0 1 .6.374 2.644 2.644 0 0 1 .463.607 4.083 4.083 0 0 1 .34.771 7.026 7.026 0 0 1 .219.9 8.6 8.6 0 0 1 .117.911c.02.283.03.579.03.88a1.735 1.735 0 0 1-.5 1.331zm0 0" class="cls-2" data-name="Path 640" transform="translate(0 -239.585)"/>
    </g>
</svg>
