<svg xmlns="http://www.w3.org/2000/svg" id="menu_-_Claims" width="16.006" height="16.006" data-name="menu - Claims" viewBox="0 0 16.006 16.006">
    <defs>
        <style>
            .cls-2{fill:#172840}
        </style>
    </defs>
    <g id="sticker" transform="translate(.002 .084)">
        <g id="Group_1556" data-name="Group 1556">
            <g id="Group_1555" data-name="Group 1555">
                <path id="Path_636" d="M16 8.355a.471.471 0 0 0-.184-.326l-1.268-.96.461-1.522a.471.471 0 0 0-.344-.6l-1.549-.362-.2-1.578a.471.471 0 0 0-.556-.4l-1.562.3-.818-1.361a.471.471 0 0 0-.673-.146L8 2.312 6.7 1.4a.471.471 0 0 0-.673.143L5.2 2.907l-1.562-.3a.471.471 0 0 0-.556.4l-.2 1.578-1.549.362a.471.471 0 0 0-.344.6l.461 1.522-1.268.96a.471.471 0 0 0-.072.684l1.04 1.2-.762 1.396a.471.471 0 0 0 .213.654l1.44.676-.135 1.585a.471.471 0 0 0 .46.511l1.59.032.521 1.5a.471.471 0 0 0 .628.28l1.465-.618 1.087 1.16a.471.471 0 0 0 .688 0l1.087-1.16 1.465.618a.471.471 0 0 0 .628-.28l.521-1.5 1.59-.032a.471.471 0 0 0 .46-.511l-.135-1.585 1.44-.676a.471.471 0 0 0 .213-.654l-.768-1.393 1.04-1.2A.472.472 0 0 0 16 8.355zm-2.137 1.728l.683 1.24-1.282.6a.471.471 0 0 0-.269.467l.12 1.411-1.415.029a.471.471 0 0 0-.436.317l-.464 1.337-1.3-.55a.471.471 0 0 0-.527.112L8 16.079l-.968-1.033a.471.471 0 0 0-.527-.112l-1.3.55-.464-1.337a.471.471 0 0 0-.441-.317l-1.413-.03.12-1.411a.471.471 0 0 0-.269-.467l-1.281-.6.683-1.24a.471.471 0 0 0-.056-.536l-.927-1.069 1.128-.855a.471.471 0 0 0 .166-.512l-.409-1.355 1.378-.322a.471.471 0 0 0 .36-.4l.176-1.4 1.39.267a.471.471 0 0 0 .492-.219l.732-1.212 1.162.809a.471.471 0 0 0 .539 0l1.162-.809.732 1.212a.471.471 0 0 0 .492.219l1.39-.267.176 1.4a.471.471 0 0 0 .36.4l1.379.322-.411 1.355a.471.471 0 0 0 .166.512l1.128.855-.926 1.071a.471.471 0 0 0-.054.535z" class="cls-2" data-name="Path 636" transform="translate(-.001 -1.318)"/>
            </g>
        </g>
        <g id="Group_1558" data-name="Group 1558" transform="translate(3.492 3.451)">
            <g id="Group_1557" data-name="Group 1557">
                <path id="Path_637" d="M116.232 111.722a4.51 4.51 0 1 0 4.51 4.51 4.515 4.515 0 0 0-4.51-4.51zm0 8.077a3.567 3.567 0 1 1 3.567-3.567 3.571 3.571 0 0 1-3.567 3.568z" class="cls-2" data-name="Path 637" transform="translate(-111.722 -111.722)"/>
            </g>
        </g>
        <g id="Group_1560" data-name="Group 1560" transform="translate(6.016 6.48)">
            <g id="Group_1559" data-name="Group 1559">
                <path id="Path_638" d="M196.307 208.76a.471.471 0 0 0-.667 0l-1.686 1.686-.676-.676a.471.471 0 1 0-.666.667l1.01 1.01a.471.471 0 0 0 .666 0l2.019-2.019a.471.471 0 0 0 0-.668z" class="cls-2" data-name="Path 638" transform="translate(-192.474 -208.622)"/>
            </g>
        </g>
    </g>
</svg>
