<svg xmlns="http://www.w3.org/2000/svg" id="menu_-_return" width="16.006" height="16.006" data-name="menu - return" viewBox="0 0 16.006 16.006">
    <path id="return" fill="#172840" fill-rule="evenodd" d="M12.817 0a.469.469 0 0 1 .469.469v6.222a4.917 4.917 0 1 1-6.6 6.6H.469A.469.469 0 0 1 0 12.817V.469A.469.469 0 0 1 .469 0zM8.878.938v2.628a.468.468 0 0 1-.711.4l-1.524-.773-1.556.791a.468.468 0 0 1-.678-.418V.938H.938v11.41h5.4a4.918 4.918 0 0 1 6.011-6.011V.938zM9.6 13.161h2.188a1.829 1.829 0 0 0 0-3.658h-1.3l.275-.276a.468.468 0 0 0-.663-.659L9.019 9.646a.468.468 0 0 0 0 .661l1.081 1.075a.468.468 0 0 0 .659-.663l-.279-.278h1.306a.891.891 0 0 1 0 1.782H9.6a.469.469 0 0 0 0 .938zM8.277 8.277a3.978 3.978 0 1 0 5.626 0 3.978 3.978 0 0 0-5.626 0zM7.94.938H5.346V2.8l1.086-.552a.467.467 0 0 1 .422 0L7.94 2.8zm0 0"/>
</svg>
