<svg xmlns="http://www.w3.org/2000/svg" id="menu_-_addresses" width="16" height="16" data-name="menu - addresses" viewBox="0 0 16 16">
    <path id="Path_897" fill="#172840" d="M62.528 7.153h-4.675v-.947h2.917A1.182 1.182 0 0 0 61.443 6l1.04-.717a1.187 1.187 0 0 0 0-1.955l-1.04-.717a1.182 1.182 0 0 0-.674-.21h-2.916V1.215a1.215 1.215 0 0 0-2.43 0V2.4H50.6a.469.469 0 0 0-.469.469v2.868a.469.469 0 0 0 .469.469h4.824v.947h-3.067a1.182 1.182 0 0 0-.674.21l-1.04.717a1.187 1.187 0 0 0 0 1.955l1.04.717a1.182 1.182 0 0 0 .674.21h3.065v4.1H54.17a.469.469 0 0 0 0 .938h4.936a.469.469 0 0 0 0-.937h-1.253v-4.1h4.675a.469.469 0 0 0 .472-.469V7.622a.469.469 0 0 0-.472-.469zm-.469 2.872h-9.7a.248.248 0 0 1-.142-.044l-1.04-.717a.25.25 0 0 1 0-.411l1.04-.717a.249.249 0 0 1 .142-.044h9.7zm-10.992-6.69h9.7a.248.248 0 0 1 .142.044l1.04.717a.25.25 0 0 1 0 .411l-1.04.717a.249.249 0 0 1-.142.044h-9.7zm5.293-2.12a.277.277 0 0 1 .555 0V2.4h-.555zm0 4.991h.555v.947h-.555zm.555 8.856h-.555v-4.1h.555z" data-name="Path 897" transform="translate(-48.513)"/>
</svg>
