<svg xmlns="http://www.w3.org/2000/svg" id="news" width="13.002" height="13.002" viewBox="0 0 13.002 13.002">
    <g id="Group_2491" data-name="Group 2491">
        <path id="Path_958" fill="#acb1b8" d="M12.537 3.25h-2.321V.464A.464.464 0 0 0 9.751 0H.464A.464.464 0 0 0 0 .464v10.68A1.857 1.857 0 0 0 1.857 13h9.287A1.857 1.857 0 0 0 13 11.144V3.715a.464.464 0 0 0-.463-.465zm-8.822-.928H6.5a.464.464 0 0 1 0 .929H3.715a.464.464 0 1 1 0-.929zm4.179 8.823H2.322a.464.464 0 1 1 0-.929h5.572a.464.464 0 0 1 0 .929zm0-1.857H2.322a.464.464 0 1 1 0-.929h5.572a.464.464 0 0 1 0 .929zm0-1.857H2.322a.464.464 0 1 1 0-.929h5.572a.464.464 0 0 1 0 .929zm0-1.857H2.322a.464.464 0 1 1 0-.929h5.572a.464.464 0 0 1 0 .929zm4.179 5.572a.929.929 0 0 1-1.857 0V4.179h1.857v6.965z" data-name="Path 958"/>
    </g>
</svg>
