<svg xmlns="http://www.w3.org/2000/svg" width="34" height="34" viewBox="0 0 34 34"><g fill="#fff" stroke="#d1d1d1" stroke-width="1"><circle cx="17" cy="17" r="17" stroke="none"/><circle cx="17" cy="17" r="16.5" fill="none"/></g><g transform="translate(8.76 9.381)"><g transform="translate(0 0)"><path d="M15.372,110.081l-1.958-1.958a1.629,1.629,0,0,0-2.3,0l-.683.683a1.825,1.825,0,0,1-1.668.385,4.373,4.373,0,0,1-2.238-1.252A4.372,4.372,0,0,1,5.27,105.7a1.826,1.826,0,0,1,.385-1.668l.683-.683a1.629,1.629,0,0,0,0-2.3L4.38,99.089a1.629,1.629,0,0,0-2.3,0l-.683.683a4.7,4.7,0,0,0-1.262,2.42,7.34,7.34,0,0,0,.037,2.941,12.224,12.224,0,0,0,9.16,9.16,8.238,8.238,0,0,0,1.619.168,6.483,6.483,0,0,0,1.322-.132,4.7,4.7,0,0,0,2.42-1.262l.683-.683A1.631,1.631,0,0,0,15.372,110.081Zm-.831,1.473-.683.683a4.685,4.685,0,0,1-4.3.9A10.747,10.747,0,0,1,4.266,110.2,10.747,10.747,0,0,1,1.32,104.9a4.685,4.685,0,0,1,.9-4.3l.683-.683a.454.454,0,0,1,.642,0l1.958,1.958a.454.454,0,0,1,0,.642l-.683.683a2.956,2.956,0,0,0-.71,2.71,5.553,5.553,0,0,0,1.577,2.857,5.553,5.553,0,0,0,2.857,1.577,2.956,2.956,0,0,0,2.71-.71l.683-.683a.454.454,0,0,1,.642,0l1.958,1.958A.455.455,0,0,1,14.541,111.554Z" transform="translate(0.001 -98.612)" fill="#172840"/></g></g></svg>