<svg xmlns="http://www.w3.org/2000/svg" id="phone" width="14.912" height="14.893" viewBox="0 0 14.912 14.893">
    <defs>
        <style>
            .cls-2{fill:#172840}
        </style>
    </defs>
    <path id="Path_694" fill="#f0b440" d="M28.473 28.355a3.426 3.426 0 0 1-1.725.471c-1.328 0-2.571-.961-4.081-2.471l-4.013-4.012c-1.192-1.193-1.97-2-2.222-3.089a3.441 3.441 0 0 1 .37-2.568 1.29 1.29 0 0 0-.542.325l-.667.666a3.371 3.371 0 0 0-1.016 3.433 7.529 7.529 0 0 0 2.175 3.434l3.863 3.862c1.51 1.51 2.949 2.275 4.277 2.275a3.393 3.393 0 0 0 2.587-1.115l.667-.667a1.291 1.291 0 0 0 .327-.544z" data-name="Path 694" transform="translate(-14.038 -16.21)"/>
    <g id="Group_1802" data-name="Group 1802">
        <path id="Path_695" d="M14.484 13.226a1.707 1.707 0 0 0 .226-1.936A8.041 8.041 0 0 0 12.113 9h-.006a1.874 1.874 0 0 0-.921-.261 1.309 1.309 0 0 0-1.134.616c-.29.345-.525.6-.589.661a.993.993 0 0 1-.492.2l-.046-.045-4.012-4.015C3.75 4.992 3.026 4.23 2.8 3.27a3.034 3.034 0 0 1 .238-2.1.878.878 0 0 1 .094-.005.888.888 0 0 1 .409.1 5.984 5.984 0 0 1 1.794 2.1l.013.022a.9.9 0 0 1 .13.656.456.456 0 0 1-.215.275.422.422 0 0 0 .432.725 1.291 1.291 0 0 0 .6-.774 1.715 1.715 0 0 0-.21-1.3v-.007l-.013-.012A6.832 6.832 0 0 0 3.939.519a1.737 1.737 0 0 0-.8-.2 1.7 1.7 0 0 0-1.051.36l-.013.01-.064.053-.016.014C1.97.778 1.946.8 1.922.824l-.667.666A3.8 3.8 0 0 0 .127 5.316q.025.109.056.219l.041.137a7.311 7.311 0 0 0 1.4 2.422l.083.1.093.106.135.153q.174.193.363.387l.116.117 3.863 3.862q.224.224.446.427a6.331 6.331 0 0 0 4.129 1.972 3.825 3.825 0 0 0 2.886-1.238l.666-.666c.023-.023.046-.047.068-.072zM9.952 10.7l.009-.006a8.343 8.343 0 0 0 .759-.825.423.423 0 0 0 .039-.055.46.46 0 0 1 .428-.235 1.032 1.032 0 0 1 .5.148 7.149 7.149 0 0 1 2.278 1.958.875.875 0 0 1 .1.5 2.986 2.986 0 0 1-1.353.328 4.9 4.9 0 0 1-3.049-1.641 2.529 2.529 0 0 0 .289-.172zM4.316 6.753l4.013 4.012c1.558 1.557 2.9 2.594 4.381 2.594a3.79 3.79 0 0 0 .485-.031l-.051.051a2.967 2.967 0 0 1-2.289.991c-1.212 0-2.55-.724-3.978-2.152L3.012 8.356a7.128 7.128 0 0 1-2.063-3.23 2.949 2.949 0 0 1 .9-3.039l.05-.05a4.017 4.017 0 0 0 .08 1.423c.277 1.184 1.068 2.023 2.337 3.293z" class="cls-2" data-name="Path 695" transform="translate(0 -.321)"/>
        <path id="Path_696" d="M283.96 140.933a.433.433 0 0 1-.061 0 .422.422 0 0 1-.357-.478 1.189 1.189 0 0 0-1.349-1.348.422.422 0 0 1-.121-.835 2.033 2.033 0 0 1 2.305 2.305.422.422 0 0 1-.417.356z" class="cls-2" data-name="Path 696" transform="translate(-273.506 -134.229)"/>
        <path id="Path_697" d="M289.836 86.69h-.036a.422.422 0 0 1-.389-.452 2.684 2.684 0 0 0-2.878-2.878.422.422 0 0 1-.063-.842 3.529 3.529 0 0 1 3.783 3.783.422.422 0 0 1-.417.389z" class="cls-2" data-name="Path 697" transform="translate(-277.751 -80.113)"/>
    </g>
</svg>
