<svg xmlns="http://www.w3.org/2000/svg" width="45.175" height="53.26" viewBox="0 0 45.175 53.26">
    <defs>
        <style>
            .cls-1{fill:#d1d1d1}
        </style>
    </defs>
    <g id="profile" transform="translate(-149.5 -176.9)">
        <path id="Path_895" d="M192.251 424.276a2.422 2.422 0 0 1-2.424-2.424v-5.376a8.337 8.337 0 0 0-8.328-8.328h-18.823a8.337 8.337 0 0 0-8.328 8.328v5.376a2.424 2.424 0 0 1-4.848 0v-5.376a13.191 13.191 0 0 1 13.176-13.176H181.5a13.191 13.191 0 0 1 13.176 13.176v5.376a2.431 2.431 0 0 1-2.425 2.424z" class="cls-1" data-name="Path 895" transform="translate(0 -194.116)"/>
        <path id="Path_896" d="M228.576 203.252a13.176 13.176 0 1 1 13.176-13.176 13.191 13.191 0 0 1-13.176 13.176zm0-22.031a8.855 8.855 0 1 0 8.855 8.855 8.873 8.873 0 0 0-8.855-8.855z" class="cls-1" data-name="Path 896" transform="translate(-56.503)"/>
    </g>
</svg>
