<svg xmlns="http://www.w3.org/2000/svg" id="return" width="140" height="140" viewBox="0 0 140 140">
    <defs>
        <style>
            .return-2{fill:#f4f4f4}.return-3{fill:#acb1b8}
        </style>
    </defs>
    <g id="Group_2173" data-name="Group 2173" transform="translate(-661.604 -308.045)">
        <g id="Untitled-6" transform="translate(674.477 313.112)">
            <path id="Path_791" d="M.462 55.963C-.757 29.278 37.576-4.941 70.858.609c35.232 5.9 65.193 71.128 31.79 96.041C69.244 121.681 1.387 111.915.462 55.963z" class="return-2" data-name="Path 791" transform="translate(-3.713 17.23)"/>
            <path id="Path_792" d="M.423 20.672c1.889 3.66 32.942-4.841 36.13-10.981S24.038-1.408 15.419.363-2.056 15.949.423 20.672z" class="return-2" data-name="Path 792" transform="translate(17.905)"/>
        </g>
        <g id="_12-Return" data-name="12-Return" transform="translate(684.139 350.488)">
            <g id="filled">
                <path id="Path_785" d="M78.934 132H54.072a2.072 2.072 0 1 0 0 4.144h24.862a2.072 2.072 0 1 0 0-4.144z" class="return-3" data-name="Path 785" transform="translate(-43.713 -109.9)"/>
                <path id="Path_786" d="M62.359 180h-8.287a2.072 2.072 0 1 0 0 4.144h8.287a2.072 2.072 0 0 0 0-4.144z" class="return-3" data-name="Path 786" transform="translate(-43.713 -149.613)"/>
                <path id="Path_787" d="M79.968 45.354V6.072A2.072 2.072 0 0 0 77.9 4H6.072A2.072 2.072 0 0 0 4 6.072v58.012a2.072 2.072 0 0 0 2.072 2.072H48.3a21.409 21.409 0 1 0 31.668-20.8zM75.824 43.6a21.4 21.4 0 0 0-15.194 1.055V8.144h15.194zM39.912 8.144v8.866l-5.559-1.853a2.072 2.072 0 0 0-1.31 0l-5.562 1.853V8.144zM8.144 46.818h31.768v6.906H8.144zm0 11.05h33.84a2.072 2.072 0 0 0 2.072-2.068V44.747a2.072 2.072 0 0 0-2.072-2.072H8.144V8.144h15.193v11.74a2.086 2.086 0 0 0 2.727 1.966l7.636-2.544 7.632 2.544a2.086 2.086 0 0 0 2.727-1.966V8.144h12.428v39.035A21.4 21.4 0 0 0 48.3 62.012H8.144zm61.465 23.481a17.266 17.266 0 1 1 17.265-17.265 17.265 17.265 0 0 1-17.265 17.265z" class="return-3" data-name="Path 787" transform="translate(-4 -4)"/>
                <path id="Path_788" fill="#f0b440" d="M339.884 295.337h-9.669a2.074 2.074 0 0 1-2.072-2.072v-5.525a2.074 2.074 0 0 1 2.072-2.072h4.667l-1.988 1.988a2.072 2.072 0 1 0 2.93 2.93l5.525-5.525a2.072 2.072 0 0 0 0-2.93l-5.525-5.525a2.072 2.072 0 1 0-2.93 2.93l1.988 1.988h-4.667a6.222 6.222 0 0 0-6.215 6.217v5.525a6.223 6.223 0 0 0 6.216 6.216h9.669a2.072 2.072 0 1 0 0-4.144z" data-name="Path 788" transform="translate(-268.75 -229.038)"/>
            </g>
        </g>
    </g>
</svg>
