<svg xmlns="http://www.w3.org/2000/svg" id="Returns" width="24" height="24" viewBox="0 0 24 24">
    <defs>
        <style>
            .cls-2{fill:#172840}
        </style>
    </defs>
    <g id="return" transform="translate(.407 -70.435)">
        <g id="Group_1774" data-name="Group 1774" transform="translate(4.769 74.435)">
            <path id="Path_666" d="M117.912 87.286h-11.906a.652.652 0 1 1 0-1.3h11.905a4.549 4.549 0 0 0 4.544-4.544v-1.159a4.549 4.549 0 0 0-4.544-4.544h-3.845v1.9h3.845a.652.652 0 1 1 0 1.3h-4.5a.652.652 0 0 1-.652-.652v-3.2a.652.652 0 0 1 .652-.652h4.5a5.855 5.855 0 0 1 5.848 5.848v1.154a5.855 5.855 0 0 1-5.847 5.849z" class="cls-2" data-name="Path 666" transform="translate(-105.354 -74.435)"/>
            <path id="Path_667" d="M257.175 193.677h-5.3a.652.652 0 1 1 0-1.3h5.3a1.371 1.371 0 0 0 1.336-1.336v-1.154a.652.652 0 1 1 1.3 0v1.154a2.676 2.676 0 0 1-2.636 2.636z" class="cls-2" data-name="Path 667" transform="translate(-244.618 -184.034)"/>
        </g>
        <path id="Path_668" fill="#f0b440" d="M22.819 202.141l-8.408-5.241 8.408-5.239z" data-name="Path 668" transform="translate(-13.759 -111.922)"/>
        <path id="Path_669" d="M9.06 189.035a.651.651 0 0 1-.345-.1L.307 183.7a.652.652 0 0 1 0-1.107l8.408-5.239a.652.652 0 0 1 1 .554v10.478a.652.652 0 0 1-.652.652zm-7.175-5.891l6.522 4.064v-8.128z" class="cls-2" data-name="Path 669" transform="translate(0 -98.164)"/>
    </g>
</svg>
