<svg xmlns="http://www.w3.org/2000/svg" width="24" height="24" viewBox="0 0 24 24">
  <g id="Group_3025" data-name="Group 3025" transform="translate(-938 -239)">
    <rect id="Rectangle_265" data-name="Rectangle 265" width="24" height="24" transform="translate(938 239)" fill="#871c1c" opacity="0"/>
    <g id="shopping-cart_1_" data-name="shopping-cart (1)" transform="translate(939.197 239.336)">
      <path id="Path_1870" data-name="Path 1870" d="M34.83,4.972a.69.69,0,0,0-.689-.661H30.555V.69a.69.69,0,0,0-.69-.69h-6a.69.69,0,0,0-.69.69V4.311H19.59a.69.69,0,0,0-.689.661l-.69,16.623a.69.69,0,0,0,.689.718h8.909a.69.69,0,0,0,0-1.379h-8.19L20.251,5.69h2.924v1.8a.69.69,0,1,0,1.379,0V5.69h4.621v1.8a.69.69,0,1,0,1.379,0V5.69H33.48l.084,2.019a.69.69,0,0,0,.689.661h.029a.69.69,0,0,0,.66-.718ZM24.555,4.311V1.379h4.621V4.311Z" transform="translate(-18.21 0)" fill="#172840"/>
      <path id="Path_1871" data-name="Path 1871" d="M271.517,233.743a3.172,3.172,0,0,1-2.869-1.817h-1.49a3.174,3.174,0,0,1-4.19,1.529v6.078c0,2.485,4.936,4.518,4.936,4.518s4.936-2.033,4.936-4.518v-6.078A3.16,3.16,0,0,1,271.517,233.743Z" transform="translate(-251.769 -221.314)" fill="#f0b440"/>
      <path id="Path_1872" data-name="Path 1872" d="M253.521,230.356a.689.689,0,0,1-.263-.052,16.771,16.771,0,0,1-2.587-1.39c-1.842-1.223-2.776-2.489-2.776-3.766v-6.078a.69.69,0,0,1,.977-.627,2.463,2.463,0,0,0,1.034.225,2.5,2.5,0,0,0,2.245-1.423.69.69,0,0,1,.623-.394h1.49a.69.69,0,0,1,.623.394,2.5,2.5,0,0,0,2.245,1.423,2.462,2.462,0,0,0,1.034-.225.69.69,0,0,1,.977.627v6.078c0,1.276-.934,2.543-2.776,3.766a16.771,16.771,0,0,1-2.586,1.39A.689.689,0,0,1,253.521,230.356ZM249.275,220v5.151c0,1.541,2.906,3.165,4.246,3.767,1.34-.6,4.246-2.23,4.246-3.767V220a3.869,3.869,0,0,1-3.908-1.766h-.676A3.869,3.869,0,0,1,249.275,220Z" transform="translate(-237.387 -206.93)" fill="#172840"/>
    </g>
  </g>
</svg>
