<svg xmlns="http://www.w3.org/2000/svg" width="140" height="140" viewBox="0 0 140 140"><rect width="140" height="140" fill="#fff" opacity="0"/><g transform="translate(-400.313 -240)"><g transform="matrix(-0.017, 1, -1, -0.017, 545.854, 268.9)"><path d="M16.17,126.622C-3.084,109.67-6.807,53.342,14.042,28.05c22.126-26.8,89.675-3.555,90.1,42.382S35.743,143.712,16.17,126.622Z" transform="translate(0 2.99)" fill="#f4f4f4"/><path d="M42.348.711c-7.936-3.08-14.451,4.5-13.74,9.476s16.464,2.843,18.478.474C49.1,8.173,44.48,1.54,42.348.711Z" transform="matrix(0.695, -0.719, 0.719, 0.695, -28.305, 48.133)" fill="#f4f4f4"/></g><g transform="translate(413.75 222.879)"><path d="M108.859,71.53a7.636,7.636,0,0,0-6.006-2.881H81.572L73.4,50.357a3.237,3.237,0,1,0-5.933,2.591l7.038,15.7H35.992l6.756-15.7a3.237,3.237,0,1,0-5.933-2.591L28.927,68.649H7.647A7.635,7.635,0,0,0,1.64,71.53,7.454,7.454,0,0,0,.19,77.87l11.364,49.638a7.585,7.585,0,0,0,7.456,5.887H91.488a7.585,7.585,0,0,0,7.456-5.887l11.364-49.639a7.454,7.454,0,0,0-1.45-6.34ZM91.488,126.92H19.011a1.158,1.158,0,0,1-1.145-.857L6.5,76.425a.989.989,0,0,1,.2-.86,1.175,1.175,0,0,1,.943-.441H26.1l-.848,1.942a3.237,3.237,0,1,0,5.933,2.592l1.98-4.533h44.17l1.98,4.533a3.237,3.237,0,0,0,5.933-2.592L84.4,75.124h18.453a1.176,1.176,0,0,1,.943.441.989.989,0,0,1,.2.86L92.634,126.063a1.158,1.158,0,0,1-1.145.857Z" fill="#acb1b8"/><path d="M154.237,266.717A3.237,3.237,0,0,0,151,269.954v23.74a3.237,3.237,0,1,0,6.475,0v-23.74A3.237,3.237,0,0,0,154.237,266.717Z" transform="translate(-118.411 -177.565)" fill="#acb1b8"/><path d="M244.237,266.717A3.237,3.237,0,0,0,241,269.954v23.74a3.237,3.237,0,1,0,6.475,0v-23.74A3.237,3.237,0,0,0,244.237,266.717Z" transform="translate(-188.988 -177.565)" fill="#acb1b8"/><path d="M334.237,266.717A3.237,3.237,0,0,0,331,269.954v23.74a3.237,3.237,0,1,0,6.475,0v-23.74A3.237,3.237,0,0,0,334.237,266.717Z" transform="translate(-259.564 -177.565)" fill="#acb1b8"/></g><g transform="translate(412.418 247.514)"><path d="M228.724,11.44a2.724,2.724,0,0,0,2.724-2.724V2.724a2.724,2.724,0,0,0-5.448,0V8.716A2.724,2.724,0,0,0,228.724,11.44Z" transform="translate(-171.867)" fill="#f0b440"/><path d="M134.129,46.705l4.59,3.852a2.724,2.724,0,0,0,3.5-4.173l-4.59-3.852a2.724,2.724,0,0,0-3.5,4.173Z" transform="translate(-95.882 -34.288)" fill="#f0b440"/><path d="M298.039,50.558l4.59-3.852a2.724,2.724,0,0,0-3.5-4.173l-4.59,3.852a2.724,2.724,0,0,0,3.5,4.173Z" transform="translate(-227.162 -34.288)" fill="#f0b440"/></g></g></svg>