<svg xmlns="http://www.w3.org/2000/svg" width="16" height="16" viewBox="0 0 16 16">
  <g id="Group_2653" data-name="Group 2653" transform="translate(4797 -11265)">
    <rect id="Rectangle_260" data-name="Rectangle 260" width="16" height="16" transform="translate(-4797 11281) rotate(-90)" fill="#fff" opacity="0"/>
    <g id="delete" transform="translate(-4806.027 11256.045)">
      <path id="Path_1047" data-name="Path 1047" d="M140.276,130.185l-2.451-2.451a.758.758,0,0,0-1.072,0l-2.747,2.747-2.747-2.747a.758.758,0,0,0-1.072,0l-2.451,2.451a.758.758,0,0,0,0,1.072L130.483,134l-2.747,2.747a.758.758,0,0,0,0,1.072l2.451,2.451a.758.758,0,0,0,1.072,0l2.747-2.747,2.747,2.747a.758.758,0,0,0,1.072,0l2.451-2.451a.758.758,0,0,0,0-1.072L137.529,134l2.747-2.747A.758.758,0,0,0,140.276,130.185Zm-4.355,3.283a.758.758,0,0,0,0,1.072l2.747,2.747-1.379,1.379-2.747-2.747a.758.758,0,0,0-1.072,0l-2.747,2.747-1.379-1.379,2.747-2.747a.758.758,0,0,0,0-1.072l-2.747-2.747,1.379-1.379,2.747,2.747a.758.758,0,0,0,1.072,0l2.747-2.747,1.379,1.379Z" transform="translate(-116.987 -117.057)" fill="#fe1743"/>
    </g>
  </g>
</svg>
