<svg xmlns="http://www.w3.org/2000/svg" width="18.55" height="16.232" viewBox="0 0 18.55 16.232">
  <g id="store" transform="translate(0 -32)">
    <g id="Group_2706" data-name="Group 2706" transform="translate(0 32)">
      <g id="Group_2705" data-name="Group 2705" transform="translate(0 0)">
        <path id="Path_1067" data-name="Path 1067" d="M18.533,37.077l-1.049-4.2A1.159,1.159,0,0,0,16.359,32H2.192a1.161,1.161,0,0,0-1.126.878l-1.049,4.2a.567.567,0,0,0-.017.14,2.832,2.832,0,0,0,2.754,2.9,2.705,2.705,0,0,0,2.174-1.121,2.668,2.668,0,0,0,4.348,0,2.668,2.668,0,0,0,4.348,0A2.7,2.7,0,0,0,15.8,40.116a2.832,2.832,0,0,0,2.754-2.9A.567.567,0,0,0,18.533,37.077Z" transform="translate(0 -32)" fill="#fff"/>
      </g>
    </g>
    <g id="Group_2708" data-name="Group 2708" transform="translate(1.159 40.593)">
      <g id="Group_2707" data-name="Group 2707" transform="translate(0 0)">
        <path id="Path_1068" data-name="Path 1068" d="M46.637,269.866a3.793,3.793,0,0,1-2.174-.682,3.9,3.9,0,0,1-4.348,0,3.9,3.9,0,0,1-4.348,0,3.764,3.764,0,0,1-3.768.321v6.158a1.16,1.16,0,0,0,1.159,1.159H37.8v-4.638h4.638v4.638h4.638a1.16,1.16,0,0,0,1.159-1.159v-6.158A3.761,3.761,0,0,1,46.637,269.866Z" transform="translate(-32 -269.184)" fill="#fff"/>
      </g>
    </g>
  </g>
</svg>
