<svg xmlns="http://www.w3.org/2000/svg" width="16" height="16" viewBox="0 0 16 16">
  <g id="Group_2720" data-name="Group 2720" transform="translate(-770 -552)">
    <rect id="Rectangle_341" data-name="Rectangle 341" width="16" height="16" transform="translate(770 552)" fill="#aa3d3d" opacity="0"/>
    <g id="store_1_" data-name="store (1)" transform="translate(770 520.941)">
      <g id="Group_2717" data-name="Group 2717" transform="translate(0 32)">
        <g id="Group_2716" data-name="Group 2716" transform="translate(0 0)">
          <path id="Path_1071" data-name="Path 1071" d="M15.985,36.379l-.905-3.622A1,1,0,0,0,14.11,32H1.891a1,1,0,0,0-.971.757L.015,36.379A.489.489,0,0,0,0,36.5,2.443,2.443,0,0,0,2.375,39a2.334,2.334,0,0,0,1.875-.967,2.3,2.3,0,0,0,3.75,0,2.3,2.3,0,0,0,3.75,0A2.332,2.332,0,0,0,13.625,39,2.443,2.443,0,0,0,16,36.5.489.489,0,0,0,15.985,36.379Z" transform="translate(0 -32)" fill="#172840"/>
        </g>
      </g>
      <g id="Group_2719" data-name="Group 2719" transform="translate(1 39.412)">
        <g id="Group_2718" data-name="Group 2718" transform="translate(0 0)">
          <path id="Path_1072" data-name="Path 1072" d="M44.625,269.772a3.272,3.272,0,0,1-1.875-.588,3.365,3.365,0,0,1-3.75,0,3.365,3.365,0,0,1-3.75,0,3.246,3.246,0,0,1-3.25.277v5.311a1,1,0,0,0,1,1h4v-4h4v4h4a1,1,0,0,0,1-1v-5.311A3.244,3.244,0,0,1,44.625,269.772Z" transform="translate(-32 -269.184)" fill="#172840"/>
        </g>
      </g>
    </g>
  </g>
</svg>
