<svg xmlns="http://www.w3.org/2000/svg" id="store" width="24" height="24" viewBox="0 0 24 24">
    <g id="store-2" data-name="store" transform="translate(1.266 -31.524)">
        <g id="Group_1773" data-name="Group 1773" transform="translate(.618 35.572)">
            <path id="Path_661" fill="#f0b440" d="M33.3 50.126H16.677a1.505 1.505 0 0 0-1.505 1.505v4.129a1.963 1.963 0 0 0 1.963 1.963A1.963 1.963 0 0 0 19.1 55.76a1.963 1.963 0 0 0 1.963 1.963 1.963 1.963 0 0 0 1.963-1.963 1.963 1.963 0 0 0 1.963 1.963 1.963 1.963 0 0 0 1.963-1.963 1.963 1.963 0 0 0 1.963 1.963 1.963 1.963 0 0 0 1.963-1.963 1.963 1.963 0 0 0 1.963 1.963 1.963 1.963 0 0 0 1.963-1.963v-4.129a1.505 1.505 0 0 0-1.504-1.505z" data-name="Path 661" transform="translate(-15.172 -50.126)"/>
        </g>
        <path id="Path_662" fill="#172840" d="M18.747 34.954H2.124A2.126 2.126 0 0 0 0 37.078v4.129a2.583 2.583 0 0 0 1.257 2.215v8.935a.618.618 0 0 0 .618.618H19a.619.619 0 0 0 .618-.618v-6.242a.618.618 0 0 0-1.237 0v5.623h-4.7v-5.3a.619.619 0 0 0-.618-.618H7.815a.618.618 0 0 0-.618.618v2.288a.618.618 0 0 0 1.237 0v-1.67h4v4.681h-9.94v-7.951h.088a2.577 2.577 0 0 0 1.963-.907 2.579 2.579 0 0 0 3.927 0 2.579 2.579 0 0 0 3.927 0 2.579 2.579 0 0 0 3.927 0 2.581 2.581 0 0 0 4.545-1.675v-4.126a2.126 2.126 0 0 0-2.124-2.124zm.887 6.252a1.345 1.345 0 0 1-2.69 0v-1.8a.618.618 0 0 0-1.237 0v1.8a1.345 1.345 0 0 1-2.69 0v-2.975a.618.618 0 0 0-1.237 0v2.975a1.345 1.345 0 0 1-2.69 0v-1.8a.618.618 0 0 0-1.237 0v1.8a1.345 1.345 0 0 1-2.69 0v-2.975a.618.618 0 0 0-1.237 0v2.975a1.345 1.345 0 0 1-2.69 0v-4.128a.888.888 0 0 1 .887-.887h16.624a.888.888 0 0 1 .887.887v4.129z" data-name="Path 662"/>
    </g>
</svg>
