<svg xmlns="http://www.w3.org/2000/svg" width="15.605" height="16.792" viewBox="0 0 15.605 16.792">
  <g id="Group_4107" data-name="Group 4107" transform="translate(-81.179 -107.459)">
    <g id="set" transform="translate(81.679 108)">
      <g id="Group_4105" data-name="Group 4105" transform="translate(0 0)">
        <g id="Group_4104" data-name="Group 4104" transform="translate(0)">
          <path id="Path_1848" data-name="Path 1848" d="M30.908,2.7,26.977.444a3.384,3.384,0,0,0-3.352,0L19.7,2.7A3.381,3.381,0,0,0,18,5.622v4.465a3.381,3.381,0,0,0,1.7,2.927l3.931,2.252a3.384,3.384,0,0,0,3.352,0l3.931-2.252a3.381,3.381,0,0,0,1.7-2.927V5.622A3.381,3.381,0,0,0,30.908,2.7Z" transform="translate(-17.999 0)" fill="#2498fe" stroke="#fff" stroke-width="1"/>
        </g>
      </g>
    </g>
    <path id="Path_1849" data-name="Path 1849" d="M182.669,195.768l-2.811,2.812-.923-.923a.842.842,0,0,0-1.19,1.191l1.518,1.519a.842.842,0,0,0,1.19,0l3.406-3.407a.842.842,0,1,0-1.19-1.191Z" transform="translate(-91.82 -82.211)" fill="#fff"/>
  </g>
</svg>
