<svg xmlns="http://www.w3.org/2000/svg" width="140.388" height="140" viewBox="0 0 140.388 140">
  <g id="Empty_Shopping" data-name="Empty Shopping" transform="translate(0.388)">
    <rect id="Rectangle_266" data-name="Rectangle 266" width="140" height="140" fill="#fff" opacity="0"/>
    <g id="Group_2165" data-name="Group 2165" transform="translate(-400.313 -240)">
      <g id="Untitled-2" transform="matrix(-0.017, 1, -1, -0.017, 545.854, 268.9)">
        <path id="Path_729" data-name="Path 729" d="M3.163,127.178C-27.924,94.885-6.807,53.342,14.042,28.05c22.126-26.8,92.287-12.413,90.1,42.382S34.251,159.471,3.163,127.178Z" transform="translate(95.577 155.586) rotate(177)" fill="#f4f4f4"/>
        <path id="Path_730" data-name="Path 730" d="M42.348.711c-7.936-3.08-14.451,4.5-13.74,9.476s16.464,2.843,18.478.474C49.1,8.173,44.48,1.54,42.348.711Z" transform="translate(-28.963 29.291) rotate(-28)" fill="#f4f4f4"/>
      </g>
      <g id="route" transform="translate(420.549 257.236)">
        <path id="Path_1073" data-name="Path 1073" d="M56.576,0H0V50.336H56.576ZM25.168,6.24h6.24v6.24h-6.24ZM50.336,44.1H6.24V6.24H18.928V18.72h18.72V6.24H50.336Z" fill="#f0b440"/>
        <path id="Path_1074" data-name="Path 1074" d="M91,120h18.72v6.24H91Z" transform="translate(-72.072 -95.04)" fill="#f0b440"/>
        <path id="Path_1075" data-name="Path 1075" d="M371.36,272a9.36,9.36,0,1,0,9.36,9.36A9.371,9.371,0,0,0,371.36,272Zm0,12.48a3.12,3.12,0,1,1,3.12-3.12A3.124,3.124,0,0,1,371.36,284.48Z" transform="translate(-286.704 -215.424)" fill="#acb1b8"/>
        <path id="Path_1076" data-name="Path 1076" d="M84.656,212a21.865,21.865,0,0,0-21.84,21.84c0,8.427,5.118,14.665,10.068,20.7,3.681,4.487,7.193,8.768,8.3,13.621H15.6a9.36,9.36,0,0,1,0-18.72H44.1a12.48,12.48,0,1,0,0-24.96H28.288v6.24H44.1a6.24,6.24,0,0,1,0,12.48H15.6a15.6,15.6,0,0,0,0,31.2H87.776v-3.12c0-6.195,4.2-11.317,8.652-16.741,4.95-6.033,10.068-12.272,10.068-20.7A21.865,21.865,0,0,0,84.656,212ZM91.6,250.581a67.23,67.23,0,0,0-6.948,9.555,67.243,67.243,0,0,0-6.948-9.555c-4.45-5.424-8.652-10.546-8.652-16.741a15.6,15.6,0,1,1,31.2,0C100.255,240.034,96.053,245.157,91.6,250.581Z" transform="translate(0 -167.904)" fill="#acb1b8"/>
      </g>
    </g>
  </g>
</svg>
