<svg xmlns="http://www.w3.org/2000/svg" width="24" height="24" viewBox="0 0 24 24">
  <g id="Group_3026" data-name="Group 3026" transform="translate(-937 -244)">
    <rect id="Rectangle_265" data-name="Rectangle 265" width="24" height="24" transform="translate(937 244)" fill="#871c1c" opacity="0"/>
    <g id="truck" transform="translate(938.441 249.846)">
      <g id="Group_3024" data-name="Group 3024" transform="translate(2.344 0.914)">
        <ellipse id="Ellipse_35" data-name="Ellipse 35" cx="1.951" cy="1.951" rx="1.951" ry="1.951" transform="translate(0 8.304)" fill="#f0b440"/>
        <path id="Path_1873" data-name="Path 1873" d="M243.636,111.5v9.976h2.279a1.951,1.951,0,0,1,3.861,0h2.289V111.5Z" transform="translate(-235.977 -111.498)" fill="#f0b440"/>
      </g>
      <path id="Path_1874" data-name="Path 1874" d="M20.447,95.368H19v-.879h.869a.573.573,0,0,0,0-1.147H19v-.879H19.3a.573.573,0,0,0,0-1.147H19V90.155a.574.574,0,0,0-.573-.573H10a.574.574,0,0,0-.573.573v9.4h-1.4v-2.9a.573.573,0,1,0-1.147,0v2.9H6.671a2.524,2.524,0,0,0-4.752,0H1.535a.389.389,0,0,1-.388-.388V97.246a.388.388,0,0,1,.139-.3l.031-.028L2.7,95.573H4.8a.573.573,0,0,0,0-1.147H3.232l1.042-2.748a2.2,2.2,0,0,1,1.992-1.29l.618,0v2.325a.573.573,0,0,0,1.147,0v-2.9a.573.573,0,0,0-.571-.573l-1.193-.006a3.352,3.352,0,0,0-3.046,1.984l-.012.03L1.869,94.785.53,96.086A1.532,1.532,0,0,0,0,97.246v1.923A1.537,1.537,0,0,0,1.535,100.7h.253a2.524,2.524,0,0,0,5.013,0h4.9a2.528,2.528,0,0,0,2.506,2.229.573.573,0,0,0,0-1.147,1.376,1.376,0,0,1-1.363-1.575h0c.006-.04.013-.08.023-.119l0-.009q.014-.056.032-.11l0-.011q.019-.055.042-.107l0-.006a1.389,1.389,0,0,1,1.007-.795h0c.039-.007.079-.013.119-.017h.009c.04,0,.08-.006.12-.006s.081,0,.12.006h.009c.04,0,.08.009.119.017h0a1.389,1.389,0,0,1,1.007.794l0,.006q.023.052.042.107l0,.011c.012.036.023.073.032.11l0,.01c.009.039.017.078.023.118h0a1.385,1.385,0,0,1,.014.2.573.573,0,0,0,1.065.295h1.777a.574.574,0,0,0,.573-.573V96.515h1.443a.573.573,0,1,0,0-1.147ZM4.295,101.787a1.377,1.377,0,1,1,1.377-1.377A1.379,1.379,0,0,1,4.295,101.787Zm13.563-2.229h-1.27c-.01-.029-.022-.058-.033-.086l0-.007q-.018-.044-.037-.087h0a2.53,2.53,0,0,0-1.974-1.469L14.5,97.9l-.057-.006-.068-.005-.044,0-.116,0-.116,0-.044,0-.068.005-.057.006-.043.005a2.53,2.53,0,0,0-1.974,1.469h0q-.019.043-.037.087l0,.008c-.011.028-.023.057-.033.085h-1.26V90.728h7.282v.588H16.606a.573.573,0,0,0,0,1.147h1.252v.879H17.18a.573.573,0,0,0,0,1.147h.678v.879h-.1a.573.573,0,0,0,0,1.147h.1v3.042h0Z" transform="translate(0 -89.241)" fill="#172840"/>
    </g>
  </g>
</svg>
