<svg xmlns="http://www.w3.org/2000/svg" width="16.691" height="13.357" viewBox="0 0 16.691 13.357">
    <g id="twitter">
        <g id="Group_30" data-name="Group 30">
            <path id="Path_16" fill="#fff" d="M109.792 129.913v.446a9.6 9.6 0 0 1-9.747 9.6 9.777 9.777 0 0 1-5.245-1.508c.276.021.531.042.807.042a6.84 6.84 0 0 0 4.247-1.444 3.422 3.422 0 0 1-3.207-2.336 3.241 3.241 0 0 0 .637.064 3.164 3.164 0 0 0 .913-.127 3.394 3.394 0 0 1-2.7-3.313v-.042a3.284 3.284 0 0 0 1.529.425 3.33 3.33 0 0 1-1.062-4.5 9.811 9.811 0 0 0 7.05 3.525 3.125 3.125 0 0 1-.085-.764 3.394 3.394 0 0 1 3.419-3.376 3.48 3.48 0 0 1 2.506 1.062 6.376 6.376 0 0 0 2.166-.828 3.457 3.457 0 0 1-1.508 1.869 6.785 6.785 0 0 0 1.975-.531 6.973 6.973 0 0 1-1.695 1.736z" data-name="Path 16" transform="translate(-94.8 -126.6)"/>
        </g>
    </g>
</svg>
