<svg xmlns="http://www.w3.org/2000/svg" width="34" height="34" viewBox="0 0 34 34"><g fill="#fff" stroke="#d1d1d1" stroke-width="1"><circle cx="17" cy="17" r="17" stroke="none"/><circle cx="17" cy="17" r="16.5" fill="none"/></g><g transform="translate(9.563 9.803)"><path d="M12.256,2.09a7.194,7.194,0,0,0-10.139,0A7.062,7.062,0,0,0,0,7.13v0H0A7.1,7.1,0,0,0,.876,10.5L.02,14.394l3.936-.9a7.2,7.2,0,0,0,3.231.768h0a7.171,7.171,0,0,0,5.073-2.089A7.057,7.057,0,0,0,12.256,2.09ZM7.19,13.143h0A6.072,6.072,0,0,1,4.3,12.412l-.186-.1-2.617.6.569-2.584-.11-.189a6.005,6.005,0,0,1-.833-3A6.065,6.065,0,0,1,11.463,2.886a5.972,5.972,0,0,1,1.794,4.249A6.046,6.046,0,0,1,7.19,13.143Zm0,0" transform="translate(0)" fill="#172840"/><path d="M140.2,141.863h-.315a.605.605,0,0,0-.439.205,1.835,1.835,0,0,0-.576,1.367,3.184,3.184,0,0,0,.672,1.7,6.742,6.742,0,0,0,2.809,2.474c1.389.546,1.672.437,1.974.41a1.661,1.661,0,0,0,1.11-.779,1.367,1.367,0,0,0,.1-.779c-.041-.068-.151-.109-.315-.191s-.971-.485-1.121-.54-.26-.082-.37.082-.433.543-.529.652-.192.123-.356.041a4.547,4.547,0,0,1-1.317-.817,5.039,5.039,0,0,1-.924-1.153c-.1-.164-.01-.253.072-.334s.174-.174.256-.269a1.108,1.108,0,0,0,.16-.273.3.3,0,0,0-.014-.287c-.041-.082-.357-.893-.5-1.217h0c-.123-.273-.253-.282-.37-.287Zm0,0" transform="translate(-134.963 -137.875)" fill="#172840"/></g></svg>